<?xml version="1.0" encoding="utf-8"?>
<!-- Generator: Adobe Illustrator 27.5.0, SVG Export Plug-In . SVG Version: 6.00 Build 0)  -->
<svg version="1.1" xmlns="http://www.w3.org/2000/svg" xmlns:xlink="http://www.w3.org/1999/xlink" x="0px" y="0px"
	 viewBox="0 0 750 500" style="enable-background:new 0 0 750 500;" xml:space="preserve">
<g id="BACKGROUND">
	<rect x="0.218" style="fill:#DBEAF4;" width="749.999" height="500"/>
</g>
<g id="OBJECTS">
	<g>
		<g>
			<path style="fill:#E6F5FA;" d="M582.123,301.815c0-118.763-96.277-215.04-215.04-215.04s-215.04,96.277-215.04,215.04
				c0,49.859,16.974,95.75,45.451,132.222h339.179C565.149,397.565,582.123,351.674,582.123,301.815z"/>
		</g>
		<g>
			<g>
				<path style="fill:#E6F5FA;" d="M661.468,347.304h-55.556c-2.029,0-3.673-1.644-3.673-3.673l0,0c0-2.029,1.644-3.673,3.673-3.673
					h55.556c2.029,0,3.673,1.645,3.673,3.673l0,0C665.141,345.66,663.497,347.304,661.468,347.304z"/>
				<path style="fill:#E6F5FA;" d="M126.947,308.724h-61c-2.028,0-3.673-1.644-3.673-3.673l0,0c0-2.029,1.644-3.673,3.673-3.673h61
					c2.028,0,3.673,1.645,3.673,3.673l0,0C130.62,307.08,128.975,308.724,126.947,308.724z"/>
				<path style="fill:#90D3ED;" d="M673.357,392.271h-5.824c-1.53,0-2.771-1.241-2.771-2.771v-5.467c0-1.53,1.241-2.771,2.771-2.771
					h5.824c1.53,0,2.771,1.241,2.771,2.771v5.467C676.128,391.031,674.887,392.271,673.357,392.271z"/>
				<path style="fill:#90D3ED;" d="M111.438,364.708h-7.714c-2.027,0-3.67-1.643-3.67-3.67v-7.241c0-2.027,1.643-3.67,3.67-3.67
					h7.714c2.027,0,3.67,1.643,3.67,3.67v7.241C115.108,363.065,113.465,364.708,111.438,364.708z"/>
			</g>
			<g>
				
					<path style="fill:none;stroke:#FFFFFF;stroke-width:1.2926;stroke-linecap:round;stroke-linejoin:round;stroke-miterlimit:10;" d="
					M478.483,60.914h26.411c1.352,0,2.449,1.112,2.449,2.483v12.948c0,1.371-1.096,2.483-2.449,2.483h-13.621l-8.096,6.937v-6.57
					l-4.743-0.135c-1.333-0.027-2.4-1.131-2.4-2.483V63.397C476.034,62.026,477.131,60.914,478.483,60.914z"/>
				<path style="fill:none;stroke:#FFFFFF;stroke-width:1.2572;stroke-miterlimit:10;" d="M653.403,180.846
					c0,4.482-3.583,8.115-8.002,8.115s-8.002-3.633-8.002-8.115c0-4.482,3.583-8.115,8.002-8.115S653.403,176.364,653.403,180.846z"
					/>
				<path style="fill:none;stroke:#FFFFFF;stroke-width:1.2572;stroke-miterlimit:10;" d="M79.138,248.47
					c0,4.482-3.583,8.115-8.002,8.115c-4.42,0-8.002-3.633-8.002-8.115c0-4.482,3.583-8.115,8.002-8.115
					C75.555,240.355,79.138,243.988,79.138,248.47z"/>
			</g>
			<g>
				<g>
					<g>
						<path style="fill:#0083C8;" d="M296.803,73.26c0.304,0.355,0.887,0.139,0.885-0.329l-0.03-9.75V47.405
							c0-1.928-1.563-3.491-3.491-3.491h-42.476c-1.928,0-3.49,1.563-3.49,3.49v17.12c0,1.928,1.563,3.49,3.49,3.49h40.621
							L296.803,73.26z"/>
						<g>
							<path style="fill:#FFFFFF;" d="M264.934,56.101c0.004,1.172-0.944,2.125-2.116,2.129c-1.172,0.004-2.125-0.944-2.129-2.116
								c-0.004-1.172,0.944-2.125,2.116-2.129C263.977,53.981,264.93,54.929,264.934,56.101z"/>
							<path style="fill:#FFFFFF;" d="M274.037,56.072c0.004,1.172-0.943,2.125-2.116,2.129c-1.172,0.004-2.125-0.943-2.129-2.116
								c-0.004-1.172,0.944-2.125,2.116-2.129C273.08,53.953,274.033,54.9,274.037,56.072z"/>
							<path style="fill:#FFFFFF;" d="M283.141,56.044c0.004,1.172-0.944,2.125-2.116,2.129c-1.172,0.004-2.125-0.944-2.129-2.116
								c-0.004-1.172,0.943-2.125,2.116-2.129S283.137,54.872,283.141,56.044z"/>
						</g>
					</g>
				</g>
				<g>
					<g>
						<g>
							<g>
								<g>
									<g>
										<path style="fill:#0083C8;" d="M626.713,113.604h-49.678c-4.825,0-8.737-3.912-8.737-8.737V58.683
											c0-3.658,2.966-6.624,6.624-6.624h51.791c3.658,0,6.624,2.966,6.624,6.624v48.298
											C633.337,110.639,630.371,113.604,626.713,113.604z"/>
									</g>
								</g>
							</g>
						</g>
					</g>
					<g>
						<path style="fill:#FFFFFF;" d="M615.67,87.863l-3.86-3.86c-0.689-0.758-1.586-1.172-2.482-1.172
							c-0.896,0-1.792,0.414-2.482,1.103l-2.206,2.206c-0.138-0.069-0.276-0.138-0.414-0.207c-0.276-0.138-0.482-0.207-0.689-0.345
							c-2.068-1.31-3.929-3.033-5.721-5.239c-0.827-1.034-1.448-1.999-1.792-2.826c0.552-0.483,1.034-1.034,1.517-1.517
							c0.207-0.207,0.414-0.414,0.62-0.62c0.758-0.758,1.172-1.655,1.172-2.551c0-0.896-0.414-1.792-1.172-2.551l-1.93-1.93
							c-0.207-0.207-0.414-0.414-0.62-0.689c-0.414-0.414-0.896-0.896-1.31-1.31c-0.689-0.689-1.586-1.103-2.482-1.103
							c-0.896,0-1.723,0.345-2.482,1.103l-2.413,2.413c-0.896,0.896-1.448,2.068-1.585,3.378c-0.138,2.068,0.414,3.998,0.896,5.239
							c1.103,3.171,2.826,5.997,5.377,9.03c3.102,3.654,6.756,6.549,11.029,8.617c1.586,0.758,3.791,1.654,6.204,1.861
							c0.138,0,0.276,0,0.482,0c1.654,0,3.033-0.62,4.136-1.792c0,0,0,0,0.069-0.069c0.345-0.414,0.758-0.827,1.241-1.241
							c0.276-0.276,0.62-0.62,0.896-0.896C617.117,91.379,617.117,89.311,615.67,87.863z M614.084,91.448
							c-0.276,0.276-0.552,0.551-0.827,0.827c-0.483,0.414-0.896,0.896-1.379,1.379c-0.689,0.689-1.448,1.034-2.482,1.034
							c-0.138,0-0.207,0-0.345,0c-2.068-0.138-3.998-0.965-5.377-1.654c-3.929-1.93-7.376-4.619-10.271-8.065
							c-2.344-2.826-3.929-5.515-5.032-8.341c-0.689-1.654-0.965-2.964-0.827-4.274c0.069-0.758,0.345-1.448,0.965-1.999
							l2.344-2.344c0.207-0.207,0.552-0.482,0.965-0.482c0.414,0,0.689,0.207,0.965,0.482c0.414,0.414,0.827,0.827,1.241,1.241
							c0.207,0.207,0.414,0.483,0.689,0.689l1.93,1.93c0.207,0.207,0.483,0.62,0.483,0.965c0,0.414-0.276,0.758-0.483,0.965
							c-0.207,0.207-0.414,0.414-0.62,0.62c-0.62,0.62-1.172,1.172-1.723,1.723c0,0,0,0-0.069,0.069
							c-0.689,0.689-0.551,1.31-0.414,1.723v0.069c0.483,1.241,1.241,2.344,2.275,3.722c1.93,2.413,3.998,4.274,6.273,5.722
							c0.276,0.207,0.62,0.345,0.896,0.483s0.483,0.207,0.689,0.345l0.069,0.069c0.689,0.345,1.379,0.207,1.93-0.345l2.413-2.413
							c0.207-0.207,0.552-0.483,0.965-0.483c0.345,0,0.689,0.276,0.896,0.483l3.86,3.86
							C614.705,90.069,614.705,90.758,614.084,91.448z"/>
					</g>
				</g>
				<g>
					<g>
						<g>
							<g>
								<g>
									<g>
										<g>
											<path style="fill:#FFCC05;" d="M147.459,161.328h-55.68c-5.408,0-9.792-4.384-9.792-9.792V99.771
												c0-4.1,3.324-7.424,7.424-7.424h58.048c4.1,0,7.424,3.324,7.424,7.424v54.134
												C154.883,158.005,151.559,161.328,147.459,161.328z"/>
										</g>
									</g>
								</g>
							</g>
						</g>
					</g>
					<g>
						<path style="fill:#FFFFFF;" d="M104.56,112.571c-7.62,7.62-7.62,20.129,0,27.749c7.62,7.62,20.129,7.62,27.749,0
							c7.62-7.62,7.62-20.129,0-27.749C124.689,104.951,112.181,104.951,104.56,112.571z M132.264,115.397h-6.253
							c-0.627-1.964-1.435-3.928-2.431-5.893C127.043,110.555,130.058,112.638,132.264,115.397z M111.23,125.298
							c0.003-2.536,0.302-5.071,0.93-7.607h12.551c0.627,2.536,0.926,5.071,0.929,7.607H111.23z M125.563,127.593
							c-0.173,2.535-0.632,5.071-1.348,7.607h-11.56c-0.716-2.535-1.175-5.071-1.348-7.607H125.563z M118.435,108.744
							c0.943,0,1.869,0.074,2.772,0.216c1.202,2.146,2.144,4.291,2.845,6.437h-11.234c0.7-2.146,1.643-4.291,2.845-6.437
							C116.566,108.818,117.491,108.744,118.435,108.744z M113.29,109.504c-0.997,1.965-1.804,3.929-2.431,5.893h-6.253
							C106.812,112.638,109.826,110.554,113.29,109.504z M103.046,117.691h7.162c-0.628,2.536-0.957,5.071-1.003,7.607h-8.435
							C100.947,122.544,101.752,119.961,103.046,117.691z M103.046,135.2c-1.294-2.269-2.099-4.853-2.275-7.607h8.469
							c0.124,2.535,0.527,5.071,1.195,7.607H103.046z M104.605,137.495h6.507c0.649,1.988,1.456,3.976,2.418,5.964
							C109.966,142.433,106.863,140.317,104.605,137.495z M118.435,144.148c-0.786,0-1.56-0.051-2.319-0.151
							c-1.082-2.167-2.003-4.335-2.744-6.502h10.126c-0.741,2.168-1.663,4.335-2.744,6.502
							C119.995,144.096,119.221,144.148,118.435,144.148z M123.339,143.459c0.962-1.988,1.77-3.976,2.418-5.964h6.507
							C130.007,140.317,126.904,142.433,123.339,143.459z M133.823,135.2h-7.389c0.668-2.536,1.071-5.071,1.195-7.607h8.469
							C135.922,130.347,135.117,132.931,133.823,135.2z M136.098,125.298h-8.434c-0.046-2.536-0.376-5.071-1.003-7.607h7.162
							C135.117,119.961,135.922,122.544,136.098,125.298z"/>
					</g>
				</g>
				<g>
					<g>
						<g>
							<g>
								<g>
									<g>
										<g>
											<g>
												<path style="fill:#6FC7BF;" d="M682.811,300.419h-53.055c-5.153,0-9.331-4.177-9.331-9.331v-49.325
													c0-3.907,3.167-7.074,7.074-7.074h55.311c3.907,0,7.074,3.167,7.074,7.074v51.581
													C689.884,297.252,686.717,300.419,682.811,300.419z"/>
											</g>
										</g>
									</g>
								</g>
							</g>
						</g>
					</g>
					<g>
						<path style="fill:#FFFFFF;" d="M663.289,262.182c0-4.658-3.776-8.434-8.434-8.434c-4.658,0-8.434,3.776-8.434,8.434
							c0,4.658,3.776,8.434,8.434,8.434C659.511,270.611,663.284,266.838,663.289,262.182z M648.529,262.182
							c0-3.493,2.832-6.325,6.325-6.325c3.494,0,6.326,2.832,6.326,6.325c0,3.493-2.832,6.326-6.326,6.326
							C651.363,268.504,648.533,265.674,648.529,262.182z"/>
						<g>
							<path style="fill:#FFFFFF;" d="M654.004,287.053c0.344,0.47,1.003,0.572,1.473,0.228c0.087-0.064,0.164-0.141,0.228-0.228
								c0.085-0.117,0.487-0.667,1.096-1.533l6.224-9.625c2.891-4.931,5.535-10.356,5.535-13.712
								c0-7.569-6.136-13.705-13.705-13.705c-7.569,0-13.705,6.136-13.705,13.705c0,3.259,2.495,8.47,5.287,13.284l6.475,10.057
								C653.519,286.388,653.919,286.936,654.004,287.053z M654.855,250.586c6.405,0,11.597,5.192,11.597,11.597
								c0,5.045-7.709,16.96-11.597,22.443c-3.888-5.483-11.597-17.398-11.597-22.443
								C643.258,255.778,648.45,250.586,654.855,250.586z"/>
						</g>
					</g>
				</g>
			</g>
		</g>
	</g>
	<g>
		<g>
			<g>
				<g>
					<g>
						<g>
							<g>
								<path style="fill:#D97F48;" d="M165.518,245.516l-4.257,10.234c0,0,24.521,17.564,44.809,27.646
									c6.399,3.18,13.835-2.047,13.437-9.181c-0.004-0.073-0.008-0.147-0.012-0.22c-0.218-3.869-2.764-7.221-6.435-8.465
									C192.317,258.499,188.264,255.696,165.518,245.516z"/>
							</g>
							<path style="fill:#D97F48;" d="M164.503,256.664c0,0-21.209,9.348-29.007-4.215l32.164-7.983L164.503,256.664z"/>
						</g>
						<g>
							<g>
								<path style="fill:#D97F48;" d="M230.61,209.098c-10.14,17.367-22.369,42.226-29.087,61.168
									c-1.735,4.892,0.045,10.36,4.767,12.515c0.056,0.026,0.112,0.051,0.168,0.077c4.626,2.126,10.101,0.392,12.569-4.062
									c15.328-27.658,28.981-49.211,28.981-49.211L230.61,209.098z"/>
							</g>
							<path style="fill:#6FC7BF;" d="M231.026,204.308c0,0-15.238,3.236-27.983,40.856l28.683,17.015l10.576-21.003
								L231.026,204.308z"/>
						</g>
					</g>
					<g>
						<g>
							<path style="fill:#08101C;" d="M216.925,252.71h-33.1v-5.302h33.1c1.464,0,2.651,1.187,2.651,2.651l0,0
								C219.576,251.523,218.389,252.71,216.925,252.71z"/>
						</g>
						<g>
							<path style="fill:#111D36;" d="M196.985,252.69h-75.424c-1.765,0-3.326-1.146-3.855-2.829l-13.363-44.677
								c-0.58-1.847,0.799-3.727,2.735-3.727h71.518c1.765,0,3.326,1.146,3.855,2.829L196.985,252.69z"/>
							<path style="fill:#E6F5FA;" d="M153.461,225.303c0.559,3.106-1.505,6.077-4.61,6.636c-3.105,0.559-6.077-1.505-6.636-4.61
								c-0.559-3.105,1.505-6.077,4.61-6.636C149.931,220.133,152.902,222.197,153.461,225.303z"/>
						</g>
					</g>
				</g>
				<g>
					<g>
						<path style="fill:#D97F48;" d="M298.727,257.866c0,0,18.203,65.719,25.63,122.883l12.497-2.37c0,0-3.88-83.762-16.484-135.579
							L298.727,257.866z"/>
						<path style="fill:#D97F48;" d="M336.752,375.513c0,0,18.806,27.768-3.764,40.25c-1.487,0.822-3.365,0.487-4.465-0.808
							l-0.146-0.172c-1.214-1.429-1.076-3.523,0.241-4.858c3.206-3.25,7.518-9.985,0.646-18.782c0,0-3.607,0.92-3.003,8.082
							c0.155,1.843-1.375,3.396-3.216,3.221h0c-1.256-0.119-2.288-1.018-2.595-2.242c-1.183-4.721-3.141-16.43,4.406-22.72
							L336.752,375.513z"/>
					</g>
					<path style="fill:#6FC7BF;" d="M301.093,204.308c0,0,11.644,3.394,24.059,42.716l-28.683,17.015l-6.652-22.864L301.093,204.308
						z"/>
				</g>
				<g>
					<path style="fill:#6FC7BF;" d="M299.338,203.242l-21.607-8.601l-22.214,0.298l-22.289,8.17
						c-4.183,1.533-6.529,5.98-5.435,10.298l16.368,64.567h43.852l15.119-67.547C303.804,207.425,302.196,204.38,299.338,203.242z"
						/>
					<rect x="244.161" y="277.973" style="fill:#111D36;" width="43.852" height="7.017"/>
					
						<line style="fill:none;stroke:#51A99F;stroke-width:1.3684;stroke-miterlimit:10;" x1="237.611" y1="252.135" x2="230.085" y2="222.45"/>
					
						<line style="fill:none;stroke:#51A99F;stroke-width:1.3684;stroke-miterlimit:10;" x1="293.453" y1="253.671" x2="300.441" y2="222.45"/>
				</g>
			</g>
			<g>
				<path style="fill:#006AB8;" d="M288.013,284.991h-43.852c0,0-21.25,5.385-35.468,104.915c-2.167,15.17-4.036,29.957-5.65,44.133
					h41.413l18.295-91.857l4.002,1.053l6.753,90.804h38.908l0.813-49.054C313.227,384.984,309.721,305.144,288.013,284.991z"/>
				
					<line style="fill:none;stroke:#005A94;stroke-width:1.3684;stroke-miterlimit:10;" x1="266.753" y1="343.234" x2="253.126" y2="337.913"/>
			</g>
			<g>
				<path style="fill:#111D36;" d="M302.671,156.983c-1.94-7.361-2.646-6.045-9.172-20.685c-3.899-8.747-6.916-12.263-8.714-13.678
					l0,0c0,0-6.594-7.097-18.387-7.097c-11.261,0-17.782,6.743-17.782,6.743l0,0c-1.71,1.14-4.924,4.444-9.198,14.031
					c-6.526,14.641-7.232,13.324-9.172,20.685c-1.94,7.361,0.529,20.943,15.699,23.589c0,0-1.94-1.94-2.646-5.115
					c0,0,6.35,8.643,14.993,8.114h16.333c8.643,0.529,14.993-8.114,14.993-8.114c-0.706,3.175-2.646,5.115-2.646,5.115
					C302.141,177.927,304.611,164.344,302.671,156.983z"/>
				<path style="fill:#D97F48;" d="M286.674,198.201l-8.943-3.56l-2.7-23.529c0,0-2.787,2.841-6.485,3.528
					c-3.698,0.687-7.28-1.475-7.325-1.501c-0.045-0.026-3.02-2.504-3.02-2.504l-2.684,24.303l-9.745,3.572
					c0,0,0.629,6.331,21.241,6.331C287.623,204.842,286.674,198.201,286.674,198.201z"/>
				<path style="fill:#111D36;" d="M256.5,171.479c0,0,5.661,10.932,12.403,9.366c7.038-1.635,7.006-10.88,7.006-10.88
					L256.5,171.479z"/>
				<g>
					<path style="fill:#111D36;" d="M290.701,140.061c0,13.388-10.418,24.241-23.27,24.241c-12.852,0-23.27-10.853-23.27-24.241
						s10.418-22.496,23.27-22.496C280.283,117.565,290.701,126.673,290.701,140.061z"/>
				</g>
				<path style="fill:#D97F48;" d="M286.659,141.308c0,8.346-1.161,15.549-2.32,20.661c-1.135,5.005-4.329,8.502-8.842,11.317
					l-0.822,0.513c-4.775,2.979-10.945,3.048-15.793,0.178l0,0c-4.89-2.895-8.314-6.712-9.367-12.082
					c-1.916-9.768-2.126-20.586-2.126-20.586s-1.823-21.07,19.355-20.661C287.923,121.057,286.659,141.308,286.659,141.308z"/>
				<g>
					<path style="fill:#D97F48;" d="M249.699,161.096c-3.732,3.222-11.588-9.536-7.975-12.977c3.613-3.44,6.169,2.158,6.169,2.158
						l0.733,4.031l1.091,5.426l0.281,1.217L249.699,161.096z"/>
					<g>
						<g>
							
								<path style="fill:none;stroke:#111D36;stroke-width:1.0039;stroke-linecap:round;stroke-linejoin:round;stroke-miterlimit:10;" d="
								M243.347,152.419c0,0,1.527-3.305,5.079,2.498"/>
						</g>
					</g>
				</g>
				<g>
					<path style="fill:#D97F48;" d="M284.329,161.171c3.786,3.158,11.423-9.734,7.751-13.111c-3.672-3.378-6.131,2.263-6.131,2.263
						l-0.663,4.044l-0.998,5.445l-0.26,1.221L284.329,161.171z"/>
					<g>
						<g>
							
								<path style="fill:none;stroke:#111D36;stroke-width:1.0039;stroke-linecap:round;stroke-linejoin:round;stroke-miterlimit:10;" d="
								M290.531,152.386c0,0-1.583-3.278-5.036,2.584"/>
						</g>
					</g>
				</g>
				<path style="fill:#111D36;" d="M247.662,147.87c0,0,8.468-11.447,6.514-23.044c0,0-6.285,3.163-7.921,11.326
					C244.618,144.316,247.662,147.87,247.662,147.87z"/>
				<path style="fill:#111D36;" d="M287.015,148.095c0,0-10.177-12.45-8.224-24.046c0,0,6.822,3.941,8.459,12.104
					C288.887,144.316,287.015,148.095,287.015,148.095z"/>
				<path style="fill:#111D36;" d="M241.379,139.637h51.266c0,0-5.774-21.717-27.396-23.011
					C243.627,115.331,241.379,139.637,241.379,139.637z"/>
				<g>
					<g>
						<path style="fill:#111D36;" d="M259.593,149.491c0,1.078-0.874,1.952-1.952,1.952c-1.078,0-1.952-0.874-1.952-1.952
							c0-1.078,0.874-1.952,1.952-1.952C258.719,147.539,259.593,148.413,259.593,149.491z"/>
						<path style="fill:#111D36;" d="M277.67,149.491c0,1.078-0.874,1.952-1.952,1.952c-1.078,0-1.952-0.874-1.952-1.952
							c0-1.078,0.874-1.952,1.952-1.952C276.796,147.539,277.67,148.413,277.67,149.491z"/>
					</g>
					
						<path style="fill:none;stroke:#111D36;stroke-width:0.9876;stroke-linecap:round;stroke-linejoin:round;stroke-miterlimit:10;" d="
						M265.7,153.745l0.003,2.635c0.001,0.664,0.591,1.162,1.22,1.03l1.401-0.294"/>
					<path style="fill:#111D36;" d="M263.442,143.442l-11.833,1.422c0,0,0.95-3.138,5.785-3.677
						C262.229,140.648,263.442,143.442,263.442,143.442z"/>
					<path style="fill:#111D36;" d="M270.265,143.442l11.833,1.422c0,0-0.95-3.138-5.785-3.677
						C271.478,140.648,270.265,143.442,270.265,143.442z"/>
					<g>
						<circle style="fill:none;stroke:#6FC7BF;stroke-width:1.083;stroke-miterlimit:10;" cx="255.72" cy="149.433" r="8.073"/>
						<circle style="fill:none;stroke:#6FC7BF;stroke-width:1.083;stroke-miterlimit:10;" cx="278.586" cy="149.433" r="8.073"/>
						<path style="fill:none;stroke:#6FC7BF;stroke-width:1.083;stroke-miterlimit:10;" d="M263.793,150.104
							c0,0,2.851-4.384,6.719,0"/>
					</g>
					<path style="fill:#FFFFFF;" d="M260.713,161.103h12.88C273.593,161.103,267.558,168.3,260.713,161.103z"/>
				</g>
			</g>
		</g>
		<g>
			<g>
				<g>
					<g>
						<path style="fill:#F7A771;" d="M540.347,225.286l29.403,25.447c5.561,4.813,6.247,13.191,1.543,18.845l0,0
							c-4.726,5.68-13.14,6.506-18.88,1.854l-29.133-23.61L540.347,225.286z"/>
						<path style="fill:#0083C8;" d="M502.881,200.362c21.385,3.456,44.855,24.924,44.855,24.924l-19.411,27.767l-25.56-20.934
							L502.881,200.362z"/>
					</g>
					<g>
						<path style="fill:#F7A771;" d="M571.393,197.375l-21.137,60.391c-2.358,6.676,1.375,13.962,8.172,15.947l0,0
							c7.16,2.091,14.523-2.604,15.649-9.978l10.841-64.125L571.393,197.375z"/>
						<path style="fill:#F7A771;" d="M571.393,197.375c0,0-4.155-5.352-4.977-20.655c-0.051-0.956,0.496-1.851,1.361-2.259l0,0
							c1.27-0.599,2.78,0.032,3.246,1.356l2.104,6.388l11.79,17.406L571.393,197.375z"/>
						<path style="fill:#F7A771;" d="M573.127,182.205l0.511-21.237c0.043-0.904,0.641-2.173,1.795-2.222l0,0
							c1.256-0.139,2.212,0.74,2.244,1.726l0.478,15.058l2.801-17.607c0.136-0.856,0.922-1.453,1.783-1.354l0,0
							c0.847,0.097,1.474,0.834,1.433,1.686l-0.914,19.11l3.832-15.704c0.207-0.85,0.995-1.429,1.868-1.373l0,0
							c1.03,0.066,1.795,0.98,1.678,2.006l-1.97,17.231l7.614-10.724c0.654-0.779,1.841-0.813,2.54-0.074l0,0
							c0.523,0.554,0.615,1.388,0.224,2.043l-6.404,12.979c0,0-0.403,8.076-7.722,15.861l-11.317-6.726L573.127,182.205z"/>
						
							<path style="fill:none;stroke:#111D36;stroke-width:1.0166;stroke-linecap:round;stroke-linejoin:round;stroke-miterlimit:10;" d="
							M573.127,182.205c0,0,8.006,0.035,8.156,7.224"/>
					</g>
				</g>
				<g>
					<path style="fill:#0083C8;" d="M500.712,198.703l15.993,6.062c4.183,1.533,5.249,6.175,4.154,10.493l-7.392,91.497H450.38
						l-4.86-94.477c-0.672-3.002,0.936-6.047,3.794-7.185l21.607-8.601L500.712,198.703z"/>
					
						<line style="fill:none;stroke:#00678D;stroke-width:1.4581;stroke-miterlimit:10;" x1="518.459" y1="244.972" x2="519.935" y2="226.707"/>
				</g>
				<g>
					<path style="fill:#F7A771;" d="M446.991,261.68c0,0-17.142,66.617-21.427,124.102l-12.608-1.682c0,0,1.852-83.849,11.6-136.278
						L446.991,261.68z"/>
					<path style="fill:#0083C8;" d="M447.56,206.159c0,0-14.209,3.394-26.624,42.716l31.247,17.015l6.652-22.864L447.56,206.159z"/>
				</g>
			</g>
			<g>
				<path style="fill:#F7A771;" d="M493.496,196.532l-1.235-22.675c0,0-4.189,2.924-7.996,3.632
					c-3.807,0.708-7.494-1.519-7.541-1.546c-0.047-0.027-4.429-2.577-4.429-2.577l-1.334,23.124l-0.04,0.001l-6.663,2.652
					c0,0,4.186,7.129,18.145,6.404c13.959-0.725,18.309-6.846,18.309-6.846L493.496,196.532z"/>
				<path style="fill:#111D36;" d="M471.393,174.235c0,0,6.166,11.253,13.509,9.641c7.665-1.683,7.953-11.494,7.953-11.494
					L471.393,174.235z"/>
				<path style="fill:#F7A771;" d="M502.911,143.177c0,8.592-1.195,16.006-2.388,21.268c-1.168,5.152-4.456,8.752-9.102,11.65
					l-0.846,0.528c-4.915,3.066-11.267,3.138-16.257,0.183l0,0c-5.034-2.98-8.558-6.909-9.643-12.438
					c-1.973-10.055-2.188-21.192-2.188-21.192s-1.877-21.69,19.924-21.268C504.212,122.33,502.911,143.177,502.911,143.177z"/>
				<g>
					<path style="fill:#F7A771;" d="M464.864,163.546c-3.841,3.317-11.929-9.817-8.209-13.358c3.72-3.541,6.351,2.221,6.351,2.221
						l0.754,4.15l1.123,5.586l0.29,1.253L464.864,163.546z"/>
					<g>
						<g>
							
								<path style="fill:none;stroke:#111D36;stroke-width:1.0334;stroke-linecap:round;stroke-linejoin:round;stroke-miterlimit:10;" d="
								M458.326,154.614c0,0,1.572-3.402,5.229,2.571"/>
						</g>
					</g>
				</g>
				<g>
					<path style="fill:#F7A771;" d="M500.512,163.623c3.897,3.251,11.759-10.02,7.979-13.497c-3.78-3.477-6.312,2.329-6.312,2.329
						l-0.683,4.162l-1.027,5.605l-0.268,1.257L500.512,163.623z"/>
					<g>
						<g>
							
								<path style="fill:none;stroke:#111D36;stroke-width:1.0334;stroke-linecap:round;stroke-linejoin:round;stroke-miterlimit:10;" d="
								M506.897,154.58c0,0-1.63-3.375-5.184,2.66"/>
						</g>
					</g>
				</g>
				<g>
					<g>
						<path style="fill:#111D36;" d="M475.049,150.28c0,1.11-0.9,2.01-2.01,2.01c-1.11,0-2.01-0.9-2.01-2.01
							c0-1.11,0.9-2.01,2.01-2.01C474.149,148.271,475.049,149.171,475.049,150.28z"/>
						<path style="fill:#111D36;" d="M493.658,150.28c0,1.11-0.9,2.01-2.01,2.01c-1.11,0-2.01-0.9-2.01-2.01
							c0-1.11,0.9-2.01,2.01-2.01C492.758,148.271,493.658,149.171,493.658,150.28z"/>
					</g>
					
						<path style="fill:none;stroke:#111D36;stroke-width:1.0166;stroke-linecap:round;stroke-linejoin:round;stroke-miterlimit:10;" d="
						M481.335,153.339l0.003,4.032c0.001,0.684,0.608,1.196,1.256,1.06l1.442-0.303"/>
					<path style="fill:#111D36;" d="M485.458,142.907l11.598,2.996c0,0-0.527-3.253-5.272-4.435
						C487.039,140.286,485.458,142.907,485.458,142.907z"/>
					<path style="fill:#111D36;" d="M478.251,142.907l-11.598,2.996c0,0,0.527-3.253,5.272-4.435
						C476.669,140.286,478.251,142.907,478.251,142.907z"/>
					<g>
						<path style="fill:#111D36;" d="M481.382,164.34c0.426-0.275,0.737-0.706,0.871-1.198c0.271-1,0.389-2.595-1.537-2.776
							c-2.828-0.265-7.563,5.174-11.706,2.056C469.01,162.422,472.97,169.776,481.382,164.34z"/>
						<path style="fill:#111D36;" d="M482.958,164.34c-0.424-0.275-0.734-0.706-0.867-1.198c-0.27-1-0.387-2.595,1.531-2.776
							c2.816-0.265,7.53,5.174,11.655,2.056C495.277,162.422,491.334,169.776,482.958,164.34z"/>
					</g>
				</g>
				<path style="fill:#111D36;" d="M502.407,117.475c-7.127-5.041-20.693-0.352-28.199,2.919c0.218-2.377-1.253-3.889-1.253-3.889
					c-12.892,3.954-11.272,11.296-10.371,13.639c-2.527,2.658-6,9.289,0.591,23.195c0,0,3.681-11.876,2.115-21.327
					c6.111,2.765,22.698,9.386,33.24,5.173c0.362,8.114,3.505,16.154,3.505,16.154c3.988-10.201,3.43-16.341,1.842-19.95
					C505.696,131.218,511.049,123.588,502.407,117.475z"/>
			</g>
			<g>
				<path style="fill:#006AB8;" d="M501.503,434.038h40.542c-14.974-63.986-26.722-108.215-26.722-108.215l-1.855-19.068h-30.782
					l1.392,66.979L501.503,434.038z"/>
				<g>
					<path style="fill:#006AB8;" d="M484.078,373.734l-1.392-66.979H450.38c-24.18,36.187-10.495,100.492-10.495,100.492
						l3.685,26.791h40.508V373.734z"/>
					<polyline style="fill:none;stroke:#005A94;stroke-width:1.3684;stroke-miterlimit:10;" points="484.078,373.734 
						484.078,354.754 493.231,340.574 					"/>
				</g>
			</g>
		</g>
		<g>
			<g>
				<path style="fill:#0083C8;" d="M359.629,411.789c0,0,10.893-54.061,17.302-68.799c0.582-1.337,2.518-1.162,2.904,0.244
					c1.544,5.617,3.578,22.17,2.67,70.89l0.021,19.914h38.232l5.633-47.926c0,0,8.516-66.799-19.224-104.736h-55.603
					c0,0-28.351,41.242-32.086,98.2c-0.831,12.673-2.263,32.03-3.988,54.463h39.392L359.629,411.789z"/>
				
					<line style="fill:none;stroke:#00678D;stroke-width:1.4581;stroke-miterlimit:10;" x1="367.404" y1="337.913" x2="380.425" y2="343.234"/>
			</g>
			<g>
				<g>
					<polygon style="fill:#FFCC05;" points="367.252,175.938 340.511,183.29 351.565,274.572 407.676,274.572 418.744,182.89 
						389.101,175.537 					"/>
					<rect x="351.565" y="274.572" style="fill:#111D36;" width="55.603" height="6.803"/>
				</g>
				<g>
					<g>
						<path style="fill:#F7A771;" d="M393.098,241.679c0,0,22.915-9.194,35.19-2.779l1.157,14.753l-37.416,4.704L393.098,241.679z"
							/>
						<path style="fill:#FFCC05;" d="M442.06,271.42c0,0-37.202,4.468-67.348-11.354l25.536-7.735l31.55-5.307L442.06,271.42z"/>
					</g>
					<g>
						<path style="fill:#FFCC05;" d="M416.935,182.61c0,0,14.449,0.925,23.659,29.534c9.785,30.399,10.496,54.334,3.705,58.348
							c-6.792,4.013-15.219-4.848-23.863-29.328c-8.644-24.481-12.632-37.664-12.632-37.664L416.935,182.61z"/>
						
							<line style="fill:none;stroke:#EAB600;stroke-width:1.4581;stroke-miterlimit:10;" x1="413.968" y1="222.45" x2="416.194" y2="204.008"/>
					</g>
				</g>
				<g>
					<g>
						<path style="fill:#FFCC05;" d="M340.511,183.29c0,0-14.449,0.925-23.659,29.534c-9.785,30.399-10.496,54.334-3.705,58.348
							c6.792,4.013,16.237-4.848,24.881-29.328c8.644-24.481,11.614-37.664,11.614-37.664L340.511,183.29z"/>
						
							<line style="fill:none;stroke:#EAB600;stroke-width:1.4581;stroke-miterlimit:10;" x1="345.04" y1="220.685" x2="343.034" y2="204.008"/>
					</g>
					<g>
						<path style="fill:#F7A771;" d="M352.493,241.791c0,0-10.38-10.755-27.52-16.352c-0.748-0.244-1.579-0.066-2.17,0.455l0,0
							c-1.204,1.062-0.924,3.01,0.53,3.69l10.328,4.826l-13.556,0.904c-2.233,0.149-3.955,2.138-3.641,4.354
							c0.277,1.952,1.598,4.5,5.359,7.457L352.493,241.791z"/>
						<g>
							<g>
								<path style="fill:#FFCC05;" d="M321.823,247.124c0,0,49.13-9.692,72.437-9.595l9.301,22.994
									c0,0-72.721,18.232-90.413,10.649L321.823,247.124z"/>
								<path style="fill:none;stroke:#EAB600;stroke-width:1.4581;stroke-miterlimit:10;" d="M352.493,241.791
									c0,0,30.881-4.818,41.767-4.262l1.314,3.248"/>
								<polyline style="fill:none;stroke:#EAB600;stroke-width:1.4581;stroke-miterlimit:10;" points="351.122,270.912 
									403.561,260.523 395.574,240.777 								"/>
							</g>
						</g>
					</g>
				</g>
			</g>
			<g>
				<path style="fill:#111D36;" d="M353.811,136.509l-10.971,14.318c0,0,39.459,30.31,71.912-2.143l-11.577-14.127L353.811,136.509z
					"/>
				<path style="fill:#F7A771;" d="M389.042,174.83l-2.771-21.987c0,0-2.86,2.916-6.656,3.621c-3.796,0.705-7.471-1.514-7.518-1.541
					c-0.047-0.027-3.099-2.57-3.099-2.57l-1.674,22.782c0,0.271-0.029,0.539-0.071,0.803l12.016,26.12l9.833-26.522
					C389.066,175.305,389.042,175.069,389.042,174.83z"/>
				<path style="fill:#111D36;" d="M367.252,153.219c0,0,5.81,12.272,12.729,10.665c7.223-1.678,7.19-12.219,7.19-12.219
					L367.252,153.219z"/>
				<g>
					<path style="fill:#111D36;" d="M402.353,120.974c0,13.74-10.692,24.879-23.882,24.879c-13.19,0-23.882-11.139-23.882-24.879
						c0-13.74,10.692-23.088,23.882-23.088C391.661,97.886,402.353,107.234,402.353,120.974z"/>
				</g>
				<path style="fill:#F7A771;" d="M398.205,122.254c0,8.566-1.191,15.958-2.381,21.204c-1.165,5.136-4.442,8.726-9.074,11.615
					l-0.844,0.526c-4.901,3.057-11.233,3.128-16.208,0.182h0c-5.019-2.971-8.532-6.888-9.614-12.4
					c-1.967-10.025-2.182-21.128-2.182-21.128s-1.871-21.624,19.864-21.204C399.502,101.47,398.205,122.254,398.205,122.254z"/>
				<g>
					<path style="fill:#F7A771;" d="M360.273,142.563c-3.83,3.307-11.893-9.788-8.185-13.318c3.709-3.53,6.332,2.214,6.332,2.214
						l0.752,4.138l1.12,5.569l0.289,1.249L360.273,142.563z"/>
					<g>
						<g>
							
								<path style="fill:none;stroke:#111D36;stroke-width:1.0303;stroke-linecap:round;stroke-linejoin:round;stroke-miterlimit:10;" d="
								M353.754,133.657c0,0,1.567-3.392,5.213,2.563"/>
						</g>
					</g>
				</g>
				<g>
					<path style="fill:#F7A771;" d="M395.813,142.639c3.886,3.241,11.724-9.99,7.955-13.456c-3.769-3.467-6.293,2.322-6.293,2.322
						l-0.681,4.15l-1.024,5.588l-0.267,1.254L395.813,142.639z"/>
					<g>
						<g>
							
								<path style="fill:none;stroke:#111D36;stroke-width:1.0303;stroke-linecap:round;stroke-linejoin:round;stroke-miterlimit:10;" d="
								M402.179,133.624c0,0-1.625-3.364-5.168,2.652"/>
						</g>
					</g>
				</g>
				<path style="fill:#111D36;" d="M398.811,116.963c-1.3-6.486-5.779-10.364-7.74-11.789c-2.435-2.41-5.664-4.305-9.943-4.857
					c0,0-13.572-3.06-19.191,7.205c-1.937,1.82-4.281,4.859-5.2,9.442c-1.68,8.378,1.444,12.026,1.444,12.026
					s5.338-7.219,6.681-16.071c4.112,3.401,12.444,7.657,28.256,7.443c2.471,5.211,5.452,8.859,5.452,8.859
					S400.491,125.341,398.811,116.963z"/>
				<g>
					<g>
						<path style="fill:#111D36;" d="M370.427,130.653c0,1.107-0.897,2.004-2.004,2.004c-1.107,0-2.004-0.897-2.004-2.004
							c0-1.107,0.897-2.004,2.004-2.004C369.53,128.649,370.427,129.546,370.427,130.653z"/>
						<path style="fill:#111D36;" d="M388.98,130.653c0,1.107-0.897,2.004-2.004,2.004c-1.107,0-2.004-0.897-2.004-2.004
							c0-1.107,0.897-2.004,2.004-2.004C388.083,128.649,388.98,129.546,388.98,130.653z"/>
					</g>
					
						<path style="fill:none;stroke:#111D36;stroke-width:1.0135;stroke-linecap:round;stroke-linejoin:round;stroke-miterlimit:10;" d="
						M376.217,135.018l0.003,2.704c0.001,0.682,0.606,1.193,1.252,1.057l1.438-0.302"/>
					<path style="fill:#111D36;" d="M386.082,121.381c0,0-5.868-0.481-5.927,1.907c0,0,0.005,1.617,5.124,1.938
						c5.119,0.321,6.451-0.054,6.918-1.573C392.665,122.133,388.834,121.395,386.082,121.381z"/>
					<path style="fill:#111D36;" d="M368.537,121.381c0,0,5.868-0.481,5.927,1.907c0,0-0.005,1.617-5.124,1.938
						c-5.119,0.321-6.45-0.054-6.918-1.573C361.954,122.133,365.785,121.395,368.537,121.381z"/>
					
						<path style="fill:none;stroke:#111D36;stroke-width:1.0135;stroke-linecap:round;stroke-linejoin:round;stroke-miterlimit:10;" d="
						M383.008,140.864c0,0-2.107,3.385-7.536,2.428"/>
				</g>
			</g>
		</g>
		
			<line style="fill:none;stroke:#111D36;stroke-width:0.9847;stroke-linecap:round;stroke-linejoin:round;stroke-miterlimit:10;" x1="110.282" y1="434.038" x2="625.564" y2="434.038"/>
	</g>
</g>
<g id="DESIGNED_BY_FREEPIK">
	<g>
		<g id="XMLID_29_">
			<g id="XMLID_48_">
				<path id="XMLID_56_" style="fill:#1C1C1B;" d="M385.084,465.471c-0.432,0.443-0.803,0.931-1.108,1.453l-0.465-0.241
					c-0.067-0.298-0.349-0.503-0.659-0.466c-0.331,0.039-0.568,0.339-0.529,0.67c0.039,0.331,0.339,0.568,0.67,0.529
					c0.065-0.008,0.127-0.026,0.184-0.052l0.452,0.234c-0.251,0.554-0.433,1.139-0.539,1.744l0.746,0.132
					c0.23-1.306,0.85-2.507,1.792-3.472L385.084,465.471z"/>
				<path id="XMLID_55_" style="fill:#1C1C1B;" d="M390.572,463.169c-0.171,0-0.341,0.006-0.51,0.017l-0.074-0.626
					c0.188-0.149,0.296-0.389,0.266-0.645c-0.046-0.393-0.402-0.674-0.795-0.628s-0.674,0.402-0.628,0.795
					c0.03,0.254,0.189,0.461,0.405,0.564l0.073,0.624c-0.714,0.116-1.403,0.332-2.06,0.646l0.327,0.684
					c0.934-0.447,1.942-0.673,2.995-0.673c0.496,0,0.993,0.053,1.475,0.158l0.161-0.741
					C391.672,463.228,391.122,463.169,390.572,463.169z"/>
				<path id="XMLID_54_" style="fill:#1C1C1B;" d="M397.174,465.716c0.331-0.04,0.566-0.341,0.525-0.672
					c-0.04-0.331-0.341-0.566-0.672-0.526c-0.309,0.038-0.535,0.304-0.53,0.609l-0.416,0.363c-0.418-0.43-0.89-0.813-1.408-1.139
					l-0.404,0.641c1.134,0.715,2.021,1.726,2.563,2.925l0.69-0.313c-0.251-0.554-0.567-1.072-0.942-1.545l0.402-0.351
					C397.045,465.721,397.109,465.724,397.174,465.716z"/>
				<path id="XMLID_53_" style="fill:#1C1C1B;" d="M390.024,473.377c-0.386,0.023-0.775,0.035-1.157,0.035
					c-0.88,0-1.733-0.061-2.478-0.179c-0.39-0.062-0.846-0.155-1.27-0.292c1.046,1.861,3.069,3.125,5.388,3.125
					c2.855,0,5.262-1.916,5.95-4.504c-0.682,0.449-1.505,0.825-2.459,1.123C392.818,473.052,391.443,473.292,390.024,473.377z"/>
				<path id="XMLID_49_" style="fill:#1C1C1B;" d="M390.572,464.685c-3.352,0-6.08,2.666-6.08,5.944
					c0,0.425,0.046,0.849,0.137,1.261c0.673,0.483,2.706,0.89,5.348,0.731c2.879-0.173,5.297-0.957,6.672-2.158
					c-0.005-0.195-0.021-0.39-0.045-0.582C396.223,466.919,393.63,464.685,390.572,464.685z M388.412,471.2
					c-1.02,0-1.85-0.83-1.85-1.85c0-1.02,0.83-1.85,1.85-1.85c1.02,0,1.85,0.83,1.85,1.85
					C390.262,470.37,389.432,471.2,388.412,471.2z M393.15,470.292c-0.75,0-1.36-0.61-1.36-1.36s0.61-1.361,1.36-1.361
					c0.75,0,1.361,0.61,1.361,1.361S393.9,470.292,393.15,470.292z"/>
			</g>
			<path id="XMLID_46_" style="fill:#1C1C1B;" d="M406.575,466.552c-0.295-0.116-0.806-0.309-1.382-0.237
				c-0.551,0.068-0.844,0.34-0.844,1.007v0.866h2.228v1.717h-2.228v5.455h-1.932v-5.455h-1.34v-1.717h1.34v-0.888
				c0-1.68,0.896-2.783,2.568-2.783c0.643,0,1.157,0.122,1.59,0.308L406.575,466.552z"/>
			<path id="XMLID_44_" style="fill:#1C1C1B;" d="M411.278,469.884c-0.177-0.03-0.358-0.046-0.526-0.046
				c-0.896,0-1.51,0.548-1.51,1.613v3.908h-1.932v-7.172h1.873v0.785c0.451-0.673,1.14-0.977,2.021-0.977
				c0.414,0,0.848,0.128,1.094,0.337L411.278,469.884z"/>
			<path id="XMLID_41_" style="fill:#1C1C1B;" d="M418.945,471.762c0,0.222-0.015,0.489-0.037,0.651h-5.085
				c0.207,1.036,0.933,1.488,1.843,1.488c0.622,0,1.295-0.252,1.813-0.688l1.133,1.243c-0.814,0.748-1.85,1.088-3.057,1.088
				c-2.198,0-3.723-1.495-3.723-3.753c0-2.258,1.48-3.797,3.626-3.797C417.524,467.995,418.937,469.527,418.945,471.762z
				 M413.83,471.096h3.175c-0.177-0.918-0.733-1.436-1.562-1.436C414.534,469.66,414.001,470.208,413.83,471.096z"/>
			<path id="XMLID_38_" style="fill:#1C1C1B;" d="M426.598,471.762c0,0.222-0.015,0.489-0.037,0.651h-5.085
				c0.207,1.036,0.932,1.488,1.843,1.488c0.622,0,1.295-0.252,1.813-0.688l1.132,1.243c-0.814,0.748-1.85,1.088-3.057,1.088
				c-2.198,0-3.723-1.495-3.723-3.753c0-2.258,1.48-3.797,3.627-3.797C425.177,467.995,426.591,469.527,426.598,471.762z
				 M421.484,471.096h3.175c-0.178-0.918-0.733-1.436-1.562-1.436C422.187,469.66,421.654,470.208,421.484,471.096z"/>
			<path id="XMLID_35_" style="fill:#1C1C1B;" d="M434.944,471.77c0,2.154-1.495,3.775-3.471,3.775
				c-0.962,0-1.643-0.378-2.109-0.933v3.708h-1.924v-10.133h1.887v0.792c0.466-0.585,1.155-0.984,2.139-0.984
				C433.449,467.995,434.944,469.616,434.944,471.77z M429.267,471.77c0,1.132,0.748,1.976,1.843,1.976
				c1.14,0,1.85-0.881,1.85-1.976c0-1.095-0.71-1.976-1.85-1.976C430.014,469.794,429.267,470.637,429.267,471.77z"/>
			<path id="XMLID_32_" style="fill:#1C1C1B;" d="M438.047,465.841c0,0.696-0.54,1.229-1.236,1.229
				c-0.696,0-1.229-0.533-1.229-1.229c0-0.696,0.533-1.243,1.229-1.243C437.507,464.598,438.047,465.146,438.047,465.841z
				 M437.788,475.359h-1.932v-7.172h1.932V475.359z"/>
			<path id="XMLID_30_" style="fill:#1C1C1B;" d="M441.012,470.741l2.701-2.554h2.368l-3.479,3.375l3.501,3.797h-2.376l-2.716-2.901
				v2.901h-1.932v-10.658h1.932V470.741z"/>
		</g>
		<g>
			<path style="fill:#1C1C1B;" d="M309.392,475.294v-1.055c-0.527,0.718-1.391,1.231-2.388,1.231c-1.846,0-3.149-1.406-3.149-3.706
				c0-2.256,1.289-3.721,3.149-3.721c0.952,0,1.816,0.469,2.388,1.245v-3.765h1.099v9.77H309.392z M309.392,473.376v-3.208
				c-0.395-0.615-1.245-1.143-2.124-1.143c-1.421,0-2.27,1.172-2.27,2.739c0,1.567,0.85,2.724,2.27,2.724
				C308.147,474.489,308.997,473.991,309.392,473.376z"/>
			<path style="fill:#1C1C1B;" d="M311.912,471.75c0-2.051,1.465-3.706,3.486-3.706c2.139,0,3.398,1.67,3.398,3.794v0.279h-5.727
				c0.088,1.333,1.025,2.446,2.549,2.446c0.806,0,1.626-0.322,2.182-0.893l0.527,0.718c-0.703,0.703-1.655,1.084-2.812,1.084
				C313.42,475.47,311.912,473.962,311.912,471.75z M315.383,468.952c-1.509,0-2.256,1.274-2.314,2.358h4.643
				C317.697,470.255,316.994,468.952,315.383,468.952z"/>
			<path style="fill:#1C1C1B;" d="M319.587,474.357l0.571-0.791c0.469,0.542,1.362,1.011,2.329,1.011c1.084,0,1.67-0.513,1.67-1.216
				c0-1.714-4.38-0.659-4.38-3.281c0-1.098,0.952-2.036,2.636-2.036c1.201,0,2.051,0.454,2.622,1.026l-0.513,0.762
				c-0.424-0.513-1.201-0.894-2.109-0.894c-0.967,0-1.567,0.483-1.567,1.113c0,1.552,4.38,0.527,4.38,3.281
				c0,1.187-0.952,2.139-2.783,2.139C321.286,475.47,320.304,475.119,319.587,474.357z"/>
			<path style="fill:#1C1C1B;" d="M326.457,466.477c0-0.41,0.337-0.747,0.732-0.747c0.41,0,0.747,0.337,0.747,0.747
				c0,0.41-0.337,0.732-0.747,0.732C326.794,467.209,326.457,466.887,326.457,466.477z M326.647,475.294v-7.075h1.099v7.075H326.647
				z"/>
			<path style="fill:#1C1C1B;" d="M329.562,477.111l0.556-0.82c0.586,0.703,1.289,0.967,2.3,0.967c1.172,0,2.27-0.571,2.27-2.124
				v-1.011c-0.513,0.718-1.377,1.26-2.373,1.26c-1.845,0-3.149-1.377-3.149-3.662c0-2.27,1.289-3.677,3.149-3.677
				c0.952,0,1.802,0.469,2.373,1.245v-1.069h1.099v6.87c0,2.344-1.641,3.076-3.369,3.076
				C331.217,478.165,330.396,477.931,329.562,477.111z M334.688,473.259v-3.091c-0.381-0.615-1.23-1.143-2.109-1.143
				c-1.421,0-2.27,1.128-2.27,2.695c0,1.553,0.849,2.695,2.27,2.695C333.458,474.416,334.307,473.874,334.688,473.259z"/>
			<path style="fill:#1C1C1B;" d="M342.393,475.294v-4.629c0-1.245-0.63-1.641-1.582-1.641c-0.865,0-1.685,0.527-2.095,1.099v5.17
				h-1.099v-7.075h1.099v1.025c0.498-0.586,1.465-1.201,2.519-1.201c1.48,0,2.256,0.747,2.256,2.285v4.966H342.393z"/>
			<path style="fill:#1C1C1B;" d="M344.912,471.75c0-2.051,1.465-3.706,3.486-3.706c2.138,0,3.398,1.67,3.398,3.794v0.279h-5.727
				c0.088,1.333,1.025,2.446,2.549,2.446c0.806,0,1.626-0.322,2.183-0.893l0.527,0.718c-0.703,0.703-1.655,1.084-2.812,1.084
				C346.421,475.47,344.912,473.962,344.912,471.75z M348.384,468.952c-1.509,0-2.256,1.274-2.314,2.358h4.643
				C350.698,470.255,349.995,468.952,348.384,468.952z"/>
			<path style="fill:#1C1C1B;" d="M358.33,475.294v-1.055c-0.527,0.718-1.391,1.231-2.388,1.231c-1.846,0-3.149-1.406-3.149-3.706
				c0-2.256,1.289-3.721,3.149-3.721c0.952,0,1.817,0.469,2.388,1.245v-3.765h1.099v9.77H358.33z M358.33,473.376v-3.208
				c-0.396-0.615-1.245-1.143-2.124-1.143c-1.421,0-2.27,1.172-2.27,2.739c0,1.567,0.849,2.724,2.27,2.724
				C357.085,474.489,357.934,473.991,358.33,473.376z"/>
			<path style="fill:#1C1C1B;" d="M364.672,475.294v-9.77h1.099v3.765c0.572-0.776,1.421-1.245,2.388-1.245
				c1.845,0,3.149,1.465,3.149,3.721c0,2.299-1.304,3.706-3.149,3.706c-0.996,0-1.86-0.513-2.388-1.231v1.055H364.672z
				 M367.879,474.489c1.436,0,2.286-1.157,2.286-2.724c0-1.568-0.85-2.739-2.286-2.739c-0.864,0-1.728,0.527-2.109,1.143v3.208
				C366.151,473.991,367.015,474.489,367.879,474.489z"/>
			<path style="fill:#1C1C1B;" d="M372.508,477.067c0.161,0.073,0.425,0.117,0.601,0.117c0.483,0,0.806-0.161,1.055-0.747
				l0.469-1.069l-2.959-7.148h1.187l2.358,5.801l2.344-5.801h1.201l-3.545,8.51c-0.425,1.025-1.143,1.421-2.08,1.435
				c-0.234,0-0.601-0.044-0.806-0.103L372.508,477.067z"/>
		</g>
	</g>
</g>
</svg>
