<svg width="512" height="512" viewBox="0 0 512 512" fill="none" xmlns="http://www.w3.org/2000/svg">
<path d="M195.482 90.4154C204.113 90.4434 210.937 83.1054 210.482 74.5224C209.692 54.6254 181.269 54.6304 180.482 74.5224C180.028 83.1064 186.851 90.4444 195.482 90.4154Z" fill="black"/>
<path d="M135.482 90.4154C144.113 90.4434 150.937 83.1054 150.482 74.5224C149.692 54.6254 121.269 54.6304 120.482 74.5224C120.028 83.1064 126.851 90.4444 135.482 90.4154Z" fill="black"/>
<path d="M75.4824 90.4154C84.1134 90.4434 90.9374 83.1054 90.4824 74.5224C89.6924 54.6254 61.2693 54.6304 60.4823 74.5224C60.0283 83.1064 66.8514 90.4444 75.4824 90.4154Z" fill="black"/>
<path d="M497 0H15C6.716 0 0 6.716 0 15V496.764C0 505.048 6.716 511.764 15 511.764H497C505.284 511.764 512 505.048 512 496.764V15C512 6.716 505.284 0 497 0ZM482 481.764H30V149.524H482V481.764ZM482 119.524H30V30H482V119.524Z" fill="black"/>
<path d="M154.893 408.042H179.681C187.965 408.042 194.681 401.326 194.681 393.042V294.217C194.681 285.933 187.965 279.217 179.681 279.217H171.147C178.114 238.674 213.499 207.719 256 207.719C298.501 207.719 333.886 238.674 340.853 279.217H332.921C324.637 279.217 317.921 285.933 317.921 294.217V393.042C317.921 401.326 324.637 408.042 332.921 408.042H343.736C338.644 416.445 329.412 422.073 318.889 422.073H299.283C290.999 422.073 284.283 428.789 284.283 437.073C284.283 445.357 290.999 452.073 299.283 452.073H318.889C347.274 452.073 371.038 431.933 376.656 405.194C402.954 397.084 422.121 372.554 422.121 343.629C422.121 312.8 400.345 286.974 371.371 280.689C364.818 222.83 315.581 177.719 255.999 177.719C196.367 177.719 147.098 222.904 140.612 280.832C111.947 287.349 90.4805 313.021 90.4805 343.629C90.4805 379.147 119.375 408.042 154.893 408.042ZM347.919 309.217H357.707C376.682 309.217 392.12 324.655 392.12 343.629C392.12 362.605 376.682 378.042 357.707 378.042H347.919V309.217ZM154.893 309.217H164.681V378.042H154.893C135.918 378.042 120.48 362.604 120.48 343.629C120.48 324.654 135.918 309.217 154.893 309.217Z" fill="black"/>
</svg>
