<svg width="439" height="467" viewBox="0 0 439 467" fill="none" xmlns="http://www.w3.org/2000/svg">
<path d="M420.722 86.4754C420.722 84.8474 419.398 83.5234 417.77 83.5234C416.142 83.5234 414.818 84.8474 414.818 86.4754C414.818 87.9314 415.881 89.1374 417.27 89.3764V142.441H388.27V183.666H389.27V143.441H418.27V89.3764C419.66 89.1374 420.722 87.9314 420.722 86.4754ZM417.77 88.4274C416.694 88.4274 415.818 87.5514 415.818 86.4754C415.818 85.3984 416.694 84.5234 417.77 84.5234C418.846 84.5234 419.722 85.3984 419.722 86.4754C419.722 87.5514 418.846 88.4274 417.77 88.4274Z" fill="#A6D7FF"/>
<path d="M373.581 111.609C371.953 111.609 370.629 112.933 370.629 114.561C370.629 116.017 371.692 117.223 373.081 117.462V183.665H374.081V117.462C375.471 117.223 376.533 116.017 376.533 114.561C376.533 112.933 375.209 111.609 373.581 111.609ZM373.581 116.513C372.505 116.513 371.629 115.637 371.629 114.561C371.629 113.484 372.505 112.609 373.581 112.609C374.657 112.609 375.533 113.484 375.533 114.561C375.533 115.637 374.657 116.513 373.581 116.513Z" fill="#A6D7FF"/>
<path d="M304.614 45.9911H250.548C250.309 44.6011 249.104 43.5391 247.647 43.5391C246.019 43.5391 244.695 44.8631 244.695 46.4911C244.695 48.1191 246.019 49.4431 247.647 49.4431C249.104 49.4431 250.309 48.3801 250.548 46.9911H303.614V59.9911H344.838V58.9911H304.614V45.9911ZM247.646 48.4441C246.57 48.4441 245.694 47.5691 245.694 46.4921C245.694 45.4161 246.57 44.5401 247.646 44.5401C248.722 44.5401 249.598 45.4161 249.598 46.4921C249.598 47.5691 248.722 48.4441 247.646 48.4441Z" fill="#A6D7FF"/>
<path d="M294.386 68.1953C292.758 68.1953 291.434 69.5193 291.434 71.1473C291.434 72.7753 292.758 74.0993 294.386 74.0993C295.843 74.0993 297.048 73.0363 297.287 71.6473H343.49V70.6473H297.287C297.049 69.2573 295.843 68.1953 294.386 68.1953ZM294.386 73.0993C293.31 73.0993 292.434 72.2233 292.434 71.1473C292.434 70.0703 293.31 69.1953 294.386 69.1953C295.462 69.1953 296.338 70.0703 296.338 71.1473C296.339 72.2233 295.463 73.0993 294.386 73.0993Z" fill="#A6D7FF"/>
<path d="M228.038 146.368C229.666 146.368 230.99 145.044 230.99 143.416C230.99 141.96 229.927 140.754 228.538 140.515V94.3125H227.538V140.515C226.148 140.754 225.086 141.96 225.086 143.416C225.086 145.043 226.41 146.368 228.038 146.368ZM228.038 141.463C229.114 141.463 229.99 142.34 229.99 143.416C229.99 144.493 229.114 145.368 228.038 145.368C226.962 145.368 226.086 144.493 226.086 143.416C226.086 142.34 226.962 141.463 228.038 141.463Z" fill="#A6D7FF"/>
<path d="M237.987 130.672V84.4688H236.987V130.672C235.597 130.91 234.535 132.116 234.535 133.573C234.535 135.201 235.859 136.525 237.487 136.525C239.115 136.525 240.439 135.201 240.439 133.573C240.439 132.116 239.377 130.91 237.987 130.672ZM237.487 135.526C236.411 135.526 235.535 134.65 235.535 133.574C235.535 132.497 236.411 131.622 237.487 131.622C238.563 131.622 239.439 132.497 239.439 133.574C239.439 134.65 238.563 135.526 237.487 135.526Z" fill="#A6D7FF"/>
<path d="M52.057 311.554V310.554H5.853C5.614 309.164 4.409 308.102 2.953 308.102C1.324 308.102 0 309.426 0 311.054C0 312.682 1.324 314.006 2.953 314.006C4.409 314.006 5.614 312.943 5.853 311.554H52.057ZM2.953 313.006C1.876 313.006 1 312.13 1 311.054C1 309.978 1.876 309.102 2.953 309.102C4.028 309.102 4.904 309.978 4.904 311.054C4.904 312.13 4.028 313.006 2.953 313.006Z" fill="#A6D7FF"/>
<path d="M12.7918 317.555C11.1638 317.555 9.83984 318.879 9.83984 320.507C9.83984 322.135 11.1638 323.459 12.7918 323.459C14.2478 323.459 15.4538 322.396 15.6928 321.007H61.8958V320.007H15.6928C15.4538 318.617 14.2478 317.555 12.7918 317.555ZM12.7918 322.459C11.7148 322.459 10.8398 321.583 10.8398 320.507C10.8398 319.431 11.7148 318.555 12.7918 318.555C13.8678 318.555 14.7438 319.431 14.7438 320.507C14.7438 321.583 13.8678 322.459 12.7918 322.459Z" fill="#A6D7FF"/>
<path d="M231.554 414.315C230.098 414.315 228.893 415.378 228.654 416.766H175.588V387.766H134.363V388.766H174.588V417.766H228.654C228.893 419.156 230.098 420.219 231.554 420.219C233.182 420.219 234.507 418.894 234.507 417.266C234.507 415.639 233.182 414.315 231.554 414.315ZM231.554 419.219C230.478 419.219 229.603 418.343 229.603 417.266C229.603 416.19 230.478 415.315 231.554 415.315C232.631 415.315 233.507 416.19 233.507 417.266C233.507 418.343 232.631 419.219 231.554 419.219Z" fill="#A6D7FF"/>
<path d="M203.467 376.029C205.095 376.029 206.419 374.704 206.419 373.076C206.419 371.449 205.095 370.125 203.467 370.125C202.01 370.125 200.804 371.188 200.565 372.576H134.363V373.576H200.565C200.804 374.965 202.01 376.029 203.467 376.029ZM203.467 371.124C204.543 371.124 205.419 371.999 205.419 373.075C205.419 374.152 204.543 375.028 203.467 375.028C202.39 375.028 201.515 374.152 201.515 373.075C201.515 371.999 202.39 371.124 203.467 371.124Z" fill="#A6D7FF"/>
<path d="M33.8573 437.021H20.8573V461.087C19.4673 461.326 18.4062 462.531 18.4062 463.988C18.4062 465.616 19.7293 466.94 21.3573 466.94C22.9853 466.94 24.3102 465.616 24.3102 463.988C24.3102 462.531 23.2473 461.326 21.8573 461.087V438.021H34.8573V396.797H33.8573V437.021ZM23.3102 463.989C23.3102 465.065 22.4343 465.941 21.3573 465.941C20.2813 465.941 19.4062 465.065 19.4062 463.989C19.4062 462.913 20.2813 462.037 21.3573 462.037C22.4343 462.037 23.3102 462.912 23.3102 463.989Z" fill="#A6D7FF"/>
<path d="M46.5106 444.344V398.141H45.5106V444.344C44.1206 444.583 43.0586 445.788 43.0586 447.245C43.0586 448.873 44.3826 450.197 46.0106 450.197C47.6386 450.197 48.9626 448.873 48.9626 447.245C48.9636 445.788 47.9006 444.583 46.5106 444.344ZM46.0106 449.197C44.9336 449.197 44.0586 448.321 44.0586 447.245C44.0586 446.169 44.9336 445.293 46.0106 445.293C47.0866 445.293 47.9626 446.169 47.9626 447.245C47.9636 448.321 47.0876 449.197 46.0106 449.197Z" fill="#A6D7FF"/>
<path d="M362.508 29.919H375.508V5.853C376.898 5.614 377.959 4.41 377.959 2.953C377.959 1.325 376.637 0 375.008 0C373.38 0.001 372.055 1.324 372.055 2.953C372.055 4.41 373.119 5.614 374.508 5.854V28.919H361.509L361.508 70.144L362.508 70.143V29.919ZM373.055 2.952C373.055 1.876 373.931 1 375.008 0.999001C376.084 1 376.959 1.876 376.959 2.952C376.959 4.027 376.084 4.904 375.008 4.903C373.931 4.905 373.055 4.028 373.055 2.952Z" fill="#A6D7FF"/>
<path d="M349.858 22.5884V68.7904H350.858V22.5884C352.248 22.3484 353.31 21.1434 353.311 19.6864C353.31 18.0594 351.986 16.7354 350.358 16.7344C348.73 16.7354 347.406 18.0594 347.406 19.6864C347.406 21.1434 348.468 22.3494 349.858 22.5884ZM350.359 17.7344C351.435 17.7344 352.31 18.6104 352.311 19.6864C352.31 20.7634 351.435 21.6384 350.359 21.6384C349.282 21.6394 348.406 20.7634 348.407 19.6864C348.406 18.6104 349.282 17.7354 350.359 17.7344Z" fill="#A6D7FF"/>
<path opacity="0.5" d="M417.77 358.681C417.77 360.115 416.608 361.277 415.174 361.277H3.36553C1.93153 361.277 0.769531 360.115 0.769531 358.681C0.769531 357.248 1.93153 356.086 3.36553 356.086H415.175C416.608 356.086 417.77 357.248 417.77 358.681Z" fill="#A6D7FF"/>
<path d="M192.938 341.869C192.938 349.685 186.542 356.082 178.724 356.082H61.8146C53.9986 356.082 47.6016 349.686 47.6016 341.869V117.206C47.6016 109.389 53.9976 102.992 61.8146 102.992H178.724C186.541 102.992 192.938 109.388 192.938 117.206V341.869Z" fill="#223D94"/>
<path d="M129.744 340.288C129.744 345.522 125.502 349.764 120.269 349.764C115.036 349.764 110.793 345.523 110.793 340.288C110.793 335.056 115.035 330.812 120.269 330.812C125.502 330.814 129.744 335.056 129.744 340.288Z" fill="white"/>
<path d="M138.924 119.081C138.924 120.225 137.996 121.153 136.852 121.153H103.685C102.54 121.153 101.613 120.224 101.613 119.081C101.613 117.935 102.541 117.008 103.685 117.008H136.852C137.997 117.008 138.924 117.936 138.924 119.081Z" fill="white"/>
<path d="M122.147 111.117C122.147 112.153 121.306 112.993 120.271 112.993C119.235 112.993 118.395 112.153 118.395 111.117C118.395 110.081 119.235 109.242 120.271 109.242C121.306 109.242 122.147 110.081 122.147 111.117Z" fill="white"/>
<path d="M186.566 126.273H53.9688V325.778H186.566V126.273Z" fill="#DCC5F9"/>
<path opacity="0.5" d="M53.9688 325.777L186.566 126.273V325.777H53.9688Z" fill="#D0B7F9"/>
<path d="M175.168 136.633H65.3711V185.392H175.168V136.633Z" fill="white"/>
<g opacity="0.4">
<path d="M111.273 148.414L127.695 170.089L136.695 158.208L150.526 176.461H132.521H122.863H90.0156L111.273 148.414Z" fill="#9EC7EF"/>
<path d="M125.344 153.303C125.344 155.165 126.852 156.675 128.712 156.675C130.576 156.675 132.084 155.165 132.084 153.303C132.084 151.439 130.576 149.93 128.712 149.93C126.852 149.93 125.344 151.439 125.344 153.303Z" fill="#9EC7EF"/>
</g>
<path d="M114.967 202.141H65.3711V204.355H114.967V202.141Z" fill="#B492F4"/>
<path d="M114.967 207.562H65.3711V209.777H114.967V207.562Z" fill="#B492F4"/>
<path d="M114.967 212.977H65.3711V215.192H114.967V212.977Z" fill="#B492F4"/>
<path d="M114.967 218.398H65.3711V220.612H114.967V218.398Z" fill="#B492F4"/>
<path d="M114.967 192.438H65.3711V197.312H114.967V192.438Z" fill="white"/>
<path d="M175.166 192.438H125.57V197.312H175.166V192.438Z" fill="white"/>
<path d="M175.166 202.141H125.57V204.355H175.166V202.141Z" fill="#B492F4"/>
<path d="M175.166 207.562H125.57V209.777H175.166V207.562Z" fill="#B492F4"/>
<path d="M175.166 212.977H125.57V215.192H175.166V212.977Z" fill="#B492F4"/>
<path d="M175.166 218.398H125.57V220.612H175.166V218.398Z" fill="#B492F4"/>
<path d="M114.967 236.812H65.3711V239.026H114.967V236.812Z" fill="#B492F4"/>
<path d="M114.967 242.234H65.3711V244.448H114.967V242.234Z" fill="#B492F4"/>
<path d="M114.967 247.648H65.3711V249.861H114.967V247.648Z" fill="#B492F4"/>
<path d="M114.967 253.062H65.3711V255.276H114.967V253.062Z" fill="#B492F4"/>
<path d="M114.967 227.109H65.3711V231.985H114.967V227.109Z" fill="white"/>
<path d="M175.166 227.109H125.57V231.985H175.166V227.109Z" fill="white"/>
<path d="M175.166 236.812H125.57V239.026H175.166V236.812Z" fill="#B492F4"/>
<path d="M175.166 242.234H125.57V244.448H175.166V242.234Z" fill="#B492F4"/>
<path d="M175.166 247.648H125.57V249.861H175.166V247.648Z" fill="#B492F4"/>
<path d="M175.166 253.062H125.57V255.276H175.166V253.062Z" fill="#B492F4"/>
<path d="M115.935 265.211H65.3711V315.775H115.935V265.211Z" fill="white"/>
<g opacity="0.4">
<path d="M84.7991 282.312L94.5951 295.238L99.9631 288.152L108.213 299.039H97.4741H91.7131H72.1211L84.7991 282.312Z" fill="#9EC7EF"/>
<path d="M93.1953 285.223C93.1953 286.333 94.0933 287.235 95.2023 287.235C96.3153 287.235 97.2153 286.334 97.2153 285.223C97.2153 284.111 96.3163 283.211 95.2023 283.211C94.0933 283.211 93.1953 284.111 93.1953 285.223Z" fill="#9EC7EF"/>
</g>
<path d="M175.166 265.211H125.57V270.087H175.166V265.211Z" fill="white"/>
<path d="M175.166 274.914H125.57V277.128H175.166V274.914Z" fill="#B492F4"/>
<path d="M175.166 280.336H125.57V282.55H175.166V280.336Z" fill="#B492F4"/>
<path d="M175.166 285.75H125.57V287.964H175.166V285.75Z" fill="#B492F4"/>
<path d="M175.166 291.172H125.57V293.386H175.166V291.172Z" fill="#B492F4"/>
<path d="M175.166 296.586H125.57V298.8H175.166V296.586Z" fill="#B492F4"/>
<path d="M175.166 302H125.57V304.214H175.166V302Z" fill="#B492F4"/>
<path d="M175.166 307.422H125.57V309.636H175.166V307.422Z" fill="#B492F4"/>
<path d="M175.166 312.844H125.57V315.057H175.166V312.844Z" fill="#B492F4"/>
<path d="M362.683 340.405C362.683 344.753 359.126 348.309 354.781 348.309H162.547C158.2 348.309 154.645 344.752 154.645 340.405V208.903C154.645 204.556 158.201 201 162.547 201H354.78C359.126 201 362.682 204.557 362.682 208.903V340.405H362.683Z" fill="#4D7AC1"/>
<path d="M355.08 210.602H162.246V338.704H355.08V210.602Z" fill="#223D94"/>
<path d="M138.855 338.742V346.986C138.855 351.992 142.951 356.088 147.957 356.088H369.372C374.378 356.088 378.476 351.992 378.476 346.986V338.742H138.855Z" fill="#5BA1F4"/>
<path d="M218.152 338.742V341.529C218.152 343.222 219.535 344.607 221.228 344.607H296.099C297.792 344.607 299.177 343.222 299.177 341.529V338.742H218.152Z" fill="#8DC6FF"/>
<path d="M210.371 219.211H170.371V222.211H210.371V219.211Z" fill="#9EC7EF"/>
<path d="M313.702 219.211H225.035V222.211H313.702V219.211Z" fill="#DCC5F9"/>
<path d="M197.999 229.211H170.371V232.211H197.999V229.211Z" fill="#9EC7EF"/>
<path d="M269.371 229.211H208.129V232.211H269.371V229.211Z" fill="#DCC5F9"/>
<path d="M200.603 239.211H170.371V242.211H200.603V239.211Z" fill="#9EC7EF"/>
<path d="M278.704 239.211H211.688V242.211H278.704V239.211Z" fill="#DCC5F9"/>
<path d="M188.489 249.211H170.371V252.211H188.489V249.211Z" fill="#9EC7EF"/>
<path d="M306.037 249.211H195.133V252.211H306.037V249.211Z" fill="#DCC5F9"/>
<path d="M210.371 259.211H170.371V262.211H210.371V259.211Z" fill="#9EC7EF"/>
<path d="M313.702 259.211H225.035V262.211H313.702V259.211Z" fill="#DCC5F9"/>
<path d="M197.999 269.211H170.371V272.211H197.999V269.211Z" fill="#9EC7EF"/>
<path d="M269.371 269.211H208.129V272.211H269.371V269.211Z" fill="#DCC5F9"/>
<path d="M204.79 279.211H170.371V282.211H204.79V279.211Z" fill="#9EC7EF"/>
<path d="M293.705 279.211H217.41V282.211H293.705V279.211Z" fill="#DCC5F9"/>
<path d="M188.489 289.211H170.371V292.211H188.489V289.211Z" fill="#9EC7EF"/>
<path d="M306.037 289.211H195.133V292.211H306.037V289.211Z" fill="#DCC5F9"/>
<path d="M213.812 299.211H170.371V302.211H213.812V299.211Z" fill="#9EC7EF"/>
<path d="M326.039 299.211H229.742V302.211H326.039V299.211Z" fill="#DCC5F9"/>
<path d="M207.487 309.211H170.371V312.211H207.487V309.211Z" fill="#9EC7EF"/>
<path d="M303.369 309.211H221.094V312.211H303.369V309.211Z" fill="#DCC5F9"/>
<path d="M203.205 319.211H170.371V322.211H203.205V319.211Z" fill="#9EC7EF"/>
<path d="M288.025 319.211H215.242V322.211H288.025V319.211Z" fill="#DCC5F9"/>
<path d="M190.049 329.211H170.371V332.211H190.049V329.211Z" fill="#9EC7EF"/>
<path d="M317.709 329.211H197.262V332.211H317.709V329.211Z" fill="#DCC5F9"/>
<path d="M400.981 292.229V281.499H395.173C394.339 276.405 392.335 271.707 389.447 267.685L393.555 263.576L385.969 255.988L381.86 260.098C377.837 257.209 373.138 255.206 368.045 254.37V248.562H357.315V254.37C352.221 255.205 347.524 257.209 343.501 260.098L339.393 255.988L331.805 263.576L335.913 267.685C333.025 271.707 331.021 276.406 330.187 281.499H324.379V292.229H330.187C331.022 297.323 333.026 302.02 335.914 306.043L331.805 310.152L339.393 317.738L343.501 313.63C347.525 316.518 352.223 318.523 357.315 319.357V325.165H368.045V319.357C373.139 318.523 377.836 316.518 381.859 313.63L385.97 317.738L393.557 310.152L389.447 306.042C392.335 302.02 394.34 297.322 395.174 292.229H400.981ZM362.68 308.939C350.488 308.939 340.604 299.056 340.604 286.863C340.604 274.672 350.488 264.786 362.68 264.786C374.872 264.786 384.756 274.672 384.756 286.863C384.756 299.056 374.873 308.939 362.68 308.939Z" fill="#A6D7FF"/>
<path d="M243.266 208.167V193.829H235.506C234.391 187.022 231.713 180.746 227.855 175.37L233.345 169.879L223.208 159.741L217.717 165.232C212.341 161.373 206.064 158.695 199.257 157.579V149.82H184.92V157.579C178.113 158.695 171.836 161.373 166.46 165.232L160.97 159.741L150.831 169.879L156.322 175.37C152.463 180.746 149.785 187.022 148.67 193.829H140.91V208.167H148.67C149.786 214.974 152.464 221.25 156.322 226.626L150.831 232.117L160.97 242.255L166.461 236.764C171.837 240.622 178.113 243.301 184.92 244.416V252.176H199.257V244.416C206.064 243.301 212.34 240.622 217.715 236.764L223.208 242.255L233.346 232.117L227.854 226.626C231.712 221.25 234.391 214.974 235.506 208.167H243.266ZM192.088 230.495C175.797 230.495 162.59 217.289 162.59 200.998C162.59 184.706 175.797 171.499 192.088 171.499C208.38 171.499 221.586 184.706 221.586 200.998C221.586 217.289 208.38 230.495 192.088 230.495Z" fill="#A6D7FF"/>
<path d="M349.183 134.895V125.425H344.058C343.323 120.93 341.554 116.783 339.005 113.234L342.631 109.607L335.936 102.912L332.31 106.539C328.759 103.989 324.613 102.221 320.118 101.484V96.3594H310.648V101.484C306.153 102.22 302.007 103.989 298.457 106.539L294.831 102.912L288.135 109.607L291.76 113.234C289.212 116.784 287.444 120.93 286.707 125.425H281.582V134.895H286.707C287.444 139.39 289.213 143.536 291.761 147.086L288.135 150.713L294.831 157.408L298.457 153.781C302.008 156.33 306.153 158.099 310.648 158.835V163.961H320.118V158.835C324.613 158.1 328.759 156.33 332.308 153.781L335.936 157.408L342.632 150.713L339.004 147.085C341.553 143.535 343.322 139.39 344.058 134.895H349.183ZM315.382 149.642C304.622 149.642 295.899 140.92 295.899 130.16C295.899 119.4 304.622 110.677 315.382 110.677C326.142 110.677 334.864 119.401 334.864 130.16C334.865 140.92 326.142 149.642 315.382 149.642Z" fill="#A6D7FF"/>
<path d="M321.594 189.082H258.754V126.242H321.594V189.082ZM259.754 188.082H320.594V127.242H259.754V188.082Z" fill="#EFC45E"/>
<path d="M316.174 131.664H264.172V183.666H316.174V131.664Z" fill="#EFC45E"/>
<path d="M277.221 152.764H279.165V161.164H277.221V152.764ZM273.405 161.164H271.461V152.764H273.405V161.164ZM277.365 157.72H273.261V156.076H277.365V157.72ZM282.892 161.164V154.348H280.204V152.764H287.524V154.348H284.836V161.164H282.892ZM288.57 161.164V152.764H290.178L293.754 158.692H292.902L296.418 152.764H298.014L298.038 161.164H296.214L296.202 155.56H296.538L293.73 160.276H292.854L289.986 155.56H290.394V161.164H288.57ZM300.031 161.164V152.764H301.975V159.58H306.187V161.164H300.031Z" fill="#223D94"/>
<path d="M253.5 118.16H210.574V75.2344H253.5V118.16ZM211.574 117.16H252.5V76.2344H211.574V117.16Z" fill="#7946F2"/>
<path d="M249.666 79.0703H214.41V114.327H249.666V79.0703Z" fill="#7946F2"/>
<path d="M226.35 100.763C225.743 100.763 225.182 100.652 224.669 100.43C224.164 100.199 223.749 99.8734 223.424 99.4541L224.579 98.0677C224.827 98.3929 225.088 98.6411 225.362 98.8123C225.636 98.9748 225.931 99.0561 226.248 99.0561C227.095 99.0561 227.518 98.5598 227.518 97.5671V93.2925H224.361V91.6238H229.585V97.4516C229.585 98.5641 229.311 99.3942 228.764 99.9419C228.216 100.49 227.411 100.763 226.35 100.763ZM234.592 100.763C233.873 100.763 233.184 100.669 232.525 100.481C231.866 100.284 231.335 100.032 230.933 99.7236L231.639 98.1576C232.024 98.4314 232.478 98.6582 233 98.8379C233.53 99.0091 234.065 99.0947 234.604 99.0947C235.015 99.0947 235.345 99.0561 235.593 98.9791C235.85 98.8935 236.038 98.778 236.158 98.6325C236.277 98.4871 236.337 98.3202 236.337 98.1319C236.337 97.8923 236.243 97.704 236.055 97.5671C235.867 97.4216 235.618 97.3061 235.31 97.2205C235.002 97.1264 234.66 97.0408 234.283 96.9638C233.916 96.8782 233.543 96.7755 233.167 96.6557C232.799 96.5359 232.461 96.3819 232.153 96.1936C231.845 96.0053 231.592 95.7571 231.395 95.4491C231.207 95.141 231.113 94.7473 231.113 94.2681C231.113 93.7546 231.25 93.2882 231.524 92.8689C231.806 92.441 232.225 92.103 232.782 91.8548C233.346 91.5981 234.052 91.4697 234.9 91.4697C235.464 91.4697 236.021 91.5382 236.568 91.6751C237.116 91.8035 237.6 92.0003 238.019 92.2656L237.377 93.8445C236.958 93.6049 236.538 93.4294 236.119 93.3182C235.7 93.1984 235.289 93.1385 234.887 93.1385C234.485 93.1385 234.155 93.1855 233.898 93.2797C233.642 93.3738 233.458 93.4979 233.346 93.6519C233.235 93.7974 233.18 93.9686 233.18 94.1654C233.18 94.3965 233.274 94.5847 233.462 94.7302C233.65 94.8671 233.898 94.9784 234.206 95.064C234.515 95.1495 234.853 95.2351 235.221 95.3207C235.597 95.4063 235.969 95.5047 236.337 95.6159C236.714 95.7272 237.056 95.8769 237.364 96.0652C237.672 96.2535 237.921 96.5017 238.109 96.8097C238.306 97.1178 238.404 97.5072 238.404 97.9779C238.404 98.4828 238.263 98.9449 237.98 99.3642C237.698 99.7836 237.274 100.122 236.71 100.378C236.153 100.635 235.447 100.763 234.592 100.763Z" fill="white"/>
<path d="M379.645 87.8557H336.719V44.9297H379.645V87.8557ZM337.719 86.8557H378.645V45.9297H337.719V86.8557Z" fill="#5BA1F4"/>
<path d="M375.811 48.7656H340.555V84.0216H375.811V48.7656Z" fill="#5BA1F4"/>
<path d="M350.434 69.2726C349.84 69.2726 349.286 69.1773 348.773 68.9866C348.267 68.7886 347.827 68.51 347.453 68.1506C347.079 67.7913 346.786 67.3696 346.573 66.8856C346.368 66.4016 346.265 65.87 346.265 65.2906C346.265 64.7113 346.368 64.1796 346.573 63.6956C346.786 63.2116 347.079 62.79 347.453 62.4306C347.834 62.0713 348.278 61.7963 348.784 61.6056C349.29 61.4076 349.844 61.3086 350.445 61.3086C351.112 61.3086 351.714 61.426 352.249 61.6606C352.792 61.888 353.246 62.2253 353.613 62.6726L352.469 63.7286C352.205 63.428 351.912 63.2043 351.589 63.0576C351.266 62.9036 350.914 62.8266 350.533 62.8266C350.174 62.8266 349.844 62.8853 349.543 63.0026C349.242 63.12 348.982 63.2886 348.762 63.5086C348.542 63.7286 348.37 63.989 348.245 64.2896C348.128 64.5903 348.069 64.924 348.069 65.2906C348.069 65.6573 348.128 65.991 348.245 66.2916C348.37 66.5923 348.542 66.8526 348.762 67.0726C348.982 67.2926 349.242 67.4613 349.543 67.5786C349.844 67.696 350.174 67.7546 350.533 67.7546C350.914 67.7546 351.266 67.6813 351.589 67.5346C351.912 67.3806 352.205 67.1496 352.469 66.8416L353.613 67.8976C353.246 68.345 352.792 68.686 352.249 68.9206C351.714 69.1553 351.109 69.2726 350.434 69.2726ZM357.303 69.2726C356.687 69.2726 356.097 69.192 355.532 69.0306C354.968 68.862 354.513 68.6456 354.168 68.3816L354.773 67.0396C355.103 67.2743 355.492 67.4686 355.939 67.6226C356.394 67.7693 356.852 67.8426 357.314 67.8426C357.666 67.8426 357.949 67.8096 358.161 67.7436C358.381 67.6703 358.543 67.5713 358.645 67.4466C358.748 67.322 358.799 67.179 358.799 67.0176C358.799 66.8123 358.719 66.651 358.557 66.5336C358.396 66.409 358.183 66.31 357.919 66.2366C357.655 66.156 357.362 66.0826 357.039 66.0166C356.724 65.9433 356.405 65.8553 356.082 65.7526C355.767 65.65 355.477 65.518 355.213 65.3566C354.949 65.1953 354.733 64.9826 354.564 64.7186C354.403 64.4546 354.322 64.1173 354.322 63.7066C354.322 63.2666 354.44 62.867 354.674 62.5076C354.916 62.141 355.276 61.8513 355.752 61.6386C356.236 61.4186 356.841 61.3086 357.567 61.3086C358.051 61.3086 358.528 61.3673 358.997 61.4846C359.467 61.5946 359.881 61.7633 360.24 61.9906L359.69 63.3436C359.331 63.1383 358.972 62.988 358.612 62.8926C358.253 62.79 357.901 62.7386 357.556 62.7386C357.212 62.7386 356.929 62.779 356.709 62.8596C356.489 62.9403 356.332 63.0466 356.236 63.1786C356.141 63.3033 356.093 63.45 356.093 63.6186C356.093 63.8166 356.174 63.978 356.335 64.1026C356.497 64.22 356.709 64.3153 356.973 64.3886C357.237 64.462 357.527 64.5353 357.842 64.6086C358.165 64.682 358.484 64.7663 358.799 64.8616C359.122 64.957 359.415 65.0853 359.679 65.2466C359.943 65.408 360.156 65.6206 360.317 65.8846C360.486 66.1486 360.57 66.4823 360.57 66.8856C360.57 67.3183 360.449 67.7143 360.207 68.0736C359.965 68.433 359.602 68.7226 359.118 68.9426C358.642 69.1626 358.037 69.2726 357.303 69.2726ZM364.318 69.2726C363.702 69.2726 363.112 69.192 362.547 69.0306C361.982 68.862 361.528 68.6456 361.183 68.3816L361.788 67.0396C362.118 67.2743 362.507 67.4686 362.954 67.6226C363.409 67.7693 363.867 67.8426 364.329 67.8426C364.681 67.8426 364.963 67.8096 365.176 67.7436C365.396 67.6703 365.557 67.5713 365.66 67.4466C365.763 67.322 365.814 67.179 365.814 67.0176C365.814 66.8123 365.733 66.651 365.572 66.5336C365.411 66.409 365.198 66.31 364.934 66.2366C364.67 66.156 364.377 66.0826 364.054 66.0166C363.739 65.9433 363.42 65.8553 363.097 65.7526C362.782 65.65 362.492 65.518 362.228 65.3566C361.964 65.1953 361.748 64.9826 361.579 64.7186C361.418 64.4546 361.337 64.1173 361.337 63.7066C361.337 63.2666 361.454 62.867 361.689 62.5076C361.931 62.141 362.29 61.8513 362.767 61.6386C363.251 61.4186 363.856 61.3086 364.582 61.3086C365.066 61.3086 365.543 61.3673 366.012 61.4846C366.481 61.5946 366.896 61.7633 367.255 61.9906L366.705 63.3436C366.346 63.1383 365.986 62.988 365.627 62.8926C365.268 62.79 364.916 62.7386 364.571 62.7386C364.226 62.7386 363.944 62.779 363.724 62.8596C363.504 62.9403 363.346 63.0466 363.251 63.1786C363.156 63.3033 363.108 63.45 363.108 63.6186C363.108 63.8166 363.189 63.978 363.35 64.1026C363.511 64.22 363.724 64.3153 363.988 64.3886C364.252 64.462 364.542 64.5353 364.857 64.6086C365.18 64.682 365.499 64.7663 365.814 64.8616C366.137 64.957 366.43 65.0853 366.694 65.2466C366.958 65.408 367.171 65.6206 367.332 65.8846C367.501 66.1486 367.585 66.4823 367.585 66.8856C367.585 67.3183 367.464 67.7143 367.222 68.0736C366.98 68.433 366.617 68.7226 366.133 68.9426C365.656 69.1626 365.051 69.2726 364.318 69.2726Z" fill="white"/>
<path d="M399.134 221.12H348.023V170.008H399.134V221.12ZM349.023 220.12H398.134V171.008H349.023V220.12Z" fill="#7946F2"/>
<path d="M394.647 174.492H352.508V216.632H394.647V174.492Z" fill="#7946F2"/>
<path d="M359.87 200.167C359.397 200.167 358.96 200.08 358.56 199.907C358.167 199.727 357.843 199.474 357.59 199.147L358.49 198.067C358.683 198.32 358.887 198.514 359.1 198.647C359.313 198.774 359.543 198.837 359.79 198.837C360.45 198.837 360.78 198.45 360.78 197.677V194.347H358.32V193.047H362.39V197.587C362.39 198.454 362.177 199.1 361.75 199.527C361.323 199.954 360.697 200.167 359.87 200.167ZM362.924 200.047L366.044 193.047H367.644L370.774 200.047H369.074L366.514 193.867H367.154L364.584 200.047H362.924ZM364.484 198.547L364.914 197.317H368.514L368.954 198.547H364.484ZM373.219 200.047L370.199 193.047H371.949L374.589 199.247H373.559L376.239 193.047H377.849L374.819 200.047H373.219ZM377.279 200.047L380.399 193.047H381.999L385.129 200.047H383.429L380.869 193.867H381.509L378.939 200.047H377.279ZM378.839 198.547L379.269 197.317H382.869L383.309 198.547H378.839Z" fill="white"/>
<path d="M82.3063 346.259H31.1953V295.148H82.3063V346.259ZM32.1953 345.259H81.3063V296.148H32.1953V345.259Z" fill="#5BA1F4"/>
<path d="M77.8187 299.633H35.6797V341.773H77.8187V299.633Z" fill="#5BA1F4"/>
<path d="M43.831 324.18V316.48H47.164C47.8533 316.48 48.4473 316.593 48.946 316.821C49.4446 317.041 49.8296 317.36 50.101 317.778C50.3723 318.196 50.508 318.694 50.508 319.274C50.508 319.846 50.3723 320.341 50.101 320.759C49.8296 321.177 49.4446 321.499 48.946 321.727C48.4473 321.947 47.8533 322.057 47.164 322.057H44.821L45.613 321.254V324.18H43.831ZM45.613 321.452L44.821 320.605H47.065C47.615 320.605 48.0256 320.487 48.297 320.253C48.5683 320.018 48.704 319.692 48.704 319.274C48.704 318.848 48.5683 318.518 48.297 318.284C48.0256 318.049 47.615 317.932 47.065 317.932H44.821L45.613 317.085V321.452ZM57.0602 316.48H58.8422V324.18H57.0602V316.48ZM53.5622 324.18H51.7802V316.48H53.5622V324.18ZM57.1922 321.023H53.4302V319.516H57.1922V321.023ZM60.664 324.18V316.48H63.997C64.6863 316.48 65.2803 316.593 65.779 316.821C66.2776 317.041 66.6626 317.36 66.934 317.778C67.2053 318.196 67.341 318.694 67.341 319.274C67.341 319.846 67.2053 320.341 66.934 320.759C66.6626 321.177 66.2776 321.499 65.779 321.727C65.2803 321.947 64.6863 322.057 63.997 322.057H61.654L62.446 321.254V324.18H60.664ZM62.446 321.452L61.654 320.605H63.898C64.448 320.605 64.8586 320.487 65.13 320.253C65.4013 320.018 65.537 319.692 65.537 319.274C65.537 318.848 65.4013 318.518 65.13 318.284C64.8586 318.049 64.448 317.932 63.898 317.932H61.654L62.446 317.085V321.452Z" fill="white"/>
<path d="M151.688 405.574H88.8477V342.734H151.688V405.574ZM89.8477 404.574H150.688V343.734H89.8477V404.574Z" fill="#7946F2"/>
<path d="M146.268 348.156H94.2656V400.159H146.268V348.156Z" fill="#7946F2"/>
<path d="M110.555 377.836C109.745 377.836 108.99 377.706 108.29 377.446C107.6 377.176 107 376.796 106.49 376.306C105.98 375.816 105.58 375.241 105.29 374.581C105.01 373.921 104.87 373.196 104.87 372.406C104.87 371.616 105.01 370.891 105.29 370.231C105.58 369.571 105.98 368.996 106.49 368.506C107.01 368.016 107.615 367.641 108.305 367.381C108.995 367.111 109.75 366.976 110.57 366.976C111.48 366.976 112.3 367.136 113.03 367.456C113.77 367.766 114.39 368.226 114.89 368.836L113.33 370.276C112.97 369.866 112.57 369.561 112.13 369.361C111.69 369.151 111.21 369.046 110.69 369.046C110.2 369.046 109.75 369.126 109.34 369.286C108.93 369.446 108.575 369.676 108.275 369.976C107.975 370.276 107.74 370.631 107.57 371.041C107.41 371.451 107.33 371.906 107.33 372.406C107.33 372.906 107.41 373.361 107.57 373.771C107.74 374.181 107.975 374.536 108.275 374.836C108.575 375.136 108.93 375.366 109.34 375.526C109.75 375.686 110.2 375.766 110.69 375.766C111.21 375.766 111.69 375.666 112.13 375.466C112.57 375.256 112.97 374.941 113.33 374.521L114.89 375.961C114.39 376.571 113.77 377.036 113.03 377.356C112.3 377.676 111.475 377.836 110.555 377.836ZM118.753 375.871V368.941H120.688V375.871H118.753ZM116.158 373.321V371.491H123.298V373.321H116.158ZM127.791 375.871V368.941H129.726V375.871H127.791ZM125.196 373.321V371.491H132.336V373.321H125.196Z" fill="white"/>
<path d="M60.4807 421.615H17.5547V378.688H60.4807V421.615ZM18.5547 420.615H59.4807V379.688H18.5547V420.615Z" fill="#EFC45E"/>
<path d="M56.6466 382.523H21.3906V417.779H56.6466V382.523Z" fill="#EFC45E"/>
<path d="M34.5341 402.65L28.8221 400.478V398.918L34.5341 396.746V398.246L29.3861 400.118V399.278L34.5341 401.15V402.65ZM34.8657 405.098L38.8257 393.794H40.4937L36.5337 405.098H34.8657ZM40.7049 402.65V401.15L45.8529 399.278V400.118L40.7049 398.246V396.746L46.4169 398.918V400.478L40.7049 402.65Z" fill="#223D94"/>
<path d="M109.223 74.1303L100.666 77.2653L109.223 80.3743V83.5853L96.9922 78.9353V75.5953L109.223 70.9453V74.1303Z" fill="#A6D7FF"/>
<path d="M120.991 64.625H124.563L116.084 88.829H112.512L120.991 64.625Z" fill="#A6D7FF"/>
<path d="M139.824 75.5963V78.9363L127.594 83.5863V80.3753L136.151 77.2663L127.594 74.1313V70.9453L139.824 75.5963Z" fill="#A6D7FF"/>
<path d="M190.234 43.9297H186.484V40.1797H184.484V43.9297H180.734V45.9297H184.484V49.6797H186.484V45.9297H190.234V43.9297Z" fill="#A6D7FF"/>
<path d="M399.395 111.992H395.645V108.242H393.645V111.992H389.895V113.992H393.645V117.742H395.645V113.992H399.395V111.992Z" fill="#A6D7FF"/>
<path d="M430.219 203.352H426.469V199.602H424.469V203.352H420.719V205.352H424.469V209.102H426.469V205.352H430.219V203.352Z" fill="#A6D7FF"/>
<path d="M50.7578 39.1797H47.0078V35.4297H45.0078V39.1797H41.2578V41.1797H45.0078V44.9297H47.0078V41.1797H50.7578V39.1797Z" fill="#A6D7FF"/>
<path d="M30.7773 145.359H27.0273V141.609H25.0273V145.359H21.2773V147.359H25.0273V151.109H27.0273V147.359H30.7773V145.359Z" fill="#A6D7FF"/>
<path d="M425.469 249.703H421.719V245.953H419.719V249.703H415.969V251.703H419.719V255.453H421.719V251.703H425.469V249.703Z" fill="#A6D7FF"/>
<path d="M23.1562 241.234H19.4062V237.484H17.4062V241.234H13.6562V243.234H17.4062V246.984H19.4062V243.234H23.1562V241.234Z" fill="#A6D7FF"/>
<path d="M229.785 386.758H226.035V383.008H224.035V386.758H220.285V388.758H224.035V392.508H226.035V388.758H229.785V386.758Z" fill="#A6D7FF"/>
<path d="M330.785 420.617H327.035V416.867H325.035V420.617H321.285V422.617H325.035V426.367H327.035V422.617H330.785V420.617Z" fill="#A6D7FF"/>
<g opacity="0.5">
<path d="M277.006 417.902C265.367 417.902 255.898 408.433 255.898 396.794C255.898 385.155 265.367 375.688 277.006 375.688C288.645 375.688 298.113 385.156 298.113 396.794C298.114 408.433 288.645 417.902 277.006 417.902ZM277.006 376.686C265.919 376.686 256.898 385.708 256.898 396.794C256.898 407.882 265.919 416.902 277.006 416.902C288.093 416.902 297.113 407.881 297.113 396.794C297.114 385.707 288.093 376.686 277.006 376.686Z" fill="#5BA1F4"/>
<path d="M425.473 330.39C418.398 330.39 412.641 324.634 412.641 317.558C412.641 310.484 418.398 304.727 425.473 304.727C432.548 304.727 438.304 310.484 438.304 317.558C438.304 324.634 432.548 330.39 425.473 330.39ZM425.473 305.727C418.949 305.727 413.641 311.035 413.641 317.558C413.641 324.083 418.949 329.39 425.473 329.39C431.996 329.39 437.304 324.083 437.304 317.558C437.304 311.034 431.997 305.727 425.473 305.727Z" fill="#5BA1F4"/>
<path d="M388.269 403.108C382.43 403.108 377.68 398.357 377.68 392.518C377.68 386.68 382.43 381.93 388.269 381.93C394.107 381.93 398.857 386.68 398.857 392.518C398.857 398.357 394.107 403.108 388.269 403.108ZM388.269 382.93C382.982 382.93 378.68 387.231 378.68 392.518C378.68 397.806 382.982 402.108 388.269 402.108C393.556 402.108 397.857 397.806 397.857 392.518C397.857 387.231 393.556 382.93 388.269 382.93Z" fill="#5BA1F4"/>
<path d="M31.1968 100.184C19.5578 100.184 10.0898 90.7148 10.0898 79.0758C10.0898 67.4368 19.5588 57.9688 31.1968 57.9688C42.8348 57.9688 52.3038 67.4378 52.3038 79.0758C52.3038 90.7148 42.8358 100.184 31.1968 100.184ZM31.1968 58.9688C20.1098 58.9688 11.0898 67.9888 11.0898 79.0758C11.0898 90.1638 20.1098 99.1837 31.1968 99.1837C42.2838 99.1837 51.3038 90.1628 51.3038 79.0758C51.3038 67.9888 42.2838 58.9688 31.1968 58.9688Z" fill="#5BA1F4"/>
<path d="M125.57 47.9062C118.494 47.9062 112.738 42.1502 112.738 35.0742C112.738 27.9992 118.494 22.2422 125.57 22.2422C132.645 22.2422 138.401 27.9982 138.401 35.0742C138.401 42.1502 132.646 47.9062 125.57 47.9062ZM125.57 23.2422C119.046 23.2422 113.738 28.5502 113.738 35.0742C113.738 41.5982 119.046 46.9062 125.57 46.9062C132.093 46.9062 137.401 41.5982 137.401 35.0742C137.401 28.5502 132.094 23.2422 125.57 23.2422Z" fill="#5BA1F4"/>
<path d="M23.1712 212.443C17.7412 212.443 13.3242 208.026 13.3242 202.596C13.3242 197.167 17.7412 192.75 23.1712 192.75C28.6002 192.75 33.0172 197.167 33.0172 202.596C33.0172 208.026 28.6002 212.443 23.1712 212.443ZM23.1712 193.75C18.2932 193.75 14.3242 197.718 14.3242 202.596C14.3242 207.474 18.2932 211.443 23.1712 211.443C28.0482 211.443 32.0172 207.474 32.0172 202.596C32.0172 197.719 28.0482 193.75 23.1712 193.75Z" fill="#5BA1F4"/>
</g>
</svg>
