<svg width="512" height="512" viewBox="0 0 512 512" fill="none" xmlns="http://www.w3.org/2000/svg">
<path d="M497 0H15C6.716 0 0 6.716 0 15V368.467C0 376.751 6.716 383.467 15 383.467H208.866V417.734H175.65C117.665 417.734 100.386 469.068 97.866 482.001H79.267C70.983 482.001 64.267 488.717 64.267 497.001C64.267 505.285 70.983 512.001 79.267 512.001H432.734C441.018 512.001 447.734 505.285 447.734 497.001C447.734 488.717 441.018 482.001 432.734 482.001H414.136C406.751 444.105 373.758 417.734 336.35 417.734H303.134V383.467H497C505.284 383.467 512 376.751 512 368.467V15C512 6.716 505.284 0 497 0ZM336.35 447.733C347.731 447.733 374.139 453.647 383.239 482H128.762C132.33 470.883 145.831 447.733 175.651 447.733H336.35ZM238.866 417.733V383.466H273.134V417.733H238.866ZM482 353.467H30V319.2H482V353.467ZM322.758 158.533L335.825 289.2H176.175L189.242 158.533H322.758ZM238.866 128.533V111.4C238.866 102.063 246.415 94.266 256 94.266C265.447 94.266 273.134 101.953 273.134 111.4V128.533H238.866ZM482 289.2H365.976L351.259 142.041C350.492 134.373 344.039 128.533 336.333 128.533H303.134V111.4C303.134 85.411 281.989 64.266 256 64.266C229.696 64.266 208.866 85.617 208.866 111.4V128.533H175.667C167.961 128.533 161.508 134.373 160.741 142.041L146.024 289.2H30V30H482V289.2Z" fill="black"/>
</svg>
