<svg width="510" height="512" viewBox="0 0 510 512" fill="none" xmlns="http://www.w3.org/2000/svg">
<path d="M495 162C486.716 162 480 168.716 480 177V196.188L390 166.188V77C390 68.716 383.284 62 375 62H350V15C350 6.716 343.284 0 335 0H175C166.716 0 160 6.716 160 15V62H135C126.716 62 120 68.716 120 77V166.188L30 196.188V177C30 168.716 23.284 162 15 162C6.716 162 0 168.716 0 177V497C0 505.284 6.716 512 15 512H495C503.284 512 510 505.284 510 497V177C510 168.716 503.284 162 495 162ZM120 482H90V447C90 438.716 83.284 432 75 432C66.716 432 60 438.716 60 447V482H30V227.812L120 197.812V482ZM190 30H320V62H190V30ZM290 482H220V442H290V482ZM360 482H320V427C320 418.716 313.284 412 305 412H205C196.716 412 190 418.716 190 427V482H150V92H360V482ZM480 482H450V447C450 438.716 443.284 432 435 432C426.716 432 420 438.716 420 447V482H390V197.812L480 227.812V482Z" fill="black"/>
<path d="M75 402C83.284 402 90 395.284 90 387V357C90 348.716 83.284 342 75 342C66.716 342 60 348.716 60 357V387C60 395.284 66.716 402 75 402Z" fill="black"/>
<path d="M75 312C83.284 312 90 305.284 90 297V267C90 258.716 83.284 252 75 252C66.716 252 60 258.716 60 267V297C60 305.284 66.716 312 75 312Z" fill="black"/>
<path d="M435 402C443.284 402 450 395.284 450 387V357C450 348.716 443.284 342 435 342C426.716 342 420 348.716 420 357V387C420 395.284 426.716 402 435 402Z" fill="black"/>
<path d="M435 312C443.284 312 450 305.284 450 297V267C450 258.716 443.284 252 435 252C426.716 252 420 258.716 420 267V297C420 305.284 426.716 312 435 312Z" fill="black"/>
<path d="M255 362C263.284 362 270 355.284 270 347V317C270 308.716 263.284 302 255 302C246.716 302 240 308.716 240 317V347C240 355.284 246.716 362 255 362Z" fill="black"/>
<path d="M255 272C263.284 272 270 265.284 270 257V227C270 218.716 263.284 212 255 212C246.716 212 240 218.716 240 227V257C240 265.284 246.716 272 255 272Z" fill="black"/>
<path d="M255 182C263.284 182 270 175.284 270 167V137C270 128.716 263.284 122 255 122C246.716 122 240 128.716 240 137V167C240 175.284 246.716 182 255 182Z" fill="black"/>
<path d="M315 362C323.284 362 330 355.284 330 347V317C330 308.716 323.284 302 315 302C306.716 302 300 308.716 300 317V347C300 355.284 306.716 362 315 362Z" fill="black"/>
<path d="M315 272C323.284 272 330 265.284 330 257V227C330 218.716 323.284 212 315 212C306.716 212 300 218.716 300 227V257C300 265.284 306.716 272 315 272Z" fill="black"/>
<path d="M315 182C323.284 182 330 175.284 330 167V137C330 128.716 323.284 122 315 122C306.716 122 300 128.716 300 137V167C300 175.284 306.716 182 315 182Z" fill="black"/>
<path d="M195 362C203.284 362 210 355.284 210 347V317C210 308.716 203.284 302 195 302C186.716 302 180 308.716 180 317V347C180 355.284 186.716 362 195 362Z" fill="black"/>
<path d="M195 272C203.284 272 210 265.284 210 257V227C210 218.716 203.284 212 195 212C186.716 212 180 218.716 180 227V257C180 265.284 186.716 272 195 272Z" fill="black"/>
<path d="M195 182C203.284 182 210 175.284 210 167V137C210 128.716 203.284 122 195 122C186.716 122 180 128.716 180 137V167C180 175.284 186.716 182 195 182Z" fill="black"/>
</svg>
