<?xml version="1.0" encoding="utf-8"?>
<!-- Generator: Adobe Illustrator 27.5.0, SVG Export Plug-In . SVG Version: 6.00 Build 0)  -->
<svg version="1.1" xmlns="http://www.w3.org/2000/svg" xmlns:xlink="http://www.w3.org/1999/xlink" x="0px" y="0px"
	 viewBox="0 0 2500 2500" style="enable-background:new 0 0 2500 2500;" xml:space="preserve">
<g id="Background">
	<rect style="fill:#FFFFFF;" width="2500" height="2500"/>
</g>
<g id="Illustration">
	<g id="IoT_development_1_">
		<circle style="fill:#F2E6DC;" cx="1250" cy="1250" r="915"/>
		<g>
			<g>
				<path style="fill:#FFFFFF;" d="M1595.915,817.836h-18.939c-1.696-9.232-4.115-18.21-7.189-26.878l16.39-9.463l-32.048-55.509h0
					l-16.427,9.485c-6.029-7.058-12.604-13.632-19.661-19.661l9.484-16.428l-55.508-32.048h0l-9.463,16.391
					c-8.668-3.074-17.646-5.493-26.878-7.189v-18.939h-64.096l0,0v18.939c-9.232,1.696-18.21,4.115-26.879,7.189l-9.463-16.391v0
					l-55.509,32.048l9.484,16.428c-7.058,6.028-13.632,12.603-19.661,19.661l-16.428-9.485h0l-32.048,55.509l0,0l16.39,9.463
					c-3.074,8.669-5.493,17.646-7.189,26.878h-18.939v0v64.096h18.939c1.696,9.232,4.115,18.21,7.189,26.878l-16.39,9.463v0
					l32.048,55.509h0l16.428-9.485c6.028,7.057,12.603,13.632,19.661,19.661l-9.484,16.428l55.509,32.048l0,0l9.463-16.39
					c8.669,3.074,17.646,5.493,26.879,7.189v18.939l0,0h64.096v-18.939c9.232-1.696,18.21-4.114,26.878-7.189l9.463,16.39h0
					l55.508-32.048l-9.484-16.428c7.057-6.028,13.632-12.603,19.661-19.661l16.427,9.485h0l32.048-55.509v0l-16.39-9.463
					c3.074-8.669,5.493-17.646,7.189-26.878h18.939V817.836z M1517.525,897.386c-11.551,30.554-35.847,54.849-66.401,66.399
					c-103.816,39.244-200.643-57.586-161.396-161.402c11.551-30.555,35.847-54.85,66.402-66.4
					C1459.946,696.74,1556.774,793.569,1517.525,897.386z"/>
			</g>
			<path style="fill:#F2E6DC;" d="M1403.627,992.299c-78.527,0-142.414-63.888-142.414-142.415
				c0-34.313,12.374-67.458,34.843-93.332c22.244-25.616,52.874-42.484,86.246-47.496c1.19-0.168,2.326,0.648,2.507,1.854
				c0.181,1.204-0.648,2.328-1.853,2.508c-66.892,10.044-117.334,68.713-117.334,136.466c0,76.096,61.908,138.006,138.005,138.006
				c62.877,0,117.809-42.449,133.586-103.228c0.306-1.178,1.505-1.897,2.688-1.581c1.178,0.306,1.886,1.509,1.579,2.687
				C1525.2,948.491,1468.512,992.299,1403.627,992.299z"/>
		</g>
		<g>
			<path style="fill:#FFFFFF;" d="M688.859,637.561l-0.082,63.092c-0.045,34.845-28.329,63.055-63.174,63.011l0,0
				c-34.845-0.046-63.055-28.329-63.01-63.174l0.082-63.092L688.859,637.561z"/>
			
				<ellipse transform="matrix(0.7071 -0.7071 0.7071 0.7071 -172.7065 590.0835)" style="fill:#EFBC73;" cx="625.941" cy="503.517" rx="163.348" ry="163.348"/>
			<path style="fill:#363E44;" d="M625.939,724.384c-0.104,0-0.198,0-0.285,0c-16.261-0.021-31.563-0.947-43.088-2.61
				c-17.28-2.491-19.605-5.605-19.602-8.32c0.002-1.217,0.988-2.203,2.205-2.203c0.001,0,0.002,0,0.003,0
				c1.117,0.002,2.039,0.833,2.182,1.912c2.373,2.79,24.167,6.767,58.306,6.81c0.19,0,0.38,0,0.57,0
				c33.811,0,55.385-3.888,57.753-6.657c0.145-1.076,1.068-1.906,2.184-1.906c0.001,0,0.002,0,0.003,0
				c1.218,0.002,2.204,0.99,2.202,2.207C688.358,724.018,633.58,724.384,625.939,724.384z"/>
			<path style="fill:#363E44;" d="M626.254,696.727c-0.188,0-0.375,0-0.564,0c-6.418-0.009-62.702-0.385-62.69-10.927
				c0.001-1.216,0.988-2.203,2.205-2.203c0.001,0,0.001,0,0.002,0c1.117,0.002,2.04,0.833,2.183,1.912
				c2.373,2.79,24.167,6.765,58.306,6.808c0.189,0,0.38,0,0.57,0c33.811,0,55.385-3.889,57.753-6.657
				c0.145-1.077,1.068-1.906,2.184-1.906c0.001,0,0.001,0,0.002,0c1.218,0.002,2.204,0.99,2.203,2.207
				c-0.003,2.715-2.337,5.822-19.623,8.268C657.388,695.841,642.302,696.727,626.254,696.727z"/>
			<g>
				<path style="fill:#363E44;" d="M647.596,629.342c-0.288,0-0.582-0.056-0.865-0.177c-1.121-0.478-1.641-1.774-1.162-2.894
					l51.489-120.565c0.478-1.12,1.774-1.641,2.893-1.163c1.121,0.478,1.641,1.774,1.162,2.894l-51.489,120.565
					C649.266,628.84,648.453,629.342,647.596,629.342z"/>
				<path style="fill:#363E44;" d="M603.964,629.286c-0.859,0-1.675-0.504-2.031-1.344l-51.176-120.699
					c-0.475-1.122,0.048-2.416,1.17-2.892c1.116-0.474,2.415,0.047,2.891,1.169l51.176,120.699c0.475,1.122-0.048,2.416-1.17,2.892
					C604.544,629.23,604.252,629.286,603.964,629.286z"/>
				<path style="fill:#FFFFFF;" d="M655.292,523.323c-8.559,0-17.137-2.713-23.903-7.951c-6.662,2.932-14.001,4.265-21.286,3.533
					c-19.781-2.003-36.865-19.06-38.894-38.836c-0.125-1.212,0.757-2.295,1.968-2.42c1.216-0.112,2.293,0.758,2.418,1.968
					c1.824,17.772,17.177,33.103,34.952,34.9c5.86,0.59,11.748-0.306,17.21-2.388c-10.421-10.686-13.888-27.73-8.177-41.575
					c2.754-6.675,8.746-14.112,17.304-14.958c7.405-0.721,14.998,3.981,18.49,11.453c2.851,6.1,3.069,13.769,0.615,21.596
					c-3.26,10.393-10.786,19.083-20.176,24.486c10.469,7.049,24.993,7.818,36.009,1.55c1.06-0.601,2.405-0.232,3.007,0.825
					c0.602,1.059,0.233,2.405-0.826,3.008C668.321,521.747,661.812,523.323,655.292,523.323z M638.373,459.932
					c-0.353,0-0.705,0.017-1.055,0.052c-6.617,0.654-11.396,6.759-13.662,12.251c-5.266,12.764-1.715,28.604,8.426,37.953
					c9.166-4.763,16.59-12.951,19.699-22.862c2.124-6.774,1.981-13.313-0.402-18.409
					C648.879,463.567,643.537,459.932,638.373,459.932z"/>
			</g>
		</g>
		<g>
			<path style="fill:#D3BBA3;" d="M599.138,1980.997h-66.161v-486.518h66.161V1980.997z"/>
			<path style="fill:#D3BBA3;" d="M1091.337,1781.177c0,59.477-18.436,108.822-55.302,148.027
				c-36.87,39.21-84.706,58.81-143.515,58.81c-56.805,0-102.975-19.6-138.504-58.81c-35.535-39.205-53.297-88.55-53.297-148.027
				v-86.544c0-59.255,17.762-108.597,53.297-148.027c35.529-39.43,81.699-59.145,138.504-59.145
				c58.809,0,106.645,19.663,143.515,58.976c36.866,39.32,55.302,88.716,55.302,148.195V1781.177z M1025.51,1693.964
				c0-44.551-12.029-81.081-36.087-109.599c-24.059-28.513-56.362-42.772-96.902-42.772c-38.318,0-68.892,14.259-91.724,42.772
				c-22.837,28.518-34.25,65.048-34.25,109.599v87.213c0,45,11.413,81.757,34.25,110.268c22.832,28.518,53.406,42.77,91.724,42.77
				c40.765,0,73.121-14.201,97.07-42.604c23.943-28.401,35.92-65.209,35.92-110.434V1693.964z"/>
			<path style="fill:#D3BBA3;" d="M1510.024,1546.271h-156.382v434.725h-65.827v-434.725H1131.77v-51.793h378.255V1546.271z"/>
		</g>
		<g>
			<rect x="1416.047" y="1714.414" style="fill:#E6D0BE;" width="691.575" height="39.833"/>
			<path style="fill:#E6D0BE;" d="M2107.622,2135.332h-691.575c-1.218,0-2.205-0.986-2.205-2.205v-418.713
				c0-1.219,0.987-2.205,2.205-2.205h691.575c1.218,0,2.205,0.986,2.205,2.205v418.713
				C2109.827,2134.346,2108.84,2135.332,2107.622,2135.332z M1418.252,2130.923h687.165v-414.304h-687.165V2130.923z"/>
			<path style="fill:#FFFFFF;" d="M1451.594,1734.609c0,5.004-4.056,9.06-9.06,9.06c-5.004,0-9.06-4.056-9.06-9.06
				c0-5.004,4.056-9.06,9.06-9.06C1447.537,1725.549,1451.594,1729.605,1451.594,1734.609z"/>
			<path style="fill:#FFFFFF;" d="M1480.866,1734.609c0,5.004-4.056,9.06-9.06,9.06s-9.06-4.056-9.06-9.06
				c0-5.004,4.057-9.06,9.06-9.06S1480.866,1729.605,1480.866,1734.609z"/>
			<path style="fill:#FFFFFF;" d="M1510.139,1734.609c0,5.004-4.056,9.06-9.06,9.06c-5.004,0-9.06-4.056-9.06-9.06
				c0-5.004,4.056-9.06,9.06-9.06C1506.083,1725.549,1510.139,1729.605,1510.139,1734.609z"/>
		</g>
		<g>
			<path style="fill:#D87355;" d="M1644.962,2037.276c0,18.129-14.697,32.826-32.827,32.826c-18.13,0-32.827-14.697-32.827-32.826
				c0-18.13,14.697-32.827,32.827-32.827C1630.265,2004.449,1644.962,2019.147,1644.962,2037.276z"/>
			<g>
				<path style="fill:#363E44;" d="M2060.003,2006.654h-397.329c-1.218,0-2.205-0.986-2.205-2.205s0.987-2.205,2.205-2.205h397.329
					c1.218,0,2.205,0.986,2.205,2.205S2061.221,2006.654,2060.003,2006.654z"/>
				<path style="fill:#363E44;" d="M2060.003,2039.481h-268.52c-1.218,0-2.205-0.986-2.205-2.205c0-1.219,0.987-2.205,2.205-2.205
					h268.52c1.218,0,2.205,0.986,2.205,2.205C2062.208,2038.495,2061.221,2039.481,2060.003,2039.481z"/>
				<path style="fill:#363E44;" d="M1752.811,2039.481h-90.137c-1.218,0-2.205-0.986-2.205-2.205c0-1.219,0.987-2.205,2.205-2.205
					h90.137c1.218,0,2.205,0.986,2.205,2.205C1755.016,2038.495,1754.028,2039.481,1752.811,2039.481z"/>
				<path style="fill:#363E44;" d="M2060.003,2072.308h-108.971c-1.218,0-2.205-0.986-2.205-2.205s0.987-2.205,2.205-2.205h108.971
					c1.218,0,2.205,0.986,2.205,2.205S2061.221,2072.308,2060.003,2072.308z"/>
				<path style="fill:#363E44;" d="M1878.579,2072.308h-215.905c-1.218,0-2.205-0.986-2.205-2.205s0.987-2.205,2.205-2.205h215.905
					c1.218,0,2.205,0.986,2.205,2.205S1879.797,2072.308,1878.579,2072.308z"/>
			</g>
		</g>
		<rect x="1572.897" y="1554.35" style="fill:#EFBC73;" width="459.677" height="377.679"/>
		<g>
			<path style="fill:#FFFFFF;" d="M1692.33,1705.647v86.059c0,60.975,49.43,110.405,110.405,110.405l0,0
				c60.975,0,110.405-49.43,110.405-110.405v-86.059H1692.33z M1811.548,1797.625v46.577h-17.626v-46.577
				c-9.626-3.58-16.496-12.826-16.496-23.7c0-13.978,11.331-25.308,25.309-25.308c13.977,0,25.309,11.33,25.309,25.308
				C1828.045,1784.8,1821.175,1794.045,1811.548,1797.625z"/>
			<path style="fill:#363E44;" d="M1900.978,1684.716c-1.218,0-2.205-0.986-2.205-2.205c0-52.957-43.082-96.039-96.038-96.039
				c-52.956,0-96.039,43.082-96.039,96.039c0,1.219-0.987,2.205-2.205,2.205c-1.218,0-2.205-0.986-2.205-2.205
				c0-55.387,45.061-100.448,100.448-100.448c55.386,0,100.447,45.061,100.447,100.448
				C1903.183,1683.73,1902.196,1684.716,1900.978,1684.716z"/>
		</g>
		
			<ellipse transform="matrix(0.7071 -0.7071 0.7071 0.7071 -340.4333 1634.4469)" style="fill:#FFFFFF;" cx="1802.735" cy="1228.163" rx="293.64" ry="293.64"/>
		<g>
			
				<ellipse transform="matrix(0.1784 -0.984 0.984 0.1784 101.153 2786.7827)" style="fill:#D87355;" cx="1719.361" cy="1332.819" rx="54.475" ry="54.474"/>
			<path style="fill:#363E44;" d="M1834.366,1335.024c-1.218,0-2.205-0.986-2.205-2.205c0-62.198-50.602-112.801-112.801-112.801
				c-1.218,0-2.205-0.986-2.205-2.205s0.987-2.205,2.205-2.205c64.63,0,117.211,52.58,117.211,117.211
				C1836.571,1334.038,1835.584,1335.024,1834.366,1335.024z"/>
			<path style="fill:#363E44;" d="M1926.371,1335.024c-1.218,0-2.205-0.986-2.205-2.205c0-112.93-91.876-204.805-204.806-204.805
				c-1.218,0-2.205-0.986-2.205-2.205c0-1.219,0.987-2.205,2.205-2.205c115.362,0,209.216,93.853,209.216,209.215
				C1928.576,1334.038,1927.589,1335.024,1926.371,1335.024z"/>
			<path style="fill:#363E44;" d="M2018.375,1335.024c-1.218,0-2.205-0.986-2.205-2.205c0-163.661-133.148-296.809-296.81-296.809
				c-1.218,0-2.205-0.986-2.205-2.205c0-1.219,0.987-2.205,2.205-2.205c166.092,0,301.219,135.127,301.219,301.218
				C2020.58,1334.038,2019.593,1335.024,2018.375,1335.024z"/>
		</g>
		<path style="fill:#E6D0BE;" d="M1552.565,2042.45H896.029c-1.218,0-2.205-0.986-2.205-2.205v-144.952
			c0-1.219,0.987-2.205,2.205-2.205s2.205,0.986,2.205,2.205v142.747h654.332c1.218,0,2.205,0.986,2.205,2.205
			S1553.783,2042.45,1552.565,2042.45z"/>
		<g>
			<g>
				<polygon style="fill:#776E42;" points="1275.179,1083.232 1287.792,1406.004 808.935,1406.004 794.617,1096.04 
					794.311,1089.416 				"/>
				<g>
					<polygon style="fill:#84524D;" points="1070.569,1399.137 920.986,1303.803 867.151,1451.862 1014.25,1483.871 					"/>
					<path style="fill:#D3BBA3;" d="M1328.63,1482.768h-323.003l21.695-119.933c0,0,137.005-59.032,286.76,28.605
						C1314.083,1391.44,1350.995,1436.56,1328.63,1482.768z"/>
					<path style="fill:#363E44;" d="M1099.084,1453.608c-1.218,0-2.205-0.986-2.205-2.205v-73.545c0-1.219,0.987-2.205,2.205-2.205
						c1.218,0,2.205,0.986,2.205,2.205v73.545C1101.289,1452.622,1100.302,1453.608,1099.084,1453.608z"/>
					<path style="fill:#363E44;" d="M1119.957,1453.608c-1.218,0-2.205-0.986-2.205-2.205v-73.545c0-1.219,0.987-2.205,2.205-2.205
						c1.218,0,2.205,0.986,2.205,2.205v73.545C1122.161,1452.622,1121.174,1453.608,1119.957,1453.608z"/>
					<path style="fill:#8B865C;" d="M997.048,1278.276l-90.736,204.492c0,0-252.332-53.209-427.837-163.004
						c-61.326-38.365-81.115-118.582-44.588-181.021c0.521-0.89,1.046-1.779,1.577-2.665
						c31.217-52.179,94.421-75.817,152.664-58.355C681.404,1105.689,855.38,1168.2,997.048,1278.276z"/>
				</g>
				<g>
					<polygon style="fill:#84524D;" points="989.787,1399.137 1139.37,1303.803 1193.206,1451.862 1046.106,1483.871 					"/>
					<path style="fill:#FFFFFF;" d="M735.175,1482.768h319.554l-21.695-113.319c0,0-118.166-68.738-259.275-15.822
						C773.759,1353.627,754.953,1393.837,735.175,1482.768z"/>
					<path style="fill:#363E44;" d="M961.272,1453.608c-1.218,0-2.205-0.986-2.205-2.205v-73.545c0-1.219,0.987-2.205,2.205-2.205
						c1.218,0,2.205,0.986,2.205,2.205v73.545C963.477,1452.622,962.49,1453.608,961.272,1453.608z"/>
					<path style="fill:#363E44;" d="M940.399,1453.608c-1.218,0-2.205-0.986-2.205-2.205v-73.545c0-1.219,0.987-2.205,2.205-2.205
						c1.218,0,2.205,0.986,2.205,2.205v73.545C942.604,1452.622,941.617,1453.608,940.399,1453.608z"/>
					<path style="fill:#8B865C;" d="M1063.308,1278.276l90.736,204.492c0,0,252.332-53.209,427.837-163.004
						c61.326-38.365,81.115-118.582,44.588-181.021c-0.521-0.89-1.046-1.779-1.576-2.665
						c-31.217-52.179-94.421-75.817-152.664-58.355C1378.952,1105.689,1204.976,1168.2,1063.308,1278.276z"/>
				</g>
			</g>
			<g>
				<path style="fill:#EFBC73;" d="M689.457,1160.527l-25.344-4.446c-45.389-7.963-73.981-53.226-61.879-97.691
					c11.537-42.388,28.182-94.299,49.915-139.24c21.348-44.144,62.14-75.778,110.274-85.136
					c101.485-19.73,307.749-46.725,520.587,2.535c43.834,10.145,81.252,38.73,102.262,78.515
					c18.041,34.164,39.168,80.104,53.903,130.737c13.966,47.99-15.284,97.9-63.807,109.885l-113.327-24.602L689.457,1160.527z"/>
				<path style="fill:#84524D;" d="M629.007,1066.79c-1.863,6.701-2.99,14.001-3.063,21.901
					c-0.328,35.656,22.428,67.486,55.701,80.308l166.15,44.325l36.172-123.356l-170.996-64.779
					C678.211,1012.02,638.962,1030.978,629.007,1066.79z"/>
				<path style="fill:#84524D;" d="M1407.241,1105.729c-2.314,6.558-5.575,13.186-10.043,19.702
					c-20.169,29.406-57.06,42.445-91.674,33.881l-167.447-41.43l46.957-139.296l177.25,44.928
					C1398.314,1032.646,1419.609,1070.677,1407.241,1105.729z"/>
			</g>
			<g>
				<rect x="813.181" y="930.11" style="fill:#363E44;" width="431.249" height="258.55"/>
				<rect x="813.181" y="1195.706" style="fill:#363E44;" width="431.249" height="26.469"/>
				<path style="fill:#40484C;" d="M1052.245,1074.237h-46.877c-1.218,0-2.205-0.986-2.205-2.205v-46.876
					c0-1.219,0.987-2.205,2.205-2.205h46.877c1.218,0,2.205,0.986,2.205,2.205v46.876
					C1054.449,1073.251,1053.462,1074.237,1052.245,1074.237z M1007.572,1069.828h42.467v-42.466h-42.467V1069.828z"/>
				<path style="fill:#40484C;" d="M1225.77,953.084H831.842c-1.218,0-2.205-0.986-2.205-2.205c0-1.219,0.987-2.205,2.205-2.205
					h393.927c1.218,0,2.205,0.986,2.205,2.205C1227.974,952.098,1226.987,953.084,1225.77,953.084z"/>
			</g>
			<g>
				<path style="fill:#84524D;" d="M968.265,720.008c9.526,12.855,8.379,29.848-2.562,37.956
					c-10.941,8.107-27.532,4.258-37.058-8.598c-9.526-12.855-8.379-29.848,2.562-37.955
					C942.148,703.304,958.739,707.153,968.265,720.008z"/>
				<path style="fill:#84524D;" d="M1085.876,714.023c-8.172,13.756-5.306,30.545,6.402,37.499
					c11.707,6.954,27.822,1.44,35.994-12.315c8.171-13.756,5.305-30.545-6.402-37.5
					C1110.162,694.753,1094.047,700.267,1085.876,714.023z"/>
				<path style="fill:#363E44;" d="M1099.786,682.824c-2.119-40.814-36.923-72.182-77.736-70.063l0,0
					c-40.814,2.119-72.182,36.922-70.062,77.735l2.487,47.898l147.799-7.673L1099.786,682.824z"/>
				<path style="fill:#84524D;" d="M1022.813,877.459L1022.813,877.459c-28.57-1.31-50.669-25.533-49.359-54.103l4.799-104.647
					l103.462,4.745l-4.8,104.646C1075.606,856.67,1051.383,878.769,1022.813,877.459z"/>
				<path style="fill:#84524D;" d="M1099.308,727.802c2.347,46.115-27.567,85.119-66.814,87.116
					c-39.247,1.998-72.966-33.767-75.313-79.883c-2.347-46.115,27.567-72.453,66.814-74.451
					C1063.242,658.587,1096.961,681.686,1099.308,727.802z"/>
				<path style="fill:#363E44;" d="M1029.339,817.203c-18.46,0-36.086-7.971-49.943-22.673c-0.835-0.885-0.794-2.28,0.091-3.116
					c0.886-0.838,2.28-0.795,3.117,0.093c13.771,14.607,31.452,22.134,49.778,21.208c18.325-0.932,35.147-10.221,47.367-26.154
					c0.741-0.965,2.127-1.145,3.091-0.409c0.967,0.743,1.149,2.125,0.408,3.092c-13.019,16.978-31.004,26.876-50.642,27.877
					C1031.515,817.175,1030.426,817.203,1029.339,817.203z"/>
				<path style="fill:#363E44;" d="M1099.296,752.398c-0.13,0-0.263-0.011-0.396-0.037c-1.198-0.217-1.993-1.365-1.775-2.562
					c1.297-7.133,1.763-14.497,1.389-21.885c-0.336-6.591-1.339-13.11-2.981-19.374c-0.309-1.178,0.396-2.384,1.574-2.694
					c1.188-0.297,2.384,0.398,2.692,1.574c1.718,6.559,2.768,13.378,3.119,20.27c0.393,7.726-0.096,15.429-1.453,22.896
					C1101.269,751.653,1100.341,752.398,1099.296,752.398z"/>
				<path style="fill:#363E44;" d="M959.352,759.004c-0.96,0-1.843-0.631-2.12-1.602c-2.042-7.176-3.275-14.665-3.66-22.255
					c-0.357-7.026,0.014-14.047,1.106-20.87c0.192-1.201,1.337-2.03,2.525-1.828c1.203,0.192,2.022,1.322,1.829,2.526
					c-1.042,6.518-1.397,13.231-1.056,19.949c0.369,7.258,1.547,14.415,3.499,21.273c0.333,1.171-0.346,2.39-1.517,2.724
					C959.755,758.978,959.553,759.004,959.352,759.004z"/>
				<g>
					<path style="fill:#FFFFFF;" d="M1079.301,720.847c-4.294-0.14-12.155,0.876-16.234,2.193c-3.92,1.265-7.324,3.578-10.975,7.16
						c-5.426,5.05-8.317,10.294-8.317,10.294s7.608,2.803,16.798,2.275c3.187-0.182,5.435-4.563,8.752-5.804
						c4.06-1.519,8.675-0.046,11.542-2.513c6.226-5.359,9.542-11.405,9.542-11.405S1085.735,721.338,1079.301,720.847z"/>
					<g>
						<defs>
							<path id="SVGID_1_" d="M1043.775,740.494c0,0,13.803,5.083,26.681,0.266c12.878-4.818,19.955-17.713,19.955-17.713
								s-13.803-5.083-26.681-0.266C1050.851,727.6,1043.775,740.494,1043.775,740.494z"/>
						</defs>
						<clipPath id="SVGID_00000155865651816620706250000017192912191467678090_">
							<use xlink:href="#SVGID_1_"  style="overflow:visible;"/>
						</clipPath>
						<path style="clip-path:url(#SVGID_00000155865651816620706250000017192912191467678090_);fill:#363E44;" d="M1058.012,750.008
							c6.668,5.015,16.14,3.675,21.155-2.994c5.015-6.668,3.674-16.14-2.994-21.155c-6.669-5.015-16.14-3.674-21.155,2.994
							C1050.003,735.523,1051.344,744.994,1058.012,750.008z"/>
					</g>
				</g>
				<g>
					<path style="fill:#FFFFFF;" d="M983.198,720.847c4.294-0.14,12.155,0.876,16.234,2.193c3.921,1.265,7.324,3.578,10.975,7.16
						c5.426,5.05,8.317,10.294,8.317,10.294s-7.609,2.803-16.798,2.275c-3.187-0.182-5.435-4.563-8.753-5.804
						c-4.06-1.519-8.675-0.046-11.542-2.513c-6.226-5.359-9.542-11.405-9.542-11.405S976.764,721.338,983.198,720.847z"/>
					<g>
						<defs>
							<path id="SVGID_00000139278114050237574090000001201200327891503757_" d="M1018.723,740.494c0,0-13.803,5.083-26.681,0.266
								c-12.878-4.818-19.955-17.713-19.955-17.713s13.803-5.083,26.681-0.266C1011.647,727.6,1018.723,740.494,1018.723,740.494z"
								/>
						</defs>
						<clipPath id="SVGID_00000174583116802611158640000012659330029182464660_">
							<use xlink:href="#SVGID_00000139278114050237574090000001201200327891503757_"  style="overflow:visible;"/>
						</clipPath>
						<path style="clip-path:url(#SVGID_00000174583116802611158640000012659330029182464660_);fill:#363E44;" d="M1004.486,750.008
							c-6.668,5.015-16.14,3.675-21.155-2.994c-5.015-6.668-3.674-16.14,2.994-21.155c6.669-5.015,16.14-3.674,21.155,2.994
							C1012.495,735.523,1011.155,744.994,1004.486,750.008z"/>
					</g>
				</g>
				<path style="fill:#363E44;" d="M1033.182,764.458c-0.66,0-1.314-0.295-1.748-0.861c-0.743-0.965-0.562-2.349,0.403-3.092
					c1.182-0.909,2.598-2.271,2.624-3.6c0.015-0.741-0.411-1.369-1.228-2.506c-0.931-1.294-2.09-2.905-2.595-5.342
					c-0.454-2.188-0.266-4.494,0.56-6.858c0.401-1.148,1.661-1.757,2.808-1.354c1.15,0.403,1.756,1.66,1.354,2.81
					c-0.558,1.598-0.693,3.114-0.405,4.507c0.315,1.52,1.065,2.56,1.858,3.665c0.984,1.369,2.1,2.922,2.057,5.168
					c-0.051,2.47-1.511,4.827-4.344,7.008C1034.125,764.309,1033.651,764.458,1033.182,764.458z"/>
				<path style="fill:#363E44;" d="M1022.122,776.059c-2.979,0-7.432-0.592-11.785-3.406c-2.757-1.783-5.112-4.248-6.809-7.129
					c-0.618-1.051-0.268-2.401,0.782-3.019c1.052-0.616,2.401-0.269,3.019,0.779c1.35,2.295,3.219,4.253,5.403,5.665
					c4.191,2.711,8.528,2.816,10.736,2.648c1.205-0.075,2.275,0.812,2.371,2.026c0.095,1.214-0.812,2.276-2.026,2.371
					C1023.326,776.033,1022.757,776.059,1022.122,776.059z"/>
				<g>
					<path style="fill:#363E44;" d="M1020.469,648.877c0,0,133.199-130.923,54.593-167.008
						C1007.573,450.889,1014.46,623.255,1020.469,648.877z"/>
					<path style="fill:#363E44;" d="M1020.163,646.179c0,0,41.47-219.513-44.146-207.224
						C902.511,449.506,1001.223,627.904,1020.163,646.179z"/>
					<path style="fill:#363E44;" d="M1009.295,636.427c0,0-41.798-156.326-102.02-94.242
						C855.572,595.489,983.135,633.552,1009.295,636.427z"/>
					<path style="fill:#363E44;" d="M989.274,630.978c0,0-57.213-26.602-59.303,2.542
						C928.177,658.542,981.882,635.918,989.274,630.978z"/>
				</g>
			</g>
		</g>
		<g>
			<path style="fill:#363E44;" d="M1179.403,907.519c-1.218,0-2.205-0.986-2.205-2.205V615.202c0-1.219,0.987-2.205,2.205-2.205
				h292.403c1.218,0,2.205,0.986,2.205,2.205c0,1.219-0.987,2.205-2.205,2.205h-290.199v287.908
				C1181.608,906.533,1180.62,907.519,1179.403,907.519z"/>
			<g>
				<path style="fill:#363E44;" d="M1686.258,749.386h-213.9c-1.218,0-2.205-0.986-2.205-2.205V491.545
					c0-1.219,0.987-2.205,2.205-2.205h213.9c1.218,0,2.205,0.986,2.205,2.205c0,1.219-0.987,2.205-2.205,2.205h-211.695v251.227
					h211.695c1.218,0,2.205,0.986,2.205,2.205C1688.463,748.4,1687.476,749.386,1686.258,749.386z"/>
				<rect x="1403.627" y="583.186" style="fill:#E6D0BE;" width="135.23" height="60.312"/>
			</g>
			<g>
				<g>
					<path style="fill:#363E44;" d="M1906.607,571.069h-213.899c-1.218,0-2.205-0.986-2.205-2.205V422.801
						c0-1.219,0.987-2.205,2.205-2.205h213.899c1.218,0,2.205,0.986,2.205,2.205c0,1.219-0.987,2.205-2.205,2.205h-211.694v141.653
						h211.694c1.218,0,2.205,0.986,2.205,2.205C1908.811,570.083,1907.824,571.069,1906.607,571.069z"/>
					<rect x="1623.976" y="459.656" style="fill:#EFBC73;" width="135.23" height="60.312"/>
				</g>
				<g>
					<rect x="1908.222" y="393.613" style="fill:#EFBC73;" width="135.23" height="60.312"/>
				</g>
				<g>
					<rect x="1908.222" y="538.708" style="fill:#E6D0BE;" width="135.23" height="60.312"/>
				</g>
			</g>
			<g>
				<g>
					<path style="fill:#363E44;" d="M1909.872,821.934h-213.9c-1.218,0-2.205-0.986-2.205-2.205V673.664
						c0-1.219,0.987-2.205,2.205-2.205h213.9c1.218,0,2.205,0.986,2.205,2.205c0,1.219-0.987,2.205-2.205,2.205h-211.695v141.655
						h211.695c1.218,0,2.205,0.986,2.205,2.205C1912.077,820.948,1911.089,821.934,1909.872,821.934z"/>
					<rect x="1627.24" y="710.52" style="fill:#D3BBA3;" width="135.23" height="60.312"/>
				</g>
				<g>
					<rect x="1911.486" y="644.477" style="fill:#EFBC73;" width="135.23" height="60.312"/>
				</g>
				<g>
					<rect x="1911.486" y="789.572" style="fill:#D3BBA3;" width="135.23" height="60.312"/>
				</g>
			</g>
		</g>
		<path style="fill:#363E44;" d="M794.311,946.838H623.157c-1.218,0-2.205-0.986-2.205-2.205V787.904
			c0-1.219,0.987-2.205,2.205-2.205s2.205,0.986,2.205,2.205v154.525h168.949c1.218,0,2.205,0.986,2.205,2.205
			S795.528,946.838,794.311,946.838z"/>
		<g>
			<g>
				<path style="fill:#FFFFFF;" d="M980.987,1753.436h-8.368c-0.749-4.079-1.818-8.046-3.176-11.876l7.242-4.181l-14.16-24.526h0
					l-7.258,4.191c-2.663-3.118-5.568-6.023-8.687-8.687l4.19-7.258l-24.525-14.16h0l-4.181,7.242
					c-3.83-1.358-7.797-2.427-11.876-3.177v-8.368h-28.32l0,0v8.368c-4.079,0.749-8.046,1.818-11.876,3.177l-4.181-7.242l0,0
					l-24.525,14.16l4.19,7.258c-3.118,2.664-6.023,5.568-8.687,8.687l-7.258-4.191l0,0l-14.16,24.526l0,0l7.242,4.181
					c-1.358,3.83-2.427,7.797-3.176,11.876h-8.368l0,0v28.32h8.368c0.749,4.079,1.818,8.046,3.176,11.876l-7.242,4.181v0
					l14.16,24.525l0,0l7.258-4.19c2.664,3.118,5.569,6.023,8.687,8.687l-4.19,7.258l24.525,14.16l0,0l4.181-7.242
					c3.83,1.358,7.797,2.427,11.876,3.176v8.368v0h28.32v-8.368c4.079-0.749,8.046-1.818,11.876-3.176l4.181,7.242l0,0l24.525-14.16
					l-4.19-7.258c3.118-2.663,6.023-5.568,8.687-8.687l7.258,4.19h0l14.16-24.525v0l-7.242-4.181
					c1.358-3.83,2.427-7.797,3.176-11.876h8.368V1753.436z M946.352,1788.584c-5.104,13.5-15.838,24.234-29.338,29.337
					c-45.869,17.339-88.65-25.443-71.31-71.312c5.103-13.5,15.838-24.234,29.338-29.338
					C920.912,1699.932,963.693,1742.714,946.352,1788.584z"/>
			</g>
			<path style="fill:#F2E6DC;" d="M896.029,1831.75c-35.375,0-64.154-28.779-64.154-64.153c0-31.496,23.451-58.77,54.549-63.44
				c1.187-0.159,2.326,0.648,2.507,1.854c0.181,1.204-0.648,2.328-1.853,2.508c-28.958,4.347-50.794,29.746-50.794,59.078
				c0,32.943,26.801,59.743,59.744,59.743c27.219,0,51-18.375,57.831-44.686c0.306-1.178,1.506-1.895,2.688-1.58
				c1.178,0.306,1.886,1.509,1.579,2.687C950.793,1812.016,925.256,1831.75,896.029,1831.75z"/>
		</g>
	</g>
</g>
</svg>
