<svg width="510" height="512" viewBox="0 0 510 512" fill="none" xmlns="http://www.w3.org/2000/svg">
<path d="M350.46 162.009C297.74 109.288 212.262 109.288 159.542 162.009C153.684 167.868 153.684 177.364 159.542 183.222C165.4 189.08 174.897 189.08 180.755 183.222C221.76 142.217 288.242 142.217 329.247 183.222C335.105 189.08 344.602 189.08 350.46 183.222C356.318 177.364 356.318 167.866 350.46 162.009Z" fill="black"/>
<path d="M201.968 204.435C196.11 210.293 196.11 219.79 201.968 225.648C207.826 231.507 217.323 231.507 223.181 225.648C240.728 208.103 269.275 208.103 286.822 225.648C292.68 231.507 302.177 231.507 308.035 225.648C313.893 219.79 313.893 210.293 308.035 204.435C278.745 175.146 231.257 175.146 201.968 204.435Z" fill="black"/>
<path d="M255 272.469C263.284 272.469 270 265.753 270 257.469C270 249.184 263.284 242.469 255 242.469C246.716 242.469 240 249.184 240 257.469C240 265.753 246.716 272.469 255 272.469Z" fill="black"/>
<path d="M415 330C467.383 330 510 287.383 510 235C510 203.644 494.624 174.657 469.242 157.013C472.949 125.234 462.121 93.629 439.246 70.754C413.459 44.968 376.778 34.626 341.634 42.695C312.696 15.092 275.175 0 235 0C154.594 0 88.3 61.547 80.729 140H80V141.195C34.721 148.411 0 187.721 0 235C0 287.383 42.617 330 95 330H150V409.28L120.781 430.15C113.474 425.022 104.586 422 95 422C70.187 422 50 442.187 50 467C50 491.813 70.187 512 95 512C119.813 512 140 491.813 140 467C140 462.681 139.376 458.508 138.235 454.551L173.719 429.206C177.66 426.391 180 421.845 180 417V330H240V424.58C222.541 430.772 210 447.445 210 467C210 491.813 230.187 512 255 512C279.813 512 300 491.813 300 467C300 447.445 287.459 430.772 270 424.58V330H330V417C330 421.845 332.34 426.391 336.281 429.206L371.765 454.551C370.624 458.508 370 462.681 370 467C370 491.813 390.187 512 415 512C439.813 512 460 491.813 460 467C460 442.187 439.813 422 415 422C405.414 422 396.526 425.022 389.219 430.15L360 409.28V330H415ZM95 482C86.729 482 80 475.271 80 467C80 458.729 86.729 452 95 452C103.271 452 110 458.729 110 467C110 475.271 103.271 482 95 482ZM415 452C423.271 452 430 458.729 430 467C430 475.271 423.271 482 415 482C406.729 482 400 475.271 400 467C400 458.729 406.729 452 415 452ZM255 482C246.729 482 240 475.271 240 467C240 458.729 246.729 452 255 452C263.271 452 270 458.729 270 467C270 475.271 263.271 482 255 482ZM95 300C59.159 300 30 270.841 30 235C30 204.007 51.811 178.027 80.885 171.562C82.381 185.64 85.782 199.395 91.071 212.621C94.147 220.313 102.876 224.055 110.568 220.979C118.26 217.903 122.002 209.174 118.926 201.482C113.003 186.67 110 171.031 110 155C110 86.075 166.075 30 235 30C262.651 30 288.748 38.892 310.322 55.36C303.354 59.607 296.775 64.733 290.754 70.754C284.896 76.611 284.896 86.109 290.754 91.967C296.611 97.824 306.109 97.824 311.967 91.967C320.408 83.526 331.103 77.338 341.722 73.773C341.719 73.773 341.733 73.768 341.788 73.75C368.809 64.977 398.025 71.958 418.034 91.967C436.2 110.133 443.718 136.034 438.144 161.254C435.098 174.495 428.329 187.738 418.034 198.033C412.176 203.89 412.176 213.388 418.034 219.246C420.963 222.175 424.802 223.64 428.64 223.64C432.478 223.64 436.318 222.175 439.246 219.246C448.374 210.118 455.45 199.708 460.5 188.595C472.804 200.649 480 217.269 480 235C480 270.841 450.841 300 415 300H95Z" fill="black"/>
<path d="M341.789 73.7523C341.767 73.7593 341.745 73.7683 341.723 73.7753C341.734 73.7753 341.976 73.7013 341.789 73.7523Z" fill="black"/>
</svg>
