<?xml version="1.0" encoding="UTF-8" standalone="no"?>
<svg
   version="1.1"
   width="595.27557pt"
   height="841.88977pt"
   id="svg70"
   viewBox="0 0 595.27557 841.88977"
   sodipodi:docname="cdr.cdr"
   xmlns:inkscape="http://www.inkscape.org/namespaces/inkscape"
   xmlns:sodipodi="http://sodipodi.sourceforge.net/DTD/sodipodi-0.dtd"
   xmlns:xlink="http://www.w3.org/1999/xlink"
   xmlns="http://www.w3.org/2000/svg"
   xmlns:svg="http://www.w3.org/2000/svg">
  <defs
     id="defs74" />
  <sodipodi:namedview
     id="namedview72"
     pagecolor="#ffffff"
     bordercolor="#000000"
     borderopacity="0.25"
     inkscape:showpageshadow="2"
     inkscape:pageopacity="0.0"
     inkscape:pagecheckerboard="0"
     inkscape:deskcolor="#d1d1d1"
     inkscape:document-units="pt" />
  <g
     id="Layer1000">
    <g
       id="Layer1001">
      <path
         d="m 372.5224,583.9964 c 0,3.7589 2.8867,2.7621 10.1284,2.7621 v -20.2563 h 15.6526 v 20.2563 h 9.2075 v -50.641 h -9.2075 v 20.2564 h -15.6526 v -20.2564 h -10.1284 z"
         style="fill:#2f56a0;fill-rule:evenodd"
         id="path2" />
      <path
         d="m 318.4149,544.4042 c 0,2.723 8.0364,9.6484 10.128,11.0489 v -9.2073 h 10.1284 v 30.3844 c -19.0576,0 -9.5448,-2.0345 -20.2564,-9.2072 v 19.3355 h 30.3844 v -50.641 h -30.3844 z"
         style="fill:#2f56a0;fill-rule:evenodd"
         id="path4" />
      <path
         d="m 208.8948,546.2458 h 11.9696 v 40.5127 h 10.1283 v -40.5127 h 12.8905 v -10.1283 h -34.9884 z"
         style="fill:#2f56a0;fill-rule:evenodd"
         id="path6" />
      <g
         id="Layer1002">
        <path
           d="m 263.1944,586.7585 h 34.9881 v -11.0488 c -3.5203,1.9778 -19.846,0.9205 -24.8601,0.9205 v -30.3844 h 22.098 c 3.5203,0 0.3351,-0.2826 2.7621,0.9206 v -11.0489 h -34.9881 z"
           style="fill:#2f56a0;fill-rule:evenodd"
           id="path8" />
        <path
           d="m 280.5092,566.5022 h 10.128 v -10.1283 h -10.128 z"
           style="fill:#2f56a0;fill-rule:evenodd"
           id="path10" />
      </g>
    </g>
    <g
       id="Layer1003">
      <defs
         id="defs20">
        <linearGradient
           id="grad1">
          <stop
             offset="0%"
             stop-color="#e2001b"
             stop-opacity="1.0000"
             id="stop14" />
          <stop
             offset="100%"
             stop-color="#ffea00"
             stop-opacity="1.0000"
             id="stop16" />
        </linearGradient>
        <linearGradient
           xlink:href="#grad1"
           id="grad2"
           x1="0"
           y1="0"
           x2="0"
           y2="1"
           gradientTransform="rotate(180,0.5,0.5)"
           gradientUnits="objectBoundingBox" />
      </defs>
      <path
         d="m 263.7187,366.0942 7.3212,-5.2863 c -47.8311,-10.3521 -44.4216,59.8088 3.5676,47.0446 33.5972,-8.9366 71.1121,-46.9655 86.3022,-27.5392 13.4862,17.2472 -13.0739,23.3499 -17.9515,25.4369 -0.3552,0.1515 -1.1643,0.4613 -1.6667,0.8252 50.3867,13.4679 47.7754,-65.1345 -8.3991,-43.7516 -37.0096,14.0882 -95.2388,58.0294 -80.3987,7.2319 z"
         style="fill:url(#grad2)"
         id="path22" />
      <defs
         id="defs30">
        <linearGradient
           id="grad3">
          <stop
             offset="0%"
             stop-color="#e2001b"
             stop-opacity="1.0000"
             id="stop24" />
          <stop
             offset="100%"
             stop-color="#ffea00"
             stop-opacity="1.0000"
             id="stop26" />
        </linearGradient>
        <linearGradient
           xlink:href="#grad3"
           id="grad4"
           x1="0"
           y1="0"
           x2="0"
           y2="1"
           gradientTransform="rotate(180,0.5,0.5)"
           gradientUnits="objectBoundingBox" />
      </defs>
      <path
         d="m 338.9959,276.0639 c 3.356,13.5199 8.1457,22.7912 0.7645,36.8961 -4.5042,8.6071 -16.2754,18.3697 -29.8839,19.3414 -15.1301,1.0816 -28.4772,-6.9389 -33.7737,-15.0356 -9.6447,-14.7421 -4.3607,-25.2311 -1.6461,-41.4318 -31.9313,23.4714 -3.8994,73.8427 30.4374,74.8203 48.6959,1.3869 60.2518,-62.5819 34.1018,-74.5904 z"
         style="fill:url(#grad4)"
         id="path32" />
      <defs
         id="defs40">
        <linearGradient
           id="grad5">
          <stop
             offset="0%"
             stop-color="#e2001b"
             stop-opacity="1.0000"
             id="stop34" />
          <stop
             offset="100%"
             stop-color="#ffea00"
             stop-opacity="1.0000"
             id="stop36" />
        </linearGradient>
        <linearGradient
           xlink:href="#grad5"
           id="grad6"
           x1="0"
           y1="0"
           x2="0"
           y2="1"
           gradientTransform="rotate(180,0.5,0.5)"
           gradientUnits="objectBoundingBox" />
      </defs>
      <path
         d="m 290.9744,289.526 c 6.7882,-9.2991 0.2175,-9.7202 2.9203,-19.7808 4.3072,-16.0352 28.2993,-21.4313 24.7126,20.4779 42.0666,-45.1041 -52.8859,-77.5216 -27.6329,-0.6971 z"
         style="fill:url(#grad6)"
         id="path42" />
      <defs
         id="defs50">
        <linearGradient
           id="grad7">
          <stop
             offset="0%"
             stop-color="#e2001b"
             stop-opacity="1.0000"
             id="stop44" />
          <stop
             offset="100%"
             stop-color="#ffea00"
             stop-opacity="1.0000"
             id="stop46" />
        </linearGradient>
        <linearGradient
           xlink:href="#grad7"
           id="grad8"
           x1="0"
           y1="0"
           x2="0"
           y2="1"
           gradientTransform="rotate(180,0.5,0.5)"
           gradientUnits="objectBoundingBox" />
      </defs>
      <path
         d="m 299.9645,230.7548 c 19.0705,-5.1778 21.8494,-22.9727 0.7271,-30.6864 9.3013,17.8761 1.0333,16.9893 -0.7271,30.6864 z"
         style="fill:url(#grad8)"
         id="path52" />
    </g>
    <path
       d="m 413.5487,374.051 c 3.4813,-15.4721 8.6995,-27.8705 21.4097,-36.1423 1.6618,-1.0816 4.3581,-2.4721 5.6165,-3.4116 9.3723,-6.999 -4.2598,-10.7423 -9.1771,-15.3438 -20.3442,-19.0372 -18.749,-39.4704 -20.6075,-65.1563 -1.4158,-19.5657 -17.5599,-26.2701 -29.0511,-20.0919 -2.7766,1.4929 -3.6419,2.5533 -3.6419,6.517 0,7.7552 9.1784,2.2571 12.4131,2.2571 11.3769,0 9.8383,13.3474 10.1208,23.7334 0.5514,20.277 6.2044,42.7351 20.461,57.4039 0.1618,0.1664 0.3937,0.4069 0.5588,0.5697 2.805,2.7632 3.5913,2.5687 6.0992,6.3142 -6.1034,1.6295 -12.0593,10.8255 -15.3403,16.2571 -7.76,12.8462 -11.9224,34.2355 -11.7544,50.3115 0.3826,36.5719 -22.5582,8.5191 -22.5582,22.5809 0,8.7945 19.0555,10.8993 26.819,1.9925 8.6992,-9.981 4.6466,-30.0776 8.6324,-47.7914 z"
       style="fill:#2f56a0;fill-rule:evenodd"
       id="path55" />
    <path
       d="m 172.6179,328.4433 c 0,11.7986 20.8672,4.2817 29.799,45.8092 1.4417,6.7031 1.2171,9.9627 1.9781,17.2058 1.1443,10.8898 -1.9157,36.2911 21.2614,36.2911 13.2678,0 16.6477,-12.4134 6.7706,-12.4134 -5.9962,0 -5.5387,4.2381 -11.7371,0.5448 -3.8309,-2.283 -5.0119,-6.4342 -5.2109,-11.8085 -0.642,-17.3453 -2.0732,-40.8116 -11.0139,-55.5662 -3.3108,-5.464 -9.7791,-16.1317 -16.0485,-17.8057 5.1718,-7.7236 17.2721,-12.9002 23.2088,-38.8574 6.9613,-30.4391 -1.0137,-49.1638 14.031,-49.1638 6.1891,0 0.8422,0.3851 5.3353,1.4763 7.2335,1.7564 0.3749,-0.3478 5.9492,-0.3478 0.7245,-3.0261 1.1285,-2.1272 1.1285,-4.5138 0,-4.7832 -7.9334,-7.6804 -12.4076,-7.6596 -5.1181,0.024 -12.2832,2.8361 -14.9164,6.2905 -6.7041,8.7955 -5.5084,22.0313 -6.5874,36.2945 -3.3959,44.8847 -31.5401,50.1858 -31.5401,54.224 z"
       style="fill:#2f56a0;fill-rule:evenodd"
       id="path57" />
    <defs
       id="defs65">
      <linearGradient
         id="grad9">
        <stop
           offset="0%"
           stop-color="#e2001b"
           stop-opacity="1.0000"
           id="stop59" />
        <stop
           offset="100%"
           stop-color="#ffea00"
           stop-opacity="1.0000"
           id="stop61" />
      </linearGradient>
      <linearGradient
         xlink:href="#grad9"
         id="grad10"
         x1="0"
         y1="0"
         x2="0"
         y2="1"
         gradientTransform="rotate(180,0.5,0.5)"
         gradientUnits="objectBoundingBox" />
    </defs>
    <path
       d="M 82.1877,463.8535 H 77.5933 V 450.07 h 18.3779 v 26.9711 l 32.1616,-32.1616 v 19.5698 l -15.4928,15.4928 15.4928,15.4769 v 19.5695 L 95.9712,482.8272 v 26.9711 H 82.1877 Z M 174.9869,450.07 c 5.0806,0 9.4085,1.8031 12.9994,5.3785 3.5754,3.5909 5.3788,7.9188 5.3788,12.9994 0,5.0805 -1.8034,9.4243 -5.3788,12.9994 -2.3363,2.3366 -4.9549,3.8888 -7.903,4.6885 l 23.6622,23.6625 H 184.176 l -22.9725,-22.9726 v 22.9726 H 147.42 v -45.9448 h -4.5944 V 450.07 Z m 0,13.7835 h -13.7834 v 9.1888 h 13.7834 c 1.2546,0 2.3366,-0.4547 3.2304,-1.3485 0.9093,-0.9093 1.3643,-1.9913 1.3643,-3.2459 0,-1.2544 -0.455,-2.3363 -1.3643,-3.2301 -0.8938,-0.9096 -1.9758,-1.3643 -3.2304,-1.3643 z m 51.4488,45.9448 h -13.7834 v -45.9448 h -4.5944 V 450.07 h 18.3778 z m 65.2326,-36.756 h -13.7834 v -9.1888 h -18.3782 c -1.2543,0 -2.3363,0.4547 -3.2459,1.3643 -0.8938,0.8938 -1.3485,1.9757 -1.3485,3.2301 0,1.2546 0.4547,2.3366 1.3485,3.2459 0.9096,0.8938 1.9916,1.3485 3.2459,1.3485 h 4.5947 c 5.0805,0 9.4085,1.7878 12.9994,5.3787 3.575,3.5751 5.3784,7.9189 5.3784,12.9994 0,5.0805 -1.8034,9.4241 -5.3784,12.9994 -3.5909,3.5909 -7.9189,5.3785 -12.9994,5.3785 h -22.9725 v -13.7835 h 22.9725 c 1.2543,0 2.3363,-0.4547 3.2301,-1.3484 0.9096,-0.9097 1.3643,-1.9917 1.3643,-3.246 0,-1.2546 -0.4547,-2.3366 -1.3643,-3.2304 -0.8938,-0.9093 -1.9758,-1.3643 -3.2301,-1.3643 h -4.5947 c -5.0805,0 -9.4241,-1.7875 -12.9994,-5.3784 -3.5909,-3.5751 -5.3784,-7.9189 -5.3784,-12.9994 0,-5.0806 1.7875,-9.4085 5.3784,-12.9994 3.5753,-3.5754 7.9189,-5.3785 12.9994,-5.3785 h 32.1616 z m 19.2872,-9.1888 h -4.5944 V 450.07 h 18.3779 v 22.9723 h 18.3781 v -9.1888 h -4.5946 V 450.07 h 18.3781 v 59.7283 h -13.7835 v -32.1614 l -9.189,9.1888 h -9.1891 v 32.1616 l -13.7835,-13.7834 z m 79.0158,45.9448 h -13.7835 v -45.9448 h -4.5944 V 450.07 h 18.3779 z m 42.26,4.6885 -36.756,-64.3697 h 15.9474 l 20.8086,36.8027 13.0465,-23.0663 h -3.8574 V 450.07 h 16.4491 v 0.0471 h 11.1175 z m 69.8267,-41.4916 -20.8086,36.8031 H 465.302 l 36.756,-64.3541 36.7557,64.3541 h -45.9448 v -13.7835 h 22.1885 z"
       style="fill:url(#grad10)"
       id="path67" />
  </g>
</svg>
