<svg width="28" height="44" viewBox="0 0 28 44" fill="none" xmlns="http://www.w3.org/2000/svg">
<path d="M22.9606 0H4.69647C2.10684 0 0 2.10727 0 4.69733V6.34364V37.4292V39.3027C0 41.8927 2.10684 44 4.69647 44H22.9606C25.5502 44 27.657 41.8927 27.657 39.3027V37.4292V6.34364V4.69733C27.657 2.10727 25.5502 0 22.9606 0ZM25.8611 39.3026C25.8611 40.9025 24.5599 42.204 22.9606 42.204H4.69647C3.09701 42.204 1.79592 40.9025 1.79592 39.3026V38.3272H25.8612V39.3026H25.8611ZM25.8611 36.5313H1.79592V7.2416H25.8612V36.5313H25.8611ZM25.8611 5.44568H1.79592V4.69733C1.79592 3.09753 3.0971 1.79592 4.69647 1.79592H22.9606C24.56 1.79592 25.8611 3.09753 25.8611 4.69733V5.44568Z" fill="black"/>
<path d="M13.8294 38.5078C12.8594 38.5078 12.0703 39.2971 12.0703 40.2671C12.0703 41.2372 12.8594 42.0264 13.8294 42.0264C14.7993 42.0264 15.5885 41.2372 15.5885 40.2671C15.5885 39.2971 14.7993 38.5078 13.8294 38.5078ZM13.8294 40.3037C13.8091 40.3037 13.7926 40.2872 13.7926 40.2671C13.7926 40.247 13.809 40.2305 13.8294 40.2305C13.8497 40.2305 13.8662 40.247 13.8662 40.2671C13.8662 40.2872 13.8496 40.3037 13.8294 40.3037Z" fill="black"/>
<path d="M15.2349 13.1381C14.7479 13.0426 14.2764 13.3597 14.1809 13.8464L11.4037 28.0001C11.3082 28.4867 11.6253 28.9586 12.1119 29.0541C12.1702 29.0656 12.2284 29.071 12.2858 29.071C12.7064 29.071 13.082 28.7739 13.166 28.3458L15.9432 14.1919C16.0386 13.7054 15.7216 13.2335 15.2349 13.1381Z" fill="black"/>
<path d="M22.2586 21.1183C22.2579 21.1036 22.2579 21.0888 22.2564 21.0741C22.255 21.0603 22.2525 21.0465 22.2505 21.0327C22.2484 21.018 22.2469 21.0032 22.2441 20.9887C22.2414 20.9745 22.2373 20.9606 22.2338 20.9465C22.2304 20.9325 22.2276 20.9184 22.2236 20.9045C22.2195 20.8906 22.214 20.877 22.2092 20.8634C22.2045 20.8496 22.2004 20.8358 22.1949 20.8222C22.1898 20.8098 22.1835 20.798 22.178 20.7858C22.1714 20.7713 22.1654 20.7566 22.1579 20.7424C22.1525 20.7322 22.146 20.7224 22.1401 20.7123C22.1312 20.6967 22.1226 20.6809 22.1126 20.6659C22.1071 20.6575 22.1004 20.6496 22.0946 20.6413C22.0831 20.6252 22.0719 20.6088 22.0592 20.5933C22.054 20.587 22.048 20.5812 22.0428 20.5751C22.0283 20.5583 22.014 20.5415 21.9981 20.5256L17.8341 16.3571C17.4836 16.0063 16.915 16.0059 16.5641 16.3565C16.2133 16.7069 16.213 17.2756 16.5634 17.6264L20.0935 21.1602L16.6259 24.6315C16.2755 24.9823 16.2758 25.5509 16.6266 25.9015C16.8019 26.0766 17.0316 26.1641 17.2611 26.1641C17.4911 26.1641 17.7211 26.0763 17.8965 25.9007L21.998 21.7948C22.0139 21.7789 22.0282 21.762 22.0427 21.7453C22.048 21.7391 22.054 21.7333 22.0591 21.727C22.0717 21.7115 22.083 21.6952 22.0945 21.679C22.1003 21.6708 22.107 21.6629 22.1126 21.6544C22.1225 21.6393 22.131 21.6236 22.1401 21.608C22.1459 21.598 22.1524 21.5882 22.1578 21.5779C22.1653 21.5638 22.1713 21.5492 22.178 21.5345C22.1835 21.5224 22.1898 21.5105 22.1948 21.4981C22.2003 21.4846 22.2044 21.4707 22.2091 21.4569C22.2139 21.4432 22.2194 21.4296 22.2235 21.4158C22.2276 21.4019 22.2303 21.3878 22.2337 21.3738C22.2372 21.3598 22.2413 21.3458 22.244 21.3317C22.2468 21.3171 22.2483 21.3023 22.2504 21.2877C22.2524 21.2738 22.2549 21.2602 22.2563 21.2462C22.2578 21.2316 22.2578 21.2168 22.2585 21.2021C22.2591 21.1881 22.2605 21.1741 22.2605 21.1601C22.2605 21.1462 22.2592 21.1323 22.2586 21.1183Z" fill="black"/>
<path d="M10.7441 24.6314L7.21413 21.0976L10.6816 17.6263C11.0321 17.2755 11.0317 16.7069 10.6809 16.3564C10.33 16.0059 9.76157 16.0063 9.41094 16.3571L5.3095 20.463C5.29412 20.4783 5.28028 20.4947 5.26627 20.5108C5.26043 20.5175 5.25398 20.5238 5.24831 20.5307C5.23662 20.545 5.2264 20.5602 5.21574 20.575C5.20895 20.5846 5.2013 20.5937 5.19494 20.6034C5.18618 20.6168 5.1787 20.6307 5.17071 20.6444C5.16366 20.6562 5.1561 20.6678 5.14966 20.68C5.1433 20.6921 5.13823 20.7045 5.13247 20.7168C5.12585 20.7311 5.11855 20.7451 5.11262 20.7596C5.10798 20.7711 5.10462 20.7828 5.1005 20.7943C5.09483 20.8101 5.08864 20.8258 5.08391 20.8419C5.08022 20.8541 5.0779 20.8665 5.0748 20.879C5.07085 20.8947 5.06638 20.9103 5.06329 20.9261C5.06062 20.9398 5.05934 20.9537 5.05727 20.9675C5.05513 20.9822 5.05237 20.9968 5.05091 21.0115C5.04954 21.0259 5.04945 21.0404 5.04885 21.055C5.04825 21.0692 5.04688 21.0833 5.04688 21.0976C5.04688 21.1119 5.04825 21.1261 5.04885 21.1402C5.04954 21.1547 5.04954 21.1693 5.05091 21.1837C5.05229 21.1982 5.05504 21.2125 5.0571 21.227C5.05916 21.2411 5.06054 21.2552 5.0632 21.2691C5.06604 21.2841 5.07042 21.2989 5.07403 21.3137C5.0773 21.327 5.07988 21.3402 5.08374 21.3533C5.08804 21.368 5.0938 21.3823 5.09895 21.3968C5.10351 21.4098 5.10737 21.4229 5.11253 21.4355C5.11786 21.4484 5.12439 21.461 5.13032 21.4738C5.13668 21.4876 5.14244 21.5017 5.14966 21.5153C5.15533 21.5259 5.16212 21.5361 5.16813 21.5466C5.17681 21.5618 5.18515 21.5771 5.19486 21.5918C5.20045 21.6003 5.20706 21.6082 5.21291 21.6164C5.22442 21.6326 5.23559 21.6489 5.24831 21.6645C5.25347 21.6707 5.25948 21.6765 5.26473 21.6827C5.27916 21.6994 5.29351 21.7163 5.30941 21.7322L9.47342 25.9006C9.64882 26.0762 9.87879 26.164 10.1088 26.164C10.3385 26.164 10.5681 26.0765 10.7433 25.9014C11.0942 25.551 11.0945 24.9824 10.7441 24.6314Z" fill="black"/>
</svg>
