<svg width="380" height="512" viewBox="0 0 380 512" fill="none" xmlns="http://www.w3.org/2000/svg">
<path d="M265.606 213.893C259.749 208.036 250.251 208.036 244.393 213.893C238.536 219.75 238.536 229.248 244.393 235.106L265.287 255.999L244.393 276.893C238.536 282.75 238.536 292.248 244.393 298.106C247.322 301.035 251.161 302.5 254.999 302.5C258.837 302.5 262.678 301.035 265.606 298.106L297.106 266.606C302.964 260.749 302.964 251.251 297.106 245.393L265.606 213.893Z" fill="black"/>
<path d="M135.606 213.893C129.75 208.036 120.252 208.036 114.394 213.893L82.8935 245.393C77.0355 251.25 77.0355 260.748 82.8935 266.606L114.394 298.106C117.323 301.035 121.161 302.5 124.999 302.5C128.837 302.5 132.677 301.035 135.605 298.106C141.463 292.249 141.463 282.751 135.605 276.893L114.713 255.999L135.607 235.105C141.465 229.248 141.465 219.75 135.606 213.893Z" fill="black"/>
<path d="M207.747 186.495C199.723 184.441 191.553 189.292 189.503 197.317L161.431 307.255C159.381 315.281 164.226 323.45 172.253 325.499C173.498 325.817 174.746 325.97 175.975 325.97C182.666 325.97 188.766 321.458 190.497 314.677L218.569 204.739C220.619 196.713 215.774 188.544 207.747 186.495Z" fill="black"/>
<path d="M365 126H342V40.798C342 18.302 323.698 0 301.202 0H78.798C56.302 0 38 18.302 38 40.798V126H15C6.716 126 0 132.716 0 141V371C0 379.284 6.716 386 15 386H38V471.2C38 493.697 56.303 512 78.8 512H301.2C323.697 512 342 493.697 342 471.2V386H365C373.284 386 380 379.284 380 371V141C380 132.716 373.284 126 365 126ZM68 40.798C68 34.844 72.844 30 78.798 30H301.202C307.156 30 312 34.844 312 40.798V60H68V40.798ZM68 90H312V126H68V90ZM312 471.2C312 477.155 307.155 482 301.2 482H78.8C72.845 482 68 477.155 68 471.2V386H312V471.2ZM350 356H30V156H350V356Z" fill="black"/>
<path d="M164.5 452H215.5C223.784 452 230.5 445.284 230.5 437C230.5 428.716 223.784 422 215.5 422H164.5C156.216 422 149.5 428.716 149.5 437C149.5 445.284 156.216 452 164.5 452Z" fill="black"/>
</svg>
