<svg width="512" height="512" viewBox="0 0 512 512" fill="none" xmlns="http://www.w3.org/2000/svg">
<path d="M76 392H106C114.284 392 121 385.284 121 377C121 368.716 114.284 362 106 362H76C51.187 362 31 382.187 31 407C31 431.813 51.187 452 76 452C84.271 452 91 458.729 91 467C91 475.271 84.271 482 76 482H46C37.716 482 31 488.716 31 497C31 505.284 37.716 512 46 512H76C100.813 512 121 491.813 121 467C121 442.187 100.813 422 76 422C67.729 422 61 415.271 61 407C61 398.729 67.729 392 76 392Z" fill="black"/>
<path d="M436 392H466C474.284 392 481 385.284 481 377C481 368.716 474.284 362 466 362H436C411.187 362 391 382.187 391 407C391 431.813 411.187 452 436 452C444.271 452 451 458.729 451 467C451 475.271 444.271 482 436 482H406C397.716 482 391 488.716 391 497C391 505.284 397.716 512 406 512H436C460.813 512 481 491.813 481 467C481 442.187 460.813 422 436 422C427.729 422 421 415.271 421 407C421 398.729 427.729 392 436 392Z" fill="black"/>
<path d="M196 362C171.187 362 151 382.187 151 407V497C151 505.284 157.716 512 166 512C174.284 512 181 505.284 181 497V452H211V497C211 505.284 217.716 512 226 512C234.284 512 241 505.284 241 497V407C241 382.187 220.813 362 196 362ZM181 422V407C181 398.729 187.729 392 196 392C204.271 392 211 398.729 211 407V422H181Z" fill="black"/>
<path d="M316 362C291.187 362 271 382.187 271 407V497C271 505.284 277.716 512 286 512C294.284 512 301 505.284 301 497V452H331V497C331 505.284 337.716 512 346 512C354.284 512 361 505.284 361 497V407C361 382.187 340.813 362 316 362ZM301 422V407C301 398.729 307.729 392 316 392C324.271 392 331 398.729 331 407V422H301Z" fill="black"/>
<path d="M450.702 155.021C445.528 68.666 373.633 0 286 0C235.7 0 188.227 23.152 156.983 62.423C149.71 60.797 142.778 60 136 60C78.103 60 31 107.103 31 165C31 167.681 31.159 170.241 31.413 172.741C11.598 190.076 0 214.62 0 240C0 289.55 41.067 330 91 330H421C470.92 330 512 289.571 512 240C512 201.506 486.853 167.498 450.702 155.021ZM421 300H91C57.364 300 30 273.084 30 240C30 221.297 39.785 203.11 56.174 191.348C60.785 188.039 63.134 182.411 62.242 176.806C61.562 172.53 61 168.69 61 165C61 123.645 94.645 90 136 90C142.936 90 150.056 91.227 158.408 93.861C164.67 95.835 171.485 93.509 175.233 88.121C200.552 51.728 241.959 30 286 30C360.176 30 420.571 90.128 420.998 164.205C420.931 164.744 420.86 165.476 420.851 166.324C420.768 173.533 425.827 179.782 432.895 181.202C461.349 186.918 482 211.647 482 240C482 273.084 454.636 300 421 300Z" fill="black"/>
</svg>
