<svg xmlns="http://www.w3.org/2000/svg" xmlns:xlink="http://www.w3.org/1999/xlink" viewBox="0 0 568.94 365.39"><defs><style>.cls-1{fill:none;}.cls-2{fill:#2d2d48;}.cls-10,.cls-3{fill:#2aafeb;}.cls-11,.cls-4,.cls-5{fill:#7fd6c3;}.cls-5{opacity:0.46;}.cls-6{opacity:0.44;}.cls-7{fill:#f2f1f6;}.cls-8{fill:#fff;}.cls-9{fill:#01004c;}.cls-10{opacity:0.72;}.cls-11{opacity:0.71;}.cls-12{fill:url(#Unnamed_Pattern);}.cls-13{fill:#cacae5;}.cls-14{fill:#7c55ff;}.cls-15{opacity:0.64;}.cls-16{fill:url(#Unnamed_Pattern-3);}.cls-17,.cls-18{opacity:0.28;}.cls-17,.cls-19,.cls-20{fill:url(#Unnamed_Pattern-5);}.cls-20{opacity:0.65;}</style><pattern id="Unnamed_Pattern" data-name="Unnamed Pattern" width="27.84" height="27.84" patternTransform="translate(-34.17 -28.57) scale(0.23)" patternUnits="userSpaceOnUse" viewBox="0 0 27.84 27.84"><rect class="cls-1" width="27.84" height="27.84"/><path class="cls-2" d="M29.17,27.84a1.33,1.33,0,1,1-1.32-1.33A1.33,1.33,0,0,1,29.17,27.84Z"/><path class="cls-2" d="M1.33,27.84A1.33,1.33,0,0,1,0,29.17a1.33,1.33,0,0,1,0-2.66A1.33,1.33,0,0,1,1.33,27.84Z"/><path class="cls-2" d="M8.29,27.84A1.33,1.33,0,1,1,7,26.51,1.33,1.33,0,0,1,8.29,27.84Z"/><path class="cls-2" d="M8.29,27.84A1.33,1.33,0,1,1,7,26.51,1.33,1.33,0,0,1,8.29,27.84Z"/><path class="cls-2" d="M15.25,27.84a1.33,1.33,0,1,1-1.33-1.33A1.34,1.34,0,0,1,15.25,27.84Z"/><path class="cls-2" d="M15.25,27.84a1.33,1.33,0,1,1-1.33-1.33A1.34,1.34,0,0,1,15.25,27.84Z"/><path class="cls-2" d="M22.2,27.84a1.33,1.33,0,1,1-1.32-1.33A1.33,1.33,0,0,1,22.2,27.84Z"/><path class="cls-2" d="M22.2,27.84a1.33,1.33,0,1,1-1.32-1.33A1.33,1.33,0,0,1,22.2,27.84Z"/><path class="cls-2" d="M29.16,27.84a1.33,1.33,0,1,1-1.33-1.33A1.34,1.34,0,0,1,29.16,27.84Z"/><path class="cls-2" d="M1.32,27.84A1.33,1.33,0,0,1,0,29.17a1.33,1.33,0,0,1-1.32-1.33A1.33,1.33,0,0,1,0,26.51,1.33,1.33,0,0,1,1.32,27.84Z"/><path class="cls-2" d="M29.17,0a1.33,1.33,0,0,1-1.32,1.33A1.33,1.33,0,0,1,26.52,0a1.33,1.33,0,0,1,1.33-1.33A1.33,1.33,0,0,1,29.17,0Z"/><circle class="cls-2" cx="27.85" cy="8.83" r="1.33"/><circle class="cls-2" cx="27.85" cy="19.23" r="1.33"/><path class="cls-2" d="M1.33,0A1.33,1.33,0,0,1,0,1.33,1.33,1.33,0,0,1-1.32,0,1.33,1.33,0,0,1,0-1.33,1.33,1.33,0,0,1,1.33,0Z"/><path class="cls-2" d="M8.29,0A1.33,1.33,0,0,1,7,1.33,1.33,1.33,0,0,1,5.64,0,1.33,1.33,0,0,1,7-1.33,1.33,1.33,0,0,1,8.29,0Z"/><path class="cls-2" d="M8.29,0A1.33,1.33,0,0,1,7,1.33,1.33,1.33,0,0,1,5.64,0,1.33,1.33,0,0,1,7-1.33,1.33,1.33,0,0,1,8.29,0Z"/><path class="cls-2" d="M15.25,0a1.34,1.34,0,0,1-1.33,1.33A1.34,1.34,0,0,1,12.59,0a1.33,1.33,0,0,1,2.66,0Z"/><path class="cls-2" d="M15.25,0a1.34,1.34,0,0,1-1.33,1.33A1.34,1.34,0,0,1,12.59,0a1.33,1.33,0,0,1,2.66,0Z"/><path class="cls-2" d="M22.2,0a1.33,1.33,0,0,1-1.32,1.33A1.33,1.33,0,0,1,19.55,0a1.33,1.33,0,0,1,1.33-1.33A1.33,1.33,0,0,1,22.2,0Z"/><path class="cls-2" d="M22.2,0a1.33,1.33,0,0,1-1.32,1.33A1.33,1.33,0,0,1,19.55,0a1.33,1.33,0,0,1,1.33-1.33A1.33,1.33,0,0,1,22.2,0Z"/><path class="cls-2" d="M29.16,0a1.34,1.34,0,0,1-1.33,1.33A1.34,1.34,0,0,1,26.5,0a1.33,1.33,0,0,1,2.66,0Z"/><circle class="cls-2" cx="0.01" cy="8.83" r="1.33"/><circle class="cls-2" cx="6.96" cy="8.83" r="1.33"/><circle class="cls-2" cx="6.96" cy="8.83" r="1.33"/><circle class="cls-2" cx="13.92" cy="8.83" r="1.33"/><circle class="cls-2" cx="13.92" cy="8.83" r="1.33"/><circle class="cls-2" cx="20.88" cy="8.83" r="1.33"/><circle class="cls-2" cx="20.88" cy="8.83" r="1.33"/><path class="cls-2" d="M29.16,8.83A1.33,1.33,0,1,1,27.83,7.5,1.33,1.33,0,0,1,29.16,8.83Z"/><circle class="cls-2" cx="0.01" cy="19.23" r="1.33"/><circle class="cls-2" cx="6.96" cy="19.23" r="1.33"/><circle class="cls-2" cx="6.96" cy="19.23" r="1.33"/><circle class="cls-2" cx="13.92" cy="19.23" r="1.33"/><circle class="cls-2" cx="13.92" cy="19.23" r="1.33"/><circle class="cls-2" cx="20.88" cy="19.23" r="1.33"/><circle class="cls-2" cx="20.88" cy="19.23" r="1.33"/><path class="cls-2" d="M29.16,19.23a1.33,1.33,0,1,1-1.33-1.33A1.33,1.33,0,0,1,29.16,19.23Z"/><path class="cls-2" d="M1.32,0A1.33,1.33,0,0,1,0,1.33,1.33,1.33,0,0,1-1.33,0,1.33,1.33,0,0,1,0-1.33,1.33,1.33,0,0,1,1.32,0Z"/><path class="cls-2" d="M1.32,8.83A1.32,1.32,0,0,1,0,10.15,1.32,1.32,0,0,1-1.33,8.83,1.32,1.32,0,0,1,0,7.5,1.32,1.32,0,0,1,1.32,8.83Z"/><path class="cls-2" d="M1.32,19.23A1.32,1.32,0,0,1,0,20.55a1.32,1.32,0,0,1-1.32-1.32A1.33,1.33,0,0,1,0,17.9,1.33,1.33,0,0,1,1.32,19.23Z"/></pattern><pattern id="Unnamed_Pattern-3" data-name="Unnamed Pattern" width="27.84" height="27.84" patternTransform="translate(7.18 25.02) scale(0.23)" patternUnits="userSpaceOnUse" viewBox="0 0 27.84 27.84"><rect class="cls-1" width="27.84" height="27.84"/><path class="cls-2" d="M29.17,27.84a1.33,1.33,0,1,1-1.32-1.33A1.33,1.33,0,0,1,29.17,27.84Z"/><path class="cls-2" d="M1.33,27.84A1.33,1.33,0,0,1,0,29.17a1.33,1.33,0,0,1,0-2.66A1.33,1.33,0,0,1,1.33,27.84Z"/><path class="cls-2" d="M8.29,27.84A1.33,1.33,0,1,1,7,26.51,1.33,1.33,0,0,1,8.29,27.84Z"/><path class="cls-2" d="M8.29,27.84A1.33,1.33,0,1,1,7,26.51,1.33,1.33,0,0,1,8.29,27.84Z"/><path class="cls-2" d="M15.25,27.84a1.33,1.33,0,1,1-1.33-1.33A1.34,1.34,0,0,1,15.25,27.84Z"/><path class="cls-2" d="M15.25,27.84a1.33,1.33,0,1,1-1.33-1.33A1.34,1.34,0,0,1,15.25,27.84Z"/><path class="cls-2" d="M22.2,27.84a1.33,1.33,0,1,1-1.32-1.33A1.33,1.33,0,0,1,22.2,27.84Z"/><path class="cls-2" d="M22.2,27.84a1.33,1.33,0,1,1-1.32-1.33A1.33,1.33,0,0,1,22.2,27.84Z"/><path class="cls-2" d="M29.16,27.84a1.33,1.33,0,1,1-1.33-1.33A1.34,1.34,0,0,1,29.16,27.84Z"/><path class="cls-2" d="M1.32,27.84A1.33,1.33,0,0,1,0,29.17a1.33,1.33,0,0,1-1.32-1.33A1.33,1.33,0,0,1,0,26.51,1.33,1.33,0,0,1,1.32,27.84Z"/><path class="cls-2" d="M29.17,0a1.33,1.33,0,0,1-1.32,1.33A1.33,1.33,0,0,1,26.52,0a1.33,1.33,0,0,1,1.33-1.33A1.33,1.33,0,0,1,29.17,0Z"/><circle class="cls-2" cx="27.85" cy="8.83" r="1.33"/><circle class="cls-2" cx="27.85" cy="19.23" r="1.33"/><path class="cls-2" d="M1.33,0A1.33,1.33,0,0,1,0,1.33,1.33,1.33,0,0,1-1.32,0,1.33,1.33,0,0,1,0-1.33,1.33,1.33,0,0,1,1.33,0Z"/><path class="cls-2" d="M8.29,0A1.33,1.33,0,0,1,7,1.33,1.33,1.33,0,0,1,5.64,0,1.33,1.33,0,0,1,7-1.33,1.33,1.33,0,0,1,8.29,0Z"/><path class="cls-2" d="M8.29,0A1.33,1.33,0,0,1,7,1.33,1.33,1.33,0,0,1,5.64,0,1.33,1.33,0,0,1,7-1.33,1.33,1.33,0,0,1,8.29,0Z"/><path class="cls-2" d="M15.25,0a1.34,1.34,0,0,1-1.33,1.33A1.34,1.34,0,0,1,12.59,0a1.33,1.33,0,0,1,2.66,0Z"/><path class="cls-2" d="M15.25,0a1.34,1.34,0,0,1-1.33,1.33A1.34,1.34,0,0,1,12.59,0a1.33,1.33,0,0,1,2.66,0Z"/><path class="cls-2" d="M22.2,0a1.33,1.33,0,0,1-1.32,1.33A1.33,1.33,0,0,1,19.55,0a1.33,1.33,0,0,1,1.33-1.33A1.33,1.33,0,0,1,22.2,0Z"/><path class="cls-2" d="M22.2,0a1.33,1.33,0,0,1-1.32,1.33A1.33,1.33,0,0,1,19.55,0a1.33,1.33,0,0,1,1.33-1.33A1.33,1.33,0,0,1,22.2,0Z"/><path class="cls-2" d="M29.16,0a1.34,1.34,0,0,1-1.33,1.33A1.34,1.34,0,0,1,26.5,0a1.33,1.33,0,0,1,2.66,0Z"/><circle class="cls-2" cx="0.01" cy="8.83" r="1.33"/><circle class="cls-2" cx="6.96" cy="8.83" r="1.33"/><circle class="cls-2" cx="6.96" cy="8.83" r="1.33"/><circle class="cls-2" cx="13.92" cy="8.83" r="1.33"/><circle class="cls-2" cx="13.92" cy="8.83" r="1.33"/><circle class="cls-2" cx="20.88" cy="8.83" r="1.33"/><circle class="cls-2" cx="20.88" cy="8.83" r="1.33"/><path class="cls-2" d="M29.16,8.83A1.33,1.33,0,1,1,27.83,7.5,1.33,1.33,0,0,1,29.16,8.83Z"/><circle class="cls-2" cx="0.01" cy="19.23" r="1.33"/><circle class="cls-2" cx="6.96" cy="19.23" r="1.33"/><circle class="cls-2" cx="6.96" cy="19.23" r="1.33"/><circle class="cls-2" cx="13.92" cy="19.23" r="1.33"/><circle class="cls-2" cx="13.92" cy="19.23" r="1.33"/><circle class="cls-2" cx="20.88" cy="19.23" r="1.33"/><circle class="cls-2" cx="20.88" cy="19.23" r="1.33"/><path class="cls-2" d="M29.16,19.23a1.33,1.33,0,1,1-1.33-1.33A1.33,1.33,0,0,1,29.16,19.23Z"/><path class="cls-2" d="M1.32,0A1.33,1.33,0,0,1,0,1.33,1.33,1.33,0,0,1-1.33,0,1.33,1.33,0,0,1,0-1.33,1.33,1.33,0,0,1,1.32,0Z"/><path class="cls-2" d="M1.32,8.83A1.32,1.32,0,0,1,0,10.15,1.32,1.32,0,0,1-1.33,8.83,1.32,1.32,0,0,1,0,7.5,1.32,1.32,0,0,1,1.32,8.83Z"/><path class="cls-2" d="M1.32,19.23A1.32,1.32,0,0,1,0,20.55a1.32,1.32,0,0,1-1.32-1.32A1.33,1.33,0,0,1,0,17.9,1.33,1.33,0,0,1,1.32,19.23Z"/></pattern><pattern id="Unnamed_Pattern-5" data-name="Unnamed Pattern" width="27.84" height="27.84" patternTransform="translate(7.18 29) scale(0.23)" patternUnits="userSpaceOnUse" viewBox="0 0 27.84 27.84"><rect class="cls-1" width="27.84" height="27.84"/><path class="cls-2" d="M29.17,27.84a1.33,1.33,0,1,1-1.32-1.33A1.33,1.33,0,0,1,29.17,27.84Z"/><path class="cls-2" d="M1.33,27.84A1.33,1.33,0,0,1,0,29.17a1.33,1.33,0,0,1,0-2.66A1.33,1.33,0,0,1,1.33,27.84Z"/><path class="cls-2" d="M8.29,27.84A1.33,1.33,0,1,1,7,26.51,1.33,1.33,0,0,1,8.29,27.84Z"/><path class="cls-2" d="M8.29,27.84A1.33,1.33,0,1,1,7,26.51,1.33,1.33,0,0,1,8.29,27.84Z"/><path class="cls-2" d="M15.25,27.84a1.33,1.33,0,1,1-1.33-1.33A1.34,1.34,0,0,1,15.25,27.84Z"/><path class="cls-2" d="M15.25,27.84a1.33,1.33,0,1,1-1.33-1.33A1.34,1.34,0,0,1,15.25,27.84Z"/><path class="cls-2" d="M22.2,27.84a1.33,1.33,0,1,1-1.32-1.33A1.33,1.33,0,0,1,22.2,27.84Z"/><path class="cls-2" d="M22.2,27.84a1.33,1.33,0,1,1-1.32-1.33A1.33,1.33,0,0,1,22.2,27.84Z"/><path class="cls-2" d="M29.16,27.84a1.33,1.33,0,1,1-1.33-1.33A1.34,1.34,0,0,1,29.16,27.84Z"/><path class="cls-2" d="M1.32,27.84A1.33,1.33,0,0,1,0,29.17a1.33,1.33,0,0,1-1.32-1.33A1.33,1.33,0,0,1,0,26.51,1.33,1.33,0,0,1,1.32,27.84Z"/><path class="cls-2" d="M29.17,0a1.33,1.33,0,0,1-1.32,1.33A1.33,1.33,0,0,1,26.52,0a1.33,1.33,0,0,1,1.33-1.33A1.33,1.33,0,0,1,29.17,0Z"/><circle class="cls-2" cx="27.85" cy="8.83" r="1.33"/><circle class="cls-2" cx="27.85" cy="19.23" r="1.33"/><path class="cls-2" d="M1.33,0A1.33,1.33,0,0,1,0,1.33,1.33,1.33,0,0,1-1.32,0,1.33,1.33,0,0,1,0-1.33,1.33,1.33,0,0,1,1.33,0Z"/><path class="cls-2" d="M8.29,0A1.33,1.33,0,0,1,7,1.33,1.33,1.33,0,0,1,5.64,0,1.33,1.33,0,0,1,7-1.33,1.33,1.33,0,0,1,8.29,0Z"/><path class="cls-2" d="M8.29,0A1.33,1.33,0,0,1,7,1.33,1.33,1.33,0,0,1,5.64,0,1.33,1.33,0,0,1,7-1.33,1.33,1.33,0,0,1,8.29,0Z"/><path class="cls-2" d="M15.25,0a1.34,1.34,0,0,1-1.33,1.33A1.34,1.34,0,0,1,12.59,0a1.33,1.33,0,0,1,2.66,0Z"/><path class="cls-2" d="M15.25,0a1.34,1.34,0,0,1-1.33,1.33A1.34,1.34,0,0,1,12.59,0a1.33,1.33,0,0,1,2.66,0Z"/><path class="cls-2" d="M22.2,0a1.33,1.33,0,0,1-1.32,1.33A1.33,1.33,0,0,1,19.55,0a1.33,1.33,0,0,1,1.33-1.33A1.33,1.33,0,0,1,22.2,0Z"/><path class="cls-2" d="M22.2,0a1.33,1.33,0,0,1-1.32,1.33A1.33,1.33,0,0,1,19.55,0a1.33,1.33,0,0,1,1.33-1.33A1.33,1.33,0,0,1,22.2,0Z"/><path class="cls-2" d="M29.16,0a1.34,1.34,0,0,1-1.33,1.33A1.34,1.34,0,0,1,26.5,0a1.33,1.33,0,0,1,2.66,0Z"/><circle class="cls-2" cx="0.01" cy="8.83" r="1.33"/><circle class="cls-2" cx="6.96" cy="8.83" r="1.33"/><circle class="cls-2" cx="6.96" cy="8.83" r="1.33"/><circle class="cls-2" cx="13.92" cy="8.83" r="1.33"/><circle class="cls-2" cx="13.92" cy="8.83" r="1.33"/><circle class="cls-2" cx="20.88" cy="8.83" r="1.33"/><circle class="cls-2" cx="20.88" cy="8.83" r="1.33"/><path class="cls-2" d="M29.16,8.83A1.33,1.33,0,1,1,27.83,7.5,1.33,1.33,0,0,1,29.16,8.83Z"/><circle class="cls-2" cx="0.01" cy="19.23" r="1.33"/><circle class="cls-2" cx="6.96" cy="19.23" r="1.33"/><circle class="cls-2" cx="6.96" cy="19.23" r="1.33"/><circle class="cls-2" cx="13.92" cy="19.23" r="1.33"/><circle class="cls-2" cx="13.92" cy="19.23" r="1.33"/><circle class="cls-2" cx="20.88" cy="19.23" r="1.33"/><circle class="cls-2" cx="20.88" cy="19.23" r="1.33"/><path class="cls-2" d="M29.16,19.23a1.33,1.33,0,1,1-1.33-1.33A1.33,1.33,0,0,1,29.16,19.23Z"/><path class="cls-2" d="M1.32,0A1.33,1.33,0,0,1,0,1.33,1.33,1.33,0,0,1-1.33,0,1.33,1.33,0,0,1,0-1.33,1.33,1.33,0,0,1,1.32,0Z"/><path class="cls-2" d="M1.32,8.83A1.32,1.32,0,0,1,0,10.15,1.32,1.32,0,0,1-1.33,8.83,1.32,1.32,0,0,1,0,7.5,1.32,1.32,0,0,1,1.32,8.83Z"/><path class="cls-2" d="M1.32,19.23A1.32,1.32,0,0,1,0,20.55a1.32,1.32,0,0,1-1.32-1.32A1.33,1.33,0,0,1,0,17.9,1.33,1.33,0,0,1,1.32,19.23Z"/></pattern></defs><g id="OBJECTS"><path class="cls-3" d="M271.62,180h-4a.5.5,0,0,1,0-1h4a.5.5,0,0,1,0,1Zm-8,0h-4a.5.5,0,0,1,0-1h4a.5.5,0,0,1,0,1Zm-8,0h-4a.5.5,0,0,1,0-1h4a.5.5,0,0,1,0,1Zm-8,0h-4a.5.5,0,0,1,0-1h4a.5.5,0,0,1,0,1Zm-8,0h-4a.5.5,0,0,1,0-1h4a.5.5,0,0,1,0,1Zm-8,0h-4a.5.5,0,0,1,0-1h4a.5.5,0,0,1,0,1Zm-8,0h-4a.5.5,0,0,1,0-1h4a.5.5,0,0,1,0,1Zm-8,0h-4a.5.5,0,0,1,0-1h4a.5.5,0,0,1,0,1Zm-7.89-.49a.47.47,0,0,1-.3-.1,2.9,2.9,0,0,1-1.18-2.35v-1.74a.51.51,0,0,1,.5-.5.5.5,0,0,1,.5.5v1.74a1.93,1.93,0,0,0,.78,1.55.5.5,0,0,1-.3.9Zm67.34-.9a.5.5,0,0,1-.21-.05.5.5,0,0,1-.24-.67,1.94,1.94,0,0,0,.18-.83v-2.92a.51.51,0,0,1,.5-.5.5.5,0,0,1,.5.5v2.92a2.87,2.87,0,0,1-.28,1.26A.49.49,0,0,1,275.07,178.65Zm-68.32-6.79a.5.5,0,0,1-.5-.5v-4a.51.51,0,0,1,.5-.5.5.5,0,0,1,.5.5v4A.5.5,0,0,1,206.75,171.86Zm68.55-1.18a.5.5,0,0,1-.5-.5v-4a.51.51,0,0,1,.5-.5.5.5,0,0,1,.5.5v4A.5.5,0,0,1,275.3,170.68Zm0-8a.5.5,0,0,1-.5-.5v-4a.51.51,0,0,1,.5-.5.5.5,0,0,1,.5.5v4A.5.5,0,0,1,275.3,162.68Zm0-8a.5.5,0,0,1-.5-.5v-4a.51.51,0,0,1,.5-.5.5.5,0,0,1,.5.5v4A.5.5,0,0,1,275.3,154.68Zm0-8a.5.5,0,0,1-.5-.5v-4a.51.51,0,0,1,.5-.5.5.5,0,0,1,.5.5v4A.5.5,0,0,1,275.3,146.68Zm0-8a.5.5,0,0,1-.5-.5V135.7a2.91,2.91,0,0,1,.55-1.71.5.5,0,0,1,.7-.12.51.51,0,0,1,.12.7,1.91,1.91,0,0,0-.37,1.13v2.48A.5.5,0,0,1,275.3,138.68Zm8.13-4.92h-4a.5.5,0,0,1,0-1h4a.5.5,0,0,1,0,1Z" transform="translate(-41.35 -57.58)"/><path class="cls-4" d="M182.05,185.61a.5.5,0,0,1-.5-.5v-1.05a.5.5,0,0,1,.5-.5.5.5,0,0,1,.5.5v1.05A.51.51,0,0,1,182.05,185.61Zm0-5.05a.5.5,0,0,1-.5-.5v-4a.5.5,0,0,1,.5-.5.5.5,0,0,1,.5.5v4A.51.51,0,0,1,182.05,180.56Zm0-8a.5.5,0,0,1-.5-.5v-4a.5.5,0,0,1,.5-.5.5.5,0,0,1,.5.5v4A.51.51,0,0,1,182.05,172.56Z" transform="translate(-41.35 -57.58)"/><path class="cls-5" d="M102,303.22a.5.5,0,0,1-.5-.5V300a.5.5,0,0,1,.5-.5.5.5,0,0,1,.5.5v2.73A.5.5,0,0,1,102,303.22Zm0-6.73a.51.51,0,0,1-.5-.5v-4a.5.5,0,0,1,.5-.5.5.5,0,0,1,.5.5v4A.5.5,0,0,1,102,296.49Zm0-8a.51.51,0,0,1-.5-.5v-4a.5.5,0,0,1,.5-.5.5.5,0,0,1,.5.5v4A.5.5,0,0,1,102,288.49Zm0-8a.51.51,0,0,1-.5-.5v-4a.5.5,0,0,1,.5-.5.5.5,0,0,1,.5.5v4A.5.5,0,0,1,102,280.49Zm0-8a.51.51,0,0,1-.5-.5v-4a.5.5,0,0,1,.5-.5.5.5,0,0,1,.5.5v4A.5.5,0,0,1,102,272.49Zm0-8a.51.51,0,0,1-.5-.5v-4a.5.5,0,0,1,.5-.5.5.5,0,0,1,.5.5v4A.5.5,0,0,1,102,264.49Zm0-8a.51.51,0,0,1-.5-.5v-4a.5.5,0,0,1,.5-.5.5.5,0,0,1,.5.5v4A.5.5,0,0,1,102,256.49Zm0-8a.51.51,0,0,1-.5-.5v-4a.5.5,0,0,1,.5-.5.5.5,0,0,1,.5.5v4A.5.5,0,0,1,102,248.49Zm0-8a.51.51,0,0,1-.5-.5v-4a.5.5,0,0,1,.5-.5.5.5,0,0,1,.5.5v4A.5.5,0,0,1,102,240.49Zm0-8a.51.51,0,0,1-.5-.5v-4a.5.5,0,0,1,.5-.5.5.5,0,0,1,.5.5v4A.5.5,0,0,1,102,232.49Zm0-8a.51.51,0,0,1-.5-.5v-4a.5.5,0,0,1,.5-.5.5.5,0,0,1,.5.5v4A.5.5,0,0,1,102,224.49Zm0-8a.51.51,0,0,1-.5-.5v-4a.5.5,0,0,1,.5-.5.5.5,0,0,1,.5.5v4A.5.5,0,0,1,102,216.49Zm0-8a.51.51,0,0,1-.5-.5v-4a.5.5,0,0,1,.5-.5.5.5,0,0,1,.5.5v4A.5.5,0,0,1,102,208.49Zm0-8a.51.51,0,0,1-.5-.5v-4a.5.5,0,0,1,.5-.5.5.5,0,0,1,.5.5v4A.5.5,0,0,1,102,200.49Zm0-8a.51.51,0,0,1-.5-.5v-4a.5.5,0,0,1,.5-.5.5.5,0,0,1,.5.5v4A.5.5,0,0,1,102,192.49Zm0-8a.51.51,0,0,1-.5-.5V181.8a4.73,4.73,0,0,1,.42-2,.5.5,0,1,1,.91.4,4,4,0,0,0-.33,1.56V184A.5.5,0,0,1,102,184.49Zm3.34-6.42a.49.49,0,0,1-.48-.38.5.5,0,0,1,.37-.61,5.2,5.2,0,0,1,1.12-.13h3a.5.5,0,0,1,.5.5.5.5,0,0,1-.5.5h-3a3.8,3.8,0,0,0-.89.11ZM156,178h-2.61a.5.5,0,0,1-.5-.5.51.51,0,0,1,.5-.5h2.11v-.89a.5.5,0,0,1,1,0v1.39A.5.5,0,0,1,156,178Zm-6.61,0h-4a.5.5,0,0,1-.5-.5.51.51,0,0,1,.5-.5h4a.5.5,0,0,1,.5.5A.5.5,0,0,1,149.34,178Zm-8,0h-4a.5.5,0,0,1-.5-.5.51.51,0,0,1,.5-.5h4a.5.5,0,0,1,.5.5A.5.5,0,0,1,141.34,178Zm-8,0h-4a.5.5,0,0,1-.5-.5.51.51,0,0,1,.5-.5h4a.5.5,0,0,1,.5.5A.5.5,0,0,1,133.34,178Zm-8,0h-4a.5.5,0,0,1-.5-.5.51.51,0,0,1,.5-.5h4a.5.5,0,0,1,.5.5A.5.5,0,0,1,125.34,178Zm-8,0h-4a.5.5,0,0,1-.5-.5.51.51,0,0,1,.5-.5h4a.5.5,0,0,1,.5.5A.5.5,0,0,1,117.34,178ZM156,172.56a.5.5,0,0,1-.5-.5v-4a.5.5,0,0,1,1,0v4A.5.5,0,0,1,156,172.56Z" transform="translate(-41.35 -57.58)"/><g class="cls-6"><path class="cls-3" d="M79.42,355.51a1.79,1.79,0,0,1-1.71-1.26L76,348.86a.74.74,0,0,0-.77-.55,26,26,0,0,1-6.47-.56.77.77,0,0,0-.85.41l-2.61,5a1.81,1.81,0,0,1-2.43.76l-7.76-4a1.81,1.81,0,0,1-.77-2.43l2.61-5a.79.79,0,0,0-.16-.94,25.83,25.83,0,0,1-4.17-5,.79.79,0,0,0-.9-.31L46.33,338a1.8,1.8,0,0,1-2.26-1.18l-2.64-8.34a1.8,1.8,0,0,1,1.18-2.26l5.39-1.7a.78.78,0,0,0,.55-.77,25.64,25.64,0,0,1,.56-6.48.77.77,0,0,0-.41-.85l-5-2.61a1.79,1.79,0,0,1-.76-2.42l4-7.77a1.81,1.81,0,0,1,2.43-.77l5,2.61a.8.8,0,0,0,.94-.15,25.52,25.52,0,0,1,5-4.18.8.8,0,0,0,.31-.9l-1.71-5.39a1.8,1.8,0,0,1,1.18-2.26l8.34-2.63a1.8,1.8,0,0,1,2.26,1.17l1.7,5.39a.74.74,0,0,0,.77.55,26,26,0,0,1,6.47.57.81.81,0,0,0,.86-.42l2.61-5a1.78,1.78,0,0,1,1.05-.89,1.81,1.81,0,0,1,1.37.12l7.77,4a1.81,1.81,0,0,1,.77,2.42l-2.61,5a.79.79,0,0,0,.15.94,25.52,25.52,0,0,1,4.18,5,.79.79,0,0,0,.9.31l5.39-1.7a1.78,1.78,0,0,1,2.25,1.17L107,316.9a1.79,1.79,0,0,1-1.17,2.25l-5.39,1.7a.8.8,0,0,0-.56.77,25.64,25.64,0,0,1-.56,6.48.78.78,0,0,0,.42.85l5,2.61a1.81,1.81,0,0,1,.77,2.43l-4,7.76a1.78,1.78,0,0,1-1,.89,1.81,1.81,0,0,1-1.37-.12l-5-2.61a.8.8,0,0,0-.94.15,25.17,25.17,0,0,1-5,4.18.79.79,0,0,0-.31.9l1.7,5.39a1.8,1.8,0,0,1-1.17,2.26L80,355.43A2,2,0,0,1,79.42,355.51Zm-4.16-8.2a1.79,1.79,0,0,1,1.7,1.25l1.7,5.39a.79.79,0,0,0,1,.52L88,351.83a.8.8,0,0,0,.52-1l-1.7-5.39a1.77,1.77,0,0,1,.72-2,25.12,25.12,0,0,0,4.78-4,1.78,1.78,0,0,1,2.13-.37l5,2.61a.76.76,0,0,0,.61.05.79.79,0,0,0,.47-.39l4-7.77a.79.79,0,0,0-.34-1.07l-5-2.61a1.78,1.78,0,0,1-.93-2,24.46,24.46,0,0,0,.53-6.21,1.79,1.79,0,0,1,1.26-1.77l5.39-1.7a.8.8,0,0,0,.52-1l-2.64-8.35a.8.8,0,0,0-1-.52L97,310a1.77,1.77,0,0,1-2-.72,24.22,24.22,0,0,0-4-4.78,1.81,1.81,0,0,1-.36-2.14l2.61-5a.81.81,0,0,0,0-.61.79.79,0,0,0-.39-.47l-7.77-4a.81.81,0,0,0-.61-.06.84.84,0,0,0-.47.4l-2.6,5a1.78,1.78,0,0,1-2,.93A25,25,0,0,0,73.2,298a1.79,1.79,0,0,1-1.76-1.25l-1.71-5.39a.8.8,0,0,0-1-.52l-8.34,2.64a.79.79,0,0,0-.52,1l1.7,5.39a1.79,1.79,0,0,1-.72,2,24.52,24.52,0,0,0-4.78,4,1.79,1.79,0,0,1-2.14.37l-5-2.61a.81.81,0,0,0-1.08.34l-4,7.77a.81.81,0,0,0,.34,1.08l5,2.6a1.78,1.78,0,0,1,.93,2,25,25,0,0,0-.54,6.22,1.78,1.78,0,0,1-1.25,1.76l-5.39,1.7a.81.81,0,0,0-.47.4.76.76,0,0,0,0,.61L45,336.47a.8.8,0,0,0,1,.52l5.38-1.7a1.78,1.78,0,0,1,2.05.72,24.52,24.52,0,0,0,4,4.78,1.78,1.78,0,0,1,.36,2.14l-2.6,5a.8.8,0,0,0,.34,1.08l7.76,4a.86.86,0,0,0,.61.05.81.81,0,0,0,.47-.4l2.61-5a1.77,1.77,0,0,1,2-.93,24.55,24.55,0,0,0,6.22.54Zm-1-9.29a15.42,15.42,0,1,1,4.3-.6A15.77,15.77,0,0,1,74.24,338Zm0-29.89a14.45,14.45,0,1,0,4,28.33h0a14.45,14.45,0,0,0-4-28.33Z" transform="translate(-41.35 -57.58)"/></g><path class="cls-7" d="M119.07,184.78l.69-4.34a.65.65,0,0,0-.54-.75l-2.8-.44a.65.65,0,0,1-.54-.57,13.06,13.06,0,0,0-.74-3.11.63.63,0,0,1,.23-.75l2.29-1.66a.65.65,0,0,0,.15-.91l-2.58-3.56a.64.64,0,0,0-.91-.14l-2.3,1.66a.65.65,0,0,1-.78,0,12.61,12.61,0,0,0-2.72-1.68.65.65,0,0,1-.37-.69l.45-2.8a.65.65,0,0,0-.54-.75l-4.34-.69a.64.64,0,0,0-.74.54l-.45,2.8a.66.66,0,0,1-.57.54,13.06,13.06,0,0,0-3.11.74.62.62,0,0,1-.74-.23l-1.67-2.3a.65.65,0,0,0-.91-.14L92,168.11a.65.65,0,0,0-.14.91l1.66,2.3a.66.66,0,0,1,0,.79,12.37,12.37,0,0,0-1.68,2.72.64.64,0,0,1-.69.36l-2.8-.44a.65.65,0,0,0-.75.54l-.69,4.34a.64.64,0,0,0,.54.74l2.8.45a.66.66,0,0,1,.54.56,13,13,0,0,0,.74,3.11.63.63,0,0,1-.23.75L89,186.91a.65.65,0,0,0-.14.91l2.58,3.56a.65.65,0,0,0,.91.14l2.29-1.66a.66.66,0,0,1,.79,0,12.37,12.37,0,0,0,2.72,1.68.64.64,0,0,1,.37.69L98,195a.65.65,0,0,0,.54.75l4.34.69a.64.64,0,0,0,.74-.54l.45-2.8a.65.65,0,0,1,.57-.54,12.54,12.54,0,0,0,3.1-.75.65.65,0,0,1,.75.24l1.67,2.29a.65.65,0,0,0,.91.15l3.56-2.58a.65.65,0,0,0,.14-.91l-1.66-2.3a.65.65,0,0,1,0-.78,12.61,12.61,0,0,0,1.68-2.72.64.64,0,0,1,.69-.37l2.8.45A.65.65,0,0,0,119.07,184.78ZM102,187.39a7.51,7.51,0,1,1,8.43-4.84A7.52,7.52,0,0,1,102,187.39Z" transform="translate(-41.35 -57.58)"/><path class="cls-4" d="M103,197h-.18l-4.34-.7a1.15,1.15,0,0,1-1-1.32l.45-2.8a.16.16,0,0,0-.07-.16,13.12,13.12,0,0,1-2.84-1.74.14.14,0,0,0-.17,0l-2.3,1.67a1.14,1.14,0,0,1-.86.2,1.15,1.15,0,0,1-.75-.46l-2.58-3.56a1.14,1.14,0,0,1-.2-.86,1.15,1.15,0,0,1,.46-.75l2.3-1.66a.16.16,0,0,0,.06-.17,12.47,12.47,0,0,1-.77-3.23.17.17,0,0,0-.13-.13l-2.8-.44a1.16,1.16,0,0,1-1-1.32l.7-4.34a1.13,1.13,0,0,1,.46-.75,1.19,1.19,0,0,1,.86-.21l2.8.45a.15.15,0,0,0,.16-.08,12.9,12.9,0,0,1,1.74-2.83.17.17,0,0,0,0-.17l-1.67-2.3a1.15,1.15,0,0,1,.26-1.61l3.56-2.58a1.16,1.16,0,0,1,1.61.26l1.66,2.3a.16.16,0,0,0,.17.05,13.34,13.34,0,0,1,3.23-.77.14.14,0,0,0,.12-.12l.45-2.8a1.13,1.13,0,0,1,.46-.75,1.2,1.2,0,0,1,.86-.21l4.34.7a1.11,1.11,0,0,1,.75.46,1.14,1.14,0,0,1,.2.86l-.44,2.8a.14.14,0,0,0,.07.15,13.16,13.16,0,0,1,2.84,1.75.15.15,0,0,0,.17,0l2.3-1.66a1.15,1.15,0,0,1,1.61.26l2.57,3.56a1.09,1.09,0,0,1,.21.85,1.17,1.17,0,0,1-.46.76l-2.3,1.66a.15.15,0,0,0-.06.17,12.38,12.38,0,0,1,.77,3.23.15.15,0,0,0,.13.12l2.8.45a1.15,1.15,0,0,1,1,1.32l-.7,4.34a1.15,1.15,0,0,1-1.32.95l-2.8-.44a.15.15,0,0,0-.16.07,12.45,12.45,0,0,1-1.74,2.83.15.15,0,0,0,0,.18l1.67,2.3a1.16,1.16,0,0,1-.26,1.61l-3.56,2.57a1.15,1.15,0,0,1-1.61-.25l-1.66-2.3a.15.15,0,0,0-.17-.06,13.23,13.23,0,0,1-3.23.77.15.15,0,0,0-.12.13l-.45,2.8a1.15,1.15,0,0,1-1.14,1Zm-8-7.76a1.16,1.16,0,0,1,.71.25,11.76,11.76,0,0,0,2.62,1.61,1.16,1.16,0,0,1,.65,1.23l-.45,2.8a.15.15,0,0,0,.13.17l4.34.7a.17.17,0,0,0,.17-.13l.45-2.8a1.14,1.14,0,0,1,1-1,12.29,12.29,0,0,0,3-.71,1.15,1.15,0,0,1,1.33.4l1.66,2.3a.15.15,0,0,0,.21,0l3.56-2.57a.15.15,0,0,0,0-.21l-1.67-2.3a1.16,1.16,0,0,1,0-1.39,11.76,11.76,0,0,0,1.61-2.62,1.16,1.16,0,0,1,1.23-.65l2.8.45a.16.16,0,0,0,.17-.13l.7-4.34a.17.17,0,0,0-.13-.17l-2.8-.45a1.15,1.15,0,0,1-1-1,12.29,12.29,0,0,0-.71-3,1.14,1.14,0,0,1,.4-1.33l2.3-1.66a.14.14,0,0,0,.06-.1.14.14,0,0,0,0-.12L114.83,169a.18.18,0,0,0-.21,0l-2.3,1.66a1.13,1.13,0,0,1-1.39,0,12.1,12.1,0,0,0-2.62-1.6,1.16,1.16,0,0,1-.65-1.23l.45-2.8a.16.16,0,0,0,0-.12.19.19,0,0,0-.1-.06l-4.34-.69a.15.15,0,0,0-.17.13L103,167a1.15,1.15,0,0,1-1,1,12.29,12.29,0,0,0-3,.71,1.14,1.14,0,0,1-1.33-.4L96,166a.16.16,0,0,0-.22,0l-3.55,2.58a.17.17,0,0,0,0,.21L93.9,171a1.16,1.16,0,0,1,0,1.39A11.76,11.76,0,0,0,92.26,175a1.16,1.16,0,0,1-1.23.65l-2.8-.45c-.08,0-.16.06-.18.13l-.69,4.34a.15.15,0,0,0,.13.17l2.8.45a1.14,1.14,0,0,1,1,1,12.29,12.29,0,0,0,.71,3,1.15,1.15,0,0,1-.4,1.33l-2.3,1.66a.12.12,0,0,0-.06.1.12.12,0,0,0,0,.11l2.58,3.56a.12.12,0,0,0,.1.06.12.12,0,0,0,.11,0l2.3-1.67A1.2,1.2,0,0,1,95,189.23Zm8.35-1.22a7.79,7.79,0,0,1-1.44-.13,8,8,0,1,1,1.44.13Zm0-15a7,7,0,0,0-1.29,13.9h0a7,7,0,0,0,2.55-13.78A6.72,6.72,0,0,0,103.37,173Z" transform="translate(-41.35 -57.58)"/><path class="cls-3" d="M460.31,93.74a.5.5,0,0,1-.5-.5v-4a.5.5,0,1,1,1,0v4A.5.5,0,0,1,460.31,93.74Zm0-8a.5.5,0,0,1-.5-.5v-4a.5.5,0,1,1,1,0v4A.5.5,0,0,1,460.31,85.74Zm-2.9-5.1h-4a.5.5,0,0,1-.5-.5.5.5,0,0,1,.5-.5h4a.5.5,0,0,1,.5.5A.5.5,0,0,1,457.41,80.64Zm-8,0h-4a.5.5,0,0,1-.5-.5.5.5,0,0,1,.5-.5h4a.5.5,0,0,1,.5.5A.5.5,0,0,1,449.41,80.64Zm-8,0h-4a.5.5,0,0,1-.5-.5.5.5,0,0,1,.5-.5h4a.5.5,0,0,1,.5.5A.5.5,0,0,1,441.41,80.64Zm-8,0h-4a.5.5,0,0,1-.5-.5.5.5,0,0,1,.5-.5h4a.5.5,0,0,1,.5.5A.5.5,0,0,1,433.41,80.64Zm-8,0h-4a.5.5,0,0,1-.5-.5.5.5,0,0,1,.5-.5h4a.5.5,0,0,1,.5.5A.5.5,0,0,1,425.41,80.64Zm-8,0h-3a.5.5,0,0,1-.5-.5v-1a.5.5,0,0,1,.5-.5.5.5,0,0,1,.5.5v.47h2.53a.5.5,0,0,1,.5.5A.5.5,0,0,1,417.41,80.64Zm-61-1.86a.5.5,0,0,1-.5-.5v-4a.5.5,0,0,1,.5-.5.5.5,0,0,1,.5.5v4A.5.5,0,0,1,356.38,78.78Zm58-3.11a.5.5,0,0,1-.5-.5v-4a.5.5,0,0,1,.5-.5.5.5,0,0,1,.5.5v4A.5.5,0,0,1,414.38,75.67Zm-58-4.89a.5.5,0,0,1-.5-.5v-4a.5.5,0,0,1,.5-.5.5.5,0,0,1,.5.5v4A.5.5,0,0,1,356.38,70.78Zm58-3.11a.5.5,0,0,1-.5-.5v-4a.5.5,0,0,1,.5-.5.5.5,0,0,1,.5.5v4A.5.5,0,0,1,414.38,67.67Zm-58-4.89a.5.5,0,0,1-.5-.5V59.72a.51.51,0,0,1,.5-.5h1.44a.5.5,0,0,1,.5.5.5.5,0,0,1-.5.5h-.94v2.06A.5.5,0,0,1,356.38,62.78Zm57.44-2.56h-4a.5.5,0,0,1-.5-.5.51.51,0,0,1,.5-.5h4a.5.5,0,0,1,.5.5A.5.5,0,0,1,413.82,60.22Zm-8,0h-4a.5.5,0,0,1-.5-.5.51.51,0,0,1,.5-.5h4a.5.5,0,0,1,.5.5A.5.5,0,0,1,405.82,60.22Zm-8,0h-4a.5.5,0,0,1-.5-.5.51.51,0,0,1,.5-.5h4a.5.5,0,0,1,.5.5A.5.5,0,0,1,397.82,60.22Zm-8,0h-4a.5.5,0,0,1-.5-.5.51.51,0,0,1,.5-.5h4a.5.5,0,0,1,.5.5A.5.5,0,0,1,389.82,60.22Zm-8,0h-4a.5.5,0,0,1-.5-.5.51.51,0,0,1,.5-.5h4a.5.5,0,0,1,.5.5A.5.5,0,0,1,381.82,60.22Zm-8,0h-4a.5.5,0,0,1-.5-.5.51.51,0,0,1,.5-.5h4a.5.5,0,0,1,.5.5A.5.5,0,0,1,373.82,60.22Zm-8,0h-4a.5.5,0,0,1-.5-.5.51.51,0,0,1,.5-.5h4a.5.5,0,0,1,.5.5A.5.5,0,0,1,365.82,60.22Z" transform="translate(-41.35 -57.58)"/><path class="cls-5" d="M343.85,74.08a.51.51,0,0,1-.5-.5v-4a.5.5,0,0,1,.5-.5.5.5,0,0,1,.5.5v4A.5.5,0,0,1,343.85,74.08Zm0-8a.51.51,0,0,1-.5-.5v-4a.5.5,0,0,1,.5-.5.5.5,0,0,1,.5.5v4A.5.5,0,0,1,343.85,66.08Z" transform="translate(-41.35 -57.58)"/><path class="cls-5" d="M455.21,96.35a.5.5,0,0,1-.5-.5v-4a.5.5,0,0,1,.5-.5.5.5,0,0,1,.5.5v4A.51.51,0,0,1,455.21,96.35Zm0-8a.5.5,0,0,1-.5-.5v-4a.5.5,0,0,1,.5-.5.5.5,0,0,1,.5.5v4A.51.51,0,0,1,455.21,88.35Z" transform="translate(-41.35 -57.58)"/><path class="cls-3" d="M559.13,260.9a.5.5,0,0,1-.5-.5v-4a.51.51,0,0,1,.5-.5.5.5,0,0,1,.5.5v4A.5.5,0,0,1,559.13,260.9Zm0-8a.5.5,0,0,1-.5-.5v-4a.51.51,0,0,1,.5-.5.5.5,0,0,1,.5.5v4A.5.5,0,0,1,559.13,252.9Zm27.38-6.16H585a.5.5,0,0,1-.5-.5.5.5,0,0,1,.5-.5h1v-2a.5.5,0,0,1,.5-.5.5.5,0,0,1,.5.5v2.46A.51.51,0,0,1,586.51,246.74Zm-5.54,0h-4a.5.5,0,0,1-.5-.5.5.5,0,0,1,.5-.5h4a.5.5,0,0,1,.5.5A.51.51,0,0,1,581,246.74Zm-8,0h-4a.5.5,0,0,1-.5-.5.5.5,0,0,1,.5-.5h4a.5.5,0,0,1,.5.5A.51.51,0,0,1,573,246.74Zm-8,0h-4a.5.5,0,0,1-.5-.5.5.5,0,0,1,.5-.5h4a.5.5,0,0,1,.5.5A.51.51,0,0,1,565,246.74Zm21.54-6.46a.5.5,0,0,1-.5-.5v-4a.5.5,0,0,1,.5-.5.5.5,0,0,1,.5.5v4A.51.51,0,0,1,586.51,240.28Zm0-8a.5.5,0,0,1-.5-.5v-4a.5.5,0,0,1,.5-.5.5.5,0,0,1,.5.5v4A.51.51,0,0,1,586.51,232.28Zm0-8a.5.5,0,0,1-.5-.5v-4a.5.5,0,0,1,.5-.5.5.5,0,0,1,.5.5v4A.51.51,0,0,1,586.51,224.28Zm0-8a.5.5,0,0,1-.5-.5v-4a.5.5,0,0,1,.5-.5.5.5,0,0,1,.5.5v4A.51.51,0,0,1,586.51,216.28Zm0-8a.5.5,0,0,1-.5-.5v-4a.5.5,0,0,1,.5-.5.5.5,0,0,1,.5.5v4A.51.51,0,0,1,586.51,208.28Zm-1.46-6.55h-4a.5.5,0,0,1-.5-.5.51.51,0,0,1,.5-.5h4a.5.5,0,0,1,.5.5A.5.5,0,0,1,585.05,201.73Zm-8,0h-4a.5.5,0,0,1-.5-.5.51.51,0,0,1,.5-.5h4a.5.5,0,0,1,.5.5A.5.5,0,0,1,577.05,201.73Z" transform="translate(-41.35 -57.58)"/><path class="cls-3" d="M348,402.4a.5.5,0,0,1-.5-.5v-2.64a.5.5,0,0,1,1,0v2.64A.5.5,0,0,1,348,402.4Zm0-6.64a.5.5,0,0,1-.5-.5v-4a.5.5,0,0,1,1,0v4A.5.5,0,0,1,348,395.76Zm0-8a.5.5,0,0,1-.5-.5v-1.14h-1.87a.5.5,0,0,1-.5-.5.51.51,0,0,1,.5-.5H348a.5.5,0,0,1,.5.5v1.64A.5.5,0,0,1,348,387.76Zm-6.37-1.64h-4a.5.5,0,0,1-.5-.5.51.51,0,0,1,.5-.5h4a.5.5,0,0,1,.5.5A.5.5,0,0,1,341.66,386.12Zm-8,0h-4a.5.5,0,0,1-.5-.5.51.51,0,0,1,.5-.5h4a.5.5,0,0,1,.5.5A.5.5,0,0,1,333.66,386.12Zm-8,0h-4a.5.5,0,0,1-.5-.5.51.51,0,0,1,.5-.5h4a.5.5,0,0,1,.5.5A.5.5,0,0,1,325.66,386.12Zm-8,0h-4a.5.5,0,0,1-.5-.5.51.51,0,0,1,.5-.5h4a.5.5,0,0,1,.5.5A.5.5,0,0,1,317.66,386.12Zm-8,0h-4a.5.5,0,0,1-.5-.5.51.51,0,0,1,.5-.5h4a.5.5,0,0,1,.5.5A.5.5,0,0,1,309.66,386.12Zm-8,0h-.61a.5.5,0,0,1-.5-.5v-3.39a.51.51,0,0,1,.5-.5.5.5,0,0,1,.5.5v2.89h.11a.5.5,0,0,1,.5.5A.5.5,0,0,1,301.66,386.12Zm-.61-7.39a.5.5,0,0,1-.5-.5v-4a.51.51,0,0,1,.5-.5.5.5,0,0,1,.5.5v4A.5.5,0,0,1,301.05,378.73Z" transform="translate(-41.35 -57.58)"/><path class="cls-5" d="M355.69,401.6a.5.5,0,0,1-.5-.5v-4a.5.5,0,0,1,.5-.5.5.5,0,0,1,.5.5v4A.5.5,0,0,1,355.69,401.6Zm0-8a.5.5,0,0,1-.5-.5v-4a.5.5,0,0,1,.5-.5.5.5,0,0,1,.5.5v4A.5.5,0,0,1,355.69,393.6Zm0-8a.5.5,0,0,1-.5-.5v-4a.5.5,0,0,1,.5-.5.5.5,0,0,1,.5.5v4A.5.5,0,0,1,355.69,385.6ZM354.3,379h-4a.5.5,0,1,1,0-1h4a.5.5,0,0,1,0,1Zm-8,0h-4a.5.5,0,1,1,0-1h4a.5.5,0,0,1,0,1Zm-8,0h-4a.5.5,0,1,1,0-1h4a.5.5,0,0,1,0,1Zm-8,0h-4a.5.5,0,1,1,0-1h4a.5.5,0,0,1,0,1Zm-8,0h-4a.5.5,0,1,1,0-1h4a.5.5,0,0,1,0,1Zm-8,0h-4a.5.5,0,1,1,0-1h4a.5.5,0,0,1,0,1Zm-5.59-2.41a.5.5,0,0,1-.5-.5v-4a.5.5,0,0,1,1,0v4A.5.5,0,0,1,308.71,376.58Z" transform="translate(-41.35 -57.58)"/><path class="cls-5" d="M566.56,266.82a.5.5,0,0,1-.5-.5v-4a.5.5,0,0,1,.5-.5.51.51,0,0,1,.5.5v4A.5.5,0,0,1,566.56,266.82Zm0-8a.5.5,0,0,1-.5-.5v-4a.5.5,0,0,1,.5-.5.51.51,0,0,1,.5.5v4A.5.5,0,0,1,566.56,258.82Zm22.87-5.12h-4a.51.51,0,0,1-.5-.5.5.5,0,0,1,.5-.5h4a.5.5,0,0,1,.5.5A.5.5,0,0,1,589.43,253.7Zm-8,0h-4a.51.51,0,0,1-.5-.5.5.5,0,0,1,.5-.5h4a.5.5,0,0,1,.5.5A.5.5,0,0,1,581.43,253.7Zm-8,0h-4a.51.51,0,0,1-.5-.5.5.5,0,0,1,.5-.5h4a.5.5,0,0,1,.5.5A.5.5,0,0,1,573.43,253.7Zm18.65-1.36a.5.5,0,0,1-.5-.5v-4a.5.5,0,0,1,.5-.5.5.5,0,0,1,.5.5v4A.5.5,0,0,1,592.08,252.34Zm0-8a.5.5,0,0,1-.5-.5v-4a.5.5,0,0,1,.5-.5.5.5,0,0,1,.5.5v4A.5.5,0,0,1,592.08,244.34Zm0-8a.5.5,0,0,1-.5-.5v-4a.5.5,0,0,1,.5-.5.5.5,0,0,1,.5.5v4A.5.5,0,0,1,592.08,236.34Zm0-8a.5.5,0,0,1-.5-.5v-4a.5.5,0,0,1,.5-.5.5.5,0,0,1,.5.5v4A.5.5,0,0,1,592.08,228.34Zm0-8a.5.5,0,0,1-.5-.5v-4a.5.5,0,0,1,.5-.5.5.5,0,0,1,.5.5v4A.5.5,0,0,1,592.08,220.34Zm0-8a.5.5,0,0,1-.5-.5v-4a.5.5,0,0,1,.5-.5.5.5,0,0,1,.5.5v4A.5.5,0,0,1,592.08,212.34Zm0-8a.5.5,0,0,1-.5-.5v-4a.5.5,0,0,1,.5-.5.5.5,0,0,1,.5.5v4A.5.5,0,0,1,592.08,204.34Z" transform="translate(-41.35 -57.58)"/><path class="cls-3" d="M93.31,284.8a.5.5,0,0,1-.5-.5v-4a.51.51,0,0,1,.5-.5.5.5,0,0,1,.5.5v4A.5.5,0,0,1,93.31,284.8Zm0-8a.5.5,0,0,1-.5-.5v-4a.51.51,0,0,1,.5-.5.5.5,0,0,1,.5.5v4A.5.5,0,0,1,93.31,276.8Zm0-8a.5.5,0,0,1-.5-.5v-4a.51.51,0,0,1,.5-.5.5.5,0,0,1,.5.5v4A.5.5,0,0,1,93.31,268.8Zm0-8a.5.5,0,0,1-.5-.5v-4a.51.51,0,0,1,.5-.5.5.5,0,0,1,.5.5v4A.5.5,0,0,1,93.31,260.8Zm0-8a.5.5,0,0,1-.5-.5v-4a.51.51,0,0,1,.5-.5.5.5,0,0,1,.5.5v4A.5.5,0,0,1,93.31,252.8Zm0-8a.5.5,0,0,1-.5-.5v-4a.51.51,0,0,1,.5-.5.5.5,0,0,1,.5.5v4A.5.5,0,0,1,93.31,244.8Zm0-8a.5.5,0,0,1-.5-.5v-4a.51.51,0,0,1,.5-.5.5.5,0,0,1,.5.5v4A.5.5,0,0,1,93.31,236.8Zm0-8a.5.5,0,0,1-.5-.5v-4a.51.51,0,0,1,.5-.5.5.5,0,0,1,.5.5v4A.5.5,0,0,1,93.31,228.8Zm0-8a.5.5,0,0,1-.5-.5v-4a.51.51,0,0,1,.5-.5.5.5,0,0,1,.5.5v4A.5.5,0,0,1,93.31,220.8Zm0-8a.5.5,0,0,1-.5-.5v-4a.51.51,0,0,1,.5-.5.5.5,0,0,1,.5.5v4A.5.5,0,0,1,93.31,212.8Zm0-8a.5.5,0,0,1-.5-.5v-4a.51.51,0,0,1,.5-.5.5.5,0,0,1,.5.5v4A.5.5,0,0,1,93.31,204.8Z" transform="translate(-41.35 -57.58)"/><path class="cls-3" d="M113.81,95.13a.43.43,0,0,1-.44-.26L111,90.49l-4.37-2.4a.48.48,0,0,1-.25-.44.51.51,0,0,1,.26-.44L111,84.83l2.41-4.36a.48.48,0,0,1,.43-.26h0a.49.49,0,0,1,.44.26l2.38,4.38,4.36,2.4a.49.49,0,0,1,.26.44.51.51,0,0,1-.26.44l-4.37,2.38-2.41,4.36A.48.48,0,0,1,113.81,95.13Zm-5.9-7.48,3.69,2a.48.48,0,0,1,.2.2l2,3.7,2-3.69a.48.48,0,0,1,.2-.2l3.7-2-3.69-2a.52.52,0,0,1-.2-.19l-2-3.71-2,3.69a.48.48,0,0,1-.2.2Z" transform="translate(-41.35 -57.58)"/><path class="cls-3" d="M194.66,411.66h0a.51.51,0,0,1-.44-.26l-2.46-4.53-4.52-2.49a.5.5,0,0,1-.26-.44.51.51,0,0,1,.26-.44l4.54-2.46,2.48-4.52a.51.51,0,0,1,.44-.26h0a.53.53,0,0,1,.44.27l2.46,4.53,4.52,2.48a.51.51,0,0,1,.26.44.49.49,0,0,1-.26.44l-4.53,2.46-2.49,4.52A.5.5,0,0,1,194.66,411.66ZM188.53,404l3.84,2.11a.55.55,0,0,1,.2.2l2.1,3.86,2.11-3.85a.52.52,0,0,1,.2-.19l3.86-2.1L197,401.86a.41.41,0,0,1-.19-.2l-2.1-3.85-2.12,3.84a.43.43,0,0,1-.2.2Z" transform="translate(-41.35 -57.58)"/><path class="cls-4" d="M522.42,82.36h0a.51.51,0,0,1-.44-.26l-1.58-2.92-2.91-1.6a.5.5,0,0,1-.26-.44.51.51,0,0,1,.26-.44l2.92-1.58,1.6-2.91a.51.51,0,0,1,.44-.26h0a.51.51,0,0,1,.44.26l1.58,2.92,2.91,1.6a.5.5,0,0,1,0,.88l-2.92,1.58-1.6,2.91A.5.5,0,0,1,522.42,82.36Zm-3.65-5.21L521,78.38a.48.48,0,0,1,.2.2l1.22,2.24,1.23-2.24a.48.48,0,0,1,.2-.2l2.24-1.21-2.24-1.23a.52.52,0,0,1-.19-.2l-1.22-2.25-1.23,2.24a.64.64,0,0,1-.2.2Z" transform="translate(-41.35 -57.58)"/><path class="cls-3" d="M592.39,331.13h0a.5.5,0,0,1-.44-.26l-2.46-4.54L585,323.85a.5.5,0,0,1,0-.88l4.53-2.46L592,316a.5.5,0,0,1,.44-.26h0a.51.51,0,0,1,.44.26l2.46,4.53,4.52,2.49a.51.51,0,0,1,.26.44.5.5,0,0,1-.27.44l-4.53,2.46-2.48,4.52A.51.51,0,0,1,592.39,331.13Zm-6.14-7.72,3.85,2.12a.46.46,0,0,1,.19.2l2.1,3.86,2.12-3.85a.48.48,0,0,1,.2-.2l3.85-2.09-3.84-2.12a.55.55,0,0,1-.2-.2l-2.1-3.86-2.11,3.85a.64.64,0,0,1-.2.2Z" transform="translate(-41.35 -57.58)"/><line class="cls-8" x1="209.69" y1="6.4" x2="209.69" y2="11.08"/><path class="cls-9" d="M251,69.15a.5.5,0,0,1-.5-.5V64a.5.5,0,0,1,.5-.5.5.5,0,0,1,.5.5v4.67A.5.5,0,0,1,251,69.15Z" transform="translate(-41.35 -57.58)"/><line class="cls-8" x1="209.69" y1="18.4" x2="209.69" y2="23.08"/><path class="cls-9" d="M251,81.15a.5.5,0,0,1-.5-.5V76a.5.5,0,0,1,.5-.5.5.5,0,0,1,.5.5v4.67A.5.5,0,0,1,251,81.15Z" transform="translate(-41.35 -57.58)"/><line class="cls-8" x1="218.03" y1="14.74" x2="213.36" y2="14.74"/><path class="cls-9" d="M259.38,72.82h-4.67a.5.5,0,0,1-.5-.5.5.5,0,0,1,.5-.5h4.67a.5.5,0,0,1,.5.5A.51.51,0,0,1,259.38,72.82Z" transform="translate(-41.35 -57.58)"/><line class="cls-8" x1="206.03" y1="14.74" x2="201.36" y2="14.74"/><path class="cls-9" d="M247.38,72.82h-4.67a.5.5,0,0,1-.5-.5.5.5,0,0,1,.5-.5h4.67a.5.5,0,0,1,.5.5A.51.51,0,0,1,247.38,72.82Z" transform="translate(-41.35 -57.58)"/><line class="cls-8" x1="203.8" y1="20.63" x2="207.1" y2="17.33"/><path class="cls-9" d="M245.15,78.71a.51.51,0,0,1-.36-.15.5.5,0,0,1,0-.7l3.31-3.31a.5.5,0,0,1,.7,0,.5.5,0,0,1,0,.71l-3.3,3.3A.49.49,0,0,1,245.15,78.71Z" transform="translate(-41.35 -57.58)"/><line class="cls-8" x1="212.28" y1="12.15" x2="215.59" y2="8.84"/><path class="cls-9" d="M253.63,70.23a.49.49,0,0,1-.35-.15.5.5,0,0,1,0-.71l3.3-3.3a.5.5,0,0,1,.71.71l-3.3,3.3A.51.51,0,0,1,253.63,70.23Z" transform="translate(-41.35 -57.58)"/><line class="cls-8" x1="203.8" y1="8.84" x2="207.1" y2="12.15"/><path class="cls-9" d="M248.45,70.23a.49.49,0,0,1-.35-.15l-3.31-3.3a.51.51,0,0,1,0-.71.5.5,0,0,1,.71,0l3.3,3.3a.5.5,0,0,1,0,.71A.47.47,0,0,1,248.45,70.23Z" transform="translate(-41.35 -57.58)"/><line class="cls-8" x1="212.28" y1="17.33" x2="215.59" y2="20.63"/><path class="cls-9" d="M256.94,78.71a.51.51,0,0,1-.36-.15l-3.3-3.3a.5.5,0,0,1,0-.71.51.51,0,0,1,.71,0l3.3,3.31a.48.48,0,0,1,0,.7A.5.5,0,0,1,256.94,78.71Z" transform="translate(-41.35 -57.58)"/><line class="cls-8" x1="545.9" y1="84.74" x2="545.9" y2="89.42"/><path class="cls-9" d="M587.25,147.5a.51.51,0,0,1-.5-.5v-4.68a.51.51,0,0,1,.5-.5.5.5,0,0,1,.5.5V147A.5.5,0,0,1,587.25,147.5Z" transform="translate(-41.35 -57.58)"/><line class="cls-8" x1="545.9" y1="96.74" x2="545.9" y2="101.42"/><path class="cls-9" d="M587.25,159.5a.51.51,0,0,1-.5-.5v-4.68a.51.51,0,0,1,.5-.5.5.5,0,0,1,.5.5V159A.5.5,0,0,1,587.25,159.5Z" transform="translate(-41.35 -57.58)"/><line class="cls-8" x1="554.24" y1="93.08" x2="549.57" y2="93.08"/><path class="cls-9" d="M595.59,151.16h-4.67a.5.5,0,0,1,0-1h4.67a.5.5,0,0,1,0,1Z" transform="translate(-41.35 -57.58)"/><line class="cls-8" x1="542.24" y1="93.08" x2="537.57" y2="93.08"/><path class="cls-9" d="M583.59,151.16h-4.67a.5.5,0,0,1,0-1h4.67a.5.5,0,0,1,0,1Z" transform="translate(-41.35 -57.58)"/><line class="cls-8" x1="540.01" y1="98.98" x2="543.31" y2="95.67"/><path class="cls-9" d="M581.36,157.05a.54.54,0,0,1-.36-.14.51.51,0,0,1,0-.71l3.31-3.3a.49.49,0,1,1,.7.7l-3.3,3.31A.54.54,0,0,1,581.36,157.05Z" transform="translate(-41.35 -57.58)"/><line class="cls-8" x1="548.49" y1="90.49" x2="551.8" y2="87.19"/><path class="cls-9" d="M589.84,148.57a.5.5,0,0,1-.35-.85l3.3-3.31a.51.51,0,0,1,.71,0,.5.5,0,0,1,0,.71l-3.3,3.3A.51.51,0,0,1,589.84,148.57Z" transform="translate(-41.35 -57.58)"/><line class="cls-8" x1="540.01" y1="87.19" x2="543.31" y2="90.49"/><path class="cls-9" d="M584.66,148.57a.49.49,0,0,1-.35-.15l-3.31-3.3a.5.5,0,1,1,.71-.71l3.3,3.31a.48.48,0,0,1,0,.7A.47.47,0,0,1,584.66,148.57Z" transform="translate(-41.35 -57.58)"/><line class="cls-8" x1="548.49" y1="95.67" x2="551.8" y2="98.98"/><path class="cls-9" d="M593.15,157.05a.54.54,0,0,1-.36-.14l-3.3-3.31a.48.48,0,0,1,0-.7.5.5,0,0,1,.71,0l3.3,3.3a.5.5,0,0,1,0,.71A.54.54,0,0,1,593.15,157.05Z" transform="translate(-41.35 -57.58)"/><path class="cls-3" d="M76.23,258.36A3.37,3.37,0,1,1,79.59,255,3.37,3.37,0,0,1,76.23,258.36Zm0-5.73A2.37,2.37,0,1,0,78.59,255,2.37,2.37,0,0,0,76.23,252.63Z" transform="translate(-41.35 -57.58)"/><path class="cls-10" d="M576.3,96.26a3.37,3.37,0,1,1,3.37-3.36A3.37,3.37,0,0,1,576.3,96.26Zm0-5.73a2.37,2.37,0,1,0,2.37,2.37A2.37,2.37,0,0,0,576.3,90.53Z" transform="translate(-41.35 -57.58)"/><path class="cls-11" d="M606.92,277.12a3.36,3.36,0,1,1,3.37-3.36A3.36,3.36,0,0,1,606.92,277.12Zm0-5.72a2.36,2.36,0,1,0,2.37,2.36A2.36,2.36,0,0,0,606.92,271.4Z" transform="translate(-41.35 -57.58)"/><path class="cls-4" d="M570.73,371.36a2.17,2.17,0,1,1,2.17-2.17A2.18,2.18,0,0,1,570.73,371.36Zm0-3.34a1.17,1.17,0,1,0,1.17,1.17A1.17,1.17,0,0,0,570.73,368Z" transform="translate(-41.35 -57.58)"/><path class="cls-5" d="M466.48,61.92a2.19,2.19,0,0,1-1.59-.7.48.48,0,0,1,0-.7.49.49,0,0,1,.7,0,1.17,1.17,0,0,0,2-.79,1.16,1.16,0,0,0-1.08-1.17.5.5,0,0,1-.46-.54.51.51,0,0,1,.53-.46,2.17,2.17,0,0,1-.16,4.34Z" transform="translate(-41.35 -57.58)"/><path class="cls-4" d="M59.21,187.21A2.17,2.17,0,1,1,61.38,185,2.17,2.17,0,0,1,59.21,187.21Zm0-3.34A1.17,1.17,0,1,0,60.38,185,1.17,1.17,0,0,0,59.21,183.87Z" transform="translate(-41.35 -57.58)"/><path class="cls-4" d="M317.41,65.42a2.17,2.17,0,1,1,2.17-2.17A2.17,2.17,0,0,1,317.41,65.42Zm0-3.34a1.17,1.17,0,0,0,0,2.34,1.17,1.17,0,1,0,0-2.34Z" transform="translate(-41.35 -57.58)"/><path class="cls-8" d="M277,407.86l11.55-42.45H232l-11.43,42.47.75,0Z" transform="translate(-41.35 -57.58)"/><path class="cls-9" d="M220.64,408.38a.57.57,0,0,1-.42-.19.5.5,0,0,1-.12-.44l11.43-42.47a.5.5,0,0,1,.48-.37h56.57a.51.51,0,0,1,.4.19.53.53,0,0,1,.08.44L277.51,408a.5.5,0,0,1-.48.37h-55.7l-.67,0Zm11.76-42.47-11.16,41.45h55.41l11.28-41.45Z" transform="translate(-41.35 -57.58)"/><path class="cls-9" d="M313.34,410.94l-.59-.33a23.24,23.24,0,0,0-11.18-2.75H221.33l-.75,0c-5.66.23-10.65,3.07-12.68,7.27l-3.2,6.65H320.37C320.37,417.41,317.62,413.5,313.34,410.94Z" transform="translate(-41.35 -57.58)"/><polygon class="cls-12" points="245.67 313.57 183.15 336.31 189.18 313.33 245.73 313.33 245.67 313.57"/><path class="cls-8" d="M393.06,370.91H141.4a8.83,8.83,0,0,1-8.62-9V198.65a8.83,8.83,0,0,1,8.62-9H393.06a8.83,8.83,0,0,1,8.63,9V361.89A8.83,8.83,0,0,1,393.06,370.91Z" transform="translate(-41.35 -57.58)"/><path class="cls-9" d="M393.06,371.41H141.4a9.34,9.34,0,0,1-9.13-9.52V198.65a9.34,9.34,0,0,1,9.13-9.52H393.06a9.34,9.34,0,0,1,9.13,9.52V361.89A9.34,9.34,0,0,1,393.06,371.41ZM141.4,190.13a8.34,8.34,0,0,0-8.13,8.52V361.89a8.34,8.34,0,0,0,8.13,8.52H393.06a8.34,8.34,0,0,0,8.13-8.52V198.65a8.34,8.34,0,0,0-8.13-8.52Z" transform="translate(-41.35 -57.58)"/><path class="cls-9" d="M132.78,361.89V198.65a8.83,8.83,0,0,1,8.49-9h-8.88a8.84,8.84,0,0,0-8.62,9V362.23a8.83,8.83,0,0,0,8.62,9H384.06a8.37,8.37,0,0,0,2.41-.36H141.4A8.83,8.83,0,0,1,132.78,361.89Z" transform="translate(-41.35 -57.58)"/><path class="cls-9" d="M384.06,371.77H132.39a9.34,9.34,0,0,1-9.12-9.53V198.68a9.35,9.35,0,0,1,9.12-9.54h8.88v1a8.37,8.37,0,0,0-8,8.51V361.89a8.34,8.34,0,0,0,8.13,8.52H389.82l-3.21,1A9,9,0,0,1,384.06,371.77ZM132.39,190.14a8.35,8.35,0,0,0-8.12,8.54V362.24a8.34,8.34,0,0,0,8.12,8.53h5.73a9.52,9.52,0,0,1-5.85-8.88V198.65a9.62,9.62,0,0,1,5.07-8.51Z" transform="translate(-41.35 -57.58)"/><path class="cls-13" d="M149.19,239V202.28a2.81,2.81,0,0,1,2.81-2.81H384a2.81,2.81,0,0,1,2.82,2.81V339.09H149.19V302.81" transform="translate(-41.35 -57.58)"/><path class="cls-9" d="M386.8,339.59H149.19a.5.5,0,0,1-.5-.5V302.81a.5.5,0,0,1,.5-.5.5.5,0,0,1,.5.5v35.78H386.3V202.28A2.32,2.32,0,0,0,384,200H152a2.32,2.32,0,0,0-2.31,2.31V239a.5.5,0,0,1-.5.5.51.51,0,0,1-.5-.5V202.28A3.32,3.32,0,0,1,152,199H384a3.32,3.32,0,0,1,3.32,3.31V339.09A.5.5,0,0,1,386.8,339.59Z" transform="translate(-41.35 -57.58)"/><polyline class="cls-8" points="107.84 198.28 107.84 225.56 107.84 198.94"/><path class="cls-9" d="M149.19,283.64a.5.5,0,0,1-.5-.5V255.86a.5.5,0,0,1,.5-.5.5.5,0,0,1,.5.5v27.28A.5.5,0,0,1,149.19,283.64Z" transform="translate(-41.35 -57.58)"/><path class="cls-9" d="M392.14,370H142.46a8.47,8.47,0,0,1-8.55-8.38V339.09H400.69v22.53A8.47,8.47,0,0,1,392.14,370Z" transform="translate(-41.35 -57.58)"/><path class="cls-8" d="M392.14,370.5H142.46a9,9,0,0,1-9.05-8.88V339.09a.51.51,0,0,1,.5-.5H400.69a.5.5,0,0,1,.5.5v22.53A9,9,0,0,1,392.14,370.5ZM134.41,339.59v22a8,8,0,0,0,8.05,7.88H392.14a8,8,0,0,0,8.05-7.88v-22Z" transform="translate(-41.35 -57.58)"/><path class="cls-8" d="M273.87,355.25a7.29,7.29,0,1,1-7.28-7.28A7.28,7.28,0,0,1,273.87,355.25Z" transform="translate(-41.35 -57.58)"/><path class="cls-9" d="M266.59,363a7.79,7.79,0,1,1,7.78-7.79A7.79,7.79,0,0,1,266.59,363Zm0-14.57a6.79,6.79,0,1,0,6.78,6.78A6.79,6.79,0,0,0,266.59,348.47Z" transform="translate(-41.35 -57.58)"/><path class="cls-13" d="M270.88,355.25a4.3,4.3,0,1,1-4.29-4.29A4.29,4.29,0,0,1,270.88,355.25Z" transform="translate(-41.35 -57.58)"/><path class="cls-9" d="M266.59,360.05a4.8,4.8,0,1,1,4.79-4.8A4.8,4.8,0,0,1,266.59,360.05Zm0-8.59a3.8,3.8,0,1,0,3.79,3.79A3.8,3.8,0,0,0,266.59,351.46Z" transform="translate(-41.35 -57.58)"/><path class="cls-13" d="M266.59,196.15h0a1.69,1.69,0,0,1-1.69-1.69h0a1.68,1.68,0,0,1,1.69-1.69h0a1.69,1.69,0,0,1,1.69,1.69h0A1.69,1.69,0,0,1,266.59,196.15Z" transform="translate(-41.35 -57.58)"/><path class="cls-9" d="M266.59,196.65a2.19,2.19,0,1,1,2.19-2.19A2.19,2.19,0,0,1,266.59,196.65Zm0-3.38a1.19,1.19,0,1,0,1.19,1.19A1.19,1.19,0,0,0,266.59,193.27Z" transform="translate(-41.35 -57.58)"/><line class="cls-8" x1="141.05" y1="189.47" x2="141.05" y2="201.3"/><path class="cls-4" d="M182.4,259.38a.5.5,0,0,1-.5-.5V247.05a.5.5,0,0,1,.5-.5.5.5,0,0,1,.5.5v11.83A.5.5,0,0,1,182.4,259.38Z" transform="translate(-41.35 -57.58)"/><line class="cls-8" x1="183.15" y1="230.01" x2="183.15" y2="244.97"/><path class="cls-4" d="M224.5,303.05a.5.5,0,0,1-.5-.5v-15a.5.5,0,1,1,1,0v15A.5.5,0,0,1,224.5,303.05Z" transform="translate(-41.35 -57.58)"/><line class="cls-8" x1="223.34" y1="189.47" x2="223.34" y2="201.3"/><path class="cls-4" d="M264.69,259.38a.5.5,0,0,1-.5-.5V247.05a.5.5,0,0,1,1,0v11.83A.5.5,0,0,1,264.69,259.38Z" transform="translate(-41.35 -57.58)"/><line class="cls-8" x1="182.63" y1="189.47" x2="182.63" y2="201.3"/><path class="cls-14" d="M224,259.38a.5.5,0,0,1-.5-.5V247.05a.5.5,0,0,1,.5-.5.5.5,0,0,1,.5.5v11.83A.5.5,0,0,1,224,259.38Z" transform="translate(-41.35 -57.58)"/><line class="cls-8" x1="223.23" y1="229.83" x2="223.23" y2="245.26"/><path class="cls-14" d="M264.58,303.34a.5.5,0,0,1-.5-.5V287.41a.5.5,0,0,1,.5-.5.51.51,0,0,1,.5.5v15.43A.5.5,0,0,1,264.58,303.34Z" transform="translate(-41.35 -57.58)"/><line class="cls-8" x1="165.58" y1="256.28" x2="153.75" y2="256.28"/><path class="cls-14" d="M206.93,314.36H195.1a.5.5,0,0,1-.5-.5.5.5,0,0,1,.5-.5h11.83a.5.5,0,0,1,.5.5A.51.51,0,0,1,206.93,314.36Z" transform="translate(-41.35 -57.58)"/><rect class="cls-14" x="127.36" y="161.01" width="111.71" height="28.3" rx="1.06"/><path class="cls-9" d="M279.37,247.39H169.77a1.56,1.56,0,0,1-1.56-1.56V219.65a1.56,1.56,0,0,1,1.56-1.56h109.6a1.56,1.56,0,0,1,1.56,1.56v26.18A1.56,1.56,0,0,1,279.37,247.39Zm-109.6-28.3a.56.56,0,0,0-.56.56v26.18a.56.56,0,0,0,.56.56h109.6a.57.57,0,0,0,.56-.56V219.65a.57.57,0,0,0-.56-.56Z" transform="translate(-41.35 -57.58)"/><rect class="cls-8" x="127.61" y="201.51" width="27.8" height="27.8" rx="1.06"/><path class="cls-9" d="M195.7,287.39H170a1.56,1.56,0,0,1-1.56-1.56V260.15a1.56,1.56,0,0,1,1.56-1.57H195.7a1.56,1.56,0,0,1,1.56,1.57v25.68A1.56,1.56,0,0,1,195.7,287.39ZM170,259.58a.57.57,0,0,0-.56.57v25.68a.56.56,0,0,0,.56.56H195.7a.56.56,0,0,0,.56-.56V260.15a.57.57,0,0,0-.56-.57Z" transform="translate(-41.35 -57.58)"/><rect class="cls-4" x="169.32" y="201.51" width="27.8" height="27.8" rx="1.06"/><path class="cls-9" d="M237.41,287.39H211.73a1.56,1.56,0,0,1-1.56-1.56V260.15a1.56,1.56,0,0,1,1.56-1.57h25.68a1.56,1.56,0,0,1,1.56,1.57v25.68A1.56,1.56,0,0,1,237.41,287.39Zm-25.68-27.81a.57.57,0,0,0-.56.57v25.68a.56.56,0,0,0,.56.56h25.68a.56.56,0,0,0,.56-.56V260.15a.57.57,0,0,0-.56-.57Z" transform="translate(-41.35 -57.58)"/><rect class="cls-8" x="210.16" y="201.51" width="27.8" height="27.8" rx="1.06"/><path class="cls-9" d="M278.25,287.39H252.57a1.56,1.56,0,0,1-1.56-1.56V260.15a1.56,1.56,0,0,1,1.56-1.57h25.68a1.56,1.56,0,0,1,1.56,1.57v25.68A1.56,1.56,0,0,1,278.25,287.39Zm-25.68-27.81a.57.57,0,0,0-.56.57v25.68a.56.56,0,0,0,.56.56h25.68a.56.56,0,0,0,.56-.56V260.15a.57.57,0,0,0-.56-.57Z" transform="translate(-41.35 -57.58)"/><rect class="cls-8" x="165.84" y="245.7" width="71.5" height="21.35" rx="10.67"/><path class="cls-9" d="M268,325.12H217.87a11.18,11.18,0,1,1,0-22.35H268a11.18,11.18,0,1,1,0,22.35Zm-50.14-21.35a10.18,10.18,0,1,0,0,20.35H268a10.18,10.18,0,1,0,0-20.35Z" transform="translate(-41.35 -57.58)"/><line class="cls-8" x1="262.14" y1="223.43" x2="285.28" y2="223.43"/><path class="cls-8" d="M326.63,281.5H303.49a.5.5,0,0,1-.5-.5.5.5,0,0,1,.5-.5h23.14a.5.5,0,0,1,.5.5A.5.5,0,0,1,326.63,281.5Z" transform="translate(-41.35 -57.58)"/><line class="cls-8" x1="294.8" y1="223.43" x2="322.91" y2="223.43"/><path class="cls-8" d="M364.26,281.5H336.15a.5.5,0,0,1-.5-.5.51.51,0,0,1,.5-.5h28.11a.51.51,0,0,1,.5.5A.5.5,0,0,1,364.26,281.5Z" transform="translate(-41.35 -57.58)"/><line class="cls-8" x1="262.14" y1="260.62" x2="304.37" y2="260.62"/><path class="cls-8" d="M345.72,318.7H303.49a.5.5,0,0,1,0-1h42.23a.5.5,0,0,1,0,1Z" transform="translate(-41.35 -57.58)"/><line class="cls-8" x1="262.14" y1="236.31" x2="328.6" y2="236.31"/><path class="cls-8" d="M370,294.39H303.49a.5.5,0,0,1-.5-.5.5.5,0,0,1,.5-.5H370a.5.5,0,0,1,.5.5A.5.5,0,0,1,370,294.39Z" transform="translate(-41.35 -57.58)"/><line class="cls-8" x1="262.14" y1="248.56" x2="283.2" y2="248.56"/><path class="cls-8" d="M324.55,306.64H303.49a.5.5,0,0,1-.5-.5.5.5,0,0,1,.5-.5h21.06a.5.5,0,0,1,.5.5A.5.5,0,0,1,324.55,306.64Z" transform="translate(-41.35 -57.58)"/><line class="cls-8" x1="289.68" y1="248.56" x2="328.02" y2="248.56"/><path class="cls-8" d="M369.37,306.64H331a.5.5,0,0,1-.5-.5.5.5,0,0,1,.5-.5h38.34a.5.5,0,0,1,.5.5A.5.5,0,0,1,369.37,306.64Z" transform="translate(-41.35 -57.58)"/><path class="cls-4" d="M302.54,217.93h70.14a0,0,0,0,1,0,0v6.87a1.55,1.55,0,0,1-1.55,1.55H304.54a2,2,0,0,1-2-2v-6.42A0,0,0,0,1,302.54,217.93Z" transform="translate(633.86 386.71) rotate(180)"/><path class="cls-8" d="M311.75,223.84a1.8,1.8,0,1,1,1.8-1.79A1.79,1.79,0,0,1,311.75,223.84Zm0-2.59a.79.79,0,0,0-.79.8.79.79,0,0,0,.79.79.79.79,0,0,0,.8-.79A.8.8,0,0,0,311.75,221.25Z" transform="translate(-41.35 -57.58)"/><path class="cls-8" d="M316.8,223.84a1.8,1.8,0,1,1,1.8-1.79A1.79,1.79,0,0,1,316.8,223.84Zm0-2.59a.8.8,0,0,0-.79.8.8.8,0,0,0,1.59,0A.8.8,0,0,0,316.8,221.25Z" transform="translate(-41.35 -57.58)"/><path class="cls-8" d="M306.73,223.84a1.8,1.8,0,1,1,1.8-1.79A1.79,1.79,0,0,1,306.73,223.84Zm0-2.59a.8.8,0,0,0-.79.8.8.8,0,0,0,1.59,0A.8.8,0,0,0,306.73,221.25Z" transform="translate(-41.35 -57.58)"/><rect class="cls-8" x="302.51" y="226.36" width="70.15" height="41.22" rx="0.23" transform="translate(633.81 436.36) rotate(180)"/><line class="cls-8" x1="290.63" y1="178.77" x2="322.16" y2="178.77"/><path class="cls-4" d="M363.51,236.85H332a.5.5,0,0,1-.5-.5.5.5,0,0,1,.5-.5h31.53a.5.5,0,0,1,.5.5A.5.5,0,0,1,363.51,236.85Z" transform="translate(-41.35 -57.58)"/><line class="cls-8" x1="290.63" y1="183.56" x2="301.71" y2="183.56"/><path class="cls-14" d="M343.05,241.64H332a.5.5,0,0,1-.5-.5.5.5,0,0,1,.5-.5h11.07a.5.5,0,0,1,.5.5A.5.5,0,0,1,343.05,241.64Z" transform="translate(-41.35 -57.58)"/><line class="cls-8" x1="306.26" y1="183.56" x2="319.71" y2="183.56"/><path class="cls-4" d="M361.06,241.64H347.61a.5.5,0,0,1-.5-.5.5.5,0,0,1,.5-.5h13.45a.5.5,0,0,1,.5.5A.5.5,0,0,1,361.06,241.64Z" transform="translate(-41.35 -57.58)"/><line class="cls-8" x1="290.63" y1="198.08" x2="310.84" y2="198.08"/><path class="cls-14" d="M352.19,256.15H332a.5.5,0,0,1-.5-.5.5.5,0,0,1,.5-.5h20.21a.5.5,0,0,1,.5.5A.5.5,0,0,1,352.19,256.15Z" transform="translate(-41.35 -57.58)"/><line class="cls-8" x1="290.63" y1="188.59" x2="322.44" y2="188.59"/><path class="cls-14" d="M363.79,246.66H332a.5.5,0,0,1-.5-.5.5.5,0,0,1,.5-.5h31.81a.5.5,0,0,1,.5.5A.5.5,0,0,1,363.79,246.66Z" transform="translate(-41.35 -57.58)"/><line class="cls-8" x1="290.63" y1="193.37" x2="300.71" y2="193.37"/><path class="cls-4" d="M342.06,251.45H332a.5.5,0,0,1-.5-.5.5.5,0,0,1,.5-.5h10.08a.5.5,0,0,1,.5.5A.51.51,0,0,1,342.06,251.45Z" transform="translate(-41.35 -57.58)"/><line class="cls-8" x1="303.81" y1="193.37" x2="322.16" y2="193.37"/><path class="cls-14" d="M363.51,251.45H345.16a.5.5,0,0,1-.5-.5.5.5,0,0,1,.5-.5h18.35a.5.5,0,0,1,.5.5A.5.5,0,0,1,363.51,251.45Z" transform="translate(-41.35 -57.58)"/><path class="cls-14" d="M310.35,245.29a7.92,7.92,0,0,1,6.53-7.79l-.31-1.81a9.73,9.73,0,0,0-8,11.23l1.87-.32A8.08,8.08,0,0,1,310.35,245.29Z" transform="translate(-41.35 -57.58)"/><path class="cls-8" d="M327.93,245.63a9.46,9.46,0,0,0-.13-2h0A9.46,9.46,0,0,1,327.93,245.63Z" transform="translate(-41.35 -57.58)"/><path class="cls-13" d="M318.27,253.21a7.9,7.9,0,0,1-7.8-6.61l-1.87.32a9.73,9.73,0,0,0,11.23,8l-.31-1.79A8.54,8.54,0,0,1,318.27,253.21Z" transform="translate(-41.35 -57.58)"/><path class="cls-4" d="M327.8,243.66h0a9.73,9.73,0,0,0-11.23-8l.31,1.81a7.91,7.91,0,1,1,2.64,15.6l.31,1.79a9.74,9.74,0,0,0,7.85-7.36,9.24,9.24,0,0,0,.25-1.9A9.46,9.46,0,0,0,327.8,243.66Z" transform="translate(-41.35 -57.58)"/><g class="cls-15"><path class="cls-16" d="M577.63,194.41l-4.38-13.88a2.16,2.16,0,0,0-2.71-1.41l-9,2.83a2.14,2.14,0,0,1-2.45-.86,41.56,41.56,0,0,0-6.81-8.1,2.14,2.14,0,0,1-.43-2.56l4.33-8.34a2.16,2.16,0,0,0-.92-2.91l-12.91-6.72a2.16,2.16,0,0,0-2.91.92l-4.34,8.35a2.13,2.13,0,0,1-2.34,1.11,41.68,41.68,0,0,0-10.55-.91,2.14,2.14,0,0,1-2.11-1.51l-2.83-9a2.16,2.16,0,0,0-2.71-1.41l-13.88,4.39a2.16,2.16,0,0,0-1.41,2.71l2.84,9a2.17,2.17,0,0,1-.86,2.45,41,41,0,0,0-8.11,6.81,2.14,2.14,0,0,1-2.56.43l-8.34-4.34a2.16,2.16,0,0,0-2.91.92l-6.72,12.92a2.16,2.16,0,0,0,.92,2.91l8.35,4.34a2.13,2.13,0,0,1,1.12,2.33,41.3,41.3,0,0,0-.92,10.56,2.12,2.12,0,0,1-1.51,2.1l-9,2.84a2.16,2.16,0,0,0-1.41,2.71L474.63,227a2.16,2.16,0,0,0,2.71,1.4l9-2.83a2.14,2.14,0,0,1,2.45.86,41.63,41.63,0,0,0,6.81,8.11,2.14,2.14,0,0,1,.43,2.56l-4.34,8.34a2.16,2.16,0,0,0,.92,2.91L505.49,255a2.16,2.16,0,0,0,2.91-.92l4.34-8.34a2.14,2.14,0,0,1,2.33-1.12,41.76,41.76,0,0,0,10.56.92,2.14,2.14,0,0,1,2.11,1.5l2.83,9a2.16,2.16,0,0,0,2.71,1.4l13.88-4.38a2.16,2.16,0,0,0,1.4-2.71l-2.83-9a2.14,2.14,0,0,1,.86-2.45,41.63,41.63,0,0,0,8.11-6.81,2.14,2.14,0,0,1,2.56-.43L565.6,236a2.16,2.16,0,0,0,2.91-.92l6.71-12.91a2.16,2.16,0,0,0-.92-2.91L566,215a2.15,2.15,0,0,1-1.12-2.34,41.68,41.68,0,0,0,.92-10.55,2.14,2.14,0,0,1,1.5-2.11l9-2.83A2.16,2.16,0,0,0,577.63,194.41Zm-46.7,31.69a24.86,24.86,0,1,1,17.78-26.84A24.88,24.88,0,0,1,530.93,226.1Z" transform="translate(-41.35 -57.58)"/></g><path class="cls-13" d="M577.63,191.43l-4.38-13.88a2.16,2.16,0,0,0-2.71-1.41l-9,2.84a2.15,2.15,0,0,1-2.45-.86,41.33,41.33,0,0,0-6.81-8.11,2.14,2.14,0,0,1-.43-2.56l4.33-8.34a2.16,2.16,0,0,0-.92-2.91l-12.91-6.71a2.16,2.16,0,0,0-2.91.92l-4.34,8.34a2.15,2.15,0,0,1-2.34,1.12,41.23,41.23,0,0,0-10.55-.92,2.14,2.14,0,0,1-2.11-1.5l-2.83-9a2.17,2.17,0,0,0-2.71-1.41l-13.88,4.39a2.16,2.16,0,0,0-1.41,2.71l2.84,9a2.17,2.17,0,0,1-.86,2.45,41.33,41.33,0,0,0-8.11,6.81,2.14,2.14,0,0,1-2.56.43l-8.34-4.34a2.17,2.17,0,0,0-2.91.93l-6.72,12.91a2.16,2.16,0,0,0,.92,2.91l8.35,4.34a2.15,2.15,0,0,1,1.12,2.34,41.23,41.23,0,0,0-.92,10.55,2.14,2.14,0,0,1-1.51,2.11l-9,2.83a2.16,2.16,0,0,0-1.41,2.71L474.63,224a2.16,2.16,0,0,0,2.71,1.41l9-2.84a2.15,2.15,0,0,1,2.45.86,41.33,41.33,0,0,0,6.81,8.11,2.14,2.14,0,0,1,.43,2.56l-4.34,8.34a2.16,2.16,0,0,0,.92,2.91l12.92,6.71a2.16,2.16,0,0,0,2.91-.92l4.34-8.34a2.14,2.14,0,0,1,2.33-1.12,41.3,41.3,0,0,0,10.56.92,2.14,2.14,0,0,1,2.11,1.5l2.83,9a2.16,2.16,0,0,0,2.71,1.41l13.88-4.39a2.16,2.16,0,0,0,1.4-2.71l-2.83-9a2.14,2.14,0,0,1,.86-2.45,41.63,41.63,0,0,0,8.11-6.81,2.14,2.14,0,0,1,2.56-.43l8.34,4.34a2.16,2.16,0,0,0,2.91-.92l6.71-12.92a2.16,2.16,0,0,0-.92-2.91L566,212a2.15,2.15,0,0,1-1.12-2.34,41.64,41.64,0,0,0,.92-10.55,2.14,2.14,0,0,1,1.5-2.11l9-2.83A2.16,2.16,0,0,0,577.63,191.43Zm-46.7,31.69a24.86,24.86,0,1,1,17.78-26.84A24.88,24.88,0,0,1,530.93,223.12Z" transform="translate(-41.35 -57.58)"/><path class="cls-14" d="M577.87,186.23l-4.39-13.88a2.16,2.16,0,0,0-2.71-1.41l-9,2.84a2.15,2.15,0,0,1-2.45-.86,41.33,41.33,0,0,0-6.81-8.11,2.14,2.14,0,0,1-.43-2.56l4.34-8.34a2.16,2.16,0,0,0-.92-2.91l-12.92-6.71a2.16,2.16,0,0,0-2.91.92l-4.34,8.34a2.15,2.15,0,0,1-2.34,1.12,41.19,41.19,0,0,0-10.55-.92,2.14,2.14,0,0,1-2.11-1.5l-2.83-9a2.16,2.16,0,0,0-2.71-1.41L501,146.26a2.17,2.17,0,0,0-1.41,2.71l2.84,9a2.14,2.14,0,0,1-.86,2.45,41.33,41.33,0,0,0-8.11,6.81,2.14,2.14,0,0,1-2.56.43l-8.34-4.34a2.16,2.16,0,0,0-2.91.92l-6.71,12.92a2.16,2.16,0,0,0,.92,2.91l8.34,4.34a2.15,2.15,0,0,1,1.12,2.34,41.23,41.23,0,0,0-.92,10.55,2.14,2.14,0,0,1-1.5,2.11l-9,2.83a2.16,2.16,0,0,0-1.4,2.71l4.38,13.88a2.16,2.16,0,0,0,2.71,1.41l9-2.84a2.15,2.15,0,0,1,2.45.86,41.33,41.33,0,0,0,6.81,8.11,2.14,2.14,0,0,1,.43,2.56l-4.33,8.34a2.16,2.16,0,0,0,.92,2.91l12.91,6.71a2.16,2.16,0,0,0,2.91-.92l4.34-8.34a2.15,2.15,0,0,1,2.34-1.12,41.23,41.23,0,0,0,10.55.92,2.14,2.14,0,0,1,2.11,1.5l2.83,9a2.16,2.16,0,0,0,2.71,1.41l13.88-4.39a2.16,2.16,0,0,0,1.41-2.71l-2.84-9a2.15,2.15,0,0,1,.86-2.45,41.33,41.33,0,0,0,8.11-6.81,2.14,2.14,0,0,1,2.56-.43l8.34,4.34a2.16,2.16,0,0,0,2.91-.92L575.45,214a2.16,2.16,0,0,0-.92-2.91l-8.34-4.34a2.15,2.15,0,0,1-1.12-2.34,41.23,41.23,0,0,0,.92-10.55,2.14,2.14,0,0,1,1.51-2.11l9-2.83A2.16,2.16,0,0,0,577.87,186.23Zm-46.71,33.08a24.86,24.86,0,1,1,17.78-26.83A24.86,24.86,0,0,1,531.16,219.31Z" transform="translate(-41.35 -57.58)"/><path class="cls-9" d="M532.86,249.87a2.67,2.67,0,0,1-2.54-1.86l-2.83-9a1.6,1.6,0,0,0-1.61-1.16A42.11,42.11,0,0,1,515.2,237a1.64,1.64,0,0,0-1.79.86l-4.33,8.34a2.67,2.67,0,0,1-3.59,1.14l-12.91-6.71a2.67,2.67,0,0,1-1.14-3.59l4.34-8.34a1.64,1.64,0,0,0-.33-2,42,42,0,0,1-6.89-8.21,1.65,1.65,0,0,0-1.88-.65l-9,2.83a2.66,2.66,0,0,1-3.34-1.73L470,205.06a2.66,2.66,0,0,1,1.73-3.34l9-2.83a1.64,1.64,0,0,0,1.15-1.61,42.57,42.57,0,0,1,.93-10.68,1.64,1.64,0,0,0-.86-1.79l-8.34-4.33a2.67,2.67,0,0,1-1.14-3.59L479.16,164a2.64,2.64,0,0,1,3.58-1.13l8.34,4.34a1.64,1.64,0,0,0,2-.33,42,42,0,0,1,8.21-6.89,1.64,1.64,0,0,0,.65-1.88l-2.83-9a2.65,2.65,0,0,1,1.73-3.34l13.88-4.38a2.66,2.66,0,0,1,3.34,1.73l2.83,9a1.63,1.63,0,0,0,1.61,1.16,42.07,42.07,0,0,1,10.68.93,1.64,1.64,0,0,0,1.79-.86l4.33-8.34a2.68,2.68,0,0,1,3.59-1.14l12.92,6.71a2.66,2.66,0,0,1,1.13,3.59l-4.34,8.34a1.64,1.64,0,0,0,.33,2,42.35,42.35,0,0,1,6.89,8.21,1.65,1.65,0,0,0,1.88.65l9-2.83A2.65,2.65,0,0,1,574,172.2l4.38,13.88a2.65,2.65,0,0,1-1.73,3.34l-9,2.83a1.65,1.65,0,0,0-1.16,1.61,42.11,42.11,0,0,1-.93,10.68,1.64,1.64,0,0,0,.86,1.79l8.35,4.33a2.67,2.67,0,0,1,1.13,3.59l-6.71,12.92a2.66,2.66,0,0,1-3.59,1.13L557.26,224a1.64,1.64,0,0,0-2,.33,42.35,42.35,0,0,1-8.21,6.89,1.65,1.65,0,0,0-.65,1.88l2.83,9a2.66,2.66,0,0,1-1.73,3.34l-13.88,4.38A2.48,2.48,0,0,1,532.86,249.87Zm-6.92-13a2.63,2.63,0,0,1,2.5,1.85l2.84,9a1.66,1.66,0,0,0,2.08,1.08l13.88-4.39a1.65,1.65,0,0,0,1.08-2.08l-2.83-9a2.66,2.66,0,0,1,1.06-3,41,41,0,0,0,8-6.73,2.64,2.64,0,0,1,3.16-.53l8.34,4.33a1.61,1.61,0,0,0,1.27.11,1.64,1.64,0,0,0,1-.82L575,213.79a1.66,1.66,0,0,0-.71-2.24L566,207.22a2.65,2.65,0,0,1-1.38-2.89,41.06,41.06,0,0,0,.91-10.43,2.63,2.63,0,0,1,1.85-2.6l9-2.84a1.65,1.65,0,0,0,1.08-2.08h0L573,172.5a1.63,1.63,0,0,0-.81-1,1.7,1.7,0,0,0-1.27-.11l-9,2.83a2.64,2.64,0,0,1-3-1.06,41,41,0,0,0-6.73-8,2.66,2.66,0,0,1-.53-3.16l4.33-8.34a1.66,1.66,0,0,0-.7-2.24l-12.92-6.71a1.66,1.66,0,0,0-2.24.71l-4.33,8.34a2.65,2.65,0,0,1-2.89,1.38,41.06,41.06,0,0,0-10.43-.91,2.65,2.65,0,0,1-2.6-1.85l-2.84-9a1.66,1.66,0,0,0-2.08-1.08l-13.88,4.39a1.66,1.66,0,0,0-1,.81,1.7,1.7,0,0,0-.11,1.27l2.83,9a2.64,2.64,0,0,1-1.06,3,41,41,0,0,0-8,6.73,2.63,2.63,0,0,1-3.16.53l-8.34-4.33a1.66,1.66,0,0,0-2.24.71l-6.71,12.91a1.69,1.69,0,0,0-.11,1.27,1.64,1.64,0,0,0,.82,1l8.34,4.33a2.65,2.65,0,0,1,1.38,2.89,41.06,41.06,0,0,0-.91,10.43,2.63,2.63,0,0,1-1.85,2.6l-9,2.84a1.66,1.66,0,0,0-1.08,2.08l4.39,13.88a1.66,1.66,0,0,0,2.08,1.08l9-2.83a2.63,2.63,0,0,1,3,1.06,40.64,40.64,0,0,0,6.73,8,2.64,2.64,0,0,1,.53,3.16l-4.33,8.34a1.66,1.66,0,0,0,.71,2.24L506,246.41a1.6,1.6,0,0,0,1.27.11,1.64,1.64,0,0,0,1-.82l4.33-8.34a2.67,2.67,0,0,1,2.89-1.38,41.06,41.06,0,0,0,10.43.91Zm-1.69-16.1a25.37,25.37,0,1,1,7-1l-.14-.48.14.48A25.39,25.39,0,0,1,524.25,220.79Zm0-49.72a24.36,24.36,0,1,0,13.45,4.05A24.49,24.49,0,0,0,524.26,171.07Z" transform="translate(-41.35 -57.58)"/><path class="cls-3" d="M528.65,144.24h-.21l-5.61-.9a1.35,1.35,0,0,1-1.11-1.54l.58-3.61a.32.32,0,0,0-.18-.36,17.11,17.11,0,0,1-3.63-2.23.33.33,0,0,0-.4,0l-3,2.14a1.33,1.33,0,0,1-1,.24,1.27,1.27,0,0,1-.87-.54l-3.33-4.59a1.37,1.37,0,0,1-.24-1,1.35,1.35,0,0,1,.54-.87l3-2.15a.35.35,0,0,0,.12-.39,16.77,16.77,0,0,1-1-4.14A.34.34,0,0,0,512,124l-3.62-.58a1.35,1.35,0,0,1-.87-.54,1.33,1.33,0,0,1-.24-1l.9-5.6a1.33,1.33,0,0,1,1.53-1.11l3.62.57a.33.33,0,0,0,.36-.18A16.79,16.79,0,0,1,516,112a.34.34,0,0,0,0-.41l-2.15-3a1.34,1.34,0,0,1,.3-1.87l4.6-3.33a1.35,1.35,0,0,1,1.87.3l2.15,3a.32.32,0,0,0,.39.12,16.77,16.77,0,0,1,4.14-1,.33.33,0,0,0,.28-.29l.58-3.61a1.35,1.35,0,0,1,.54-.88,1.36,1.36,0,0,1,1-.24l5.6.9a1.34,1.34,0,0,1,1.11,1.54l-.58,3.62a.32.32,0,0,0,.19.35,17.29,17.29,0,0,1,3.62,2.23.32.32,0,0,0,.4,0l3-2.15a1.33,1.33,0,0,1,1-.24,1.35,1.35,0,0,1,.88.54l3.32,4.59a1.36,1.36,0,0,1-.29,1.88l-3,2.14a.34.34,0,0,0-.13.39,16.35,16.35,0,0,1,1,4.14.33.33,0,0,0,.28.28l3.62.58a1.34,1.34,0,0,1,1.11,1.54l-.89,5.6a1.35,1.35,0,0,1-.54.88,1.32,1.32,0,0,1-1,.24l-3.62-.58a.34.34,0,0,0-.36.18,16.33,16.33,0,0,1-2.23,3.63.33.33,0,0,0,0,.4l2.15,3a1.34,1.34,0,0,1-.3,1.87l-4.59,3.33a1.35,1.35,0,0,1-1.88-.3l-2.15-3a.33.33,0,0,0-.38-.12,16.87,16.87,0,0,1-4.14,1,.35.35,0,0,0-.29.29l-.58,3.61a1.3,1.3,0,0,1-.53.88A1.33,1.33,0,0,1,528.65,144.24Zm-10.36-9.72a1.33,1.33,0,0,1,.83.29,16.13,16.13,0,0,0,3.41,2.1,1.34,1.34,0,0,1,.76,1.42l-.58,3.62a.4.4,0,0,0,.06.26.32.32,0,0,0,.22.13l5.61.9a.36.36,0,0,0,.25-.06A.37.37,0,0,0,529,143l.58-3.62a1.32,1.32,0,0,1,1.16-1.12,15.33,15.33,0,0,0,3.89-.93,1.33,1.33,0,0,1,1.55.47l2.15,3a.35.35,0,0,0,.48.08l4.59-3.33a.34.34,0,0,0,.08-.48l-2.15-3a1.34,1.34,0,0,1,0-1.62,15.69,15.69,0,0,0,2.09-3.41,1.34,1.34,0,0,1,1.43-.76l3.62.58a.36.36,0,0,0,.25-.06.32.32,0,0,0,.14-.22h0l.9-5.6a.35.35,0,0,0-.29-.39l-3.61-.58a1.32,1.32,0,0,1-1.12-1.17,16.23,16.23,0,0,0-.93-3.89,1.34,1.34,0,0,1,.47-1.55l3-2.14a.43.43,0,0,0,.14-.23.32.32,0,0,0-.07-.25l-3.32-4.6a.36.36,0,0,0-.23-.13.29.29,0,0,0-.25.06l-3,2.15a1.34,1.34,0,0,1-1.62,0,15.86,15.86,0,0,0-3.4-2.09,1.33,1.33,0,0,1-.76-1.43l.58-3.62a.34.34,0,0,0-.29-.39l-5.6-.9a.35.35,0,0,0-.39.28l-.58,3.62a1.34,1.34,0,0,1-1.17,1.12,15.77,15.77,0,0,0-3.89.93,1.34,1.34,0,0,1-1.55-.47l-2.15-3a.34.34,0,0,0-.47-.08l-4.6,3.33a.35.35,0,0,0-.08.48l2.15,3a1.32,1.32,0,0,1,0,1.61,16,16,0,0,0-2.1,3.41,1.32,1.32,0,0,1-1.43.76l-3.61-.58a.39.39,0,0,0-.26.06.36.36,0,0,0-.13.23l-.9,5.6a.32.32,0,0,0,.06.25.3.3,0,0,0,.22.14l3.62.58a1.33,1.33,0,0,1,1.12,1.17,15.33,15.33,0,0,0,.93,3.89,1.34,1.34,0,0,1-.48,1.55l-3,2.15a.3.3,0,0,0-.14.22.36.36,0,0,0,.06.25l3.33,4.6a.37.37,0,0,0,.22.14.36.36,0,0,0,.26-.07l3-2.14A1.31,1.31,0,0,1,518.29,134.52Zm10.79-1.87a9.55,9.55,0,0,1-1.84-.17h0a10.2,10.2,0,1,1,1.84.17Zm-1.66-1.15a9.19,9.19,0,1,0-6.3-4.47,9.24,9.24,0,0,0,6.3,4.47Z" transform="translate(-41.35 -57.58)"/><path class="cls-9" d="M510.55,197l-.06,0a1.17,1.17,0,0,1,0-2.06l7-3.67a1.17,1.17,0,0,1,1.73,1.05,1.14,1.14,0,0,1-.59,1L513.54,196l5.08,2.75a1.13,1.13,0,0,1,.62,1,1.18,1.18,0,0,1-1.16,1.18,1.12,1.12,0,0,1-.55-.14Z" transform="translate(-41.35 -57.58)"/><path class="cls-9" d="M520.38,203.31a1.68,1.68,0,0,1,.07-.43l5-15.52a1.47,1.47,0,0,1,1.4-1,1.51,1.51,0,0,1,1.44,1.61,1.83,1.83,0,0,1-.07.46l-5,15.36a1.49,1.49,0,0,1-1.4,1,1.47,1.47,0,0,1-.42-.06A1.54,1.54,0,0,1,520.38,203.31Z" transform="translate(-41.35 -57.58)"/><path class="cls-9" d="M529.68,193.31a1.14,1.14,0,0,1-.59-1,1.18,1.18,0,0,1,1.17-1.19,1.16,1.16,0,0,1,.56.14l7,3.67a1.2,1.2,0,0,1,.62,1,1.16,1.16,0,0,1-.62,1l-.07,0-7,3.79a1.1,1.1,0,0,1-.55.14,1.18,1.18,0,0,1-1.16-1.18,1.13,1.13,0,0,1,.62-1l5.07-2.75Z" transform="translate(-41.35 -57.58)"/><path class="cls-8" d="M491.08,189.13H491a.51.51,0,0,1-.39-.59,34.35,34.35,0,0,1,33.66-27.47h0a.5.5,0,0,1,.5.5.5.5,0,0,1-.5.5,33.35,33.35,0,0,0-32.68,26.67A.49.49,0,0,1,491.08,189.13Z" transform="translate(-41.35 -57.58)"/><path class="cls-8" d="M524.25,229.79a34.37,34.37,0,0,1-34.12-30.28.5.5,0,0,1,.44-.56.49.49,0,0,1,.55.44,33.37,33.37,0,1,0,43.06-35.82.49.49,0,0,1-.32-.63.5.5,0,0,1,.62-.33,34.37,34.37,0,0,1-10.23,67.18Z" transform="translate(-41.35 -57.58)"/><path class="cls-8" d="M524.25,223.94a28.51,28.51,0,1,1,7.92-1.12A28.55,28.55,0,0,1,524.25,223.94Zm0-56.27a28.32,28.32,0,0,0-7.72,1.08A27.77,27.77,0,0,0,532,222.1h0a27.76,27.76,0,0,0-7.71-54.43Z" transform="translate(-41.35 -57.58)"/><rect class="cls-9" x="460.11" y="75.73" width="4.5" height="19.49" rx="2.02"/><path class="cls-9" d="M503.93,153.3h-.45a2.52,2.52,0,0,1-2.52-2.52V135.33a2.52,2.52,0,0,1,2.52-2.52h.45a2.52,2.52,0,0,1,2.53,2.52v15.45A2.52,2.52,0,0,1,503.93,153.3Zm-.45-19.49a1.53,1.53,0,0,0-1.52,1.52v15.45a1.52,1.52,0,0,0,1.52,1.52h.45a1.53,1.53,0,0,0,1.53-1.52V135.33a1.53,1.53,0,0,0-1.53-1.52Z" transform="translate(-41.35 -57.58)"/><path class="cls-9" d="M413.24,250.45V113.32a13.83,13.83,0,0,1,13.83-13.83h-4.71a13.91,13.91,0,0,0-13.9,13.91v137a13.9,13.9,0,0,0,13.9,13.9h4.71A13.83,13.83,0,0,1,413.24,250.45Z" transform="translate(-41.35 -57.58)"/><path class="cls-9" d="M427.07,264.78h-4.71a14.42,14.42,0,0,1-14.4-14.4v-137A14.42,14.42,0,0,1,422.36,99h4.71v1a13.35,13.35,0,0,0-13.33,13.33V250.45a13.35,13.35,0,0,0,13.33,13.33ZM421.78,100A13.41,13.41,0,0,0,409,113.4v137a13.43,13.43,0,0,0,12.82,13.39,14.35,14.35,0,0,1-9-13.32V113.32A14.34,14.34,0,0,1,421.78,100Z" transform="translate(-41.35 -57.58)"/><path class="cls-13" d="M411,140.7h0a1.17,1.17,0,0,1-1.18-1.17V122.39a1.17,1.17,0,0,1,1.18-1.17h0a1.17,1.17,0,0,1,1.17,1.17v17.14A1.17,1.17,0,0,1,411,140.7Z" transform="translate(-41.35 -57.58)"/><path class="cls-9" d="M411,141.2a1.68,1.68,0,0,1-1.68-1.67V122.39a1.68,1.68,0,0,1,3.35,0v17.14A1.67,1.67,0,0,1,411,141.2Zm0-19.48a.67.67,0,0,0-.68.67v17.14a.68.68,0,0,0,1.35,0V122.39A.67.67,0,0,0,411,121.72Z" transform="translate(-41.35 -57.58)"/><path class="cls-13" d="M411,166.51h0a1.18,1.18,0,0,1-1.18-1.18V148.2A1.18,1.18,0,0,1,411,147h0a1.17,1.17,0,0,1,1.17,1.18v17.13A1.17,1.17,0,0,1,411,166.51Z" transform="translate(-41.35 -57.58)"/><path class="cls-9" d="M411,167a1.68,1.68,0,0,1-1.68-1.68V148.2a1.68,1.68,0,1,1,3.35,0v17.13A1.68,1.68,0,0,1,411,167Zm0-19.49a.67.67,0,0,0-.68.68v17.13a.68.68,0,1,0,1.35,0V148.2A.67.67,0,0,0,411,147.52Z" transform="translate(-41.35 -57.58)"/><path class="cls-13" d="M489.58,99.49H427.07a13.83,13.83,0,0,0-13.83,13.83V250.45a13.83,13.83,0,0,0,13.83,13.83h62.51a13.83,13.83,0,0,0,13.83-13.83V113.32A13.83,13.83,0,0,0,489.58,99.49Z" transform="translate(-41.35 -57.58)"/><path class="cls-9" d="M489.58,264.78H427.07a14.35,14.35,0,0,1-14.33-14.33V113.32A14.35,14.35,0,0,1,427.07,99h62.51a14.35,14.35,0,0,1,14.33,14.33V250.45A14.35,14.35,0,0,1,489.58,264.78ZM427.07,100a13.35,13.35,0,0,0-13.33,13.33V250.45a13.35,13.35,0,0,0,13.33,13.33h62.51a13.35,13.35,0,0,0,13.33-13.33V113.32A13.35,13.35,0,0,0,489.58,100Z" transform="translate(-41.35 -57.58)"/><path class="cls-8" d="M458.33,111.12a2.35,2.35,0,1,1,2.35-2.35A2.36,2.36,0,0,1,458.33,111.12Zm0-4a1.6,1.6,0,1,0,1.6,1.6A1.6,1.6,0,0,0,458.33,107.17Z" transform="translate(-41.35 -57.58)"/><path class="cls-8" d="M451.86,110h-9.22a1.24,1.24,0,0,1,0-2.47h9.22a1.24,1.24,0,1,1,0,2.47Zm-9.22-1.72a.49.49,0,0,0,0,1h9.22a.49.49,0,1,0,0-1Z" transform="translate(-41.35 -57.58)"/><path class="cls-8" d="M474.22,110H465a1.24,1.24,0,0,1,0-2.47h9.22a1.24,1.24,0,1,1,0,2.47ZM465,108.31a.49.49,0,0,0,0,1h9.22a.49.49,0,1,0,0-1Z" transform="translate(-41.35 -57.58)"/><rect class="cls-8" x="378.93" y="57.48" width="76.1" height="135.28"/><path class="cls-9" d="M496.37,250.84H420.28a.5.5,0,0,1-.5-.5V115.06a.5.5,0,0,1,.5-.5h76.09a.5.5,0,0,1,.5.5V250.34A.5.5,0,0,1,496.37,250.84Zm-75.59-1h75.09V115.56H420.78Z" transform="translate(-41.35 -57.58)"/><rect class="cls-4" x="379.45" y="57.98" width="75.06" height="10.4"/><path class="cls-8" d="M477.49,122.38a1.68,1.68,0,1,1,1.68-1.68A1.68,1.68,0,0,1,477.49,122.38Zm0-2.61a.93.93,0,1,0,.93.93A.93.93,0,0,0,477.49,119.77Z" transform="translate(-41.35 -57.58)"/><path class="cls-8" d="M484.27,122.38A1.68,1.68,0,1,1,486,120.7,1.68,1.68,0,0,1,484.27,122.38Zm0-2.61a.93.93,0,1,0,.93.93A.93.93,0,0,0,484.27,119.77Z" transform="translate(-41.35 -57.58)"/><path class="cls-8" d="M491.17,122.38a1.68,1.68,0,1,1,1.68-1.68A1.68,1.68,0,0,1,491.17,122.38Zm0-2.61a.93.93,0,0,0,0,1.86.93.93,0,1,0,0-1.86Z" transform="translate(-41.35 -57.58)"/><line class="cls-8" x1="391.52" y1="83.87" x2="414.64" y2="83.87"/><path class="cls-14" d="M456,142H432.87a.5.5,0,0,1-.5-.5.5.5,0,0,1,.5-.5H456a.5.5,0,0,1,.5.5A.51.51,0,0,1,456,142Z" transform="translate(-41.35 -57.58)"/><path class="cls-4" d="M470,142h-8.26a.51.51,0,0,1-.5-.5.5.5,0,0,1,.5-.5H470a.5.5,0,0,1,.5.5A.5.5,0,0,1,470,142Z" transform="translate(-41.35 -57.58)"/><path class="cls-4" d="M484.2,142h-7.57a.5.5,0,0,1-.5-.5.5.5,0,0,1,.5-.5h7.57a.5.5,0,0,1,.5.5A.51.51,0,0,1,484.2,142Z" transform="translate(-41.35 -57.58)"/><line class="cls-8" x1="442.85" y1="101.77" x2="419.73" y2="101.77"/><path class="cls-14" d="M484.2,159.85H461.08a.5.5,0,0,1-.5-.5.5.5,0,0,1,.5-.5H484.2a.5.5,0,0,1,.5.5A.51.51,0,0,1,484.2,159.85Z" transform="translate(-41.35 -57.58)"/><path class="cls-4" d="M455.3,159.85H447a.5.5,0,0,1-.5-.5.5.5,0,0,1,.5-.5h8.26a.5.5,0,0,1,.5.5A.5.5,0,0,1,455.3,159.85Z" transform="translate(-41.35 -57.58)"/><path class="cls-4" d="M440.44,159.85h-7.57a.5.5,0,0,1-.5-.5.5.5,0,0,1,.5-.5h7.57a.5.5,0,0,1,.5.5A.51.51,0,0,1,440.44,159.85Z" transform="translate(-41.35 -57.58)"/><line class="cls-8" x1="391.52" y1="92.73" x2="403.42" y2="92.73"/><path class="cls-14" d="M444.77,150.81h-11.9a.5.5,0,0,1-.5-.5.5.5,0,0,1,.5-.5h11.9a.5.5,0,0,1,.5.5A.51.51,0,0,1,444.77,150.81Z" transform="translate(-41.35 -57.58)"/><path class="cls-4" d="M470,150.81H449.83a.5.5,0,0,1-.5-.5.5.5,0,0,1,.5-.5H470a.5.5,0,0,1,.5.5A.5.5,0,0,1,470,150.81Z" transform="translate(-41.35 -57.58)"/><line class="cls-8" x1="435.28" y1="92.73" x2="442.85" y2="92.73"/><path class="cls-14" d="M484.2,150.81h-7.57a.5.5,0,0,1-.5-.5.5.5,0,0,1,.5-.5h7.57a.5.5,0,0,1,.5.5A.51.51,0,0,1,484.2,150.81Z" transform="translate(-41.35 -57.58)"/><line class="cls-8" x1="391.52" y1="109.72" x2="414.64" y2="109.72"/><path class="cls-14" d="M456,167.8H432.87a.5.5,0,0,1,0-1H456a.5.5,0,0,1,0,1Z" transform="translate(-41.35 -57.58)"/><path class="cls-4" d="M470,167.8h-8.26a.5.5,0,0,1,0-1H470a.5.5,0,0,1,0,1Z" transform="translate(-41.35 -57.58)"/><line class="cls-8" x1="391.52" y1="138.41" x2="414.64" y2="138.41"/><path class="cls-14" d="M456,196.49H432.87a.5.5,0,0,1,0-1H456a.5.5,0,0,1,0,1Z" transform="translate(-41.35 -57.58)"/><path class="cls-4" d="M470,196.49h-8.26a.5.5,0,0,1,0-1H470a.5.5,0,0,1,0,1Z" transform="translate(-41.35 -57.58)"/><path class="cls-4" d="M484.2,167.8h-7.57a.5.5,0,0,1,0-1h7.57a.5.5,0,0,1,0,1Z" transform="translate(-41.35 -57.58)"/><line class="cls-8" x1="442.85" y1="127.62" x2="419.73" y2="127.62"/><path class="cls-14" d="M484.2,185.7H461.08a.5.5,0,0,1,0-1H484.2a.5.5,0,0,1,0,1Z" transform="translate(-41.35 -57.58)"/><path class="cls-4" d="M455.3,185.7H447a.5.5,0,0,1,0-1h8.26a.5.5,0,0,1,0,1Z" transform="translate(-41.35 -57.58)"/><path class="cls-4" d="M440.44,185.7h-7.57a.5.5,0,0,1,0-1h7.57a.5.5,0,0,1,0,1Z" transform="translate(-41.35 -57.58)"/><line class="cls-8" x1="413.95" y1="148.11" x2="405.69" y2="148.11"/><path class="cls-14" d="M455.3,206.19H447a.5.5,0,0,1-.5-.5.5.5,0,0,1,.5-.5h8.26a.5.5,0,0,1,.5.5A.5.5,0,0,1,455.3,206.19Z" transform="translate(-41.35 -57.58)"/><line class="cls-8" x1="399.09" y1="148.11" x2="391.52" y2="148.11"/><path class="cls-14" d="M440.44,206.19h-7.57a.5.5,0,0,1-.5-.5.5.5,0,0,1,.5-.5h7.57a.51.51,0,0,1,.5.5A.5.5,0,0,1,440.44,206.19Z" transform="translate(-41.35 -57.58)"/><line class="cls-8" x1="391.52" y1="118.58" x2="403.42" y2="118.58"/><path class="cls-14" d="M444.77,176.66h-11.9a.5.5,0,0,1,0-1h11.9a.5.5,0,0,1,0,1Z" transform="translate(-41.35 -57.58)"/><path class="cls-4" d="M470,176.66H449.83a.5.5,0,0,1,0-1H470a.5.5,0,0,1,0,1Z" transform="translate(-41.35 -57.58)"/><line class="cls-8" x1="435.28" y1="118.58" x2="442.85" y2="118.58"/><path class="cls-14" d="M484.2,176.66h-7.57a.5.5,0,0,1,0-1h7.57a.5.5,0,0,1,0,1Z" transform="translate(-41.35 -57.58)"/><path class="cls-4" d="M452.91,215.71h-20.2a.5.5,0,0,1-.5-.5.51.51,0,0,1,.5-.5h20.2a.51.51,0,0,1,.5.5A.5.5,0,0,1,452.91,215.71Z" transform="translate(-41.35 -57.58)"/><line class="cls-8" x1="391.41" y1="166.56" x2="398.97" y2="166.56"/><path class="cls-14" d="M440.32,224.63h-7.57a.5.5,0,0,1-.5-.5.51.51,0,0,1,.5-.5h7.57a.5.5,0,0,1,.5.5A.5.5,0,0,1,440.32,224.63Z" transform="translate(-41.35 -57.58)"/><rect class="cls-13" x="62.7" y="318.2" width="109.64" height="78.13" rx="2.03" transform="translate(193.68 656.94) rotate(180)"/><path class="cls-17" d="M64.73,396.33H170.31a2,2,0,0,0,2-2V320.23a2,2,0,0,0-2-2H64.73a2,2,0,0,0-2,2V394.3A2,2,0,0,0,64.73,396.33Z" transform="translate(-41.35 -57.58)"/><path class="cls-14" d="M68.84,312.28H178.47a0,0,0,0,1,0,0V323a2.42,2.42,0,0,1-2.42,2.42H72a3.13,3.13,0,0,1-3.13-3.13v-10A0,0,0,0,1,68.84,312.28Z" transform="translate(205.96 580.14) rotate(180)"/><path class="cls-9" d="M179,325.94H68.34V314.7a2.92,2.92,0,0,1,2.92-2.92H175.34a3.64,3.64,0,0,1,3.63,3.63Zm-109.63-1H178v-9.53a2.63,2.63,0,0,0-2.63-2.63H71.26a1.92,1.92,0,0,0-1.92,1.92Z" transform="translate(-41.35 -57.58)"/><path class="cls-8" d="M83.25,321.23a2.53,2.53,0,1,1,2.52-2.52A2.52,2.52,0,0,1,83.25,321.23Zm0-4.05a1.53,1.53,0,1,0,1.52,1.53A1.53,1.53,0,0,0,83.25,317.18Z" transform="translate(-41.35 -57.58)"/><path class="cls-8" d="M91.14,321.23a2.53,2.53,0,1,1,2.52-2.52A2.52,2.52,0,0,1,91.14,321.23Zm0-4.05a1.53,1.53,0,1,0,1.52,1.53A1.52,1.52,0,0,0,91.14,317.18Z" transform="translate(-41.35 -57.58)"/><path class="cls-8" d="M75.4,321.23a2.53,2.53,0,1,1,2.52-2.52A2.52,2.52,0,0,1,75.4,321.23Zm0-4.05a1.53,1.53,0,1,0,1.52,1.53A1.52,1.52,0,0,0,75.4,317.18Z" transform="translate(-41.35 -57.58)"/><rect class="cls-8" x="68.79" y="325.45" width="109.64" height="64.42" rx="0.35" transform="translate(205.88 657.74) rotate(180)"/><path class="cls-9" d="M178.08,390.37H69.15a.86.86,0,0,1-.86-.85V325.8a.86.86,0,0,1,.86-.85H178.08a.86.86,0,0,1,.86.85v63.72A.86.86,0,0,1,178.08,390.37Zm-108.79-1H177.94V326H69.29Z" transform="translate(-41.35 -57.58)"/><line class="cls-8" x1="73.51" y1="283.49" x2="122.79" y2="283.49"/><path class="cls-4" d="M164.14,341.57H114.86a.5.5,0,0,1-.5-.5.5.5,0,0,1,.5-.5h49.28a.5.5,0,0,1,.5.5A.5.5,0,0,1,164.14,341.57Z" transform="translate(-41.35 -57.58)"/><line class="cls-8" x1="73.51" y1="290.96" x2="90.82" y2="290.96"/><path class="cls-14" d="M132.17,349H114.86a.5.5,0,0,1,0-1h17.31a.5.5,0,1,1,0,1Z" transform="translate(-41.35 -57.58)"/><line class="cls-8" x1="97.94" y1="290.96" x2="118.97" y2="290.96"/><path class="cls-4" d="M160.32,349h-21a.5.5,0,0,1,0-1h21a.5.5,0,0,1,0,1Z" transform="translate(-41.35 -57.58)"/><line class="cls-8" x1="73.51" y1="313.65" x2="105.1" y2="313.65"/><path class="cls-14" d="M146.45,371.73H114.86a.5.5,0,0,1-.5-.5.5.5,0,0,1,.5-.5h31.59a.51.51,0,0,1,.5.5A.5.5,0,0,1,146.45,371.73Z" transform="translate(-41.35 -57.58)"/><line class="cls-8" x1="73.51" y1="298.82" x2="123.23" y2="298.82"/><path class="cls-14" d="M164.58,356.9H114.86a.5.5,0,0,1,0-1h49.72a.5.5,0,1,1,0,1Z" transform="translate(-41.35 -57.58)"/><line class="cls-8" x1="73.51" y1="306.3" x2="89.26" y2="306.3"/><path class="cls-4" d="M130.61,364.38H114.86a.5.5,0,0,1-.5-.5.5.5,0,0,1,.5-.5h15.75a.5.5,0,0,1,.5.5A.5.5,0,0,1,130.61,364.38Z" transform="translate(-41.35 -57.58)"/><line class="cls-8" x1="94.11" y1="306.3" x2="122.79" y2="306.3"/><path class="cls-14" d="M164.14,364.38H135.46a.5.5,0,0,1-.5-.5.5.5,0,0,1,.5-.5h28.68a.5.5,0,0,1,.5.5A.5.5,0,0,1,164.14,364.38Z" transform="translate(-41.35 -57.58)"/><path class="cls-14" d="M81.06,355a12.37,12.37,0,0,1,10.2-12.18L90.78,340a15.21,15.21,0,0,0-12.46,17.55l2.92-.5A12.48,12.48,0,0,1,81.06,355Z" transform="translate(-41.35 -57.58)"/><path class="cls-8" d="M108.54,355.57a15.35,15.35,0,0,0-.21-3.08h0A15.35,15.35,0,0,1,108.54,355.57Z" transform="translate(-41.35 -57.58)"/><path class="cls-13" d="M93.43,367.41a12.37,12.37,0,0,1-12.19-10.33l-2.92.5A15.21,15.21,0,0,0,95.87,370l-.48-2.8A12.64,12.64,0,0,1,93.43,367.41Z" transform="translate(-41.35 -57.58)"/><path class="cls-4" d="M108.33,352.49h0A15.21,15.21,0,0,0,90.78,340l.48,2.83a13,13,0,0,1,2.17-.2,12.37,12.37,0,0,1,2,24.58l.48,2.8a15.19,15.19,0,0,0,12.46-17.55Z" transform="translate(-41.35 -57.58)"/><circle class="cls-9" cx="133.09" cy="260.96" r="17.97"/><path class="cls-9" d="M174.44,337a18.47,18.47,0,1,1,18.47-18.47A18.5,18.5,0,0,1,174.44,337Zm0-35.94a17.47,17.47,0,1,0,17.47,17.47A17.49,17.49,0,0,0,174.44,301.07Z" transform="translate(-41.35 -57.58)"/><circle class="cls-4" cx="134.71" cy="259.21" r="17.97"/><path class="cls-9" d="M176.06,335.26a18.47,18.47,0,1,1,18.47-18.47A18.48,18.48,0,0,1,176.06,335.26Zm0-35.94a17.47,17.47,0,1,0,17.47,17.47A17.49,17.49,0,0,0,176.06,299.32Z" transform="translate(-41.35 -57.58)"/><path class="cls-8" d="M184.33,325.16a8.47,8.47,0,0,0-16.93,0S184.33,325.21,184.33,325.16Z" transform="translate(-41.35 -57.58)"/><path class="cls-9" d="M176.78,325.69h-6.39c-3.49,0-3.49,0-3.49-.52a9,9,0,0,1,17.93,0C184.83,325.69,184.83,325.69,176.78,325.69Zm7.53-.52h0Zm-16.4-.5c2.47,0,13.47,0,15.9,0a8,8,0,0,0-15.9,0Z" transform="translate(-41.35 -57.58)"/><path class="cls-8" d="M171.11,310.72a4.81,4.81,0,1,0,4.81-4.81A4.81,4.81,0,0,0,171.11,310.72Z" transform="translate(-41.35 -57.58)"/><path class="cls-9" d="M175.92,316a5.31,5.31,0,1,1,5.31-5.31A5.31,5.31,0,0,1,175.92,316Zm0-9.62a4.31,4.31,0,1,0,4.31,4.31A4.31,4.31,0,0,0,175.92,306.41Z" transform="translate(-41.35 -57.58)"/><rect class="cls-8" x="247.77" y="51.09" width="81.08" height="52.99"/><path class="cls-9" d="M370.2,162.16H289.12a.5.5,0,0,1-.5-.5v-53a.5.5,0,0,1,.5-.5H370.2a.5.5,0,0,1,.5.5v53A.5.5,0,0,1,370.2,162.16Zm-80.58-1H369.7v-52H289.62Z" transform="translate(-41.35 -57.58)"/><rect class="cls-9" x="245.09" y="23.43" width="102.09" height="29.65" rx="4.94"/><path class="cls-9" d="M383.59,111.16H291.38a5.45,5.45,0,0,1-5.44-5.44V86a5.45,5.45,0,0,1,5.44-5.44h92.21A5.45,5.45,0,0,1,389,86v19.77A5.45,5.45,0,0,1,383.59,111.16ZM291.38,81.51A4.44,4.44,0,0,0,286.94,86v19.77a4.44,4.44,0,0,0,4.44,4.44h92.21a4.44,4.44,0,0,0,4.44-4.44V86a4.44,4.44,0,0,0-4.44-4.44Z" transform="translate(-41.35 -57.58)"/><rect class="cls-9" x="245.09" y="55.82" width="102.09" height="29.65" rx="4.94"/><path class="cls-9" d="M383.59,143.54H291.38a5.44,5.44,0,0,1-5.44-5.43V118.33a5.44,5.44,0,0,1,5.44-5.43h92.21a5.44,5.44,0,0,1,5.44,5.43v19.78A5.44,5.44,0,0,1,383.59,143.54ZM291.38,113.9a4.44,4.44,0,0,0-4.44,4.43v19.78a4.44,4.44,0,0,0,4.44,4.43h92.21a4.44,4.44,0,0,0,4.44-4.43V118.33a4.44,4.44,0,0,0-4.44-4.43Z" transform="translate(-41.35 -57.58)"/><rect class="cls-9" x="245.09" y="88.92" width="102.09" height="29.65" rx="4.94"/><path class="cls-9" d="M383.59,176.65H291.38a5.45,5.45,0,0,1-5.44-5.44V151.43a5.44,5.44,0,0,1,5.44-5.43h92.21a5.44,5.44,0,0,1,5.44,5.43v19.78A5.45,5.45,0,0,1,383.59,176.65ZM291.38,147a4.44,4.44,0,0,0-4.44,4.43v19.78a4.44,4.44,0,0,0,4.44,4.44h92.21a4.44,4.44,0,0,0,4.44-4.44V151.43a4.44,4.44,0,0,0-4.44-4.43Z" transform="translate(-41.35 -57.58)"/><rect class="cls-8" x="261.45" y="23.43" width="90.37" height="29.65" rx="4.64"/><path class="cls-9" d="M388.53,111.16H307.44A5.15,5.15,0,0,1,302.3,106V85.66a5.15,5.15,0,0,1,5.14-5.15h81.09a5.15,5.15,0,0,1,5.14,5.15V106A5.15,5.15,0,0,1,388.53,111.16ZM307.44,81.51a4.15,4.15,0,0,0-4.14,4.15V106a4.15,4.15,0,0,0,4.14,4.14h81.09a4.15,4.15,0,0,0,4.14-4.14V85.66a4.15,4.15,0,0,0-4.14-4.15Z" transform="translate(-41.35 -57.58)"/><path class="cls-8" d="M321.37,95.84a4.56,4.56,0,1,1-4.55-4.56A4.55,4.55,0,0,1,321.37,95.84Z" transform="translate(-41.35 -57.58)"/><path class="cls-9" d="M316.82,100.89a5.06,5.06,0,1,1,5.05-5A5.06,5.06,0,0,1,316.82,100.89Zm0-9.11a4.06,4.06,0,1,0,4.05,4.06A4.06,4.06,0,0,0,316.82,91.78Z" transform="translate(-41.35 -57.58)"/><rect class="cls-8" x="289.49" y="32.36" width="53.58" height="11.79" rx="0.61"/><path class="cls-9" d="M383.81,102.23H331.45a1.11,1.11,0,0,1-1.11-1.11V90.55a1.11,1.11,0,0,1,1.11-1.11h52.36a1.11,1.11,0,0,1,1.11,1.11v10.57A1.11,1.11,0,0,1,383.81,102.23ZM331.45,90.44a.11.11,0,0,0-.11.11v10.57a.11.11,0,0,0,.11.11h52.36a.11.11,0,0,0,.11-.11V90.55a.11.11,0,0,0-.11-.11Z" transform="translate(-41.35 -57.58)"/><line class="cls-8" x1="294.67" y1="36.26" x2="312.35" y2="36.26"/><path class="cls-4" d="M353.7,94.34H336a.5.5,0,0,1,0-1H353.7a.5.5,0,0,1,0,1Z" transform="translate(-41.35 -57.58)"/><line class="cls-8" x1="315.86" y1="36.26" x2="326.46" y2="36.26"/><path class="cls-14" d="M367.81,94.34h-10.6a.5.5,0,0,1,0-1h10.6a.5.5,0,0,1,0,1Z" transform="translate(-41.35 -57.58)"/><line class="cls-8" x1="296.13" y1="40.1" x2="306.72" y2="40.1"/><path class="cls-14" d="M348.07,98.18H337.48a.5.5,0,0,1,0-1h10.59a.5.5,0,0,1,0,1Z" transform="translate(-41.35 -57.58)"/><line class="cls-8" x1="330.75" y1="36.26" x2="336.97" y2="36.26"/><path class="cls-4" d="M378.32,94.34h-6.23a.5.5,0,0,1,0-1h6.23a.5.5,0,0,1,0,1Z" transform="translate(-41.35 -57.58)"/><line class="cls-8" x1="315.39" y1="40.43" x2="321.61" y2="40.43"/><path class="cls-4" d="M363,98.51h-6.23a.51.51,0,0,1-.5-.5.5.5,0,0,1,.5-.5H363a.5.5,0,0,1,.5.5A.51.51,0,0,1,363,98.51Z" transform="translate(-41.35 -57.58)"/><rect class="cls-8" x="261.45" y="55.82" width="90.37" height="29.65" rx="4.64"/><path class="cls-9" d="M388.53,143.54H307.44a5.14,5.14,0,0,1-5.14-5.14V118a5.15,5.15,0,0,1,5.14-5.14h81.09a5.15,5.15,0,0,1,5.14,5.14V138.4A5.14,5.14,0,0,1,388.53,143.54ZM307.44,113.9A4.15,4.15,0,0,0,303.3,118V138.4a4.14,4.14,0,0,0,4.14,4.14h81.09a4.14,4.14,0,0,0,4.14-4.14V118a4.15,4.15,0,0,0-4.14-4.14Z" transform="translate(-41.35 -57.58)"/><path class="cls-8" d="M321.37,128.22a4.56,4.56,0,1,1-4.55-4.55A4.56,4.56,0,0,1,321.37,128.22Z" transform="translate(-41.35 -57.58)"/><path class="cls-9" d="M316.82,133.28a5.06,5.06,0,1,1,5.05-5.06A5.07,5.07,0,0,1,316.82,133.28Zm0-9.11a4.06,4.06,0,1,0,4.05,4A4.06,4.06,0,0,0,316.82,124.17Z" transform="translate(-41.35 -57.58)"/><rect class="cls-8" x="289.49" y="64.75" width="53.58" height="11.79" rx="0.61"/><path class="cls-9" d="M383.81,134.61H331.45a1.11,1.11,0,0,1-1.11-1.11V122.94a1.11,1.11,0,0,1,1.11-1.11h52.36a1.11,1.11,0,0,1,1.11,1.11V133.5A1.11,1.11,0,0,1,383.81,134.61Zm-52.36-11.78a.11.11,0,0,0-.11.11V133.5a.1.1,0,0,0,.11.11h52.36a.1.1,0,0,0,.11-.11V122.94a.11.11,0,0,0-.11-.11Z" transform="translate(-41.35 -57.58)"/><line class="cls-8" x1="294.67" y1="68.65" x2="312.35" y2="68.65"/><path class="cls-4" d="M353.7,126.73H336a.5.5,0,0,1-.5-.5.5.5,0,0,1,.5-.5H353.7a.5.5,0,0,1,.5.5A.51.51,0,0,1,353.7,126.73Z" transform="translate(-41.35 -57.58)"/><line class="cls-8" x1="315.86" y1="68.65" x2="326.46" y2="68.65"/><path class="cls-14" d="M367.81,126.73h-10.6a.5.5,0,0,1-.5-.5.5.5,0,0,1,.5-.5h10.6a.5.5,0,0,1,.5.5A.51.51,0,0,1,367.81,126.73Z" transform="translate(-41.35 -57.58)"/><line class="cls-8" x1="296.13" y1="72.49" x2="306.72" y2="72.49"/><path class="cls-14" d="M348.07,130.57H337.48a.5.5,0,0,1-.5-.5.5.5,0,0,1,.5-.5h10.59a.5.5,0,0,1,.5.5A.5.5,0,0,1,348.07,130.57Z" transform="translate(-41.35 -57.58)"/><line class="cls-8" x1="330.75" y1="68.65" x2="336.97" y2="68.65"/><path class="cls-4" d="M378.32,126.73h-6.23a.51.51,0,0,1-.5-.5.5.5,0,0,1,.5-.5h6.23a.5.5,0,0,1,.5.5A.51.51,0,0,1,378.32,126.73Z" transform="translate(-41.35 -57.58)"/><line class="cls-8" x1="315.39" y1="72.82" x2="321.61" y2="72.82"/><path class="cls-4" d="M363,130.89h-6.23a.5.5,0,0,1-.5-.5.51.51,0,0,1,.5-.5H363a.51.51,0,0,1,.5.5A.5.5,0,0,1,363,130.89Z" transform="translate(-41.35 -57.58)"/><rect class="cls-9" x="266.09" y="53.08" width="81.08" height="2.74"/><path class="cls-9" d="M388.53,113.9H307.44a.51.51,0,0,1-.5-.5v-2.74a.5.5,0,0,1,.5-.5h81.09a.5.5,0,0,1,.5.5v2.74A.51.51,0,0,1,388.53,113.9Zm-80.59-1H388v-1.74H307.94Z" transform="translate(-41.35 -57.58)"/><rect class="cls-8" x="261.45" y="88.92" width="90.37" height="29.65" rx="4.64"/><path class="cls-9" d="M388.53,176.65H307.44a5.15,5.15,0,0,1-5.14-5.15V151.14a5.15,5.15,0,0,1,5.14-5.14h81.09a5.15,5.15,0,0,1,5.14,5.14V171.5A5.15,5.15,0,0,1,388.53,176.65ZM307.44,147a4.15,4.15,0,0,0-4.14,4.14V171.5a4.15,4.15,0,0,0,4.14,4.15h81.09a4.15,4.15,0,0,0,4.14-4.15V151.14a4.15,4.15,0,0,0-4.14-4.14Z" transform="translate(-41.35 -57.58)"/><path class="cls-8" d="M321.37,161.32a4.56,4.56,0,1,1-4.55-4.55A4.56,4.56,0,0,1,321.37,161.32Z" transform="translate(-41.35 -57.58)"/><path class="cls-9" d="M316.82,166.38a5.06,5.06,0,1,1,5.05-5.06A5.07,5.07,0,0,1,316.82,166.38Zm0-9.11a4.06,4.06,0,1,0,4.05,4A4.06,4.06,0,0,0,316.82,157.27Z" transform="translate(-41.35 -57.58)"/><rect class="cls-8" x="289.49" y="97.85" width="53.58" height="11.79" rx="0.61"/><path class="cls-9" d="M383.81,167.71H331.45a1.11,1.11,0,0,1-1.11-1.11V156a1.11,1.11,0,0,1,1.11-1.11h52.36a1.11,1.11,0,0,1,1.11,1.11V166.6A1.11,1.11,0,0,1,383.81,167.71Zm-52.36-11.78a.11.11,0,0,0-.11.11V166.6a.1.1,0,0,0,.11.11h52.36a.1.1,0,0,0,.11-.11V156a.11.11,0,0,0-.11-.11Z" transform="translate(-41.35 -57.58)"/><line class="cls-8" x1="294.67" y1="101.75" x2="312.35" y2="101.75"/><path class="cls-4" d="M353.7,159.83H336a.5.5,0,0,1-.5-.5.5.5,0,0,1,.5-.5H353.7a.5.5,0,0,1,.5.5A.51.51,0,0,1,353.7,159.83Z" transform="translate(-41.35 -57.58)"/><line class="cls-8" x1="315.86" y1="101.75" x2="326.46" y2="101.75"/><path class="cls-14" d="M367.81,159.83h-10.6a.5.5,0,0,1-.5-.5.5.5,0,0,1,.5-.5h10.6a.5.5,0,0,1,.5.5A.51.51,0,0,1,367.81,159.83Z" transform="translate(-41.35 -57.58)"/><line class="cls-8" x1="296.13" y1="105.59" x2="306.72" y2="105.59"/><path class="cls-14" d="M348.07,163.67H337.48a.5.5,0,0,1-.5-.5.5.5,0,0,1,.5-.5h10.59a.5.5,0,0,1,.5.5A.5.5,0,0,1,348.07,163.67Z" transform="translate(-41.35 -57.58)"/><line class="cls-8" x1="330.75" y1="101.75" x2="336.97" y2="101.75"/><path class="cls-4" d="M378.32,159.83h-6.23a.51.51,0,0,1-.5-.5.5.5,0,0,1,.5-.5h6.23a.5.5,0,0,1,.5.5A.51.51,0,0,1,378.32,159.83Z" transform="translate(-41.35 -57.58)"/><line class="cls-8" x1="315.39" y1="105.92" x2="321.61" y2="105.92"/><path class="cls-4" d="M363,164h-6.23a.5.5,0,0,1-.5-.5.51.51,0,0,1,.5-.5H363a.51.51,0,0,1,.5.5A.5.5,0,0,1,363,164Z" transform="translate(-41.35 -57.58)"/><rect class="cls-9" x="266.09" y="86.18" width="81.08" height="2.74"/><path class="cls-9" d="M388.53,147H307.44a.51.51,0,0,1-.5-.5v-2.74a.5.5,0,0,1,.5-.5h81.09a.5.5,0,0,1,.5.5v2.74A.51.51,0,0,1,388.53,147Zm-80.59-1H388v-1.74H307.94Z" transform="translate(-41.35 -57.58)"/><polygon class="cls-3" points="52.47 95.67 34.42 95.67 34.42 80.38 35.42 80.38 35.42 94.67 51.47 94.67 51.47 80.55 52.47 80.55 52.47 95.67"/><rect class="cls-3" x="44.48" y="80.05" width="20.88" height="1"/><rect class="cls-3" x="44.48" y="70.14" width="20.88" height="1"/><path class="cls-3" d="M76.31,138.63a2.37,2.37,0,1,1,2.37-2.37A2.37,2.37,0,0,1,76.31,138.63Zm0-3.74a1.37,1.37,0,1,0,1.37,1.37A1.37,1.37,0,0,0,76.31,134.89Z" transform="translate(-41.35 -57.58)"/><path class="cls-3" d="M84.05,140.52a2.37,2.37,0,1,1,2.37-2.37A2.38,2.38,0,0,1,84.05,140.52Zm0-3.74a1.37,1.37,0,1,0,1.37,1.37A1.37,1.37,0,0,0,84.05,136.78Z" transform="translate(-41.35 -57.58)"/><path class="cls-3" d="M84.05,130.57a2.37,2.37,0,1,1,2.37-2.37A2.37,2.37,0,0,1,84.05,130.57Zm0-3.74a1.37,1.37,0,1,0,1.37,1.37A1.37,1.37,0,0,0,84.05,126.83Z" transform="translate(-41.35 -57.58)"/><path class="cls-13" d="M258,133c0-.31,0-.63,0-.94-.3-16.8-14.83-30.54-31.47-30.54a31.28,31.28,0,0,0-8.38,1.14,42.75,42.75,0,0,0-82.27,15.06H128.7a23.61,23.61,0,0,0-23.61,23.61v.31a23.61,23.61,0,0,0,23.61,23.61h101C247.54,165.27,259.14,148.34,258,133Z" transform="translate(-41.35 -57.58)"/><g class="cls-18"><path class="cls-19" d="M258,133c0-.31,0-.63,0-.94-.3-16.8-14.83-30.54-31.47-30.54a31.28,31.28,0,0,0-8.38,1.14,42.75,42.75,0,0,0-82.27,15.06H128.7a23.61,23.61,0,0,0-23.61,23.61v.31a23.61,23.61,0,0,0,23.61,23.61h101C247.54,165.27,259.14,148.34,258,133Z" transform="translate(-41.35 -57.58)"/></g><path class="cls-4" d="M258.21,127.22c0-.31,0-.63,0-.94-.3-16.8-14.83-30.54-31.47-30.54a31.34,31.34,0,0,0-8.38,1.14,42.74,42.74,0,0,0-82.26,15.06h-7.17a23.61,23.61,0,0,0-23.61,23.61v.31a23.61,23.61,0,0,0,23.61,23.61h101C247.78,159.47,259.37,142.54,258.21,127.22Z" transform="translate(-41.35 -57.58)"/><path class="cls-9" d="M229.91,160h-101a24.13,24.13,0,0,1-24.11-24.11v-.31a24.13,24.13,0,0,1,24.11-24.11h6.68a43.25,43.25,0,0,1,83-15.16,32.12,32.12,0,0,1,8.09-1c17,0,31.67,14.21,32,31v.39a4.69,4.69,0,0,0,0,.53A32,32,0,0,1,250.24,151,27.49,27.49,0,0,1,229.91,160Zm-101-47.53a23.14,23.14,0,0,0-23.11,23.11v.31A23.13,23.13,0,0,0,128.93,159h101a26.52,26.52,0,0,0,19.6-8.7,31,31,0,0,0,8.2-23c0-.21,0-.41,0-.62v-.35c-.29-16.29-14.47-30.05-31-30.05a31.19,31.19,0,0,0-8.25,1.12.49.49,0,0,1-.59-.29A42.25,42.25,0,0,0,136.6,112a.51.51,0,0,1-.5.49Z" transform="translate(-41.35 -57.58)"/><path class="cls-8" d="M168,159a.5.5,0,0,1-.5-.5V129.72a.5.5,0,1,1,1,0v28.73A.5.5,0,0,1,168,159Z" transform="translate(-41.35 -57.58)"/><path class="cls-8" d="M167.78,142.94h-12.1a.5.5,0,0,1-.5-.5v-10.5a.5.5,0,0,1,1,0v10h11.6a.5.5,0,0,1,.5.5A.5.5,0,0,1,167.78,142.94Z" transform="translate(-41.35 -57.58)"/><path class="cls-8" d="M155.71,132.32a2,2,0,1,1,2-2A2,2,0,0,1,155.71,132.32Zm0-3.07a1,1,0,1,0,1,1A1,1,0,0,0,155.71,129.25Z" transform="translate(-41.35 -57.58)"/><path class="cls-8" d="M181.59,159.05a.5.5,0,0,1-.5-.5V115.89a.5.5,0,0,1,1,0v42.66A.5.5,0,0,1,181.59,159.05Z" transform="translate(-41.35 -57.58)"/><path class="cls-8" d="M167.93,129.94a3.08,3.08,0,1,1,3.07-3.07A3.08,3.08,0,0,1,167.93,129.94Zm0-5.15a2.08,2.08,0,1,0,2.07,2.08A2.08,2.08,0,0,0,167.93,124.79Z" transform="translate(-41.35 -57.58)"/><path class="cls-8" d="M195.66,159a.5.5,0,0,1-.5-.5V129.72a.5.5,0,0,1,1,0v28.73A.5.5,0,0,1,195.66,159Z" transform="translate(-41.35 -57.58)"/><path class="cls-8" d="M207.93,142.94h-12.1a.5.5,0,0,1-.5-.5.5.5,0,0,1,.5-.5h11.6v-10a.5.5,0,0,1,1,0v10.5A.5.5,0,0,1,207.93,142.94Z" transform="translate(-41.35 -57.58)"/><path class="cls-8" d="M207.9,132.32a2,2,0,1,1,2-2A2,2,0,0,1,207.9,132.32Zm0-3.07a1,1,0,1,0,0,2.07,1,1,0,0,0,0-2.07Z" transform="translate(-41.35 -57.58)"/><path class="cls-8" d="M195.68,129.94a3.08,3.08,0,1,1,3.07-3.07A3.07,3.07,0,0,1,195.68,129.94Zm0-5.15a2.08,2.08,0,1,0,2.07,2.08A2.08,2.08,0,0,0,195.68,124.79Z" transform="translate(-41.35 -57.58)"/><path class="cls-8" d="M181.61,116.05a3.55,3.55,0,1,1,3.56-3.55A3.55,3.55,0,0,1,181.61,116.05Zm0-6.1a2.55,2.55,0,1,0,2.56,2.55A2.55,2.55,0,0,0,181.61,110Z" transform="translate(-41.35 -57.58)"/><path class="cls-9" d="M326,217.68H505.92a4.93,4.93,0,0,1,4.93,4.93V347.17a1.72,1.72,0,0,1-1.72,1.72H322.77a1.72,1.72,0,0,1-1.72-1.72V222.61A4.93,4.93,0,0,1,326,217.68Z"/><path class="cls-7" d="M550.47,407H364.12a2.23,2.23,0,0,1-2.23-2.23V280.19a5.44,5.44,0,0,1,5.43-5.43h180a5.44,5.44,0,0,1,5.43,5.43V404.75A2.23,2.23,0,0,1,550.47,407ZM367.32,275.76a4.44,4.44,0,0,0-4.43,4.43V404.75a1.23,1.23,0,0,0,1.23,1.23H550.47a1.23,1.23,0,0,0,1.23-1.23V280.19a4.44,4.44,0,0,0-4.43-4.43Z" transform="translate(-41.35 -57.58)"/><rect class="cls-8" x="334.92" y="230.27" width="162.05" height="106.04"/><path class="cls-9" d="M538.32,394.39H376.27a.51.51,0,0,1-.5-.5v-106a.5.5,0,0,1,.5-.5H538.32a.5.5,0,0,1,.5.5v106A.5.5,0,0,1,538.32,394.39Zm-161.55-1H537.82v-105H376.77Z" transform="translate(-41.35 -57.58)"/><path class="cls-8" d="M457.3,283.65a2,2,0,1,1,1.95-1.95A2,2,0,0,1,457.3,283.65Zm0-2.91a1,1,0,1,0,.95,1A1,1,0,0,0,457.3,280.74Z" transform="translate(-41.35 -57.58)"/><path class="cls-13" d="M290,347.9H541.91a0,0,0,0,1,0,0v10.37a6.62,6.62,0,0,1-6.62,6.62H296.6a6.62,6.62,0,0,1-6.62-6.62V347.9A0,0,0,0,1,290,347.9Z"/><path class="cls-9" d="M576.64,423H338a7.13,7.13,0,0,1-7.12-7.12V405.48a.51.51,0,0,1,.5-.5H583.26a.5.5,0,0,1,.5.5v10.37A7.12,7.12,0,0,1,576.64,423ZM331.83,406v9.87A6.13,6.13,0,0,0,338,422H576.64a6.13,6.13,0,0,0,6.12-6.12V406Z" transform="translate(-41.35 -57.58)"/><line class="cls-8" x1="292.39" y1="360.91" x2="539.51" y2="360.91"/><path class="cls-9" d="M580.86,419H333.74a.5.5,0,0,1-.5-.5.5.5,0,0,1,.5-.5H580.86a.5.5,0,0,1,.5.5A.51.51,0,0,1,580.86,419Z" transform="translate(-41.35 -57.58)"/><rect class="cls-8" x="391.91" y="348.97" width="48.09" height="5.31"/><path class="cls-9" d="M481.34,412.35H433.25a.5.5,0,0,1-.5-.5v-5.31a.51.51,0,0,1,.5-.5h48.09a.5.5,0,0,1,.5.5v5.31A.5.5,0,0,1,481.34,412.35Zm-47.59-1h47.09V407H433.75Z" transform="translate(-41.35 -57.58)"/><rect class="cls-13" x="401.43" y="305.9" width="101.56" height="74.11" rx="1.9" transform="translate(863.06 628.33) rotate(180)"/><path class="cls-14" d="M407.12,300.29H508.67a0,0,0,0,1,0,0V310.5a2.27,2.27,0,0,1-2.27,2.27H410.05a2.93,2.93,0,0,1-2.93-2.93v-9.55A0,0,0,0,1,407.12,300.29Z" transform="translate(874.43 555.48) rotate(180)"/><path class="cls-9" d="M509.17,313.27H406.62V302.56a2.77,2.77,0,0,1,2.77-2.77h96.34a3.44,3.44,0,0,1,3.44,3.43Zm-101.55-1H508.17v-9a2.44,2.44,0,0,0-2.44-2.43H409.39a1.77,1.77,0,0,0-1.77,1.77Z" transform="translate(-41.35 -57.58)"/><path class="cls-8" d="M420.92,308.81a2.43,2.43,0,1,1,2.41-2.43A2.42,2.42,0,0,1,420.92,308.81Zm0-3.85a1.43,1.43,0,1,0,1.41,1.42A1.42,1.42,0,0,0,420.92,305Z" transform="translate(-41.35 -57.58)"/><path class="cls-8" d="M428.4,308.81a2.43,2.43,0,1,1,2.42-2.43A2.42,2.42,0,0,1,428.4,308.81Zm0-3.85a1.43,1.43,0,1,0,1.42,1.42A1.42,1.42,0,0,0,428.4,305Z" transform="translate(-41.35 -57.58)"/><path class="cls-8" d="M413.48,308.81a2.43,2.43,0,1,1,2.42-2.43A2.42,2.42,0,0,1,413.48,308.81Zm0-3.85a1.43,1.43,0,1,0,1.42,1.42A1.43,1.43,0,0,0,413.48,305Z" transform="translate(-41.35 -57.58)"/><rect class="cls-8" x="407.07" y="312.78" width="101.56" height="61.11" rx="0.33" transform="translate(874.36 629.08) rotate(180)"/><path class="cls-9" d="M508.3,374.38H407.41a.83.83,0,0,1-.83-.83V313.11a.83.83,0,0,1,.83-.83H508.3a.83.83,0,0,1,.83.83v60.44A.83.83,0,0,1,508.3,374.38Zm-100.72-1H508.13v-60.1H407.58Z" transform="translate(-41.35 -57.58)"/><path class="cls-8" d="M435.47,267.54h22.11a.16.16,0,0,1,.16.16V302a.16.16,0,0,1-.16.16H435.47a.17.17,0,0,1-.17-.17V267.7A.17.17,0,0,1,435.47,267.54Z"/><path class="cls-13" d="M498.93,360.27H476.82a.67.67,0,0,1-.67-.67V325.28a.67.67,0,0,1,.67-.67h22.11a.66.66,0,0,1,.66.67V359.6A.66.66,0,0,1,498.93,360.27Zm-21.78-1h21.44V325.61H477.15Z" transform="translate(-41.35 -57.58)"/><line class="cls-8" x1="435.85" y1="268.2" x2="457.53" y2="301.75"/><path class="cls-13" d="M498.87,359.83a.51.51,0,0,1-.42-.23l-21.67-33.55a.5.5,0,1,1,.84-.55l21.67,33.56a.5.5,0,0,1-.14.69A.57.57,0,0,1,498.87,359.83Z" transform="translate(-41.35 -57.58)"/><line class="cls-8" x1="457.09" y1="268.09" x2="435.47" y2="302.19"/><path class="cls-13" d="M476.82,360.27a.51.51,0,0,1-.43-.77L498,325.4a.49.49,0,0,1,.69-.16.51.51,0,0,1,.16.69L477.24,360A.51.51,0,0,1,476.82,360.27Z" transform="translate(-41.35 -57.58)"/><line class="cls-8" x1="379.19" y1="270.01" x2="425.93" y2="270.01"/><path class="cls-4" d="M467.28,328.09H420.54a.5.5,0,0,1-.5-.5.5.5,0,0,1,.5-.5h46.74a.5.5,0,0,1,.5.5A.5.5,0,0,1,467.28,328.09Z" transform="translate(-41.35 -57.58)"/><line class="cls-8" x1="379.19" y1="277.1" x2="395.61" y2="277.1"/><path class="cls-14" d="M437,335.18H420.54a.5.5,0,0,1-.5-.5.5.5,0,0,1,.5-.5H437a.51.51,0,0,1,.5.5A.5.5,0,0,1,437,335.18Z" transform="translate(-41.35 -57.58)"/><line class="cls-8" x1="402.36" y1="277.1" x2="422.3" y2="277.1"/><path class="cls-4" d="M463.65,335.18H443.71a.5.5,0,0,1-.5-.5.51.51,0,0,1,.5-.5h19.94a.5.5,0,0,1,.5.5A.5.5,0,0,1,463.65,335.18Z" transform="translate(-41.35 -57.58)"/><line class="cls-8" x1="379.19" y1="298.63" x2="409.15" y2="298.63"/><path class="cls-14" d="M450.5,356.71h-30a.5.5,0,0,1-.5-.5.5.5,0,0,1,.5-.5h30a.5.5,0,0,1,.5.5A.5.5,0,0,1,450.5,356.71Z" transform="translate(-41.35 -57.58)"/><line class="cls-8" x1="379.19" y1="284.56" x2="426.35" y2="284.56"/><path class="cls-14" d="M467.69,342.64H420.54a.5.5,0,0,1-.5-.5.5.5,0,0,1,.5-.5h47.15a.5.5,0,0,1,.5.5A.5.5,0,0,1,467.69,342.64Z" transform="translate(-41.35 -57.58)"/><line class="cls-8" x1="379.19" y1="291.65" x2="394.13" y2="291.65"/><path class="cls-4" d="M435.48,349.73H420.54a.5.5,0,0,1-.5-.5.5.5,0,0,1,.5-.5h14.94a.5.5,0,0,1,.5.5A.51.51,0,0,1,435.48,349.73Z" transform="translate(-41.35 -57.58)"/><line class="cls-8" x1="398.73" y1="291.65" x2="425.93" y2="291.65"/><path class="cls-14" d="M467.28,349.73h-27.2a.5.5,0,0,1-.5-.5.5.5,0,0,1,.5-.5h27.2a.5.5,0,0,1,.5.5A.5.5,0,0,1,467.28,349.73Z" transform="translate(-41.35 -57.58)"/><path class="cls-8" d="M444.91,341.35a14.45,14.45,0,0,0-.2-2.92h0A14.45,14.45,0,0,1,444.91,341.35Z" transform="translate(-41.35 -57.58)"/><path class="cls-13" d="M576.12,278.46c-18.88-.71-24.87-11.76-25.72-13.55h-.13c-.86,1.79-6.85,12.84-25.72,13.55,0,0-4,38.87,25.21,45.85h1.15C580.12,317.33,576.12,278.46,576.12,278.46Z" transform="translate(-41.35 -57.58)"/><path class="cls-13" d="M551,324.81h-1.33c-29.3-7-25.63-46-25.59-46.39l0-.43.44,0c18.4-.69,24.29-11.17,25.29-13.27l.13-.28h.76l.14.28c1,2.1,6.88,12.58,25.28,13.27l.44,0,0,.43c0,.39,3.71,39.39-25.59,46.39Zm-1.16-1h1c26.75-6.44,25.11-40.62,24.8-44.87-17-.79-23.53-9.85-25.32-13.07-1.79,3.22-8.31,12.28-25.32,13.07C524.7,283.19,523.07,317.37,549.81,323.81Z" transform="translate(-41.35 -57.58)"/><path class="cls-20" d="M576.12,278.46c-18.88-.71-24.87-11.76-25.72-13.55h-.13c-.86,1.79-6.85,12.84-25.72,13.55,0,0-4,38.87,25.21,45.85h1.15C580.12,317.33,576.12,278.46,576.12,278.46Z" transform="translate(-41.35 -57.58)"/><path class="cls-4" d="M574.12,274.78c-18.91-.72-24.91-11.78-25.77-13.58h-.13c-.85,1.8-6.85,12.86-25.76,13.58,0,0-4,38.93,25.25,45.93h1.16C578.13,313.71,574.12,274.78,574.12,274.78Z" transform="translate(-41.35 -57.58)"/><path class="cls-9" d="M548.87,321.21h-1.16l-.11,0c-29.35-7-25.68-46.07-25.64-46.46a.5.5,0,0,1,.48-.45c18.44-.7,24.34-11.2,25.33-13.3a.51.51,0,0,1,.45-.28h.13a.52.52,0,0,1,.46.28c1,2.1,6.88,12.6,25.33,13.3a.49.49,0,0,1,.47.45c0,.39,3.72,39.45-25.63,46.46Zm-1.1-1h1c26.79-6.45,25.16-40.7,24.85-44.95-17-.8-23.58-9.87-25.37-13.1-1.79,3.23-8.32,12.3-25.37,13.1C522.61,279.51,521,313.76,547.77,320.21Z" transform="translate(-41.35 -57.58)"/><path class="cls-4" d="M530.57,300c2.84,6.69,8,12.85,17.25,15.06h.94c23.73-5.67,20.48-37.26,20.48-37.26-15.34-.58-20.21-9.55-20.9-11h-.1a18.35,18.35,0,0,1-7.64,7.6" transform="translate(-41.35 -57.58)"/><path class="cls-8" d="M548.76,315.59H547.7c-8.18-2-14.1-7.12-17.59-15.36a.5.5,0,0,1,.26-.65.51.51,0,0,1,.66.26c3.35,7.91,9,12.87,16.85,14.76h.82c21.48-5.18,20.34-32.51,20.08-36.28-13.57-.66-18.92-7.78-20.49-10.52a19.45,19.45,0,0,1-7.44,7.07.5.5,0,0,1-.49-.87,17.81,17.81,0,0,0,7.42-7.39.52.52,0,0,1,.46-.28h.1a.5.5,0,0,1,.45.28c.8,1.69,5.56,10.17,20.47,10.73a.5.5,0,0,1,.48.45c0,.32,3,32.09-20.87,37.8Z" transform="translate(-41.35 -57.58)"/><path class="cls-4" d="M532.38,277.29a35.88,35.88,0,0,1-5,.54,52.91,52.91,0,0,0,.32,11.1" transform="translate(-41.35 -57.58)"/><path class="cls-8" d="M527.66,289.43a.51.51,0,0,1-.5-.44,53.3,53.3,0,0,1-.32-11.21.5.5,0,0,1,.48-.45,34.08,34.08,0,0,0,5-.53.5.5,0,0,1,.18,1,36.24,36.24,0,0,1-4.67.52,53.86,53.86,0,0,0,.36,10.55.5.5,0,0,1-.44.56Z" transform="translate(-41.35 -57.58)"/><circle class="cls-4" cx="506.94" cy="236.04" r="12.06"/><path class="cls-8" d="M548.29,306.05a12.43,12.43,0,1,1,12.43-12.43A12.44,12.44,0,0,1,548.29,306.05Zm0-24.11A11.68,11.68,0,1,0,560,293.62,11.69,11.69,0,0,0,548.29,281.94Z" transform="translate(-41.35 -57.58)"/><circle class="cls-8" cx="506.94" cy="236.04" r="8.78"/><path class="cls-9" d="M548.29,302.9a9.28,9.28,0,1,1,9.28-9.28A9.29,9.29,0,0,1,548.29,302.9Zm0-17.56a8.28,8.28,0,1,0,8.28,8.28A8.28,8.28,0,0,0,548.29,285.34Z" transform="translate(-41.35 -57.58)"/><path class="cls-9" d="M548.46,297.37a1.41,1.41,0,0,1-1-.42l-3.71-3.71a1.42,1.42,0,0,1,2-2l2.71,2.72,8-8a1.41,1.41,0,0,1,2,2l-9,9A1.39,1.39,0,0,1,548.46,297.37Z" transform="translate(-41.35 -57.58)"/></g></svg>