<svg width="512" height="512" viewBox="0 0 512 512" fill="none" xmlns="http://www.w3.org/2000/svg">
<path d="M15 420H181V482H136C127.716 482 121 488.716 121 497C121 505.284 127.716 512 136 512H376C384.284 512 391 505.284 391 497C391 488.716 384.284 482 376 482H331V420H497C505.284 420 512 413.284 512 405V75C512 66.716 505.284 60 497 60H452V15C452 6.716 445.284 0 437 0H75C66.716 0 60 6.716 60 15V60H15C6.716 60 0 66.716 0 75V405C0 413.284 6.716 420 15 420ZM301 482H211V420H301V482ZM90 30H422V120H90V30ZM90 150H422V330H90V150ZM30 90H60V345C60 353.284 66.716 360 75 360H437C445.284 360 452 353.284 452 345V90H482V390H30V90Z" fill="black"/>
<path d="M136 90C144.284 90 151 83.2843 151 75C151 66.7157 144.284 60 136 60C127.716 60 121 66.7157 121 75C121 83.2843 127.716 90 136 90Z" fill="black"/>
<path d="M196 90C204.284 90 211 83.2843 211 75C211 66.7157 204.284 60 196 60C187.716 60 181 66.7157 181 75C181 83.2843 187.716 90 196 90Z" fill="black"/>
<path d="M256 90C264.284 90 271 83.2843 271 75C271 66.7157 264.284 60 256 60C247.716 60 241 66.7157 241 75C241 83.2843 247.716 90 256 90Z" fill="black"/>
<path d="M208 186.001C203.03 179.374 193.629 178.03 187 183.001L127 228.001C123.223 230.834 121 235.28 121 240.001C121 244.722 123.223 249.168 127 252.001L187 297.001C193.597 301.949 203.006 300.659 208 294.001C212.971 287.374 211.627 277.972 205 273.001L161 240.001L205 207.001C211.627 202.03 212.971 192.628 208 186.001Z" fill="black"/>
<path d="M385.001 228.001L325.001 183.001C318.374 178.03 308.972 179.375 304.001 186.001C299.03 192.628 300.374 202.03 307.001 207.001L351.001 240.001L307.001 273.001C300.374 277.972 299.03 287.374 304.001 294.001C308.997 300.662 318.404 301.948 325.001 297.001L385.001 252.001C388.778 249.168 391.001 244.722 391.001 240.001C391.001 235.28 388.778 230.834 385.001 228.001Z" fill="black"/>
<path d="M275.742 180.774C267.883 178.155 259.388 182.402 256.768 190.261L226.768 280.26C224.148 288.119 228.396 296.614 236.255 299.234C244.114 301.854 252.609 297.606 255.229 289.747L285.229 199.748C287.849 191.888 283.602 183.394 275.742 180.774Z" fill="black"/>
</svg>
