<svg width="51" height="44" viewBox="0 0 51 44" fill="none" xmlns="http://www.w3.org/2000/svg">
<path d="M50.1101 36.666V0H0V36.6659H18.333V40.3325H14.0553V43.9991H36.0548V40.3325H31.7772V36.6659H50.1101V36.666ZM28.1105 40.3326H21.9995V36.666H28.1105V40.3326ZM3.66656 32.9994V3.66665H46.4435V32.9994H3.66656Z" fill="black"/>
<path d="M33.073 11.5391L30.4805 14.1316L34.684 18.3353L30.4805 22.5388L33.073 25.1313L39.8693 18.3353L33.073 11.5391Z" fill="black"/>
<path d="M19.629 14.1316L17.0365 11.5391L10.2402 18.3353L17.0365 25.1313L19.629 22.5388L15.4255 18.3353L19.629 14.1316Z" fill="black"/>
<path d="M25.3684 7.94531L20.9941 28.7227H24.7414L29.1156 7.94531H25.3684Z" fill="black"/>
</svg>
