<?xml version="1.0" encoding="utf-8"?>
<!-- Generator: Adobe Illustrator 27.5.0, SVG Export Plug-In . SVG Version: 6.00 Build 0)  -->
<svg version="1.1" id="Layer_1" xmlns="http://www.w3.org/2000/svg" xmlns:xlink="http://www.w3.org/1999/xlink" x="0px" y="0px"
	 viewBox="0 0 1032 1032" style="enable-background:new 0 0 1032 1032;" xml:space="preserve">
<path style="fill:#FEFEFE;" d="M0,0h1031.997v1031.997H0V0z"/>
<path style="fill:#B6BCDB;" d="M425.68,524.237l1.031,0.918c0.593,3.023,0.364,5.793-0.331,8.78l-0.944-0.883
	C424.889,530.118,425.155,527.156,425.68,524.237z"/>
<path style="fill:#B6BCDB;" d="M441.027,375.158l0.722,0.676c0.705,2.804,0.519,5.394-0.057,8.206l-1.246-0.79
	C439.224,380.638,440.319,377.784,441.027,375.158z"/>
<path style="fill:#B6BCDB;" d="M424.772,538.759c0.843,0.112,1.339,0.267,2.072,0.698c0.872,2.256,0.358,4.735,0.136,7.094
	c-0.914,0.008-0.42,0.106-1.428-0.495C424.789,543.746,424.882,541.176,424.772,538.759z"/>
<path style="fill:#82ADF4;" d="M257.374,324.13c0.842,0.305,1.113,0.477,1.772,1.029c0.893,2.514,0.474,4.752,0.045,7.331
	c-1.073-0.371-0.993-0.414-1.682-1.2C256.99,328.849,257.206,326.591,257.374,324.13z"/>
<path style="fill:#5C86E7;" d="M479.132,580.155c0.128,1.738,0.267,3.454,0.217,5.196l-2.088,1.838
	c-0.647-1.613-1.404-3.186-2.128-4.767C476.799,581.925,477.785,581.24,479.132,580.155z"/>
<path style="fill:#B6BCDB;" d="M419.324,534.083c0.222,0.029,0.447,0.034,0.664,0.086c1.358,0.327,2.938,1.048,3.789,2.161
	c-0.744,0.884-1.278,0.638-2.387,0.753c-1.873,0.058-4.378,0.391-5.947-0.69C416.285,535.09,417.948,534.663,419.324,534.083z"/>
<path style="fill:#EBEAEB;" d="M809.308,499.361c6.83,4.569,12.212,14.777,15.019,22.346c-3.8-5.302-13.839-17.521-16.066-22.218
	L809.308,499.361z"/>
<path style="fill:#EBEAEB;" d="M796.779,305.368c0.264,1.373,0.574,2.086,0.1,3.42c-0.281,0.063-0.563,0.121-0.844,0.186
	c-0.947,0.222-1.55,0.583-2.336,1.162c-0.69-0.242-0.416-0.238-1.104-0.146c-1.521,0.205-2.595,0.249-4.125,0.037
	c-1.16-0.763-1.25-0.527-2.569-0.418c-2.063,1.175-2.926,2.915-4.251,4.796c-0.052,0.075-0.12,0.136-0.18,0.205
	c-0.08-1.432-0.169-2.867,0.145-4.279c0.434-1.95,1.372-2.967,3.036-3.994c2.51,0.941,7.662,0.86,10.183,0.157L796.779,305.368z"/>
<path style="fill:#77B4C8;" d="M500.43,110.665c0.429,0.364,0.824,0.89,1.199,1.313c0.167,1.518,0.391,2.945,0.803,4.418
	l0.188,0.649c0.601,2.108,1.939,3.537,3.326,5.171c2.324,0.053,5.09-0.184,7.255,0.706l-0.02,0.561
	c-1.443,0.67-3.153,0.541-4.719,0.659c-3.011,0.228-3.636,0.912-5.587,3.214l-0.475,0.567c0.001,1.032-0.003,2.064-0.014,3.095
	c-0.003,1.123,0.109,2.07-0.435,3.098c-0.405,0.765-1.056,0.706-1.828,0.934c-0.56-2.278-0.667-4.562-0.83-6.894
	c-1.252-1.366-2.617-2.634-3.944-3.927l-3.23,0.007c-1.585,0.016-2.556-0.106-4.032-0.683l0.089-0.67
	c2.144-0.988,4.378-0.871,6.696-0.943C499.949,118.634,498.927,116.008,500.43,110.665z"/>
<path style="fill:#FEFEFE;" d="M501.24,117.394c1.188,2.057,2.63,3.994,3.98,5.95c-1.699,1.681-3.225,3.352-4.702,5.234
	c-1.313-2.038-3.052-3.668-4.744-5.388C497.752,121.334,499.576,119.546,501.24,117.394z"/>
<path style="fill:#EC5E4E;" d="M918.59,544.779c1.006,0.015,2.084-0.009,3.068,0.225c1.864,0.445,3.601,1.996,4.44,3.688
	c0.87,1.751,0.927,3.767,0.303,5.608c-0.902,2.662-2.766,3.973-5.212,5.114c-0.936-0.018-1.901-0.022-2.827-0.164
	c-1.754-0.269-3.472-1.669-4.395-3.15c-1.091-1.752-1.263-3.826-0.711-5.792C914.075,547.387,916.037,546.121,918.59,544.779z"/>
<path style="fill:#EBEAEB;" d="M657.022,516.542c1.191-0.034,2.428-0.103,3.613,0.036c1.911,0.223,3.848,1.577,4.928,3.129
	c1.145,1.644,1.501,3.601,1.061,5.551c-0.626,2.781-2.414,4.629-4.701,6.175c-0.828,0.027-1.685,0.058-2.508-0.053
	c-1.967-0.267-4.044-1.535-5.233-3.111c-0.164-0.222-0.315-0.452-0.455-0.69c-0.14-0.238-0.266-0.483-0.379-0.735
	c-0.113-0.252-0.212-0.509-0.297-0.771c-0.085-0.263-0.157-0.529-0.214-0.799c-0.056-0.27-0.098-0.542-0.126-0.816
	c-0.028-0.275-0.041-0.55-0.039-0.826c0.002-0.275,0.019-0.55,0.05-0.824c0.032-0.274,0.078-0.546,0.138-0.815
	C653.435,519.347,654.84,517.995,657.022,516.542z"/>
<path style="fill:#EC5E4E;" d="M110.296,261.546c1.183-0.021,2.501,0.02,3.654,0.302c2.016,0.493,3.9,1.885,4.997,3.637
	c1.04,1.665,1.357,3.662,0.806,5.556c-0.85,2.925-2.826,4.22-5.357,5.637c-1.052,0.097-2.128,0.143-3.177-0.036
	c-1.981-0.341-3.986-1.75-5.089-3.413c-0.15-0.224-0.289-0.455-0.414-0.694c-0.126-0.239-0.238-0.483-0.337-0.735
	c-0.099-0.251-0.183-0.506-0.254-0.767c-0.071-0.261-0.127-0.524-0.169-0.79c-0.042-0.267-0.069-0.535-0.082-0.804
	c-0.013-0.269-0.011-0.539,0.006-0.808c0.016-0.269,0.047-0.537,0.094-0.802c0.046-0.266,0.106-0.529,0.18-0.788
	C105.929,264.268,107.885,262.858,110.296,261.546z"/>
<path style="fill:#D7D5E5;" d="M868.393,355.411c3.775,0.428,17.24,6.461,19.802,9.198l-0.296,0.943
	c-2.152,1.629-4.858,2.374-7.374,3.29c-3.513,1.375-6.786,4.598-9.764,5.385c-0.612-0.189-1.14-0.153-1.455-0.77
	C868.024,370.949,867.781,358.041,868.393,355.411z"/>
<path style="fill:#FEFEFE;" d="M871.669,360.39c3.33,0.682,7.35,1.836,10.104,3.88l0.007,0.773l-1.617,0.645l-7.738,3.397
	C871.87,366.161,871.751,363.356,871.669,360.39z"/>
<path style="fill:#D7D5E5;" d="M791.991,296.405c19.718-18.788,36.204-36.527,65.496-38.16l-2.36,2.264
	c-23.539,4.154-46.44,21.289-61.199,39.436c1.074,1.774,2.123,3.47,2.852,5.424l-1.945,1.127
	C794.104,303.446,791.937,299.408,791.991,296.405z"/>
<path style="fill:#F99879;" d="M529.286,202.075c1.78-0.087,3.308,0.023,4.952,0.729c3.685,1.579,5.261,4.638,6.67,8.175
	c-0.371,1.547-0.792,3.084-1.448,4.539c-1.442,3.201-3.84,4.534-6.997,5.727c-1.591-0.033-2.938-0.177-4.447-0.721
	c-2.572-0.924-4.832-2.817-5.962-5.334c-1.091-2.431-1.025-5.07,0.076-7.483C523.597,204.491,526.144,203.297,529.286,202.075z"/>
<path style="fill:#FEFEFE;" d="M529.089,205.992c0.216-0.001,0.431-0.01,0.647-0.003c2.073,0.074,3.72,0.623,5.082,2.237
	c1.063,1.262,1.518,2.814,1.247,4.446c-0.366,2.202-1.554,3.148-3.279,4.351c-0.451,0.019-0.903,0.047-1.354,0.034
	c-1.925-0.054-3.96-0.743-5.15-2.34c-0.832-1.118-1.004-2.43-0.843-3.778C525.712,208.662,527.407,207.312,529.089,205.992z"/>
<path style="fill:#F99879;" d="M529.43,208.762c1.607,0.478,2.364,0.744,3.281,2.126c-0.217,1.706-0.78,2.205-1.795,3.561
	c-1.035-0.706-1.668-1.374-2.46-2.322C528.304,210.463,528.635,210.181,529.43,208.762z"/>
<path style="fill:#1F439A;" d="M788.663,239.462c0.566-3.648,0.609-8.188,1.657-11.646c0.662,1.53,0.762,2.884,0.947,4.52
	l0.468-0.446c1.321,7.145,0.345,15.961,0.341,23.326c-0.007,13.687,0.408,27.52-0.085,41.19c-0.053,3.003,2.113,7.041,2.843,10.09
	c-2.521,0.702-7.672,0.784-10.183-0.157c1.249-3.208,2.823-6.277,3.43-9.686c1.173-6.599,0.567-13.904,0.548-20.615
	C788.516,263.845,788.527,251.653,788.663,239.462z"/>
<path style="fill:#4371DB;" d="M573.428,97.215c3.769,3.351,8.173,8.368,12.486,10.854c0.583,8.406,0.205,17.025,0.178,25.456
	c-0.023,7.709,0.284,15.58-0.138,23.269c-0.415-4.428-0.88-8.881-0.904-13.332c-0.02-3.632,0.454-7.511,0.029-11.099
	c-0.173,0.046-0.345,0.103-0.52,0.14c-1.338,0.283-2.697,0.11-4.055,0.293c-2.136,0.287-4.295,0.987-6.401,1.473
	c-0.264,8.749,0.355,18.071-1.092,26.714C572.612,139.76,573.22,118.444,573.428,97.215z"/>
<path style="fill:#4371DB;" d="M106.991,667.969c11.15,2.833,21.935,7.64,33.061,10.768c3.384,9.034,5.99,18.876,8.122,28.286
	c-6.633-5.315-13.589-10.197-20.326-15.377c-6.426-4.941-15.986-11.715-19.779-18.908
	C107.326,671.327,107.194,669.532,106.991,667.969z"/>
<path style="fill:#2A54CB;" d="M314.914,210.8c0.858-0.949,2.546-1.764,3.704-2.273c2.591-1.139,5.206-1.75,8.018-1.935
	c7.305-0.481,14.783-0.209,22.104-0.223l38.513-0.074c23.847-0.043,49.846-1.043,73.385,0.291c2.457,0.139,4.553,0.467,6.842,1.406
	c5.636,2.093,9.857,6.227,12.424,11.654c1.495,3.158,1.947,6.349,2.179,9.791c0.816,12.078-0.187,24.659-0.291,36.785
	c-0.046,23.702-0.262,47.403-0.647,71.102c-0.372,1.564-0.426,2.978-1.006,4.521l-0.455-0.078
	c-0.965-5.217-0.139-10.949-0.528-16.284l-0.049-0.618c-0.579-7.772-0.019-15.972,0.015-23.78l0.316-48.359
	c0.097-9.146,1.091-19.562-0.726-28.542c-1.125-5.564-4.353-9.389-9.032-12.391l-2.08-1.365c-9.066-2.691-24.558-1.349-34.388-1.361
	l-45.206-0.031l-40.016,0.03c-7.145,0.011-14.545-0.351-21.664,0.167c-2.907,0.212-5.511,1.1-8.063,2.488
	c-1.848,1.005-3.574,2.157-5.287,3.378c-0.438-0.363-0.189-0.105-0.604-0.89C313.271,213.098,314.099,211.975,314.914,210.8z"/>
<path style="fill:#4371DB;" d="M304.434,256.195c-0.55-7.138-0.994-24.634,0.442-31.215c1.33-6.094,4.758-10.885,10.038-14.181
	c-0.815,1.175-1.644,2.299-2.541,3.412c0.414,0.785,0.165,0.527,0.604,0.89c-3.803,4.917-6.02,9.454-6.289,15.825
	c0.429,8.724,0.2,17.548,0.229,26.284l0.144,45.177c0.028,8.979-1.066,21.178,0.918,29.622c0.866,3.681,3.091,6.888,5.843,9.43
	c2.607,2.408,5.785,4.341,9.265,5.145c6.387,1.476,14.166,0.676,20.744,0.66l36.209-0.087c4.967,2.813,9.355,6.885,13.945,10.283
	c1.293,0.887,4.762,4.042,6.053,3.813l0.035-0.049c-0.378-4.639-0.259-9.37-0.312-14.024l11.143,0.042
	c22.555-0.641,45.358,0.929,67.857-0.455c0.05-7.294-0.024-14.617,0.347-21.901l0.049,0.618c0.389,5.335-0.437,11.067,0.528,16.284
	l0.455,0.078c0.579-1.543,0.634-2.957,1.006-4.521c0.069,2.48,0.895,10.299-0.613,11.9c-15.983,1.449-33.182,0.422-49.268,0.406
	c-7.973-0.008-21.261,0.907-28.732-0.328l-0.067,6.602c0.07,2.593,0.647,6.999-0.949,9.171c-0.405,0.55-0.789,0.397-1.407,0.449
	c-0.925-0.714-1.859-1.379-2.62-2.276c-6.213-4.156-12.05-9.066-18.043-13.553c-12.195-0.221-24.424-0.023-36.623-0.019
	c-6.704,0.002-14.156,0.658-20.702-0.816c-0.521-0.122-1.036-0.263-1.547-0.423c-0.511-0.159-1.016-0.337-1.514-0.533
	c-0.498-0.195-0.988-0.409-1.47-0.64c-0.482-0.231-0.956-0.479-1.421-0.745c-0.465-0.265-0.919-0.547-1.364-0.846
	c-0.444-0.298-0.877-0.611-1.299-0.94c-0.422-0.329-0.831-0.673-1.229-1.032c-0.397-0.359-0.781-0.731-1.151-1.118
	c-2.755-2.829-4.809-6.4-5.652-10.27c-1.996-9.174-1.003-19.964-1.032-29.334C304.345,287.386,304.342,271.79,304.434,256.195z"/>
<path style="fill:#F99879;" d="M752.394,457.044c-0.008,2.784-0.571,6.927,0.639,9.468l-0.144,0.383
	c1.042,5.891,4.051,26.099,0.9,30.645c-2.944,4.248-7.657,7.271-12.795,7.973c-3.391,0.463-7.098-0.058-9.801-2.301
	c-3.452-2.861-3.956-6.645-4.205-10.836c-0.134-2.327-0.253-4.654-0.355-6.982c-0.02-4.87-0.407-10.045,0.277-14.864
	c1.416,0.145,2.855-0.031,4.258-0.234C739.968,469.022,747.223,464.144,752.394,457.044z"/>
<path style="fill:#EC5E4E;" d="M752.394,457.044c-0.008,2.784-0.571,6.927,0.639,9.468l-0.144,0.383
	c-5.855,5.888-17.623,16.291-25.534,19.048l-0.722-0.548c-0.02-4.87-0.407-10.045,0.277-14.864c1.416,0.145,2.855-0.031,4.258-0.234
	C739.968,469.022,747.223,464.144,752.394,457.044z"/>
<path style="fill:#4371DB;" d="M824.866,521.622c2.657-1.929,5.203-3.749,8.336-4.854c8.093-2.853,20.692-1.446,29.452-1.377
	c-0.05,0.173-0.086,0.352-0.15,0.52c-0.336,0.882-0.808,1.433-1.361,2.183c-7.177,9.748-9.745,36.625-11.544,48.853
	c-0.475,3.226-0.567,8.185-2.312,10.963c-3.249-12.774-7.152-25.184-12.818-37.123C831.45,534.429,827.067,528.288,824.866,521.622z
	"/>
<path style="fill:#82ADF4;" d="M410.626,437.969c3.666-0.224,6.957-0.361,10.468,1.002c4.599,1.786,8.013,5.464,9.92,9.969
	c2.061,4.868,2.288,10.539,0.055,15.388c-2.524,5.48-6.963,8.09-12.343,10.162c-4.852,0.546-9.066,0.461-13.443-2.061
	c-0.263-0.151-0.523-0.309-0.779-0.474c-0.255-0.164-0.507-0.334-0.754-0.511c-0.247-0.177-0.49-0.361-0.728-0.55
	c-0.238-0.189-0.471-0.384-0.698-0.585c-0.228-0.202-0.45-0.409-0.668-0.621c-0.218-0.212-0.43-0.429-0.636-0.652
	c-0.206-0.223-0.407-0.451-0.602-0.684c-0.196-0.233-0.385-0.471-0.567-0.714c-0.183-0.243-0.359-0.491-0.53-0.742
	c-0.17-0.252-0.334-0.508-0.492-0.768c-0.157-0.259-0.308-0.523-0.453-0.791c-0.144-0.267-0.281-0.538-0.412-0.812
	c-0.13-0.275-0.254-0.553-0.37-0.833c-0.116-0.28-0.225-0.563-0.328-0.85c-0.102-0.286-0.197-0.575-0.285-0.867
	c-0.087-0.291-0.167-0.584-0.24-0.879c-1.245-5.034-0.378-10.833,2.309-15.268C401.761,441.355,405.703,439.251,410.626,437.969z"/>
<path style="fill:#B6BCDB;" d="M652.47,264.939c16.876-0.305,33.753-0.445,50.631-0.421c8.441-0.02,17.381-0.612,25.772,0.097
	c1.213,0.102,2.225,0.197,3.176,1.042c1.059,0.943,1.828,2.525,2.495,3.752c-1.021,6.96-2.54,13.833-3.634,20.782
	c-3.647,24.398-7.447,48.773-11.399,73.124l-3.919,24.308c-0.644,3.99-1.774,8.412-1.828,12.426
	c-1.773,2.335-3.388,4.637-4.869,7.171c-1.454-9.47,6.326-48.742,8.269-60.695c3.387-20.829,6.212-41.663,10.263-62.388
	c0.667-3.122,1.35-6.24,2.05-9.354c-1.37-1.501-2.648-3.096-3.956-4.651c-13.013-0.301-26.076-0.027-39.092,0.017
	c-6.523,0.022-13.128,0.264-19.631-0.247C662.905,269.291,655.388,267.51,652.47,264.939z"/>
<path style="fill:#1F439A;" d="M573.428,97.215c-0.049-1.419-0.031-2.531,0.277-3.934c4.328-1.139,16.931-0.223,22.297-0.211
	l55.089-0.017c2.388,4.107,4.913,7.98,7.716,11.817l-0.288,0.081l-4.281-4.257c-1.879-1.899-2.484-5.578-4.334-6.936
	c-0.236,3.532,2.659,10.002,4.663,12.962l5.865-0.036c-1.203,0.856-2.156,0.946-3.571,1.105l-48.736-0.027
	c-7.007-0.001-15.338-0.866-22.212,0.308C581.601,105.582,577.197,100.566,573.428,97.215z"/>
<path style="fill:#127498;" d="M145.085,745.678l0.816-0.979c5.203,3.373,12.698,25.039,14.182,31.793
	c0.467,2.125,0.896,4.376,1.072,6.545c1.023,17.89,5.151,35.761,4.593,53.795l-0.794-0.051c-0.881-5.617-0.969-11.44-1.347-17.111
	c-0.505-8.784-1.278-17.544-2.32-26.281c-3.72,11.628-4.466,17.073-14.789,25.221c-2.199-4.644-4.826-9.112-7.314-13.607
	C140.52,785.138,143.607,765.486,145.085,745.678z"/>
<path style="fill:#F9A499;" d="M334.111,401.491c4.386,12.081,12.294,37.073,6.888,48.992c-2.416,5.325-6.689,8.187-11.913,10.384
	l-0.042,15.874c-10.111-0.034-20.222-0.007-30.333,0.083c-5.496,0.094-11.284,0.728-16.74,0.297
	c2.144-0.245,4.336-0.253,6.491-0.343c0.108-7.514,0.107-15.029-0.004-22.543c3.486,2.12,6.69,3.796,10.89,3.91
	c5.791,0.157,11.406-2.8,15.38-6.872c5.223-5.353,6.465-10.955,6.232-18.138c-2.155-0.649-4.495-1.201-6.265-2.666
	c-1.752-1.45-3.075-3.555-3.167-5.872c-0.061-1.546,0.482-3.124,1.605-4.212c1.15-1.115,2.588-1.604,4.185-1.491
	c4.186,0.299,6.485,3.486,8.906,6.476C329.559,417.638,332.539,409.79,334.111,401.491z"/>
<path style="fill:#127498;" d="M60.467,749.221c-3.272-10.099-11.014-39.871-6.823-48.285c0.548-1.101,1.377-1.591,2.529-1.881
	c8.383-2.098,28.863,4.927,37.454,8.29c-0.673,8.535-0.171,17.228,0.083,25.778l0.065,13.028
	c-6.234-7.153-30.292-36.186-36.015-39.465c0.629,0.566,0.814,0.804,1.242,1.468c2.502,3.885,6.904,7.69,10.039,11.199
	c8.841,9.889,17.541,19.901,26.098,30.037c3.721,4.385,8.28,8.892,11.177,13.813c-5.457-2.407-11.897-3.578-17.669-5.215
	C79.187,755.278,69.794,752.355,60.467,749.221z"/>
<path style="fill:#4371DB;" d="M781.47,314.611c0.06-0.069,0.128-0.13,0.18-0.205c1.325-1.882,2.188-3.621,4.251-4.796
	c1.319-0.109,1.409-0.345,2.569,0.418c1.53,0.212,2.604,0.167,4.125-0.037c0.687-0.092,0.413-0.096,1.104,0.146l2.008,1.718
	c-0.011,0.161-0.028,0.323-0.033,0.485c-0.022,0.727-0.011,1.866,0.558,2.389c1.785,1.644,6.292,2.926,8.644,4.132
	c1.457-1.187,2.014-1.893,3.899-2.186c2.393,0.65,4.248,3.02,5.987,4.719l-3.199,3.126l0.01,0.006
	c1.446,3.756,2.628,7.522,3.733,11.392l5.551,0.342c-0.553,2.422-1.122,4.814-1.393,7.288l-4.998-0.359
	c-0.847,2.014-4.435,7.866-3.743,9.632c0.436,1.116,1.522,2.015,2.347,2.861c-1.545,2.053-3.213,3.75-5.073,5.502
	c-1.178-1.424-2.205-2.875-3.203-4.431c-3.448,1.95-6.762,3.212-10.574,4.3l0.282,5.603l-7.235,0.048l0.35-5.4
	c-4.042-1.056-7.515-2.231-11.092-4.484c-1.04,1.569-2.029,3.216-3.218,4.675c-1.948-1.456-3.918-2.854-5.66-4.558l4.172-3.751
	c-2.408-3.127-4.323-6.356-5.781-10.036c-1.705,0.201-3.112,0.556-4.663-0.38c-1.261-1.667-1.105-3.628-0.833-5.601
	c4.087-2.591,4.51,2.917,6.352-5.384c0.901-4.061,0.895-10.99,3.901-13.894c1.511-0.511,1.802-0.576,3.359-0.275l2.081,1.862
	c1.745-1.198,4.018-2.414,5.413-3.994L781.47,314.611z"/>
<path style="fill:#FEFEFE;" d="M781.47,314.611c0.06-0.069,0.128-0.13,0.18-0.205c1.325-1.882,2.188-3.621,4.251-4.796
	c1.319-0.109,1.409-0.345,2.569,0.418c-0.385,1.543-0.557,3.444-1.824,4.51c-1.615,0.354-3.457,0.431-4.997,0.948L781.47,314.611z"
	/>
<path style="fill:#FEFEFE;" d="M787.725,327.077c2.378-0.117,4.478-0.099,6.638,1.028c0.331,0.173,0.652,0.362,0.964,0.567
	c0.311,0.206,0.611,0.427,0.9,0.663c0.289,0.236,0.565,0.486,0.828,0.751c0.263,0.265,0.512,0.542,0.747,0.831
	c0.235,0.29,0.455,0.592,0.658,0.904c0.204,0.312,0.392,0.634,0.562,0.965c0.171,0.332,0.325,0.672,0.462,1.019
	s0.255,0.701,0.355,1.06c0.093,0.32,0.17,0.645,0.231,0.974c0.06,0.329,0.105,0.659,0.133,0.992c0.028,0.333,0.04,0.666,0.035,1
	c-0.005,0.334-0.027,0.667-0.064,0.999c-0.038,0.332-0.092,0.661-0.162,0.988c-0.071,0.326-0.157,0.648-0.259,0.966
	c-0.102,0.318-0.22,0.631-0.354,0.936c-0.133,0.306-0.281,0.605-0.443,0.897c-1.596,2.805-3.956,4.126-6.956,5.03
	c-1.639,0.061-3.516,0.02-5.099-0.43c-2.717-0.774-5.143-2.802-6.354-5.351c-0.14-0.296-0.265-0.597-0.375-0.905
	c-0.11-0.308-0.205-0.62-0.283-0.937c-0.079-0.317-0.141-0.638-0.187-0.961c-0.047-0.323-0.078-0.648-0.092-0.975
	c-0.014-0.327-0.012-0.653,0.006-0.98c0.019-0.327,0.054-0.651,0.105-0.974c0.051-0.323,0.118-0.643,0.201-0.958
	c0.083-0.316,0.181-0.628,0.295-0.934C781.585,330.453,784.243,328.746,787.725,327.077z"/>
<path style="fill:#127498;" d="M60.959,750.395c7.159,2.327,39.927,13.399,45.356,12.808c7.273,8.005,13.988,16.453,20.144,25.345
	c-11.511-1.304-22.973-2.977-34.495-4.261c-3.858-0.43-8.463-1.445-12.308-1.084c0.547,0.841,1.326,0.779,2.289,0.978
	c4.611,0.953,9.723,0.939,14.422,1.442c10.212,1.093,20.662,2.295,30.765,4.163c8.93,12.112,17.923,25.21,22.414,39.694
	c0.59,1.904,1.558,4.337,1.387,6.322l-0.544-0.172l-0.743-1.772c-1.548-4.711-3.125-9.315-5.121-13.862
	c-21.787-0.768-40.169-6.67-55.268-23.016C76.974,783.679,67.567,767.201,60.959,750.395z"/>
<path style="fill:#127498;" d="M94.516,707.965c5.183,1.878,10.191,4.208,15.224,6.448c6.721,3.441,33.515,21.361,34.985,29.169
	c0.134,0.706-0.118,1.555-0.272,2.241c-2.834,19.325-4.445,38.784-6.456,58.199c-5.716-10.756-14.094-20.839-21.315-30.668
	c0.466-9.115,1.308-18.195,2.527-27.24c0.716-5.307,2.848-12.253,2.392-17.519c-0.028-0.326-0.142-0.638-0.214-0.957l0.239-0.075
	l-0.003,0.784l-0.2-0.834l0.209,0.227c-1.803,2.611-5.811,38.804-6.049,44.447c-7.367-7.938-14.348-16.805-20.987-25.375
	C94.861,733.864,94.216,720.914,94.516,707.965z"/>
<path style="fill:#5C86E7;" d="M106.28,672.714c8.623,10.719,19.496,18.812,30.495,26.89c3.332,2.447,8.653,5.529,11.332,8.613
	c1.639,1.887,1.9,4.742,3.68,6.483c0.425,1.165,1.134,2.528,1.145,3.763c6.477,16.46,12.338,37.554,15.804,54.929
	c7.1-12.371,8.713-31.33,8.021-45.503c-0.303-6.207-1.329-12.234-1.957-18.393l0.708-0.365c2.8,20.333,4.536,47.438-6.491,65.797
	c2.695,14.786,2.683,29.31,3.234,44.27c0.193,5.251-0.398,12.51,1.041,17.478c-2.17,0.755-5.317,0.54-7.543,0.154
	c0.558-18.034-3.57-35.905-4.593-53.795c-0.176-2.169-0.606-4.42-1.072-6.545c-1.484-6.754-8.979-28.42-14.182-31.793l-0.816,0.979
	l-0.633,0.146c0.154-0.686,0.406-1.535,0.272-2.241c-1.47-7.809-28.264-25.728-34.985-29.169c-0.248-2.186-1.293-4.725-1.926-6.858
	C105.345,695.639,102.735,684.719,106.28,672.714z"/>
<path style="fill:#FEFEFE;" d="M111.969,707.716c15.528,6.842,29.895,17.422,44.757,25.65c-1.054-4.346-4.253-10.632-3.794-14.903
	c6.477,16.46,12.338,37.554,15.804,54.929c7.1-12.371,8.713-31.33,8.021-45.503c-0.303-6.207-1.329-12.234-1.957-18.393l0.708-0.365
	c2.8,20.333,4.536,47.438-6.491,65.797c2.695,14.786,2.683,29.31,3.234,44.27c0.193,5.251-0.398,12.51,1.041,17.478
	c-2.17,0.755-5.317,0.54-7.543,0.154c0.558-18.034-3.57-35.905-4.593-53.795c2.756,2.073,5.767,3.075,8.987,4.17
	c-2.494-17.854-7.149-35.713-13.242-52.672c-9.211-5.206-18.336-10.579-27.482-15.901
	C123.71,715.312,116.872,712.098,111.969,707.716z"/>
<path style="fill:#4371DB;" d="M115.285,616.204c1.16-0.008,2.283,0.057,3.416,0.334c19.265,4.685,38.692,28.301,48.794,44.386
	c-7.465,16.485-11.858,33.352-16.54,50.76c-2.324-6.31-3.813-13.093-5.726-19.552c-2.818-9.503-6.045-18.808-9.452-28.113
	c-2.292-6.534-11.218-32.226-14.539-36.512l-0.29,0.591c1.947,6.628,5.178,12.967,7.684,19.412
	c3.843,9.889,7.207,20.063,10.909,30.024c-11.053-3.726-22.139-7.353-33.257-10.881c-2.614-9.044-3.185-17.889-1.634-27.19
	C105.998,631.378,108.27,621.244,115.285,616.204z"/>
<path style="fill:#5C86E7;" d="M849.259,807.269c0.461,0.219,1.197,0.464,1.555,0.817c2.487-0.686,12.442,3.837,15.753,4.737
	l0.666,0.772l0.777-0.32c0.604,0.959,0.559,1.366,0.62,2.47c-0.497,7.109-1.164,14.202-2,21.279l9.162-0.016
	c2.877-8.934,6.923-18.359,11.034-26.794l1.06-0.31c-2.731,8.981-6.604,18.531-10.467,27.091l45.633,0.068
	c0.022,7.837,0.255,15.758-0.218,23.58c-3.047,0.249-6.005,0.515-9.06,0.249c-0.552,3.972-1.032,7.968-1.673,11.925l-60.756-0.012
	l-0.433-0.115c-2.53-3.699-4.461-8.008-6.444-12.023c-0.933-2.65-2.559-5.318-3.755-7.897c-2.451-5.165-4.661-10.432-6.63-15.798
	l19.441,0.038L849.259,807.269z"/>
<path style="fill:#FEFEFE;" d="M850.814,808.086c2.487-0.686,12.442,3.837,15.753,4.737l0.666,0.772
	c-0.128,7.78-1.205,15.682-1.793,23.455l-10.405-0.003C853.972,827.418,852.571,817.613,850.814,808.086z"/>
<path style="fill:#1F439A;" d="M844.468,860.666c15.649,0.092,31.297,0.099,46.945,0.02c7.222-0.01,15.25-0.708,22.361,0.205
	c-0.552,3.972-1.032,7.968-1.673,11.925l-60.756-0.012l-0.433-0.115C848.383,868.99,846.452,864.681,844.468,860.666z"/>
<path style="fill:#F99879;" d="M164.954,836.781l0.794,0.051c2.226,0.386,5.374,0.601,7.543-0.154l0.649-0.037
	c4.11,1.494,34.702,0.335,41.45,0.379c-0.981,5.763-2.324,20.211-5.144,24.587c-0.873,0.456-1.303,0.576-2.289,0.517
	c-1.028,3.901-1.719,7.836-2.409,11.809c-19.623,0.289-39.399-0.493-58.992,0.361l-5.073-0.107
	c-5.711,0.09-11.421,0.034-17.129-0.169l-2.2-12.337c-1.968-0.184-4.078-0.027-6.062-0.025c-0.786-8.108-1.104-16.263-1.398-24.4
	c3.512-0.719,7.859-0.309,11.471-0.288C136.707,837.03,155.054,838.221,164.954,836.781z"/>
<path style="fill:#EC5E4E;" d="M114.696,837.254c6.638,0.635,13.525,0.278,20.193,0.242c1.045,8.139,4.014,16.41,6.618,24.178
	c10.607-0.005,21.539-0.544,32.101,0.111c-9.755,1.16-19.883,0.046-29.693,0.463c-7.126-0.688-14.578-0.357-21.76-0.568
	c-1.968-0.184-4.078-0.027-6.062-0.025C115.308,853.547,114.99,845.391,114.696,837.254z"/>
<path style="fill:#BF2F39;" d="M173.608,861.785c6.429-0.044,29.589-1.11,34.35,0.338c-1.028,3.901-1.719,7.836-2.409,11.809
	c-19.623,0.289-39.399-0.493-58.992,0.361l-5.073-0.107c-5.711,0.09-11.421,0.034-17.129-0.169l-2.2-12.337
	c7.182,0.212,14.633-0.12,21.76,0.568C153.725,861.832,163.854,862.945,173.608,861.785z"/>
<path style="fill:#F99879;" d="M146.558,874.292c19.593-0.854,39.369-0.072,58.992-0.361c-2.539,13.653-5.274,27.267-8.205,40.841
	c-0.776,4.466-2.439,9.99-2.289,14.455c-5.355,1.135-12.321,0.388-17.82,0.372l-41.532-0.3c-0.703-3.162-1.229-6.38-1.823-9.565
	c-2.878-15.277-6.404-30.484-9.526-45.718c5.708,0.203,11.418,0.259,17.129,0.169L146.558,874.292z"/>
<path style="fill:#EC5E4E;" d="M124.356,874.016c5.708,0.203,11.418,0.259,17.129,0.169l5.073,0.107
	c7.82,19.621,18.081,36.037,36.51,47.251c3.535,2.152,9.591,4.38,11.989,7.685c-5.355,1.135-12.321,0.388-17.82,0.372l-41.532-0.3
	c-0.703-3.162-1.229-6.38-1.823-9.565C131.003,904.457,127.478,889.25,124.356,874.016z"/>
<path style="fill:#122E6F;" d="M299.394,386.033c10.8-0.145,23.634-0.294,32.232-7.752c2.335-2.027,3.296-5.687,5.689-7.273
	c1.16,0.944,1.516,2.184,1.978,3.598c3.16,9.654-1.041,18.419-5.182,26.886c-1.572,8.298-4.552,16.147-7.884,23.882
	c-2.421-2.99-4.72-6.177-8.906-6.476c-1.597-0.114-3.036,0.376-4.185,1.491c-1.124,1.087-1.667,2.666-1.605,4.212
	c0.092,2.317,1.415,4.421,3.167,5.872c1.77,1.464,4.11,2.017,6.265,2.666c0.233,7.183-1.009,12.784-6.232,18.138
	c-3.974,4.073-9.589,7.029-15.38,6.872c-4.201-0.114-7.404-1.79-10.89-3.91c-9.089-9.302-17.484-22.88-22.037-35.093
	c-2.26-6.06-3.32-12.75-0.374-18.799c3.449-7.079,9.925-9.693,16.925-12.012c2.377-4.462,6.246-14.22,11.014-16.151
	c0.717,0.104,1.252,0.016,1.793,0.557C298.382,375.34,299.225,382.427,299.394,386.033z"/>
<path style="fill:#5C86E7;" d="M827.25,860.434c5.742,0.234,11.482,0.053,17.218,0.232c1.983,4.015,3.914,8.325,6.444,12.023
	l0.433,0.115l60.756,0.012c-3.074,15.879-4.72,32.02-7.833,47.893l-1.052,6.633c-11.972,0.421-24.303,0.83-36.266,0.256
	c-8.178,0.352-16.494,0.069-24.687,0.097c-0.698-2.794-1.291-5.623-1.924-8.432c-3.254-15.582-6.696-31.122-10.327-46.621
	L827.25,860.434z"/>
<path style="fill:#4371DB;" d="M827.25,860.434c5.742,0.234,11.482,0.053,17.218,0.232c1.983,4.015,3.914,8.325,6.444,12.023
	l0.433,0.115c9.797,21.556,21.701,39.436,40.328,54.397c-7.467-0.049-17.622-1.069-24.724,0.398
	c-8.178,0.352-16.494,0.069-24.687,0.097c-0.698-2.794-1.291-5.623-1.924-8.432c-3.254-15.582-6.696-31.122-10.327-46.621
	L827.25,860.434z"/>
<path style="fill:#122E6F;" d="M827.25,860.434c5.742,0.234,11.482,0.053,17.218,0.232c1.983,4.015,3.914,8.325,6.444,12.023
	c-6.845,0.539-14.031,0.154-20.9-0.047L827.25,860.434z"/>
<path style="fill:#FEFEFE;" d="M825.452,765.708c2.144,1.956,6.635,14.129,8.361,17.723c2.899,6.038,5.694,11.552,9.714,16.929
	c1.657,2.216,4.417,4.629,5.732,6.909l4.264,29.739l-19.441-0.038c1.969,5.367,4.179,10.633,6.63,15.798
	c1.196,2.579,2.822,5.247,3.755,7.897c-5.736-0.178-11.477,0.002-17.218-0.232l2.762,12.208
	c3.631,15.499,7.073,31.039,10.327,46.621c-4.482,1.513-11.366,0.014-16.196,0.134c-8.279-49.924-18.467-99.569-25.129-149.756
	c4.576,0.081,9.18,0.055,13.751,0.259c4.699-0.323,8.046-1.653,12.164-3.862L825.452,765.708z"/>
<path style="fill:#FAB868;" d="M824.93,766.037c3.981,12.526,11.407,26.97,19.269,37.416c-14.357-8.74-23.257-19.065-31.434-33.554
	C817.465,769.577,820.812,768.247,824.93,766.037z"/>
<path style="fill:#2A54CB;" d="M821.38,836.981l12.702-0.011c1.969,5.367,4.179,10.633,6.63,15.798
	c1.196,2.579,2.822,5.247,3.755,7.897c-5.736-0.178-11.477,0.002-17.218-0.232c-2.179-0.309-4.583-0.157-6.794-0.201
	C820.19,852.572,820.99,844.637,821.38,836.981z"/>
<linearGradient id="SVGID_1_" gradientUnits="userSpaceOnUse" x1="919.8937" y1="743.5446" x2="846.6882" y2="744.6458" gradientTransform="matrix(1.0078 0 0 -1.0078 0.9606 1038.0291)">
	<stop  offset="0" style="stop-color:#1E358C"/>
	<stop  offset="1" style="stop-color:#789EFF"/>
</linearGradient>
<path style="fill:url(#SVGID_1_);" d="M893.819,257.8c7.123-0.092,26.918-1.511,32.314,0.918c1.156,2.194,1.559,4.376,1.799,6.825
	c0.513,5.218,0.834,46.439-0.362,49.674c-0.506,1.368-1.529,2.237-2.82,2.831c-0.388,0.079-0.774,0.168-1.167,0.217
	c-4.113,0.513-8.724,0.177-12.878,0.174l-25.094-0.043c-7.969,0-16.291,0.925-24.2,0.294c-1.502-0.119-3.001-0.269-4.211-1.234
	c-1.194-2.018-1.727-3.862-2.024-6.191c-0.89-6.969-0.282-14.73-0.295-21.78c-0.018-9.555-0.549-19.465,0.244-28.977l2.36-2.264
	C869.327,257.131,881.893,257.839,893.819,257.8z"/>
<path style="fill:#FEFEFE;" d="M894.843,289.194c-2.59-2.333-7.272-4.629-9.181-7.375c-0.417-0.601-0.152-1.129-0.062-1.81
	l0.79-0.397c2.992,0.693,6.243,3.812,8.75,5.634c1.543,1.158,3.132,2.277,4.521,3.619c-2.13,1.959-4.314,3.857-6.551,5.694
	c-1.922,1.157-4.11,4.144-6.258,4.581c-0.626,0.128-0.877-0.229-1.367-0.548c0.003-0.28-0.049-0.566,0.009-0.841
	C886.107,294.888,892.469,291.012,894.843,289.194z"/>
<path style="fill:#82ADF4;" d="M203.782,215.881c8.08-0.137,57.903-0.746,62.946,1.087c1.458,0.53,2.411,0.922,3.052,2.39
	c0.799,1.831,1.129,4.27,1.274,6.26c0.473,6.452,0.99,46.566-0.575,49.521c-1.183,2.235-3.052,3.092-5.386,3.711
	c-8.291-0.139-60.512,0.831-64.332-1.332c-1.654-0.938-2.171-2.735-2.598-4.489c-2.022-8.28-0.765-22.304-0.808-31.199
	c-0.032-6.422-0.677-13.135-0.052-19.505c0.134-1.367,0.288-2.76,1.16-3.89C199.782,216.725,201.774,216.237,203.782,215.881z"/>
<path style="fill:#FEFEFE;" d="M232.034,234.906c2.376-0.164,4.893-0.079,7.099,0.906c2.73,1.218,4.808,3.388,5.769,6.232
	c1.399,4.138,0.378,7.755-1.447,11.539c2.086,1.334,4.718,2.933,5.455,5.467c0.383,1.312,0.418,1.976-0.161,3.201l-1.298,0.261
	c-1.905-0.585-2.835-1.685-4.18-3.105c-4.246-3.623-10.096,0.316-15.122-2.336c-2.582-1.363-4.696-4.068-5.491-6.866
	c-0.939-3.305-0.372-6.794,1.385-9.723C225.981,237.25,228.451,235.8,232.034,234.906z"/>
<path style="fill:#82ADF4;" d="M233.413,239.836c0.58,0.006,0.518-0.008,1.21,0.075c2.171,0.257,4.174,1.036,5.489,2.866
	c0.976,1.36,1.173,3.035,0.794,4.64c-0.72,3.051-2.825,4.367-5.367,5.884c-1.267,0.095-2.439,0.154-3.656-0.279
	c-1.605-0.571-2.984-1.675-3.695-3.247c-0.787-1.741-0.682-3.844,0.037-5.59C229.251,241.699,231.046,240.826,233.413,239.836z"/>
<path style="fill:#EC5E4E;" d="M125.73,488.031c7.869-0.002,28.97-1.376,35.213,0.647c0.763,0.744,0.949,0.945,1.272,1.966
	c1.684,5.341,1.706,44.466,1.036,51.858c-0.224,2.459-0.666,4.497-1.767,6.707c-2.873,2.226-29.556,0.961-34.752,0.941
	c-7.411,0.028-31.826,1.311-37.381-1.205c-1.043-1.597-1.454-3.131-1.773-5.009c-1.01-5.949-0.959-42.542-0.115-48.358
	c0.35-2.408,0.901-4.493,2.345-6.47C94.847,486.766,118.843,488.012,125.73,488.031z"/>
<path style="fill:#FEFEFE;" d="M124.601,521.809c-0.945,0.427-1.602,0.703-2.658,0.778c-1.106,0.078-2.212-0.559-3.009-1.316
	c-1.15-1.091-1.924-2.529-1.802-4.159c0.098-1.312,0.831-2.665,1.938-3.399c1.849-1.229,7.761-4.194,9.788-3.705l0.446,0.981
	c-1.148,1.622-4.964,1.999-6.926,2.781c-1.575,0.627-2.284,1.248-2.962,2.785c0.397,1.818,2.454,3.353,3.968,4.331
	c0.243,0.156,0.49,0.304,0.736,0.458L124.601,521.809z"/>
<path style="fill:#D7D5E5;" d="M124.12,521.341c1.62-2.848,2.386-4.44,5.784-5.37c1.783-0.487,3.115-0.424,4.787,0.323
	c0.749,1.005,1.134,1.376,0.831,2.726c-0.529,2.369-4.718,6.788-6.933,7.758c-0.845,0.37-0.879,0.173-1.695-0.099
	c-0.557-1.705,0.025-3.57-1.03-4.941l-1.264,0.071L124.12,521.341z"/>
<path style="fill:#FEFEFE;" d="M175.508,709.132c4.006,1.39,18.915,19.287,20.937,23.635c0.945,2.033,1.225,8.144,0.337,10.158
	c2.152,4.89-0.814,14.443,3.017,17.659c2.816,4.972,6.006,8.936,11.79,10.517c5.597,1.529,12.095,0.825,17.86,0.843
	c2.496-0.04,6.508-0.663,8.713,0.595c-4.07,17.957-7.063,36.195-10.88,54.219c-6.204,29.3-13.068,58.398-18.553,87.856
	c-3.795-0.013-7.59,0.04-11.384,0.16c2.931-13.575,5.666-27.188,8.205-40.841c0.689-3.973,1.381-7.907,2.409-11.809
	c0.986,0.059,1.416-0.061,2.289-0.517c2.82-4.376,4.163-18.824,5.144-24.587c-6.748-0.044-37.34,1.115-41.45-0.379l-0.649,0.037
	c-1.439-4.969-0.848-12.228-1.041-17.478c-0.551-14.96-0.539-29.485-3.234-44.27C180.044,756.57,178.308,729.466,175.508,709.132z"
	/>
<path style="fill:#5C86E7;" d="M175.508,709.132c4.006,1.39,18.915,19.287,20.937,23.635c0.945,2.033,1.225,8.144,0.337,10.158
	c2.152,4.89-0.814,14.443,3.017,17.659c2.816,4.972,6.006,8.936,11.79,10.517c5.597,1.529,12.095,0.825,17.86,0.843
	c-9.672,12.761-19.705,23.957-35.02,29.768c-0.513,10.237-2.703,24.285-5.48,34.067c-1.291-4.503,3.366-28.326,4.255-34.301
	c-8.932-3.444-14.517-8.245-20.821-15.365c0.791,8.021,2.743,45.31,1.558,50.529l-0.649,0.037
	c-1.439-4.969-0.848-12.228-1.041-17.478c-0.551-14.96-0.539-29.485-3.234-44.27C180.044,756.57,178.308,729.466,175.508,709.132z"
	/>
<path style="fill:#122E6F;" d="M713.763,400.049c8.934-6.752,18.493-10.698,29.896-9.104c9.952,1.392,19.102,7.098,25.082,15.123
	c6.568,8.813,8.608,19.292,6.94,30.052c-0.375,2.417-0.803,4.87-1.377,7.248c1.001,1.278,3.773,6.049,4.61,6.694
	c0.29,0.225,1.607,0.447,1.978,0.489c3.967,0.437,8.036,0.03,12.02,0.54c6.886,0.881,14.783,4.928,19.364,10.144
	c4.619,5.258,6.466,12.061,5.837,18.975c-0.68,7.476-4.214,13.415-8.806,19.15l-1.046,0.128
	c-12.969-6.938-28.403-8.038-42.05-13.388c-1.405-11.054-2.412-17.609,3.899-27.472c-1.362-0.935-2.531-1.956-3.739-3.081
	c-4.087,5.225-7.545,7.9-13.339,10.964c-1.21-2.542-0.647-6.685-0.639-9.468c-5.171,7.1-12.425,11.978-21.225,13.253
	c-1.403,0.203-2.842,0.379-4.258,0.234c-2.306-2.289-0.997-3.773-1.837-6.624c-2.582-0.09-5.232-0.111-7.799-0.399
	c-2.139-0.24-3.941-1.628-5.229-3.293c-7.08-9.149-0.383-26.327,0.649-36.819l0.074-0.785l-1.007-1.426l-0.655-0.24
	c-1.518-1.682-2.216-3.556-3.08-5.613c-0.177-2.878,0.11-5.329,0.869-8.111C710.375,404.686,711.991,402.384,713.763,400.049z"/>
<path style="fill:#F99879;" d="M712.768,422.61l0.554,0.493c9.698,8.497,28.876,9.295,31.74,12.43
	c0.355,0.389,0.477,1.724,0.526,2.259c0.409,4.479-0.684,8.977-1.05,13.422c1.156-1.581,2.411-3.192,3.353-4.91
	c2.151-3.915,3.537-10.743,8.744-11.71c1.789-0.332,3.459,0.017,4.893,1.144c1.529,1.2,2.414,3.057,2.586,4.977
	c0.209,2.333-0.507,4.494-2.045,6.25c-2.107,2.409-4.414,3.089-7.456,3.459c-0.451,0.055-0.901,0.127-1.351,0.192
	c-0.27,2.136-0.462,4.314-0.868,6.428c-5.171,7.1-12.425,11.978-21.225,13.253c-1.403,0.203-2.842,0.379-4.258,0.234
	c-2.306-2.289-0.997-3.773-1.837-6.624c-2.582-0.09-5.232-0.111-7.799-0.399c-2.139-0.24-3.941-1.628-5.229-3.293
	c-7.08-9.149-0.383-26.327,0.649-36.819L712.768,422.61z"/>
<path style="fill:#FEFEFE;" d="M714.094,453.867c3.003-1.166,6.314-1.377,9.492-1.761c-1.351,1.751-3.394,4.172-5.842,4.174
	c-1.529,0.001-2.474-0.788-3.346-1.966C714.289,454.17,714.195,454.016,714.094,453.867z"/>
<path style="fill:#F99879;" d="M714.094,453.867c-0.271-0.25-0.614-0.538-0.804-0.853c-0.657-1.081-0.541-1.684-0.396-2.861
	c1.006-1,1.469-1.297,2.898-1.449c2.388-0.254,6.219,0.612,8.131,2.077l-0.338,1.325
	C720.408,452.491,717.097,452.701,714.094,453.867z"/>
<path style="fill:#4371DB;" d="M168.262,610.578c4.663,4.43,8.639,9.707,12.971,14.469c7.682,8.337,15.5,16.544,23.454,24.621
	c8.632,7.234,16.529,15.29,25.273,22.396c-0.572,4.853,0.513,8.996,3.546,12.886c1.051,1.347,2.204,2.505,3.487,3.628
	c-3.485,5.699-7.7,14.04-7.744,20.877c-0.106,7.636,2.713,14.439,6.411,21.011c0.975,1.73,2.373,3.411,3.071,5.251
	c-0.248,0.003-0.496,0.009-0.745,0.01c-10.74,0.034-25.284-4.107-33.916,4.399c-3.678,3.624-5.551,9.605-5.396,14.7
	c0.057,1.923,0.653,3.902,1.126,5.76c-3.832-3.216-0.866-12.769-3.017-17.659c0.889-2.014,0.609-8.125-0.337-10.158
	c-2.023-4.348-16.931-22.245-20.937-23.635l-0.708,0.365c0.628,6.159,1.654,12.185,1.957,18.393
	c0.691,14.173-0.921,33.132-8.021,45.503c-3.467-17.375-9.327-38.469-15.804-54.929c-0.011-1.236-0.72-2.598-1.145-3.763
	c-0.627-7.534,13.092-44.947,16.289-52.826c2.776,6.142,4.553,12.632,6.494,19.07c-0.232-8.902-1.632-17.908-2.358-26.795
	C171.028,639.689,170.371,624.925,168.262,610.578z"/>
<path style="fill:#FEFEFE;" d="M204.686,649.668c8.632,7.234,16.529,15.29,25.273,22.396c-0.572,4.853,0.513,8.996,3.546,12.886
	c1.051,1.347,2.204,2.505,3.487,3.628c-3.485,5.699-7.7,14.04-7.744,20.877c-0.182,0.955-0.428,1.807-0.761,2.72
	c-2.112-5.861-3.236-11.972-5.138-17.894C218.347,678.698,212.237,664.185,204.686,649.668z"/>
<linearGradient id="SVGID_00000019678141557598324540000005189914827377789109_" gradientUnits="userSpaceOnUse" x1="781.8279" y1="302.2381" x2="899.9934" y2="497.4496" gradientTransform="matrix(1.0078 0 0 -1.0078 0.9606 1038.0291)">
	<stop  offset="0" style="stop-color:#2B55AE"/>
	<stop  offset="1" style="stop-color:#71AAFF"/>
</linearGradient>
<path style="fill:url(#SVGID_00000019678141557598324540000005189914827377789109_);" d="M862.654,515.392
	c5.637-0.615,10.62-0.247,15.235,3.436c3.399,2.712,6.057,7.102,6.343,11.498c0.394,6.071-3.371,19.109-4.757,25.627
	c-6.435,30.248-14.009,60.227-20.466,90.476c-1.015,3.564-1.42,7.806-2.711,11.172c-1.129,6.38-2.967,12.706-4.484,19.011
	c-2.473,10.402-4.892,20.817-7.255,31.245c-1.961,8.548-3.877,17.106-5.747,25.674c-1.188,5.697-1.976,11.556-3.573,17.15
	c-0.927,3.251-2.09,6.178-4.057,8.961c-6.087-11.979-16.716-24.216-25.696-34.116c2.248-6.79,3.111-14.319,4.471-21.357
	c2.765-14.312,5.376-28.692,8.654-42.895c1.836-8.282,4.006-16.466,5.5-24.823c8.598-3.645,16.535-7.007,21.65-15.329
	c8-13.015,4.658-29.281,1.526-43.21c1.745-2.778,1.837-7.737,2.312-10.963c1.799-12.228,4.368-39.105,11.544-48.853
	c0.552-0.75,1.025-1.301,1.361-2.183C862.568,515.744,862.604,515.565,862.654,515.392z"/>
<path style="fill:#D7D5E5;" d="M828.78,412.787c19.735-0.628,39.7,0.17,59.463,0.198c17.492,0.024,36.543-0.773,53.816,0.074
	c1.602,0.079,3.642,0.472,4.534,1.987c1.315,2.234,1.609,48.787,0.728,53.34c-0.351,1.811-1.693,2.666-3.095,3.647
	c-0.703,0.15-1.385,0.283-2.1,0.362c-6.672,0.735-13.814,0.258-20.546,0.23l-37.628-0.249c-10.716-0.133-21.433-0.153-32.149-0.059
	c-6.156,0.041-12.491,0.4-18.631,0.031c-2.307-0.139-4.93-0.332-6.77-1.855c-1.569-4.865-1.545-47.578-0.682-53.885
	C825.992,414.606,827.267,413.904,828.78,412.787z"/>
<path style="fill:#2A54CB;" d="M872.157,437.573c7.001,0.291,49.596-0.657,52.068,0.619l0.17,1.328
	c-4.71,0.572-50.826,0.559-52.094-0.409L872.157,437.573z"/>
<path style="fill:#2A54CB;" d="M872.094,449.142c5.477-0.89,47.463-0.857,52.159,0.219l0.814,1.349
	c-4.573,0.687-49.077,0.9-52.132,0.147L872.094,449.142z"/>
<path style="fill:#5C86E7;" d="M846.591,433.909c0.782,0.047,1.582,0.073,2.351,0.241c1.989,0.433,3.862,1.708,4.905,3.464
	c0.122,0.204,0.231,0.413,0.33,0.628c0.099,0.216,0.185,0.436,0.26,0.66c0.075,0.225,0.138,0.453,0.187,0.685
	c0.05,0.231,0.087,0.465,0.112,0.7c0.025,0.235,0.037,0.471,0.036,0.708c-0.001,0.237-0.015,0.473-0.041,0.708
	s-0.065,0.468-0.117,0.699s-0.116,0.459-0.193,0.683c-0.887,2.67-2.821,3.845-5.248,4.972c-1.062,0.003-2.187,0.029-3.217-0.265
	c-0.231-0.067-0.458-0.145-0.681-0.236c-0.223-0.09-0.441-0.191-0.653-0.304c-0.213-0.112-0.419-0.235-0.619-0.37
	c-0.2-0.134-0.392-0.277-0.577-0.431c-0.185-0.154-0.361-0.317-0.529-0.489c-0.168-0.172-0.327-0.352-0.477-0.541
	c-0.15-0.188-0.289-0.384-0.418-0.587c-0.13-0.203-0.248-0.412-0.356-0.627c-0.838-1.665-0.844-3.598-0.223-5.331
	C842.373,436.223,844.189,435.146,846.591,433.909z"/>
<path style="fill:#EBEAEB;" d="M846.539,436.227c1.658,0.128,3.045,0.383,4.293,1.584c0.96,0.924,1.391,1.982,1.299,3.317
	c-0.157,2.274-1.426,3.256-3.084,4.559c-1.58-0.082-3.022-0.263-4.259-1.362c-1.008-0.895-1.459-2.031-1.36-3.372
	C843.599,438.687,844.957,437.607,846.539,436.227z"/>
<path style="fill:#F8851E;" d="M930.73,713.355c9.968-4.303,36.589-16.699,46.13-13.164c1.323,1.165,1.463,2.62,1.553,4.302
	c0.752,13.955-4.105,31.405-8.685,44.637c-10.034,1.397-20.204,5.937-30.074,8.466c5.981,0.535,23.889-5.452,29.977-7.848
	c-6.005,19.805-24.951,47.843-43.615,57.746c-13.134,6.97-24.291,6.515-38.13,2.409l-1.06,0.31
	c-4.112,8.434-8.157,17.859-11.034,26.794l-9.162,0.016c0.836-7.077,1.503-14.17,2-21.279l0.204-2.478
	c0.598-0.402,9.365-0.152,13.524-2.15l2.837-1.334c-3.805-2.091-6.81-4.843-9.041-8.596c-4.84-8.145-4.855-19.627-2.37-28.57
	c0.833-3.001,2.48-5.836,3.146-8.855l0.154-0.73c2.726-6.304,6.541-12.099,10.811-17.451c2.363-5.483,7.484-9.919,11.673-14.033
	C908.314,722.962,917.368,713.234,930.73,713.355z"/>
<path style="fill:#FAB868;" d="M887.895,745.581c2.363-5.483,7.484-9.919,11.673-14.033c8.746-8.587,17.8-18.314,31.161-18.193
	c-2.912,2.424-6.766,4.122-10.106,5.929c-0.023,8.467,0.921,35.484-0.975,42.358c-1.51-11.324-0.693-29.515-0.589-41.433
	c-8.655,6.18-16.877,11.775-24.021,19.773c0.481,12.63,2.084,26.021,1.012,38.607l-0.365-0.259
	c-1.531-9.282-2.213-27.945-1.87-37.581C891.901,742.375,889.998,744.209,887.895,745.581z"/>
<path style="fill:#FEFEFE;" d="M885.195,809.782c2.687-2.101,14.053-20.171,17.807-24.9c15.365-19.144,31.496-37.618,48.394-55.422
	c6.019-6.291,11.95-13.011,18.555-18.684c-2.603,4.268-9.854,10.865-13.498,14.787c-10.294,11.078-20.615,22.073-30.359,33.647
	c-8.012,8.539-36.025,41.291-39.267,51.004c-4.112,8.434-8.157,17.859-11.034,26.794l-9.162,0.016c0.836-7.077,1.503-14.17,2-21.279
	l0.204-2.478c0.598-0.402,9.365-0.152,13.524-2.15L885.195,809.782z"/>
<path style="fill:#122E6F;" d="M651.091,93.053c15.032-0.452,30.13-0.167,45.168-0.15c8.043,0.009,16.765-0.672,24.718,0.133
	l107.879,0.094c-0.183,27.221-0.198,54.441-0.044,81.662l0.127,29.122c0.01,5.472,0.282,11.131-0.163,16.585
	c-0.179,2.201-0.303,4.14-1.95,5.806c-5.327,5.389-31.677-0.968-34.52,2.505c-0.347,0.423-0.497,2.438-0.57,3.08l-0.468,0.446
	c-0.185-1.636-0.285-2.99-0.947-4.52c-1.048,3.458-1.091,7.998-1.657,11.646l-0.047-11.274l-123.504-0.093
	c-17.936,0.052-35.937-0.295-53.865,0.103c-0.005,12.302,0.567,24.914-0.116,37.18l-1.526-0.221
	c-1.846-5.135,0.139-28.995-0.769-36.927c-6.008-0.126-30.298,1.469-33.703-1.774c-1.187-1.132-1.771-2.431-2-4.038
	c-0.911-6.401-0.242-13.575-0.232-20.092l0.11-41.342c1.447-8.643,0.828-17.965,1.092-26.714c2.105-0.487,4.265-1.186,6.401-1.473
	c1.359-0.183,2.717-0.01,4.055-0.293c0.175-0.037,0.347-0.094,0.52-0.14c0.424,3.588-0.049,7.467-0.029,11.099
	c0.024,4.451,0.489,8.904,0.904,13.332l0.07,59.429l37.773,0.115c6.279,0.008,12.77,0.306,19.028-0.083l33.9-0.099l6.434,0.087
	c43.433,1.021,87.642,0.006,131.147-0.106c-0.036-4.798-0.118-9.596,0.116-14.391c0.297-3.147,0.275-6.125-0.125-9.259
	c0.731-28.142,0.376-56.536,0.169-84.692l-40.788-0.049c-13.517,0.698-27.276,0.183-40.819,0.17
	c-6.86-0.006-14.79,0.803-21.51-0.138c-18.079-0.692-36.376,0.19-54.488,0.009c1.415-0.158,2.367-0.249,3.571-1.105l-5.865,0.036
	c-2.005-2.96-4.899-9.43-4.663-12.962c1.849,1.358,2.455,5.037,4.334,6.936l4.281,4.257l0.288-0.081
	C656.004,101.033,653.478,97.16,651.091,93.053z"/>
<path style="fill:#4371DB;" d="M651.091,93.053c15.032-0.452,30.13-0.167,45.168-0.15c8.043,0.009,16.765-0.672,24.718,0.133
	c-3.013,4.994-6.474,9.698-9.85,14.45c12.885-0.169,25.769-0.206,38.655-0.111c7.872,0.02,16.074-0.363,23.898,0.371
	c-13.517,0.698-27.276,0.183-40.819,0.17c-6.86-0.006-14.79,0.803-21.51-0.138c-18.079-0.692-36.376,0.19-54.488,0.009
	c1.415-0.158,2.367-0.249,3.571-1.105l-5.865,0.036c-2.005-2.96-4.899-9.43-4.663-12.962c1.849,1.358,2.455,5.037,4.334,6.936
	l4.281,4.257l0.288-0.081C656.004,101.033,653.478,97.16,651.091,93.053z"/>
<path style="fill:#D95506;" d="M168.262,610.578c-3.018-4.378-5.907-8.784-7.641-13.85c-3.076-8.988-1.814-17.83,2.361-26.182
	c4.012-8.026,9.57-15.331,14.893-22.521c19.466-26.296,47.196-56.517,79.096-67.118c-0.987,4.3-5.425,9.641-7.505,13.693
	c-3.086,6.011-5.642,12.48-7.642,18.936c-4.892,15.79-7.139,32.144-8.447,48.574c-0.554,6.959-0.501,14.218-1.599,21.102
	c0.018,3.492,0.074,6.895-0.503,10.352c-1.662,3.204-2.55,6.731-4.417,9.815l3.719,9.77c1.034,8.975,0.306,18.767,0.273,27.819
	c-0.034,9.253,0.887,22.122-0.89,31.096c-8.744-7.105-16.641-15.161-25.273-22.396c-7.954-8.077-15.772-16.284-23.454-24.621
	C176.901,620.285,172.925,615.008,168.262,610.578z"/>
<path style="fill:#4371DB;" d="M223.101,596.541c1.232-3.883,2.641-8.347,5.044-11.675c1.137-1.575,1.807-1.405,3.632-1.654
	c0.018,3.492,0.074,6.895-0.503,10.352c-1.662,3.204-2.55,6.731-4.417,9.815C225.424,601.14,224.205,598.969,223.101,596.541z"/>
<path style="fill:#D7D5E5;" d="M651.086,588.78c5.11-9.729,10.12-19.51,15.03-29.342c9.854-19.784,19.471-40.274,36.867-54.768
	c3.275-2.729,6.627-5.401,10.802-6.587c0.925-0.263,1.658-0.315,2.617-0.163l0.377,0.722c-1.671,4.468-6.094,8.452-9.021,12.25
	c-12.045,15.629-25.192,36.821-16.183,56.897c3.161,7.042,7.051,10.192,14.254,12.83c9.826,3.599,21.361,2.389,31.652,2.485
	c6.519,0.072,13.025,0.392,19.518,0.959c6.985,0.611,13.942,1.452,20.871,2.523c5.132,0.749,10.945,2.078,16.128,1.732l0.05-0.344
	l1.314-0.307l-0.052-0.003c-0.008-0.276-0.007-0.552-0.024-0.827c-0.318-5.107-7.999-17.571-10.31-22.967
	c-0.753-1.758-0.982-3.601-1.821-5.35c-1.79-3.731-5.081-8.521-5.667-12.581l0.367-0.345c1.926,1.291,5.389,10.856,6.906,13.466
	c1.316,2.264,2.12,5.135,3.222,7.564c3.341,7.389,6.741,14.75,10.199,22.085c1.074,2.236,2.113,4.637,3.398,6.755
	c1.112,1.832,3.253,3.431,3.885,5.475l-0.685,0.223c-0.541-0.514-1.493-1.754-2.241-1.75c-2.527,0.01-7.736,3.728-10.266,4.874
	c-2.583,1.17-5.38,1.933-8.002,3.111c-5.346,2.4-29.483,14.406-33.779,15.014c-1.198-0.239-0.651-0.344-1.517,0.118
	c-4.322,2.303-9.402,3.93-14.098,5.307c-3.591,1.38-7.357,2.621-10.61,4.699c-2.397,1.019-4.254,1.536-6.862,1.479l-0.13,0.289
	c-4.304,0.48-8.509,0.524-12.831,0.501l-26.929,0.092l-19.349,0.191c-0.309-0.806-0.598-1.799-1.048-2.531
	c-0.796-1.291-1.775-1.108-3.14-1.319c1.523-0.213,2.763-0.391,4.002-1.411c1.277-1.051,2.723-3.849,2.752-5.492
	c0.025-1.419-0.383-2.514-1.346-3.546c-1.624-1.741-4.024-2.55-6.31-2.945c-5.596-0.968-12.084-0.368-17.769-0.372
	c-11.721-0.006-23.48,0.122-35.195-0.307c1.691-5.252,2.539-10.017,2.894-15.522c6.584-0.117,13.438,0.736,19.965,0.138
	c2.297-0.21,5.135-0.909,6.513-2.944c1.26-1.861,0.844-3.879,0.522-5.942C636.946,591.248,644.261,590.681,651.086,588.78z"/>
<path style="fill:#B3ACD3;" d="M720.318,630.915c3.555-2.48,10.305-3.011,14.56-3.079c-3.591,1.38-7.357,2.621-10.61,4.699
	c-2.397,1.019-4.254,1.536-6.862,1.479C718.62,633.047,719.394,632.165,720.318,630.915z"/>
<path style="fill:#FEFEFE;" d="M702.207,595.111c6.311,11.796,11.558,24.137,18.111,35.804c-0.924,1.25-1.698,2.131-2.913,3.099
	l-0.13,0.289c-4.304,0.48-8.509,0.524-12.831,0.501l-26.929,0.092c4.346-6.038,8.83-12.111,12.696-18.468
	C694.442,609.472,698.076,602.138,702.207,595.111z"/>
<path style="fill:#F99879;" d="M656.861,107.787c18.112,0.181,36.409-0.701,54.488-0.009
	c-15.592,27.808-33.887,54.386-51.025,81.285c-5.699,8.943-12.763,17.751-17.499,27.192c-6.259,0.389-12.75,0.091-19.028,0.083
	l-37.773-0.115l-0.07-59.429c0.422-7.69,0.115-15.561,0.138-23.269c0.026-8.431,0.404-17.05-0.178-25.456
	c6.874-1.174,15.205-0.309,22.212-0.308L656.861,107.787z"/>
<path style="fill:#FEFEFE;" d="M602.675,202.742c7.627-0.248,15.307-0.081,22.941-0.131c5.706-0.038,11.693-0.51,17.345,0.218
	c0.86,1.305,0.714,2.237,0.801,3.778l-25.795,0.017c-4.839,0.005-10.004,0.41-14.787-0.299
	C602.479,205.044,602.662,204.186,602.675,202.742z"/>
<path style="fill:#FEFEFE;" d="M602.642,191.605c9.33-0.124,18.66-0.186,27.99-0.186c6.213-0.024,12.608-0.35,18.791,0.21
	c0.876,1.157,0.649,1.935,0.673,3.361c-5.295,0.007-46.217,0.585-47.515-0.46L602.642,191.605z"/>
<path style="fill:#FEFEFE;" d="M602.16,180.353c11.124-0.263,22.292-0.134,33.42-0.143c7.21-0.007,14.794-0.465,21.957,0.307
	c0.817,1.022,0.554,2.128,0.583,3.409c-11.758,0.173-23.528,0.113-35.289,0.142c-6.596,0.016-13.52,0.465-20.079-0.18
	C601.991,182.797,602.208,181.662,602.16,180.353z"/>
<path style="fill:#FEFEFE;" d="M602.289,169.352l41.972-0.008c6.489,0.006,13.942-0.715,20.323,0.293l0.257,2.921
	c-6.797,0.384-60.106,1.07-62.079-0.246L602.289,169.352z"/>
<path style="fill:#FEFEFE;" d="M602.678,157.26c15.045-0.444,30.134-0.248,45.184-0.233c7.884,0.008,16.46-0.722,24.235,0.361
	c0.902,1.147,0.744,1.996,0.856,3.431l-44.677,0.006c-8.316,0.012-16.949,0.484-25.224-0.23
	C602.289,159.6,602.632,158.486,602.678,157.26z"/>
<path style="fill:#FEFEFE;" d="M605.925,130.149c5.458-0.161,11.366-0.764,16.786-0.119c2.061,0.246,3.543,0.643,4.783,2.444
	c1.397,2.032,1.267,5.206,0.898,7.517c-0.45,2.819-1.084,4.19-3.407,5.854c-4.486,0.311-9.095,0.68-13.592,0.645
	c-2.58-0.02-5.565-0.224-7.412-2.283c-1.712-1.908-1.67-4.535-1.491-6.937C602.747,133.819,603.305,132.407,605.925,130.149z"/>
<path style="fill:#D7D5E5;" d="M381.279,94.42c7.486,0.27,14.75,2.245,20.924,6.593c6.919,4.871,11.897,12.419,13.264,20.805
	c1.487,9.119-1.538,15.996-6.735,23.226c3.331-1.421,6.951-2.414,10.576-2.648c5.265-0.342,10.456,1.059,14.367,4.713
	c0.405,0.372,0.791,0.762,1.157,1.172c0.366,0.41,0.711,0.837,1.034,1.281c0.324,0.445,0.625,0.904,0.902,1.379
	c0.277,0.474,0.531,0.961,0.76,1.46c0.229,0.5,0.432,1.01,0.61,1.53c0.178,0.52,0.33,1.048,0.456,1.583
	c0.125,0.535,0.223,1.075,0.294,1.62s0.115,1.092,0.132,1.642c0.116,4.236-1.428,8.359-4.467,11.338
	c-0.294,0.292-0.6,0.571-0.916,0.839c-0.317,0.267-0.644,0.521-0.982,0.762c-0.337,0.241-0.684,0.468-1.039,0.681
	c-0.356,0.212-0.72,0.41-1.091,0.594c-0.372,0.184-0.75,0.352-1.135,0.505c-0.385,0.153-0.776,0.291-1.172,0.412
	c-0.396,0.121-0.797,0.226-1.201,0.315c-0.405,0.089-0.813,0.161-1.223,0.218c-5.285,0.771-10.836,0.466-16.166,0.471l-24.538,0.043
	l-101.516,0.04c-6.423,0.024-39.399,1.14-42.637-1.055c-0.617-0.417-0.549-0.934-0.705-1.606c0.41-1.453,0.905-2.733,1.979-3.842
	c4.437-4.577,21.252-2.856,27.508-2.828c-3.08-6.532-4.438-13.334-3.071-20.519c1.585-8.33,6.8-15.715,13.824-20.385
	c8.957-5.956,20.846-8.385,31.392-6.134c11.558,2.467,21.167,10.108,27.532,19.877c0.408-10.859,3.498-21.452,10.632-29.842
	C358.197,99.05,369.03,95.343,381.279,94.42z"/>
<path style="fill:#FEFEFE;" d="M248.371,771.966c16.835-0.941,34.123-0.146,51.011-0.106c-1.103,27.752-4.009,55.593-6.017,83.305
	l-2.515,39.015c-0.332,5.478-0.362,11.056-0.904,16.51c-0.116,1.174-0.234,1.849-0.997,2.796l-52.368,0.588
	c-8.701,0.086-17.461-0.179-26.153,0.155c-1.213,4.995-2.304,10.049-4.098,14.874l-0.306,0.05c0.832-4.863,1.667-9.715,2.704-14.541
	c5.485-29.458,12.349-58.556,18.553-87.856c3.818-18.024,6.811-36.262,10.88-54.219
	C239.828,771.198,246.034,771.923,248.371,771.966z"/>
<path style="fill:#122E6F;" d="M238.163,772.538c1.665-1.339,7.871-0.615,10.208-0.571L210.43,914.229
	c-1.213,4.995-2.304,10.049-4.098,14.874l-0.306,0.05c0.832-4.863,1.667-9.715,2.704-14.541
	c5.485-29.458,12.349-58.556,18.553-87.856C231.1,808.733,234.093,790.495,238.163,772.538z"/>
<linearGradient id="SVGID_00000137114642314398091040000012716266482913790894_" gradientUnits="userSpaceOnUse" x1="228.1479" y1="626.1059" x2="112.023" y2="681.6644" gradientTransform="matrix(1.0078 0 0 -1.0078 0.9606 1038.0291)">
	<stop  offset="0" style="stop-color:#283DA2"/>
	<stop  offset="1" style="stop-color:#779AFE"/>
</linearGradient>
<path style="fill:url(#SVGID_00000137114642314398091040000012716266482913790894_);" d="M171.607,443.415
	c-7.872,0.964-17.923-1.977-25.153-4.92c-15.296-6.227-27.885-18.063-34.262-33.37c-0.406-0.991-0.787-1.991-1.144-3
	c-0.357-1.009-0.689-2.027-0.996-3.053c-0.307-1.026-0.589-2.059-0.845-3.098s-0.486-2.085-0.691-3.135
	c-0.205-1.051-0.384-2.107-0.536-3.167c-0.153-1.06-0.28-2.122-0.38-3.188c-0.101-1.066-0.175-2.134-0.224-3.204
	c-0.048-1.07-0.07-2.14-0.065-3.21c0.005-1.071,0.036-2.141,0.093-3.21c0.057-1.069,0.14-2.136,0.25-3.202
	c0.11-1.065,0.245-2.127,0.407-3.185c0.162-1.058,0.349-2.112,0.562-3.161c0.214-1.049,0.453-2.092,0.718-3.129
	c0.265-1.037,0.556-2.068,0.871-3.091c0.316-1.023,0.656-2.038,1.021-3.045c0.365-1.007,0.756-2.003,1.17-2.99
	c0.425-1.007,0.875-2.004,1.348-2.989c0.474-0.985,0.973-1.958,1.495-2.92c0.522-0.961,1.067-1.908,1.636-2.842
	c0.568-0.934,1.16-1.853,1.774-2.758c0.614-0.905,1.25-1.794,1.907-2.668c0.658-0.873,1.336-1.73,2.036-2.571
	c0.7-0.84,1.42-1.662,2.161-2.467c0.74-0.805,1.499-1.591,2.278-2.359c0.779-0.767,1.577-1.515,2.393-2.243
	c0.816-0.728,1.648-1.436,2.498-2.124c0.851-0.687,1.718-1.353,2.601-1.997c0.883-0.645,1.781-1.267,2.695-1.867
	c0.914-0.601,1.843-1.178,2.785-1.733c0.942-0.555,1.897-1.086,2.866-1.593c0.968-0.508,1.948-0.992,2.941-1.451
	c0.992-0.46,1.994-0.895,3.008-1.305c0.953-0.392,1.916-0.761,2.887-1.106c0.972-0.345,1.951-0.667,2.939-0.964
	c0.987-0.298,1.981-0.571,2.981-0.819c1-0.249,2.007-0.474,3.018-0.674c1.011-0.2,2.027-0.376,3.048-0.526
	c1.02-0.151,2.043-0.276,3.069-0.377c1.026-0.101,2.054-0.176,3.084-0.227c1.03-0.051,2.06-0.077,3.091-0.077
	c1.031-0.001,2.062,0.024,3.092,0.074c1.03,0.05,2.058,0.125,3.084,0.225c1.026,0.099,2.049,0.224,3.07,0.374
	c1.02,0.15,2.036,0.324,3.048,0.523c1.012,0.2,2.018,0.423,3.018,0.671c1.001,0.249,1.995,0.521,2.982,0.817
	c0.988,0.297,1.968,0.617,2.94,0.961c0.972,0.345,1.934,0.713,2.888,1.104c15.676,5.749,28.25,18.087,35.232,33.124
	c7.001,15.076,7.41,33.053,1.636,48.609c-5.858,15.78-18.147,29.392-33.546,36.326C191.819,441.063,181.057,443.893,171.607,443.415
	z"/>
<path style="fill:#F99879;" d="M167.179,334.234c4.531-0.122,9.063-0.186,13.595-0.193c0.148,2.862,0.322,5.723,0.52,8.581
	l0.515,1.355c3.696,1.612,7.331,3.351,10.907,5.217c2.083-2.749,4.506-5.197,6.753-7.809c3.145,2.878,6.439,5.682,9.148,8.986
	c-1.606,2.428-3.286,4.365-5.399,6.362c2.1,3.718,3.743,7.677,5.465,11.581c3.015,0.247,6.061,0.406,9.026,1.034
	c0.108,4.069,0.115,8.17,0.491,12.223c-3.133,0.854-6.216,1.653-9.422,2.189c-1.079,4.134-2.385,7.609-4.606,11.295
	c1.904,1.739,3.909,3.427,5.614,5.364c-3.06,3.95-6.366,7.652-9.69,11.377c-2.251-2.081-4.656-4.122-6.743-6.363
	c-2.893,1.724-5.976,3.762-9.307,4.49c-1.5,0.723-2.147,0.718-2.663,2.463c-0.589,1.994-0.338,4.813-0.548,6.927
	c-4.028-0.038-8.189-0.293-12.195,0.13l-1.035-0.638c-0.854-2.566-0.627-5.603-0.698-8.294c-4.049-1.205-7.768-2.684-11.461-4.737
	c-2.803,2.298-5.619,4.483-8.602,6.542c-3.039-3.337-6.03-6.715-8.973-10.137l6.22-6.792c-1.906-3.922-3.53-7.989-5.226-12.005
	c-2.417-0.025-5.65,0.203-7.404-1.809c-2.031-2.33-0.903-9.349-0.822-12.349c3.179-0.422,6.367-0.755,9.564-1
	c1.04-3.317,2.386-6.594,3.581-9.862c-1.552-1.751-4.251-4.22-4.068-6.724c0.238-3.225,5.881-6.499,8.345-8.344l7.287,5.786
	c3.664-2.869,7.055-3.994,11.452-5.209C166.785,340.643,166.963,337.455,167.179,334.234z"/>
<path style="fill:#1F439A;" d="M176.476,357.614c6.087,0.961,11.379,3.621,14.997,8.758c3.064,4.349,4.483,9.708,3.42,14.97
	c-0.069,0.326-0.145,0.65-0.23,0.972c-0.085,0.322-0.177,0.642-0.277,0.959c-0.101,0.318-0.209,0.633-0.324,0.945
	c-0.116,0.312-0.24,0.621-0.371,0.927c-0.132,0.306-0.27,0.608-0.416,0.908c-0.146,0.299-0.3,0.594-0.461,0.886
	c-0.161,0.292-0.329,0.579-0.504,0.863c-0.175,0.283-0.357,0.561-0.546,0.836c-0.189,0.275-0.384,0.544-0.587,0.808
	c-0.202,0.265-0.411,0.524-0.626,0.779c-0.215,0.254-0.436,0.503-0.664,0.746c-0.227,0.243-0.46,0.481-0.699,0.713
	c-0.239,0.232-0.484,0.458-0.734,0.677c-0.251,0.22-0.506,0.433-0.767,0.64c-0.261,0.208-0.526,0.408-0.797,0.602
	c-0.271,0.194-0.546,0.381-0.826,0.561c-2.005,1.287-4.193,2.082-6.445,2.812c0.245-5.999,0.258-13.806-1.606-19.485
	c1.626-1.384,3.095-2.711,4.423-4.387c-0.977-0.197-1.788-0.179-2.784-0.183c-0.26-0.212-0.605-0.35-0.78-0.635
	c-0.527-0.859-1.648-11.726-2.193-13.886L176.476,357.614z"/>
<path style="fill:#EC5E4E;" d="M192.715,349.196c2.083-2.749,4.506-5.197,6.753-7.809c3.145,2.878,6.439,5.682,9.148,8.986
	c-1.606,2.428-3.286,4.365-5.399,6.362c2.1,3.718,3.743,7.677,5.465,11.581c3.015,0.247,6.061,0.406,9.026,1.034
	c0.108,4.069,0.115,8.17,0.491,12.223c-3.133,0.854-6.216,1.653-9.422,2.189c-1.079,4.134-2.385,7.609-4.606,11.295
	c1.904,1.739,3.909,3.427,5.614,5.364c-3.06,3.95-6.366,7.652-9.69,11.377c-2.251-2.081-4.656-4.122-6.743-6.363
	c-2.893,1.724-5.976,3.762-9.307,4.49l0.314-0.955c2.068-0.954,4.295-1.859,6.242-3.034c5.007-3.016,6.151-7.336,7.485-12.606
	c-1.745,1.759-3.411,3.67-5.553,4.943l-0.279-0.414c13.171-14.028,6.562-27.172,9.957-31.632c0.675,4.389,0.639,9.482-0.024,13.878
	c-0.252,1.668-1.34,4.322-1.15,5.884l1.459,0.868l-0.719,0.387l0.603-0.006c2.073-1.775,1.67-3.611,2.697-5.859
	c0.343-0.751,0.697-1.395,0.953-2.194c1.298-4.052,0.736-12.242-1.093-16.009c-0.621,0.867-0.215,0.568-1.209,0.906l-0.322-0.747
	c0.075-0.219,0.156-0.435,0.224-0.656c0.749-2.418-0.158-3.313-1.247-5.435l-0.172-0.825c1-1.548,1.53-5.18,1.55-7.102
	c0.029-2.788-2.058-4.718-3.837-6.571C197.747,344.784,195.614,348.517,192.715,349.196z"/>
<path style="fill:#4371DB;" d="M177.688,397.39c-5.926,0.499-11.938-0.712-16.538-4.684c-4.122-3.56-6.268-8.74-6.544-14.119
	c-0.278-5.441,1.565-10.819,5.353-14.773c4.59-4.79,10.177-5.941,16.516-6.198l0.203,0.785c0.545,2.16,1.666,13.027,2.193,13.886
	c0.175,0.285,0.52,0.423,0.78,0.635c0.996,0.004,1.807-0.013,2.784,0.183c-1.328,1.676-2.798,3.003-4.423,4.387
	c1.864,5.679,1.851,13.486,1.606,19.485L177.688,397.39z"/>
<path style="fill:#FEFEFE;" d="M174.639,380.953c-2.065-1.9-7.058-5.646-7.498-8.512c0.146-0.007,0.292-0.033,0.438-0.021
	c2.459,0.205,4.767,2.837,6.423,4.494c2.838-2.147,4.786-3.531,8.432-3.811c-1.328,1.676-2.798,3.003-4.423,4.387L174.639,380.953z"
	/>
<path style="fill:#2A54CB;" d="M174.639,380.953l3.372-3.463c1.864,5.679,1.851,13.486,1.606,19.485l-1.93,0.414
	c-1.244-0.135-2.456-0.378-3.685-0.608C174.389,391.559,173.998,386.091,174.639,380.953z"/>
<path style="fill:#5C86E7;" d="M773.679,107.746l40.788,0.049c0.207,28.156,0.561,56.55-0.169,84.692
	c0.4,3.133,0.422,6.111,0.125,9.259c-0.234,4.794-0.152,9.592-0.116,14.391c-43.505,0.112-87.715,1.127-131.147,0.106l-6.434-0.087
	l-33.9,0.099c4.736-9.441,11.799-18.248,17.499-27.192c17.139-26.898,35.434-53.476,51.025-81.285
	c6.72,0.941,14.65,0.132,21.51,0.138C746.402,107.929,760.162,108.444,773.679,107.746z"/>
<path style="fill:#F99879;" d="M776.66,140.116c13.128,16.956,24.533,35.33,37.638,52.372c0.4,3.133,0.422,6.111,0.125,9.259
	c-8.52-10.621-16.18-22.101-23.945-33.282c-4.548-6.55-9.813-13.228-13.732-20.144c-10.082,10.769-19.011,22.427-28.275,33.886
	c-7.597-6.439-15.14-12.939-22.629-19.502c-11.541,13.263-22.305,26.912-33.054,40.825c-2.993,3.873-7.479,8.391-9.628,12.714
	l-6.434-0.087c14.072-18.799,32.554-44.59,49.132-60.872c7.471,6.058,14.565,13.081,21.498,19.755
	C756.378,163.58,766.064,150.045,776.66,140.116z"/>
<path style="fill:#5C86E7;" d="M776.745,148.32c3.919,6.917,9.184,13.594,13.732,20.144c7.764,11.181,15.424,22.661,23.945,33.282
	c-0.234,4.794-0.152,9.592-0.116,14.391c-43.505,0.112-87.715,1.127-131.147,0.106c2.149-4.322,6.634-8.841,9.628-12.714
	c10.749-13.914,21.513-27.563,33.054-40.825c7.489,6.563,15.033,13.064,22.629,19.502
	C757.734,170.747,766.663,159.09,776.745,148.32z"/>
<path style="fill:#FAB868;" d="M859.01,646.428c0.122-0.126,0.245-0.251,0.365-0.378c3.541-3.772,6.221-8.421,9.362-12.534
	c5.687-7.447,20.061-24.442,28.301-28.001l0.815,0.1c0.235,0.87,0.277,1.76,0.48,2.594c0.065,0.267,0.233,0.498,0.35,0.747
	c-0.06-1.604-0.187-3.193,0.078-4.784c7.926-8.239,32.466-20.394,43.824-20.546c0.259-0.003,0.519,0.002,0.778,0.002
	c6.981,4.786,8.822,13.709,10.306,21.587c0.655,3.48,1.197,7.012,1.419,10.55c-2.768,3.995-25.242,33.872-27.465,35.631l0.491,0.787
	l-0.493-0.459l0.823-1.251l0.625,0.555c0.095-0.236,0.163-0.484,0.284-0.707c0.088-0.16,0.581-0.669,0.68-0.777
	c7.566-8.234,19.514-23,25.287-32.398c0.675,8.244,1.227,16.295,0.623,24.573c-0.768,10.516-8.253,50.097-15.122,57.645
	c-4.116,4.521-18.415,10.799-24.649,15.219c-9.101,6.452-39.409,37.821-39.148,47.898c0.005,0.184,0.041,0.367,0.061,0.55
	l-0.154,0.73c-0.666,3.018-2.313,5.853-3.146,8.855c-2.484,8.943-2.469,20.425,2.37,28.57c2.231,3.753,5.236,6.504,9.041,8.596
	l-2.837,1.334c-4.159,1.997-12.926,1.748-13.524,2.15l-0.204,2.478c-0.06-1.104-0.016-1.511-0.62-2.47l-0.777,0.32l-0.666-0.772
	c-3.311-0.9-13.266-5.423-15.753-4.737c-0.358-0.354-1.094-0.599-1.555-0.817c-1.315-2.28-4.076-4.692-5.732-6.909
	c-4.02-5.378-6.815-10.891-9.714-16.929c-1.725-3.595-6.217-15.767-8.361-17.723c2.078-1.933,3.935-3.867,5.731-6.067
	c1.967-2.783,3.13-5.709,4.057-8.961c1.596-5.594,2.384-11.453,3.573-17.15c1.87-8.568,3.785-17.126,5.747-25.674
	c2.363-10.428,4.781-20.843,7.255-31.245c1.517-6.305,3.355-12.631,4.484-19.011C857.59,654.235,857.995,649.992,859.01,646.428z"/>
<path style="fill:#F99879;" d="M312.977,215.102c1.713-1.221,3.439-2.373,5.287-3.378c2.552-1.389,5.156-2.277,8.063-2.488
	c7.119-0.518,14.518-0.156,21.664-0.167l40.016-0.03l45.206,0.031c9.83,0.011,25.322-1.33,34.388,1.361l2.08,1.365
	c4.679,3.002,7.907,6.827,9.032,12.391c1.817,8.981,0.822,19.396,0.726,28.542l-0.316,48.359c-0.034,7.809-0.595,16.008-0.015,23.78
	c-0.371,7.283-0.296,14.607-0.347,21.901c-22.498,1.384-45.302-0.186-67.857,0.455l-11.143-0.042
	c0.053,4.654-0.065,9.385,0.312,14.024l-0.035,0.049c-1.291,0.23-4.76-2.926-6.053-3.813c-4.591-3.397-8.979-7.47-13.945-10.283
	l-36.209,0.087c-6.578,0.016-14.356,0.816-20.744-0.66c-3.48-0.804-6.658-2.737-9.265-5.145c-2.752-2.542-4.978-5.749-5.843-9.43
	c-1.984-8.443-0.89-20.643-0.918-29.622l-0.144-45.177c-0.029-8.736,0.201-17.56-0.229-26.284
	C306.958,224.556,309.174,220.019,312.977,215.102z"/>
<path style="fill:#FEFEFE;" d="M347.401,238.347c0.122,0.022,0.242,0.056,0.358,0.101c0.116,0.045,0.227,0.1,0.334,0.166
	c0.105,0.066,0.204,0.141,0.296,0.225c0.091,0.085,0.174,0.177,0.249,0.277c1.022,1.369,0.559,2.766,0.451,4.335
	c-0.105,1.511-0.032,2.3-1.029,3.566c-0.541-0.295-1.044-0.678-1.553-1.027c-0.33-1.105-0.651-2.194-0.79-3.342
	C345.433,240.312,345.97,240.167,347.401,238.347z"/>
<path style="fill:#FEFEFE;" d="M336.492,240.142c0.84,0.569,1.331,1.358,1.837,2.222l-0.33-0.069
	c0.869-0.548,0.987-0.715,1.479-1.623l0.998-0.146l0.857,1.623c0.582-0.495,1.138-1.006,1.69-1.533
	c0.909,1.228,0.823,2.894,0.951,4.369c-0.202,0.554-0.558,1.054-0.86,1.56l-1.082,0.063c-0.722-0.697-1.151-1.148-2.077-1.565
	l-0.339,1.05l-0.993,0.38c-0.779-0.275-1.233-0.243-1.696-0.99C335.892,243.813,336.163,241.976,336.492,240.142z"/>
<path style="fill:#FEFEFE;" d="M361.443,240.254c1.227-0.058,2.411-0.205,3.578,0.262c0.867,0.346,1.683,1.486,1.829,2.398
	c0.295,1.855-0.571,3.765-1.571,5.251c-0.133,0.02-0.266,0.045-0.399,0.06c-1.384,0.162-2.351,0.286-3.475-0.594
	C360.184,245.288,360.713,242.682,361.443,240.254z"/>
<path style="fill:#FEFEFE;" d="M327.522,261.514c10.043-0.4,79.143-1.031,83.668,0.444c0.8,1.085,0.732,1.851,0.785,3.149
	c-5.993,0.6-12.251,0.304-18.274,0.315l-31.076,0.039c-8.83,0.008-26.473,0.954-34.578-0.279
	C327.289,263.915,327.522,262.958,327.522,261.514z"/>
<path style="fill:#FEFEFE;" d="M328.465,305.387c8.631-0.416,83.642-0.677,86.805,0.307c1.288,0.4,1.385,0.844,1.918,1.957
	c-0.043,1.603-0.529,2.367-1.369,3.656c-7.868,0.546-82.705,0.891-86.684-0.371c-1.258-0.398-1.53-0.978-2.09-2.095
	C327.112,307.199,327.534,306.661,328.465,305.387z"/>
<path style="fill:#FEFEFE;" d="M439.542,274.866c1.537-0.072,3.685-0.316,5.145,0.273c1.239,0.5,1.52,1.475,1.997,2.612
	c-0.123,0.826-0.006,1.194-0.659,1.807c-1.507,1.415-3.745,1.643-5.719,1.802c-10.528,0.846-21.788-0.106-32.407-0.114l-72.55-0.039
	c-1.506,0.036-3.683,0.314-5.119-0.079c-1.386-0.379-1.991-1.213-2.798-2.295c-0.129-1.083-0.289-1.589,0.628-2.419
	c1.096-0.991,3.057-1.374,4.475-1.464c10.483-0.672,21.565,0.015,32.097,0.023C389.602,275.077,414.572,275.041,439.542,274.866z"/>
<path style="fill:#FEFEFE;" d="M416.785,289.993l26.542-0.043c4.428-0.019,9.278-0.522,13.637,0.217
	c2.133,0.361,3.708,0.943,5.386,2.3l-0.064,1.733c-1.774,1.592-4.511,2.129-6.804,2.356c-8.12,0.802-17.001-0.006-25.203-0.013
	l-57.312-0.007c-8.156,0.037-38.755,1.239-44.378-0.577c-0.773-0.88-1.116-1.784-0.999-2.989c0.069-0.706,0.376-1.436,0.912-1.902
	c0.771-0.671,1.537-0.908,2.536-0.952c8.914-0.399,18.188,0.133,27.144,0.13L416.785,289.993z"/>
<path style="fill:#122E6F;" d="M476.88,486.251l84.286,0.057c12.971,0.03,26.428-0.868,39.317,0.048
	c1.585,0.113,2.938,0.191,4.142,1.356c0.475,0.451,0.898,0.946,1.27,1.487c3.034,9.726,5.065,19.877,7.351,29.801
	c5.662,24.579,10.382,49.496,16.761,73.894c0.321,2.063,0.738,4.081-0.522,5.942c-1.378,2.035-4.216,2.734-6.513,2.944
	c-6.527,0.598-13.381-0.255-19.965-0.138c-0.356,5.506-1.203,10.271-2.894,15.522c11.715,0.429,23.474,0.301,35.195,0.307
	c5.685,0.004,12.172-0.596,17.769,0.372c2.286,0.395,4.686,1.204,6.31,2.945c0.964,1.032,1.372,2.127,1.346,3.546
	c-0.029,1.643-1.475,4.44-2.752,5.492c-1.239,1.02-2.479,1.198-4.002,1.411c1.366,0.212,2.344,0.028,3.14,1.319
	c0.451,0.732,0.739,1.724,1.048,2.531l19.349-0.191l26.929-0.092c4.323,0.023,8.527-0.021,12.831-0.501
	c0.572,2.229,0.31,4.356,0.152,6.623c-4.271,4.101-7.437,8.328-7.54,14.477l-0.005,0.598l1.755,4.206l-91.846-0.108
	c-7.211-0.561-14.593-0.263-21.832-0.294l-37.97-0.164l-117.514,0.154c-0.038-7.784,0.853-15.95,1.881-23.671l3.495-0.745
	c11.071-4.194,22.677-9.303,32.224-16.397c2.647-1.966,5.462-4.058,5.952-7.495c2.704-0.165,5.77,0.042,8.004-1.668l0.198-1.963
	c4.964-1.583,9.358-3.168,13.732-6.031l-0.466-0.56c-0.763,0.274-0.421,0.107-1.157,0.568c-6.766,4.246-13.346,4.894-21.129,4.986
	c-1.8-7.258-5.515-12.683-9.811-18.671l1.862-0.958l2.088-1.838c0.05-1.742-0.089-3.458-0.217-5.196
	c-1.347,1.085-2.333,1.77-3.999,2.268c-1.785-4.08-16.053-77.681-16.305-83.787c-0.153-3.721,0.023-6.315,2.744-9.08
	C465.505,485.556,471.772,486.244,476.88,486.251z"/>
<path style="fill:#5C86E7;" d="M571.679,491.226c10.102-0.682,20.479-0.437,30.606-0.377c3.22,16.924,7.161,33.588,11.118,50.351
	c2.332,9.879,5.353,20.27,6.527,30.328c-3.73-5.111-6.263-12.599-8.906-18.397c-9.29-20.38-17.209-41.533-26.922-61.683
	C579.952,491.479,575.823,491.525,571.679,491.226z"/>
<path style="fill:#FEFEFE;" d="M564.529,601.737c12.816-0.207,25.659-0.069,38.478-0.095c-0.356,5.506-1.203,10.271-2.894,15.522
	c-1.491,0.378-3.182,0.868-4.443,1.783c-1.556,1.128-2.312,2.884-2.502,4.751c-0.136,1.332,0.028,0.629-0.349,1.788
	c-6.297,1.635-21.557,0.52-28.79,0.489L564.529,601.737z"/>
<path style="fill:#FEFEFE;" d="M507.96,601.825c7.502,0.343,15.044,0.198,22.554,0.184l0.027,24.034
	c-4.806-0.028-17.38-1.164-21.036,1.009c-0.62,1.261-0.617,1.27-0.316,2.643c2.129,2.136,5.169,1.682,8.033,1.685l87.465-0.042
	c16.385,0.003,32.921,0.467,49.291-0.1c1.366,0.212,2.344,0.028,3.14,1.319c0.451,0.732,0.739,1.724,1.048,2.531
	c-44.751,0.88-89.614,0.359-134.377,0.346l-48.345-0.156c-9.132,0.032-18.498,0.633-27.594,0.102
	c11.071-4.194,22.677-9.303,32.224-16.397c2.647-1.966,5.462-4.058,5.952-7.495c2.704-0.165,5.77,0.042,8.004-1.668l0.198-1.963
	C499.192,606.272,503.586,604.688,507.96,601.825z"/>
<path style="fill:#5C86E7;" d="M704.444,634.804c4.323,0.023,8.527-0.021,12.831-0.501c0.572,2.229,0.31,4.356,0.152,6.623
	c-4.271,4.101-7.437,8.328-7.54,14.477l-0.005,0.598l1.755,4.206l-91.846-0.108c-7.211-0.561-14.593-0.263-21.832-0.294
	l-37.97-0.164l-117.514,0.154c-0.038-7.784,0.853-15.95,1.881-23.671l3.495-0.745c9.095,0.531,18.462-0.07,27.594-0.102
	l48.345,0.156c44.763,0.013,89.627,0.534,134.377-0.346l19.349-0.191L704.444,634.804z"/>
<path style="fill:#2A54CB;" d="M704.444,634.804c4.323,0.023,8.527-0.021,12.831-0.501c0.572,2.229,0.31,4.356,0.152,6.623
	c-4.271,4.101-7.437,8.328-7.54,14.477l-0.005,0.598c-1.77,0.087-3.46,0.103-5.229-0.026l0.141-0.904l-0.36,0.5
	C703.742,648.909,704.392,641.528,704.444,634.804z"/>
<path style="fill:#82ADF4;" d="M479.132,580.155c1.425-5.965-8.672-53.627-10.722-63.742c-1.211-5.977-3.251-12.525-3.387-18.617
	c-0.045-2.04,0.177-3.474,1.686-4.965c0.875-0.867,1.593-1.151,2.812-1.301c9.355-1.147,25.497-0.256,35.587-0.264
	c22.183-0.016,44.393-0.353,66.572-0.039c4.144,0.299,8.273,0.253,12.423,0.223c9.712,20.15,17.632,41.303,26.922,61.683
	c2.643,5.798,5.176,13.286,8.906,18.397c2.635,8.029,4.469,17,5.575,25.375c-36.177,0.224-72.526,0.381-108.69-0.291
	c-3.017,1.862-5.414,3.187-8.968,3.79l-0.353,0.863c-0.763,0.274-0.421,0.107-1.157,0.568c-6.766,4.246-13.346,4.894-21.129,4.986
	c-1.8-7.258-5.515-12.683-9.811-18.671l1.862-0.958l2.088-1.838C479.399,583.609,479.26,581.893,479.132,580.155z"/>
<path style="fill:#1F439A;" d="M536.164,526.645c1.662-0.125,3.469-0.344,5.105,0.049c3.287,0.791,6.262,3.284,7.892,6.201
	c1.613,2.885,2.135,6.401,1.101,9.572c-1.156,3.545-3.563,5.444-6.799,7.034c-1.519,0.167-2.813,0.203-4.315-0.139
	c-0.427-0.099-0.847-0.219-1.261-0.361c-0.414-0.141-0.82-0.303-1.217-0.487c-0.397-0.183-0.784-0.385-1.161-0.608
	c-0.377-0.222-0.742-0.463-1.094-0.723c-0.352-0.259-0.69-0.536-1.015-0.83c-0.324-0.294-0.632-0.603-0.925-0.928
	c-0.292-0.326-0.567-0.665-0.825-1.019c-0.258-0.353-0.497-0.719-0.719-1.096c-1.727-2.96-2.231-6.478-1.188-9.762
	C530.855,530.042,533.05,528.347,536.164,526.645z"/>
<path style="fill:#F99879;" d="M479.349,585.351c1.854-1.452,3.944-2.558,6.088-3.523c6.92-3.115,17.14-5.107,24.699-3.938
	c2.229,0.345,4.606,1.515,6.711,2.339c2.185,0.654,4.537,1.1,6.31,2.594c0.477,1.217,0.675,1.524,0.112,2.807
	c-0.297,0.679-0.912,1.382-1.357,1.981c-0.758,1.611-1.487,3.242-2.353,4.797c-2.504,0.127-5.255,0.003-7.611,0.916
	c1.657,0.063,4.628-0.243,5.872,0.794c-0.138,1.079-0.391,1.599-1.005,2.493c-3.017,1.862-5.414,3.187-8.968,3.79l-0.353,0.863
	c-0.763,0.274-0.421,0.107-1.157,0.568c-6.766,4.246-13.346,4.894-21.129,4.986c-1.8-7.258-5.515-12.683-9.811-18.671l1.862-0.958
	L479.349,585.351z"/>
<path style="fill:#FAB868;" d="M521.913,587.611c-5.185-2.724-9.211-1.329-14.679-2.137c2.343-1.521,8.106-2.135,10.972-2.78
	l0.428,1.042l0.508-0.138l0.153-1.11c-0.817-1.167-1.715-1.219-3.016-1.694l0.568-0.566c2.185,0.654,4.537,1.1,6.31,2.594
	c0.477,1.217,0.675,1.524,0.112,2.807C522.972,586.309,522.357,587.011,521.913,587.611z"/>
<path style="fill:#F8851E;" d="M329.044,476.741c19.18,0.854,36.928,8.286,49.966,22.635c18.404,20.254,35.606,63.819,45.561,89.66
	c12.1-2.452,39.964-5.615,50.827-0.889c4.296,5.987,8.011,11.412,9.811,18.671c7.782-0.092,14.362-0.74,21.129-4.986
	c0.736-0.462,0.394-0.294,1.157-0.568l0.466,0.56c-4.375,2.863-8.768,4.447-13.732,6.031l-0.198,1.963
	c-2.234,1.71-5.3,1.503-8.004,1.668c-0.49,3.437-3.306,5.529-5.952,7.495c-9.547,7.094-21.153,12.203-32.224,16.397l-3.495,0.745
	c-1.028,7.722-1.919,15.887-1.881,23.671l-12.872,0.049l-58.273,0.29l-0.102,10.163c-0.016,4.042,0.342,8.453-1.199,12.274
	c-3.508,4.342-6.874,6.8-12.636,7.32c-9.067,0.818-18.734-0.079-27.874-0.058l-14.518,0.024c-11.869,0.27-70.5,1.172-78.009-1.28
	c-1.283-1.123-2.436-2.281-3.487-3.628c-3.033-3.89-4.119-8.033-3.546-12.886c1.777-8.974,0.856-21.843,0.89-31.096
	c0.033-9.051,0.761-18.844-0.273-27.819l-3.719-9.77c1.867-3.084,2.755-6.611,4.417-9.815c0.576-3.457,0.521-6.86,0.503-10.352
	c1.098-6.883,1.045-14.143,1.599-21.102c1.308-16.43,3.556-32.784,8.447-48.574c2.001-6.456,4.556-12.925,7.642-18.936
	c2.08-4.052,6.519-9.393,7.505-13.693c7.759-3.457,16.658-3.735,25-3.785c5.455,0.43,11.244-0.204,16.74-0.297
	C308.822,476.735,318.933,476.707,329.044,476.741z"/>
<path style="fill:#EBEAEB;" d="M486.026,611.487c-0.025-0.853,0.009-1.312,0.185-2.115c2.23-1.146,5.512-1.159,8.016-1.516
	l-0.198,1.963C491.796,611.529,488.73,611.321,486.026,611.487z"/>
<path style="fill:#FEFEFE;" d="M226.857,603.379c1.867-3.084,2.755-6.611,4.417-9.815c0.042,4.224,1.028,16.25-0.698,19.585
	L226.857,603.379z"/>
<path style="fill:#FEFEFE;" d="M371.798,618.023c5.153,6.92,10.397,12.267,17.289,17.458c-5.905,0.127-11.811,0.219-17.717,0.276
	C371.299,629.976,370.95,623.748,371.798,618.023z"/>
<path style="fill:#4371DB;" d="M420.725,641.057c8.086-0.991,15.775-2.859,23.63-4.933c-1.028,7.722-1.919,15.887-1.881,23.671
	l-12.872,0.049C427.156,653.45,423.695,647.239,420.725,641.057z"/>
<path style="fill:#1F439A;" d="M389.087,635.482c11.283,5.092,19.373,6.236,31.638,5.575c2.97,6.182,6.431,12.393,8.878,18.788
	l-58.273,0.29l0.039-24.377C377.276,635.701,383.182,635.609,389.087,635.482z"/>
<path style="fill:#D95506;" d="M315.001,689.857c4.997-4.718,9.016-10.635,12.699-16.403c15.986-25.037,23.529-53.95,24.879-83.435
	c0.154-3.361,1.248-6.921,1.059-10.241c-0.349-6.185-9.114-30.102-7.657-33.328c2.385,2.137,2.515,10.275,3.699,13.564
	c3.734,10.381,6.184,21.166,10.229,31.499c3.537,9.035,8.509,17.182,12.443,25.969l-0.554,0.541
	c-0.849,5.724-0.499,11.953-0.428,17.734l-0.039,24.377l-0.102,10.163c-0.016,4.042,0.342,8.453-1.199,12.274
	c-3.508,4.342-6.874,6.8-12.636,7.32c-9.067,0.818-18.734-0.079-27.874-0.058L315.001,689.857z"/>
<path style="fill:#D7D5E5;" d="M727.689,769.914l42.814-0.301c6.405-0.034,13.56-0.735,19.855,0.123
	c2.886,0.028,5.772-0.004,8.657-0.096c6.662,50.188,16.85,99.833,25.129,149.756c4.829-0.12,11.714,1.379,16.196-0.134
	c0.633,2.81,1.225,5.639,1.924,8.432c8.193-0.028,16.509,0.255,24.687-0.097c11.963,0.574,24.294,0.165,36.266-0.256l1.052-6.633
	c13.247,2.032,31.882,1.367,44.334,6.294c1.317,0.521,2.682,1.132,3.233,2.473c-0.069,0.117-0.12,0.246-0.205,0.353
	c-1.465,1.856-9.245,2.82-11.664,3.269c-9.101,1.69-18.71,2.181-27.925,3.053c-27.831,2.467-55.714,3.983-83.648,4.548
	c-40.629,1.453-81.268,2.505-121.918,3.155l-248.787,1.961c-97.47,0.537-194.886-1.497-292.249-6.104
	c-13.693-0.705-79.2-3.789-88.171-9.9l-0.092-0.812c5.188-6.203,46.297-6.578,56.242-9.138c0.155-0.04,0.309-0.085,0.464-0.127
	c0.595,3.185,1.12,6.404,1.823,9.565l41.532,0.3c5.499,0.016,12.465,0.763,17.82-0.372c-0.15-4.465,1.513-9.989,2.289-14.455
	c3.794-0.12,7.589-0.174,11.384-0.16c-1.037,4.825-1.871,9.678-2.704,14.541l0.306-0.05c1.794-4.825,2.884-9.88,4.098-14.874
	c8.691-0.335,17.451-0.07,26.153-0.155l52.368-0.588c-0.426,4.41-2.4,12.906-0.393,16.706c3.293,2.507,12.004,1.217,16.285,1.166
	c0.991-4.479,3.224-13.332,2.329-17.648c17.262-0.711,34.532-1.086,51.81-1.124c0.981,5.314,1.783,10.745,3.169,15.97l-0.358,0.26
	l0.976-0.248l0.075,1.474c0.55-1.817-1.472-14.148-1.796-16.731c5.585-0.053,11.17-0.059,16.755-0.019
	c2.532-5.82,5.124-8.758,10.26-12.449c1.218-7.556,2.385-15.12,3.501-22.691l6.701,0.565c7.486,0.883,15.064,1.567,22.503,2.767
	c-1.982,2.768-6.745,15.673-6.28,19.067c0.14,1.021,0.772,1.108,1.57,1.671c7.235,1.015,14.096,4.162,21.181,5.18
	c7.68-1.666,89.458-2.168,96.831-0.605c4.002-1.199,8.065-1.673,12.217-1.979c0.499,0.625,1,1.244,1.485,1.88
	c2.273,2.973,5.813,4.735,9.531,5.116c6.19,0.633,13-0.394,19.277-0.377l0.169-0.495c3.742,1.169,9.591,0.487,13.555,0.531
	l32.379,0.509c4.803,0.085,10.195-0.372,14.921,0.39c6.066-2.787,11.521-5.195,18.283-5.45c0.264-1.527,0.189-3.156,0.219-4.706
	c0.035-1.868,0.452-4.805-0.883-6.193c11.503,0.718,23.204,0.247,34.731,0.12c3.255,0.045,8.388,0.617,11.353-0.811
	c1.964-6.103-4.311-54.874-4.246-66.314l0.006-0.463c-1.66-6.428-1.496-14.266-2.028-20.903
	c-0.592-12.077-2.447-24.207-3.393-36.284l0.509-1.027c2.454-0.759,5.384-0.42,7.939-0.398l0.491,0.082l5.732-0.081
	C713.439,769.937,720.568,769.998,727.689,769.914z"/>
<linearGradient id="SVGID_00000086692231605339978150000011912460383372432768_" gradientUnits="userSpaceOnUse" x1="677.7438" y1="225.6165" x2="707.4909" y2="257.0097" gradientTransform="matrix(1.0078 0 0 -1.0078 0.9606 1038.0291)">
	<stop  offset="0" style="stop-color:#355CC6"/>
	<stop  offset="1" style="stop-color:#4C76D4"/>
</linearGradient>
<path style="fill:url(#SVGID_00000086692231605339978150000011912460383372432768_);" d="M700.584,770.026l5.732-0.081
	c-3.212,19.517-6.295,39.054-9.25,58.611c-1.66-6.428-1.496-14.266-2.028-20.903c-0.592-12.077-2.447-24.207-3.393-36.284
	l0.509-1.027c2.454-0.759,5.384-0.42,7.939-0.398L700.584,770.026z"/>
<path style="fill:#FEFEFE;" d="M700.093,769.945l0.491,0.082c0.764,3.432-3.98,35.077-5.545,37.628
	c-0.592-12.077-2.447-24.207-3.393-36.284l0.509-1.027C694.609,769.584,697.539,769.922,700.093,769.945z"/>
<path style="fill:#011D4C;" d="M546.286,904.82c0.499,0.625,1,1.244,1.485,1.88c2.273,2.973,5.813,4.735,9.531,5.116
	c6.19,0.633,13-0.394,19.277-0.377c-0.157,6.759-1.094,13.621-1.74,20.356l-63.552-0.042c0.359-1.401,0.782-2.782,1.269-4.144
	c3.761-10.786,11.631-16.061,21.514-20.808C538.072,905.6,542.135,905.126,546.286,904.82z"/>
<linearGradient id="SVGID_00000086675863830876585100000000275390710144685461_" gradientUnits="userSpaceOnUse" x1="682.7803" y1="124.9915" x2="616.6883" y2="116.2137" gradientTransform="matrix(1.0078 0 0 -1.0078 0.9606 1038.0291)">
	<stop  offset="0" style="stop-color:#001A50"/>
	<stop  offset="1" style="stop-color:#14307B"/>
</linearGradient>
<path style="fill:url(#SVGID_00000086675863830876585100000000275390710144685461_);" d="M655.223,896.025
	c11.503,0.718,23.204,0.247,34.731,0.12c-0.25,5.431-0.638,11.336,0.073,16.729c1.637,5.866,1.184,13.215,1.867,19.346
	l-69.406,0.336c3.002-8.839,7.802-14.556,15.116-20.181c6.066-2.787,11.521-5.195,18.283-5.45c0.264-1.527,0.189-3.156,0.219-4.706
	C656.141,900.349,656.558,897.412,655.223,896.025z"/>
<path style="fill:#EC5E4E;" d="M655.223,896.025c11.503,0.718,23.204,0.247,34.731,0.12c-0.25,5.431-0.638,11.336,0.073,16.729
	c-8.342,0.194-21.387,4.039-28.988,0.365c-2.719-1.315-4.264-3.492-5.152-6.315c0.264-1.527,0.189-3.156,0.219-4.706
	C656.141,900.349,656.558,897.412,655.223,896.025z"/>
<path style="fill:#4371DB;" d="M391.562,878.153l6.701,0.565c7.486,0.883,15.064,1.567,22.503,2.767
	c-1.982,2.768-6.745,15.673-6.28,19.067c0.14,1.021,0.772,1.108,1.57,1.671c7.235,1.015,14.096,4.162,21.181,5.18
	c11.952,5.556,18.528,10.966,23.543,23.367c-28.614-0.19-57.228-0.209-85.841-0.058c0.095-6.012,0.665-11.769,2.86-17.419
	c2.532-5.82,5.124-8.758,10.26-12.449C389.279,893.288,390.446,885.725,391.562,878.153z"/>
<path style="fill:#F9A499;" d="M391.562,878.153l6.701,0.565c7.486,0.883,15.064,1.567,22.503,2.767
	c-1.982,2.768-6.745,15.673-6.28,19.067c0.14,1.021,0.772,1.108,1.57,1.671c-1.944,2.683-4.045,4.227-7.37,4.804
	c-0.505,0.083-1.012,0.141-1.523,0.172c-0.511,0.032-1.022,0.039-1.533,0.019s-1.021-0.065-1.528-0.135
	c-0.507-0.071-1.008-0.167-1.506-0.288c-0.496-0.122-0.986-0.268-1.468-0.438c-0.482-0.171-0.955-0.365-1.418-0.583
	c-0.463-0.218-0.913-0.458-1.352-0.723c-0.439-0.263-0.863-0.548-1.273-0.855c-0.554-0.42-1.097-0.855-1.629-1.304
	c-2.404-1.078-4.781-1.749-7.397-2.049C389.279,893.288,390.446,885.725,391.562,878.153z"/>
<path style="fill:#F99879;" d="M391.562,878.153l6.701,0.565c-0.611,8.057-2.789,16.109-2.805,24.174
	c-2.404-1.078-4.781-1.749-7.397-2.049C389.279,893.288,390.446,885.725,391.562,878.153z"/>
<path style="fill:#FEFEFE;" d="M727.689,769.914l42.814-0.301c6.405-0.034,13.56-0.735,19.855,0.123
	c2.886,0.028,5.772-0.004,8.657-0.096c6.662,50.188,16.85,99.833,25.129,149.756c0.701,2.672,2.318,9.297,1.561,11.904l-0.347-0.367
	l0.576-0.046l-0.422,0.272c-2.457-3.485-2.816-8.523-3.463-12.652c-13.533,0.158-27.334-0.833-40.872-1.31l-70.802-2.078
	c-0.103-14.835,2.899-29.457,4.9-44.097l7.986-61.627C724.912,796.354,727.025,783.036,727.689,769.914z"/>
<path style="fill:#122E6F;" d="M790.358,769.736c2.886,0.028,5.772-0.004,8.657-0.096c6.662,50.188,16.85,99.833,25.129,149.756
	c0.701,2.672,2.318,9.297,1.561,11.904l-0.347-0.367l0.576-0.046l-0.422,0.272c-2.457-3.485-2.816-8.523-3.463-12.652
	c-6.848-34.663-14.136-69.234-21.863-103.713C796.876,799.816,794.235,784.566,790.358,769.736z"/>
<linearGradient id="SVGID_00000160872066240503095060000005133771195357132964_" gradientUnits="userSpaceOnUse" x1="731.3391" y1="168.9058" x2="594.9456" y2="360.3782" gradientTransform="matrix(1.0078 0 0 -1.0078 0.9606 1038.0291)">
	<stop  offset="0" style="stop-color:#021F4A"/>
	<stop  offset="1" style="stop-color:#193677"/>
</linearGradient>
<path style="fill:url(#SVGID_00000160872066240503095060000005133771195357132964_);" d="M734.878,627.836
	c4.696-1.377,9.777-3.004,14.098-5.307c0.866-0.462,0.318-0.357,1.517-0.118c-0.178,1.042-0.335,0.899,0.248,1.881
	c3.847,6.481,7.227,15.818,7.333,23.429c13.963,0.907,28.623,0.002,42.224-3.21c1.714,4.641,3.422,9.264,4.875,13.994
	c5.277,17.925,10.137,35.427,0.466,52.987c-6.062,11.009-17.469,18.539-29.309,22.084c-0.191,0.057-0.387,0.102-0.58,0.152
	c4.909,1.058,15.897,1.157,20.672-0.256c4.587-1.357,6.918-3.795,9.066-7.948c8.98,9.901,19.609,22.138,25.696,34.116
	c-1.797,2.2-3.653,4.134-5.731,6.067l-0.522,0.33c-4.118,2.209-7.465,3.539-12.164,3.862c-4.57-0.204-9.174-0.178-13.751-0.259
	c-2.885,0.091-5.771,0.123-8.657,0.096c-6.295-0.858-13.45-0.157-19.855-0.123l-42.814,0.301c-7.121,0.084-14.25,0.022-21.373,0.031
	l-5.732,0.081l-0.491-0.082c-2.555-0.022-5.484-0.361-7.939,0.398l-0.509,1.027c0.946,12.078,2.802,24.208,3.393,36.284
	c0.532,6.637,0.368,14.475,2.028,20.903l-0.006,0.463c-0.065,11.44,6.21,60.211,4.246,66.314c-2.965,1.428-8.098,0.857-11.353,0.811
	c-11.527,0.127-23.228,0.598-34.731-0.12c1.335,1.388,0.918,4.325,0.883,6.193c-0.029,1.549,0.045,3.179-0.219,4.706
	c-6.761,0.255-12.217,2.664-18.283,5.45c-4.726-0.762-10.117-0.305-14.921-0.39l-32.379-0.509
	c-3.964-0.044-9.813,0.638-13.555-0.531l-0.169,0.495c-6.278-0.017-13.087,1.01-19.277,0.377c-3.718-0.381-7.258-2.143-9.531-5.116
	c-0.486-0.636-0.987-1.255-1.485-1.88c1.121-2.466,0.874-7.056,1.079-9.853c-3.9-0.366-7.825-0.427-11.739-0.542
	c1.986-11.405,6.554-23.009,9.8-34.153l18.918-65.635l19.846-68.214c3.642-12.544,6.49-26.695,12.178-38.45
	c5.146-10.636,14.284-20.535,23.422-27.874l91.846,0.108l-1.755-4.206l0.005-0.598c0.104-6.15,3.269-10.376,7.54-14.477
	c0.158-2.268,0.42-4.394-0.152-6.623l0.13-0.289c2.608,0.057,4.466-0.46,6.862-1.479
	C727.521,630.458,731.287,629.216,734.878,627.836z"/>
<path style="fill:#122E6F;" d="M688.48,734.39l16.616-0.108c-1.885,11.784-2.593,24.016-5.003,35.662
	c-2.555-0.022-5.484-0.361-7.939,0.398l-0.509,1.027c-0.248-0.506-0.188-0.251-0.181-0.888
	C691.594,758.417,688.493,746.451,688.48,734.39z"/>
<path style="fill:#EC5E4E;" d="M547.366,894.967c12.672,0.484,25.662-0.236,38.257,0.822c-1.644-0.009-4.537-0.415-5.883,0.545
	c-1.071,4.844-2.278,9.698-2.991,14.609l-0.169,0.495c-6.278-0.017-13.087,1.01-19.277,0.377c-3.718-0.381-7.258-2.143-9.531-5.116
	c-0.486-0.636-0.987-1.255-1.485-1.88C547.407,902.354,547.16,897.764,547.366,894.967z"/>
<path style="fill:#011D4C;" d="M758.074,647.72c13.963,0.907,28.623,0.002,42.224-3.21c1.714,4.641,3.422,9.264,4.875,13.994
	c-1.412,0.481-2.792,0.795-4.284,0.897c-13.387,0.916-27.164,0.344-40.603,0.477c-6.583,0.064-19.143,1.237-24.875-0.03
	l-0.465-1.097l0.32-4.164c0.198-1.523,0.26-3.511,1.414-4.648C740.821,645.86,752.659,647.568,758.074,647.72z"/>
<path style="fill:#F99879;" d="M734.878,627.836c4.696-1.377,9.777-3.004,14.098-5.307c0.866-0.462,0.318-0.357,1.517-0.118
	c-0.178,1.042-0.335,0.899,0.248,1.881c3.847,6.481,7.227,15.818,7.333,23.429c-5.415-0.152-17.253-1.86-21.394,2.218
	c-1.154,1.137-1.216,3.125-1.414,4.648l-0.32,4.164l-0.596,1.168c-1.007,0.24-1.96,0.401-2.99,0.501l-1.595-0.252l-5.849-0.028
	c-4.07-0.12-8.232-0.422-12.279,0.068l-1.755-4.206l0.005-0.598c0.104-6.15,3.269-10.376,7.54-14.477
	c0.158-2.268,0.42-4.394-0.152-6.623l0.13-0.289c2.608,0.057,4.466-0.46,6.862-1.479
	C727.521,630.458,731.287,629.216,734.878,627.836z"/>
<path style="fill:#EC5E4E;" d="M723.916,660.14c0.096-1.744,0.046-3.623,0.695-5.259c0.668,1.448,0.978,3.074,1.376,4.614
	c0.598-0.7,0.601-1.336,0.805-2.227c0.245-1.061,0.323-1.883,1.09-2.691c1.036,0.435,0.752,0.094,1.168,1.057
	c0.603,1.394,0.603,3.039,0.714,4.534L723.916,660.14z"/>
<path style="fill:#BF2F39;" d="M724.268,632.536l1.361,0.463c0.225,1.065,0.241,1.205-0.425,2.156
	c-1.504,2.149-5.295,4.797-7.775,5.773c0.158-2.268,0.42-4.394-0.152-6.623l0.13-0.289
	C720.014,634.072,721.871,633.555,724.268,632.536z"/>
<path style="fill:#FEFEFE;" d="M627.177,854.751c1.842,13.757,2.627,27.634,4.447,41.403c7.866,0.008,15.732-0.035,23.598-0.129
	c1.335,1.388,0.918,4.325,0.883,6.193c-0.029,1.549,0.045,3.179-0.219,4.706c-6.761,0.255-12.217,2.664-18.283,5.45
	c-4.726-0.762-10.117-0.305-14.921-0.39l-32.379-0.509c-3.964-0.044-9.813,0.638-13.555-0.531c0.714-4.911,1.92-9.766,2.991-14.609
	c1.345-0.96,4.239-0.554,5.883-0.545c9.666,0.237,19.436,0.805,29.099,0.652C619.598,882.834,623.034,868.604,627.177,854.751z"/>
<path style="fill:#1F439A;" d="M805.487,725.524c8.98,9.901,19.609,22.138,25.696,34.116c-1.797,2.2-3.653,4.134-5.731,6.067
	l-0.522,0.33c-4.118,2.209-7.465,3.539-12.164,3.862c-4.57-0.204-9.174-0.178-13.751-0.259c-2.885,0.091-5.771,0.123-8.657,0.096
	c-6.295-0.858-13.45-0.157-19.855-0.123l-42.814,0.301c-7.121,0.084-14.25,0.022-21.373,0.031l-5.732,0.081l-0.491-0.082
	c2.41-11.646,3.118-23.878,5.003-35.662c23.529,0.035,47.148,0.552,70.653-0.554c4.909,1.058,15.897,1.157,20.672-0.256
	C801.007,732.116,803.338,729.677,805.487,725.524z"/>
<path style="fill:#EBEAEB;" d="M608.835,228.23c0.908,7.932-1.077,31.792,0.769,36.927l1.526,0.221
	c4.421-0.56,38.726-1.339,41.34-0.438c2.918,2.571,10.435,4.352,14.327,4.961c6.503,0.511,13.109,0.269,19.631,0.247
	c13.016-0.044,26.079-0.318,39.092-0.017c1.308,1.555,2.586,3.15,3.956,4.651c-0.7,3.115-1.383,6.233-2.05,9.354
	c-4.05,20.726-6.875,41.559-10.263,62.388c-1.943,11.954-9.723,51.225-8.269,60.695c-0.759,2.782-1.046,5.233-0.869,8.111
	c0.864,2.058,1.562,3.931,3.08,5.613l0.655,0.24c-2.359,6.325-2.518,14.536-3.68,21.238c-2.385,13.757-5.145,27.439-7.474,41.218
	c-2.083,2.795-4,4.547-7.548,5.089c-7.59,1.16-16.53,0.256-24.237,0.241l-48.018,0.039c-3.619-0.009-11.922-0.967-14.91,0.19
	c-0.372-0.54-0.795-1.036-1.27-1.487c-1.204-1.165-2.557-1.244-4.142-1.356c-12.889-0.916-26.346-0.018-39.317-0.048l-84.286-0.057
	c1.345-12.203,4.061-24.556,6.043-36.695l14.848-88.361l10.066-61.366c1.886-11.325,2.846-24.507,7.072-35.154
	c11.307-0.731,23.115-0.105,34.457-0.1c19.738,0.009,39.507-0.21,59.236,0.294C608.586,252.81,607.825,240.21,608.835,228.23z"/>
<path style="fill:#9094CE;" d="M514.94,388.186c0.775,0.412,1.288,0.857,1.945,1.43c0.203,1.573-0.061,1.851-0.736,3.237
	c-0.738-0.19-1.222-0.446-1.886-0.808C513.869,390.424,514.374,389.728,514.94,388.186z"/>
<path style="fill:#9094CE;" d="M516.716,373.598c1.302,0.066,1.947,0.124,3.026,0.879c0.322,1.359,0.06,1.863-0.319,3.183
	c-1.099,0.099-1.347,0.026-2.339-0.339C516.397,375.909,516.613,375.143,516.716,373.598z"/>
<path style="fill:#B3ACD3;" d="M512.415,403.718c1.009,0.302,1.537,0.771,2.32,1.461c0.37,1.607,0.154,2.004-0.329,3.534
	c-1.074-0.217-1.624-0.432-2.489-1.108C511.546,406.075,511.992,405.216,512.415,403.718z"/>
<path style="fill:#B3ACD3;" d="M522.227,340.272c1.046,0.385,1.243,0.591,1.983,1.37c0.43,1.533,0.034,2.44-0.473,3.87
	c-1.162-0.247-1.569-0.438-2.373-1.318C520.982,342.763,521.691,341.574,522.227,340.272z"/>
<path style="fill:#B6BCDB;" d="M524.112,323.587l1.868,0.628c0.909,1.687,0.574,3.061,0.485,4.923
	c-1.012-0.168-1.647-0.377-2.53-0.901C523.309,326.595,523.821,325.299,524.112,323.587z"/>
<path style="fill:#B3ACD3;" d="M519.962,356.887c1.044,0.145,1.604,0.478,2.482,1.05c0.469,1.585,0.172,2.156-0.229,3.729
	c-1.518-0.306-2.027-0.295-3.2-1.36C518.73,358.958,519.369,358.046,519.962,356.887z"/>
<path style="fill:#D7D5E5;" d="M507.777,435.29c1.216,0.404,1.869,0.698,2.78,1.608c0.299,1.638,0.044,2.097-0.489,3.634
	c-0.384-0.016-1.065-0.032-1.426-0.106c-1.198-0.245-1.253-0.65-1.811-1.646C506.925,437.376,507.216,436.55,507.777,435.29z"/>
<path style="fill:#2A54CB;" d="M663.758,316.466c5.481-0.073,14.658-1.622,19.572,0.678c0.809,1.306,0.567,1.849,0.459,3.352
	c-6.327,0.235-13.58,0.635-19.829-0.128C663.314,318.908,663.596,318.036,663.758,316.466z"/>
<path style="fill:#2A54CB;" d="M655.989,387.102c6.054,0.085,30.164-1.003,34.358,0.717c0.67,1.49,0.419,2.233,0.25,3.835
	c-5.116-0.025-32.318,1.126-34.601-0.747C655.432,389.287,655.664,388.749,655.989,387.102z"/>
<path style="fill:#2A54CB;" d="M658.669,373.558c4.354-0.022,32.205-0.802,34.192,0.26c0.359,0.191,0.609,0.538,0.913,0.807
	c0.305,1.377-0.1,2.092-0.602,3.354c-10.562,0.038-21.592,0.749-32.1,0.048c-1.776-0.118-2.168-0.066-3.349-1.388
	C657.712,375.112,657.877,374.886,658.669,373.558z"/>
<path style="fill:#2A54CB;" d="M570.272,316.198c16.59-0.081,33.18-0.076,49.771,0.013c6.465,0.029,14.025-0.765,20.354,0.134
	c1.19,0.169,1.545,0.401,2.425,1.146c-0.033,0.739,0.121,1.051-0.439,1.627c-2.995,3.071-24.536,1.594-29.7,1.526l-44.173-0.18
	c-8.2,0.026-17.205,0.831-25.317-0.153c-1.483-0.18-3.122-0.428-4.106-1.65l0.146-1.014c0.879-0.734,1.224-1.049,2.396-1.228
	C548.018,315.443,562.96,316.216,570.272,316.198z"/>
<path style="fill:#4371DB;" d="M528.19,387.526l71.075-0.076c9.529-0.009,22.546-0.874,31.599-0.11
	c1.335,0.113,1.658,0.263,2.68,1.056c0.2,1.484-0.05,1.879-0.6,3.235c-23.232,0.871-46.746,0.145-70.003,0.167
	c-7.818,0.008-27.895,1.007-34.163-0.373C527.942,389.967,528.15,389.183,528.19,387.526z"/>
<path style="fill:#2A54CB;" d="M530.53,373.823l70.59,0.097c10.919-0.006,21.95-0.416,32.854-0.09
	c1.522,0.045,2.426-0.084,3.468,1.074c0.125,1.417-0.117,2.073-0.64,3.35c-22.205,0.243-44.434-0.032-66.64-0.107
	c-12.321-0.041-25.097,0.622-37.373-0.197c-0.833-0.056-1.348-0.263-2.042-0.716C530.122,375.754,530.286,375.368,530.53,373.823z"
	/>
<path style="fill:#F99879;" d="M526.26,402.615l69.547-0.04c0.058,2.334,0.513,5.444-1.217,7.271
	c-22.809-0.094-45.737,0.419-68.526-0.366c-0.853-0.696-1.15-1.021-1.397-2.179C524.321,405.679,525.462,403.917,526.26,402.615z"/>
<path style="fill:#2A54CB;" d="M521.203,433.932c27.105-0.662,54.376-0.028,81.5-0.038c6.499-0.003,27.949-0.925,32.668,0.221
	c1.3,0.315,1.586,0.705,2.2,1.838c-0.174,1.383-0.519,1.994-1.259,3.127c-8.517,0.731-17.444,0.212-26,0.217l-48.029,0.005
	c-7.162-0.002-34.91,0.881-40.215-0.337c-1.294-0.296-1.433-0.547-2.035-1.602C520.076,435.779,520.381,435.216,521.203,433.932z"/>
<path style="fill:#2A54CB;" d="M542.287,302.385c17.881-0.033,159.931-0.736,162.596,0.466l0.273,1.049
	c-0.448,1.536-0.378,1.69-1.661,2.604c-34.507,0.538-69.118,0.14-103.637,0.108l-37.045-0.018
	c-6.409,0.005-12.996,0.354-19.379-0.025c-1.173-0.07-1.637-0.243-2.428-1.141C541.118,303.927,541.456,303.598,542.287,302.385z"/>
<path style="fill:#2A54CB;" d="M675.585,420.007c3.329-0.108,9.024-1.016,11.734,0.993c0.119,1.291,0.002,1.252-0.787,2.306
	c-1.492,0.748-2.86,1.063-4.533,1.147c-5.209,0.26-10.555-0.122-15.776-0.15c-8.696-0.046-17.4,0.078-26.097,0.127l-105.688,0.129
	c-3.32,0.034-7.537,0.464-10.761-0.317c-1.166-0.282-1.28-0.415-1.87-1.381c0.11-0.393,0.061-0.332,0.461-0.768
	c1.146-1.252,3.113-1.77,4.753-1.927c4.175-0.401,8.801,0.096,13.03,0.095l32.276-0.033L675.585,420.007z"/>
<path style="fill:#D7D5E5;" d="M537.475,270.602c12.037-1.518,30.128-0.55,42.663-0.551c28.887,0.189,57.774,0.139,86.66-0.15
	c6.503,0.511,13.109,0.269,19.631,0.247c13.016-0.044,26.079-0.318,39.092-0.017c1.308,1.555,2.586,3.15,3.956,4.651
	c-0.7,3.115-1.383,6.233-2.05,9.354c-2.758-3.654-38.734,0.736-42.762-1.562c-1.489-0.85-3.968-0.368-5.771-0.538l0.374-0.409
	l3.326,0.111l0.136-0.494c-3.307-3.558-9.156-8.876-13.926-10.175c-4.03-1.099-15.185,0.298-20.189,0.312l-75.524-0.043
	C564.623,271.332,545.052,272.414,537.475,270.602z"/>
<path style="fill:#F99879;" d="M568.837,328.807c4.415-0.033,20.184-1.436,23.12,0.419c0.892,6.906-3.342,25.285-4.638,32.973
	l-29.875,0.017c-3.727,0.012-21.756,0.918-23.886-1.01c-0.966-7.471,2.865-24.203,4.483-32.104
	C548.255,328.672,558.608,328.889,568.837,328.807z"/>
<linearGradient id="SVGID_00000026874252670168214260000011853403743967923853_" gradientUnits="userSpaceOnUse" x1="454.3226" y1="630.4528" x2="687.0106" y2="683.9328" gradientTransform="matrix(1.0078 0 0 -1.0078 0.9606 1038.0291)">
	<stop  offset="0" style="stop-color:#D3D0D8"/>
	<stop  offset="1" style="stop-color:#C0C2DF"/>
</linearGradient>
<path style="fill:url(#SVGID_00000026874252670168214260000011853403743967923853_);" d="M608.835,228.23
	c0.908,7.932-1.077,31.792,0.769,36.927l1.526,0.221c4.421-0.56,38.726-1.339,41.34-0.438c2.918,2.571,10.435,4.352,14.327,4.961
	c-28.886,0.289-57.772,0.339-86.66,0.15c-12.534,0.001-30.625-0.966-42.663,0.551c-6.227,0.035-12.453,0.031-18.68-0.011
	c-2.696,11.397-3.93,23.152-5.989,34.68l-20.189,119.682c-2.696,15.53-4.625,31.411-8.245,46.752
	c70.988,0.526,142.049-0.289,213.02,0.761c4.62-18.825,6.05-38.379,10.634-57.136c0.864,2.058,1.562,3.931,3.08,5.613l0.655,0.24
	c-2.359,6.325-2.518,14.536-3.68,21.238c-2.385,13.757-5.145,27.439-7.474,41.218c-2.083,2.795-4,4.547-7.548,5.089
	c-7.59,1.16-16.53,0.256-24.237,0.241l-48.018,0.039c-3.619-0.009-11.922-0.967-14.91,0.19c-0.372-0.54-0.795-1.036-1.27-1.487
	c-1.204-1.165-2.557-1.244-4.142-1.356c-12.889-0.916-26.346-0.018-39.317-0.048l-84.286-0.057
	c1.345-12.203,4.061-24.556,6.043-36.695l14.848-88.361l10.066-61.366c1.886-11.325,2.846-24.507,7.072-35.154
	c11.307-0.731,23.115-0.105,34.457-0.1c19.738,0.009,39.507-0.21,59.236,0.294C608.586,252.81,607.825,240.21,608.835,228.23z"/>
<path style="fill:#122E6F;" d="M442.475,659.795l117.514-0.154l37.97,0.164c7.239,0.031,14.621-0.267,21.832,0.294
	c-9.139,7.339-18.277,17.238-23.422,27.874c-5.688,11.755-8.536,25.906-12.178,38.45l-19.846,68.214l-18.918,65.635
	c-3.246,11.143-7.814,22.747-9.8,34.153c3.914,0.115,7.839,0.176,11.739,0.542c-0.206,2.798,0.041,7.387-1.079,9.853
	c-4.151,0.306-8.215,0.78-12.217,1.979c-7.373-1.563-89.152-1.061-96.831,0.605c-7.085-1.018-13.946-4.165-21.181-5.18
	c-0.798-0.563-1.43-0.65-1.57-1.671c-0.466-3.393,4.297-16.298,6.28-19.067c-7.44-1.2-15.017-1.885-22.503-2.767l-6.701-0.565
	c-1.116,7.571-2.283,15.135-3.501,22.691c-5.137,3.692-7.729,6.629-10.26,12.449c-5.585-0.04-11.17-0.034-16.755,0.019
	c0.324,2.583,2.346,14.914,1.796,16.731l-0.075-1.474l-0.976,0.248l0.358-0.26c-1.386-5.224-2.188-10.656-3.169-15.97
	c-17.277,0.038-34.547,0.412-51.81,1.124c0.895,4.315-1.338,13.169-2.329,17.648c-4.281,0.051-12.993,1.341-16.285-1.166
	c-2.007-3.8-0.033-12.296,0.393-16.706c0.763-0.946,0.881-1.622,0.997-2.796c0.542-5.454,0.572-11.031,0.904-16.51l2.515-39.015
	c2.008-27.712,4.914-55.552,6.017-83.305c-16.888-0.04-34.176-0.836-51.011,0.106c-2.337-0.043-8.543-0.768-10.208,0.571
	c-2.204-1.258-6.216-0.635-8.713-0.595c-5.766-0.017-12.263,0.686-17.86-0.843c-5.785-1.58-8.975-5.545-11.79-10.517
	c-0.473-1.857-1.068-3.837-1.126-5.76c-0.155-5.094,1.718-11.076,5.396-14.7c8.632-8.506,23.176-4.365,33.916-4.399
	c0.249-0.001,0.497-0.007,0.745-0.01c-0.697-1.839-2.096-3.52-3.071-5.251c-3.698-6.572-6.516-13.375-6.411-21.011
	c0.044-6.837,4.259-15.178,7.744-20.877c7.508,2.452,66.14,1.55,78.009,1.28l14.518-0.024c9.14-0.02,18.807,0.877,27.874,0.058
	c5.762-0.52,9.128-2.978,12.636-7.32c1.541-3.821,1.183-8.232,1.199-12.274l0.102-10.163l58.273-0.29L442.475,659.795z"/>
<path style="fill:#011D4C;" d="M408.926,737.814c0.178-0.047,0.356-0.097,0.534-0.141c6.013-1.523,12.2-1.806,18.223-3.507
	c6.438-1.818,12.211-5.055,18.478-7.187c-6.907,6.752-17.933,11.23-23.262,18.617c-7.856,10.892-22.29,95.195-25.22,113.628
	c-0.586,3.688-1.561,15.747-3.788,18.186c-0.341,0.374-1.971,0.462-2.466,0.506c-1.403-0.15-2.426-0.292-3.7-0.974
	c-1.174-6.255,1.241-20.928,1.869-27.831c1.737-20.869,3.877-41.697,6.418-62.484c1.205-9.93,1.961-20.358,4.337-30.066
	C402.041,749.65,405.164,743.801,408.926,737.814z"/>
<path style="fill:#011D4C;" d="M329.52,689.833c9.14-0.02,18.807,0.877,27.874,0.058c5.762-0.52,9.128-2.978,12.636-7.32
	c9.057,1.419,20.852,1.959,26.839,9.949c3.123,4.167,3.891,9.289,3.075,14.345c-1.649,10.224-7.238,22.383-13.067,30.899
	l-5.536-0.316c-2.766-1.421-33.99-0.798-39.502-0.806c-0.983-0.09-2.271-0.08-3.199-0.38c-0.075-0.024-0.941-0.427-1.033-0.646
	c-0.346-0.828,1.091-9.661,0.861-11.926C337.253,711.781,333.828,700.921,329.52,689.833z"/>
<path style="fill:#FEFEFE;" d="M381.34,737.449l5.536,0.316c7.35,0.253,14.7,0.269,22.05,0.048
	c-3.762,5.987-6.885,11.837-8.577,18.747c-2.375,9.708-3.131,20.136-4.337,30.066c-2.541,20.787-4.68,41.615-6.418,62.484
	c-0.629,6.903-3.044,21.575-1.869,27.831c1.274,0.681,2.297,0.823,3.7,0.974l0.138,0.238c-1.116,7.571-2.283,15.135-3.501,22.691
	c-5.137,3.692-7.729,6.629-10.26,12.449c-5.585-0.04-11.17-0.034-16.755,0.019c0.324,2.583,2.346,14.914,1.796,16.731l-0.075-1.474
	l-0.976,0.248l0.358-0.26c-1.386-5.224-2.188-10.656-3.169-15.97c-2.069-7.852-3.434-16.009-5.044-23.971l-8.052-39.343
	l-9.499-46.961c-1.927-9.677-4.111-19.403-5.451-29.179c2.498-1.407,5.704-0.466,8.498-1.137
	c11.597-1.667,23.933,1.062,35.596-0.354c4.72-0.572,9.229-2.407,12.149-6.313c2.959-3.96,3.877-9.541,3.181-14.363
	c-1.2-8.314-4.322-8.636-9.966-13L381.34,737.449z"/>
<path style="fill:#122E6F;" d="M330.935,773.133c2.498-1.407,5.704-0.466,8.498-1.137c8.075,46.953,13.065,94.467,21.613,141.316
	c0.324,2.583,2.346,14.914,1.796,16.731l-0.075-1.474l-0.976,0.248l0.358-0.26c-1.386-5.224-2.188-10.656-3.169-15.97
	c-2.069-7.852-3.434-16.009-5.044-23.971l-8.052-39.343l-9.499-46.961C334.459,792.635,332.275,782.909,330.935,773.133z"/>
<path style="fill:#FEFEFE;" d="M328.368,771.591l1.875,0.407l0.692,1.135c1.34,9.776,3.524,19.502,5.451,29.179l9.499,46.961
	l8.052,39.343c1.61,7.962,2.975,16.119,5.044,23.971c-17.277,0.038-34.547,0.412-51.81,1.124c0.895,4.315-1.338,13.169-2.329,17.648
	c-4.281,0.051-12.993,1.341-16.285-1.166c-2.007-3.8-0.033-12.296,0.393-16.706c0.763-0.946,0.881-1.622,0.997-2.796
	c0.542-5.454,0.572-11.031,0.904-16.51l2.515-39.015c2.008-27.712,4.914-55.552,6.017-83.305
	C307.868,771.883,320.3,772.837,328.368,771.591z"/>
<path style="fill:#EBEAEB;" d="M299.382,771.861c8.486,0.022,20.918,0.977,28.986-0.269c-4.296,15.201-6.249,37.476-8.375,53.81
	c-2.456,17.694-5.074,35.364-7.853,53.01c-0.52,3.518-5.521,33.662-5.487,33.936c0.06,0.483,0.346,0.909,0.518,1.364
	c0.895,4.315-1.338,13.169-2.329,17.648c-4.281,0.051-12.993,1.341-16.285-1.166c-2.007-3.8-0.033-12.296,0.393-16.706
	c0.763-0.946,0.881-1.622,0.997-2.796c0.542-5.454,0.572-11.031,0.904-16.51l2.515-39.015
	C295.373,827.453,298.28,799.613,299.382,771.861z"/>
<path style="fill:#1F439A;" d="M236.993,688.577c7.508,2.452,66.14,1.55,78.009,1.28l14.518-0.024
	c4.308,11.088,7.733,21.948,8.947,33.857c0.231,2.266-1.206,11.098-0.861,11.926c0.092,0.219,0.958,0.622,1.033,0.646
	c0.928,0.3,2.216,0.29,3.199,0.38c5.512,0.008,36.736-0.615,39.502,0.806l-0.948,0.518c5.644,4.364,8.766,4.685,9.966,13
	c0.696,4.822-0.222,10.404-3.181,14.363c-2.92,3.906-7.43,5.74-12.149,6.313c-11.662,1.416-23.999-1.313-35.596,0.354
	c-2.794,0.671-6-0.27-8.498,1.137l-0.692-1.135l-1.875-0.407c-8.068,1.246-20.5,0.291-28.986,0.269
	c-16.888-0.04-34.176-0.836-51.011,0.106c-2.337-0.043-8.543-0.768-10.208,0.571c-2.204-1.258-6.216-0.635-8.713-0.595
	c-5.766-0.017-12.263,0.686-17.86-0.843c-5.785-1.58-8.975-5.545-11.79-10.517c-0.473-1.857-1.068-3.837-1.126-5.76
	c-0.155-5.094,1.718-11.076,5.396-14.7c8.632-8.506,23.176-4.365,33.916-4.399c0.249-0.001,0.497-0.007,0.745-0.01
	c-0.697-1.839-2.096-3.52-3.071-5.251c-3.698-6.572-6.516-13.375-6.411-21.011C229.293,702.617,233.508,694.276,236.993,688.577z"/>
<path style="fill:#122E6F;" d="M236.993,688.577c7.508,2.452,66.14,1.55,78.009,1.28l14.518-0.024
	c4.308,11.088,7.733,21.948,8.947,33.857c0.231,2.266-1.206,11.098-0.861,11.926c0.092,0.219,0.958,0.622,1.033,0.646
	c0.928,0.3,2.216,0.29,3.199,0.38c-7.351,0.56-100.592-0.107-103.108-0.927c-0.697-1.839-2.096-3.52-3.071-5.251
	c-3.698-6.572-6.516-13.375-6.411-21.011C229.293,702.617,233.508,694.276,236.993,688.577z"/>
<path style="fill:#FEFEFE;" d="M442.475,659.795l117.514-0.154l37.97,0.164c7.239,0.031,14.621-0.267,21.832,0.294
	c-9.139,7.339-18.277,17.238-23.422,27.874c-5.688,11.755-8.536,25.906-12.178,38.45l-19.846,68.214l-18.918,65.635
	c-3.246,11.143-7.814,22.747-9.8,34.153c3.914,0.115,7.839,0.176,11.739,0.542c-0.206,2.798,0.041,7.387-1.079,9.853
	c-4.151,0.306-8.215,0.78-12.217,1.979c-7.373-1.563-89.152-1.061-96.831,0.605c-7.085-1.018-13.946-4.165-21.181-5.18
	c-0.798-0.563-1.43-0.65-1.57-1.671c-0.466-3.393,4.297-16.298,6.28-19.067c3.277-4.69,5.627-16.996,7.484-22.83
	c6.12-19.011,12.115-38.061,17.983-57.151c4.134-13.431,7.961-27.154,12.755-40.364c4.821,0.585,11.104,1.283,15.817,0.152
	c-5.202-0.719-10.587-0.608-15.834-0.734c2.501-9.026,4.953-18.094,6.724-27.297c2.155-11.188,5.399-30.168-1.805-40.254
	c-1.714-2.4-3.951-4.13-6.698-5.187c-5.813-2.239-12.668-2.715-18.762-4.063c-22.339-4.794-44.74-9.282-67.202-13.462l0.102-10.163
	l58.273-0.29L442.475,659.795z"/>
<path style="fill:#EBEAEB;" d="M557.337,693.396c1.304-0.067,2.648-0.159,3.938,0.101c2.181,0.442,4.237,1.852,5.445,3.719
	c1.265,1.955,1.553,4.18,0.988,6.426c-0.738,2.937-2.701,4.531-5.141,6.103c-1.285,0.103-2.652,0.259-3.93,0.048
	c-2.244-0.368-4.364-1.668-5.684-3.519c-1.326-1.859-1.673-4.24-1.18-6.445C552.523,696.47,554.525,695.09,557.337,693.396z"/>
<path style="fill:#F99879;" d="M494.369,836.494c1.314-0.134,2.666-0.213,3.961,0.117c2.433,0.618,4.784,2.31,5.935,4.564
	c1.086,2.13,1.189,4.523,0.422,6.773c-1.067,3.132-3.444,4.588-6.291,5.936c-1.521,0.113-3.273,0.094-4.741-0.352
	c-2.208-0.67-4.17-2.207-5.242-4.264c-0.131-0.255-0.249-0.515-0.354-0.782c-0.104-0.266-0.195-0.537-0.271-0.813
	c-0.076-0.276-0.138-0.555-0.185-0.838c-0.048-0.283-0.081-0.567-0.099-0.853c-0.018-0.285-0.021-0.571-0.01-0.858
	c0.011-0.286,0.038-0.571,0.079-0.855c0.04-0.284,0.095-0.564,0.165-0.842c0.07-0.278,0.154-0.552,0.252-0.82
	C489.164,839.404,491.386,837.869,494.369,836.494z"/>
</svg>
