<svg width="512" height="512" viewBox="0 0 512 512" fill="none" xmlns="http://www.w3.org/2000/svg">
<path d="M512 334.188C512 315.453 501.453 298.712 485.348 290.403C480.299 264.882 459.495 254.15 446.53 251.585C431.952 222.468 391.463 215.899 368.467 238.858C356.839 227.141 337.549 221.868 321.053 226.714L221.731 94.267H223.867C232.151 94.267 238.867 87.551 238.867 79.267V62.133H289.2V79.266C289.2 87.55 295.916 94.266 304.2 94.266H368.467C376.751 94.266 383.467 87.55 383.467 79.266V15C383.467 6.716 376.751 0 368.467 0H304.2C295.916 0 289.2 6.716 289.2 15V32.133H238.867V15C238.867 6.716 232.151 0 223.867 0H159.6C151.316 0 144.6 6.716 144.6 15V32.133H94.267V15C94.267 6.716 87.551 0 79.267 0H15C6.716 0 0 6.716 0 15V79.267C0 87.551 6.716 94.267 15 94.267H79.267C87.551 94.267 94.267 87.551 94.267 79.267V62.133H144.6V79.266C144.6 87.55 151.316 94.266 159.6 94.266H161.733L35.133 263.066C30.654 269.038 31.248 277.394 36.527 282.672L75.187 321.332H63.2C54.916 321.332 48.2 328.048 48.2 336.332V400.534C48.2 408.818 54.916 415.534 63.2 415.534H80.333V497C80.333 505.284 87.049 512 95.333 512H288.133C295.17 512 301.058 507.148 302.677 500.612C321.224 516.675 351.388 515.389 368.466 498.076C391.471 521.042 431.958 514.455 446.529 485.348C472.013 480.306 482.773 459.534 485.346 446.531C514.459 431.958 521.029 391.468 498.091 368.468C506.697 359.591 512 347.498 512 334.188ZM319.2 30H353.467V64.267H319.2V30ZM64.267 64.267H30V30H64.267V64.267ZM174.6 30H208.867V64.267H174.6V30ZM208.867 239.933C208.867 249.381 201.181 257.067 191.734 257.067C169.005 256.126 169.011 223.738 191.734 222.8C201.181 222.8 208.867 230.486 208.867 239.933ZM66.939 270.659L176.733 124.266V195.261C126.85 212.865 138.19 286.016 191.734 287.067C245.285 286.012 256.609 212.856 206.733 195.261V124.271L295.899 243.176C293.801 245.764 291.955 248.577 290.403 251.585C277.439 254.15 256.634 264.882 251.585 290.403C239.284 296.75 230.232 308.017 226.639 321.333H117.613L66.939 270.659ZM78.2 385.536V351.334H228.02C230.423 357.788 234.133 363.611 238.84 368.467C234.148 373.307 230.449 379.108 228.044 385.536H78.2ZM273.133 482H110.333V415.536H226.622C230.203 428.88 239.264 440.173 251.586 446.53C253.477 456.087 259.801 469.835 273.133 478.455V482ZM334.188 323.482C341.026 323.482 347.542 322.08 353.466 319.552V353.467H334.188C314.286 354.26 314.301 382.682 334.188 383.467H353.466V417.382C347.541 414.854 341.026 413.452 334.188 413.452C314.287 414.245 314.299 442.665 334.188 443.452C359.764 444.508 359.754 480.945 334.188 482C325.386 482 317.711 476.053 315.523 467.537C313.777 460.739 307.546 456.053 300.533 456.276C289.361 456.624 280.314 447.541 280.657 436.4C280.873 429.384 276.195 423.156 269.397 421.41C247.656 415.336 251.655 383.941 274.212 383.467C282.496 383.467 289.212 376.751 289.212 368.467C289.212 360.183 282.496 353.467 274.212 353.467C251.618 352.94 247.655 321.642 269.397 315.523C276.195 313.776 280.874 307.549 280.657 300.533C280.312 289.32 289.424 280.319 300.533 280.657C307.52 280.877 313.776 276.195 315.523 269.396C317.711 260.88 325.386 254.933 334.188 254.933C344.818 254.933 353.466 263.581 353.466 274.211C353.466 284.837 344.818 293.482 334.188 293.482C314.294 294.269 314.295 322.696 334.188 323.482ZM462.722 383.467C485.296 383.943 489.26 415.355 467.537 421.41C460.739 423.157 456.06 429.384 456.277 436.4C456.62 447.541 447.573 456.624 436.401 456.276C429.388 456.053 423.157 460.738 421.411 467.537C419.223 476.053 411.548 482 402.746 482C377.171 480.938 377.177 444.506 402.746 443.452C422.639 442.665 422.641 414.24 402.746 413.452C395.908 413.452 389.393 414.854 383.468 417.382V383.467H402.746C422.648 382.674 422.633 354.252 402.746 353.467H383.468V319.552C389.393 322.08 395.908 323.482 402.746 323.482C411.03 323.482 417.746 316.766 417.746 308.482C417.746 300.198 411.03 293.482 402.746 293.482C392.116 293.482 383.468 284.837 383.468 274.211C383.468 263.581 392.116 254.933 402.746 254.933C411.548 254.933 419.224 260.88 421.411 269.396C423.158 276.195 429.414 280.876 436.401 280.657C447.511 280.319 456.623 289.32 456.277 300.533C456.061 307.549 460.739 313.777 467.537 315.523C489.272 321.59 485.283 352.994 462.722 353.467C442.829 354.253 442.826 382.679 462.722 383.467Z" fill="black"/>
</svg>
