<svg width="56" height="44" viewBox="0 0 56 44" fill="none" xmlns="http://www.w3.org/2000/svg">
<path d="M51.2225 0H4.7775C2.1432 0 0 2.12443 0 4.73566V39.2643C0 41.8756 2.1432 44 4.7775 44H51.2225C53.8568 44 56 41.8756 56 39.2643V4.73566C56 2.12443 53.8568 0 51.2225 0ZM54.1858 39.2643C54.1858 40.884 52.8565 42.2017 51.2225 42.2017H4.7775C3.14355 42.2017 1.8142 40.884 1.8142 39.2643V9.47143H54.1857V39.2643H54.1858ZM54.1858 7.673H1.8142V4.73566C1.8142 3.11602 3.14355 1.79831 4.7775 1.79831H51.2225C52.8565 1.79831 54.1858 3.11602 54.1858 4.73566V7.673Z" fill="black"/>
<path d="M6.71269 3.83594H5.74505C5.24411 3.83594 4.83789 4.23849 4.83789 4.73515C4.83789 5.2317 5.244 5.63436 5.74505 5.63436H6.71269C7.21362 5.63436 7.61984 5.23181 7.61984 4.73515C7.61973 4.23849 7.21362 3.83594 6.71269 3.83594Z" fill="black"/>
<path d="M10.5838 3.83594H9.61614C9.1152 3.83594 8.70898 4.23849 8.70898 4.73515C8.70898 5.2317 9.11509 5.63436 9.61614 5.63436H10.5838C11.0847 5.63436 11.4909 5.23181 11.4909 4.73515C11.4909 4.23849 11.0848 3.83594 10.5838 3.83594Z" fill="black"/>
<path d="M14.4529 3.83594H13.4853C12.9843 3.83594 12.5781 4.23849 12.5781 4.73515C12.5781 5.2317 12.9842 5.63436 13.4853 5.63436H14.4529C14.9539 5.63436 15.3601 5.23181 15.3601 4.73515C15.3601 4.23849 14.9539 3.83594 14.4529 3.83594Z" fill="black"/>
<path d="M14.6907 25.8379L20.9413 18.757C21.2711 18.3832 21.2329 17.8152 20.8558 17.4881C20.4788 17.1611 19.9058 17.1989 19.5758 17.5728L12.8026 25.2458C12.5033 25.5848 12.5033 26.091 12.8026 26.43L19.5758 34.103C19.7552 34.3061 20.0064 34.4101 20.2589 34.4101C20.471 34.4101 20.6838 34.3368 20.8558 34.1877C21.2329 33.8606 21.271 33.2926 20.9413 32.9189L14.6907 25.8379Z" fill="black"/>
<path d="M43.1972 25.2455L36.4239 17.5727C36.0939 17.199 35.5209 17.1611 35.1439 17.488C34.7669 17.8151 34.7287 18.3831 35.0585 18.7568L41.309 25.8378L35.0585 32.9187C34.7285 33.2925 34.7668 33.8604 35.1439 34.1875C35.316 34.3368 35.5289 34.4099 35.7409 34.4099C35.9933 34.4099 36.2446 34.3059 36.4239 34.1028L43.1972 26.4298C43.4964 26.0907 43.4964 25.5845 43.1972 25.2455Z" fill="black"/>
<path d="M32.2229 16.3753C31.7609 16.1827 31.2291 16.3976 31.0348 16.855L23.294 35.0785C23.0996 35.5362 23.3162 36.0634 23.7778 36.2562C23.8929 36.3041 24.0121 36.3269 24.1295 36.3269C24.4835 36.3269 24.8199 36.1201 24.966 35.7765L32.7068 17.5531C32.9013 17.0953 32.6846 16.568 32.2229 16.3753Z" fill="black"/>
</svg>
