<svg width="512" height="402" viewBox="0 0 512 402" fill="none" xmlns="http://www.w3.org/2000/svg">
<path d="M117.362 122.367C111.304 120.568 104.921 124.021 103.12 130.086L94.6646 158.548C92.8636 164.613 96.3186 170.989 102.384 172.79C103.472 173.113 104.57 173.267 105.651 173.267C110.589 173.267 115.149 170.047 116.627 165.071L125.082 136.609C126.882 130.545 123.427 124.168 117.362 122.367Z" fill="black"/>
<path d="M73.1384 148.265L80.8634 130.411C83.3754 124.605 80.7044 117.861 74.8984 115.35C69.0934 112.839 62.3484 115.509 59.8374 121.315L50.1444 143.717C48.8894 146.619 48.8894 149.912 50.1444 152.814L59.8374 175.215C61.7084 179.54 65.9264 182.124 70.3564 182.124C71.8734 182.124 73.4184 181.82 74.8994 181.179C80.7064 178.666 83.3754 171.923 80.8644 166.118L73.1384 148.265Z" fill="black"/>
<path d="M159.506 121.315C156.993 115.508 150.251 112.84 144.445 115.35C138.639 117.862 135.969 124.606 138.48 130.411L146.205 148.265L138.48 166.118C135.968 171.924 138.638 178.667 144.445 181.179C145.927 181.82 147.469 182.124 148.988 182.124C153.418 182.124 157.636 179.539 159.507 175.215L169.2 152.814C170.455 149.912 170.455 146.619 169.2 143.717L159.506 121.315Z" fill="black"/>
<path d="M53.9052 62.9744C61.2439 62.9744 67.1932 57.0812 67.1932 49.8114C67.1932 42.5417 61.2439 36.6484 53.9052 36.6484C46.5664 36.6484 40.6172 42.5417 40.6172 49.8114C40.6172 57.0812 46.5664 62.9744 53.9052 62.9744Z" fill="black"/>
<path d="M101.89 62.9744C109.228 62.9744 115.178 57.0812 115.178 49.8114C115.178 42.5417 109.228 36.6484 101.89 36.6484C94.5508 36.6484 88.6016 42.5417 88.6016 49.8114C88.6016 57.0812 94.5508 62.9744 101.89 62.9744Z" fill="black"/>
<path d="M399.518 62.9744C406.857 62.9744 412.806 57.0812 412.806 49.8114C412.806 42.5417 406.857 36.6484 399.518 36.6484C392.18 36.6484 386.23 42.5417 386.23 49.8114C386.23 57.0812 392.18 62.9744 399.518 62.9744Z" fill="black"/>
<path d="M472.957 124.377H453.423V30.578C453.423 13.717 439.706 0 422.845 0H30.579C13.717 0.001 0 13.717 0 30.578V309.252C0 326.113 13.717 339.83 30.579 339.83H165.762V374.191H161.08C153.776 374.191 147.855 380.112 147.855 387.416C147.855 394.72 153.775 400.641 161.08 400.641H292.342C299.646 400.641 305.567 394.721 305.567 387.416C305.567 380.111 299.646 374.191 292.342 374.191H287.661V339.83H317.127V362.08C317.127 383.609 334.641 401.123 356.171 401.123H472.956C494.485 401.123 511.999 383.609 511.999 362.08V163.42C512 141.891 494.486 124.377 472.957 124.377ZM26.451 30.578C26.451 28.302 28.302 26.451 30.579 26.451H422.845C425.121 26.451 426.972 28.302 426.972 30.578V70.521H26.451V30.578ZM261.212 374.191H192.212V339.83H261.212V374.191ZM317.128 163.42V313.38H30.579C28.302 313.38 26.451 311.528 26.451 309.252V96.971H426.972V124.377H356.172C334.642 124.377 317.128 141.891 317.128 163.42ZM485.55 362.08C485.55 369.024 479.9 374.674 472.956 374.674H356.172C349.227 374.674 343.577 369.024 343.577 362.08V356.121H485.55V362.08ZM485.55 329.672H343.577V163.42C343.577 156.476 349.227 150.826 356.172 150.826H472.957C479.901 150.826 485.551 156.476 485.551 163.42V329.672H485.55Z" fill="black"/>
<path d="M407.377 228.366C408.524 228.673 409.674 228.82 410.807 228.82C416.646 228.82 421.991 224.922 423.574 219.014L431.489 189.471C433.379 182.416 429.192 175.164 422.136 173.274C415.081 171.385 407.828 175.571 405.939 182.627L398.024 212.17C396.135 219.224 400.321 226.476 407.377 228.366Z" fill="black"/>
<path d="M382.562 165.956C375.761 163.3 368.09 166.664 365.435 173.469L356.362 196.722C355.156 199.813 355.156 203.245 356.362 206.336L365.435 229.589C367.474 234.815 372.468 238.012 377.758 238.011C379.357 238.011 380.983 237.719 382.562 237.102C389.367 234.447 392.73 226.779 390.075 219.975L382.878 201.529L390.075 183.083C392.73 176.279 389.366 168.611 382.562 165.956Z" fill="black"/>
</svg>
